<svg width="150" height="132" xmlns="http://www.w3.org/2000/svg" xmlns:xlink="http://www.w3.org/1999/xlink" xmlns:svgjs="http://svgjs.com/svgjs" viewBox="442 770 150 132"><svg width="100" height="28" xmlns="http://www.w3.org/2000/svg" xmlns:xlink="http://www.w3.org/1999/xlink" xmlns:svgjs="http://svgjs.com/svgjs" viewBox="0 0.167 100 27.667" opacity=".102" x="473" y="874"><svg xmlns="http://www.w3.org/2000/svg" xmlns:xlink="http://www.w3.org/1999/xlink" width="100" height="28" viewBox="0.139 0.179 98.936 27.372"><path paint-order="stroke fill markers" fill-rule="evenodd" d="M51.386 1.325c28.173 0 47.689-4.084 47.689 3.167 0 7.252-22.133 23.06-50.306 23.06S.14 15.535.14 8.284c0-7.252 23.074-6.96 51.247-6.96z"/></svg></svg><svg width="16" height="7" xmlns="http://www.w3.org/2000/svg" xmlns:xlink="http://www.w3.org/1999/xlink" xmlns:svgjs="http://svgjs.com/svgjs" viewBox="0 0.656 16 5.689" opacity=".102" x="576" y="874"><svg xmlns="http://www.w3.org/2000/svg" xmlns:xlink="http://www.w3.org/1999/xlink" width="16" height="7" viewBox="0.679 0.86 14.93 5.309"><path paint-order="stroke fill markers" fill-rule="evenodd" d="M8.144 6.168C4.016 6.168.68 4.982.68 3.514S4.016.86 8.144.86s7.465 1.186 7.465 2.654-3.337 2.654-7.465 2.654z"/></svg></svg><svg width="3" height="22" xmlns="http://www.w3.org/2000/svg" xmlns:xlink="http://www.w3.org/1999/xlink" xmlns:svgjs="http://svgjs.com/svgjs" viewBox="0.369 0 2.262 22" fill="none" stroke-miterlimit="100" stroke="#535461" stroke-width="2" x="582" y="856"><svg xmlns="http://www.w3.org/2000/svg" xmlns:xlink="http://www.w3.org/1999/xlink" width="3" height="22" viewBox="0.402 0.263 2.224 21.627"><path paint-order="stroke fill markers" d="M1.842 21.89s1.99-6.775-.375-11.761a10.702 10.702 0 0 1-.866-6.714c.22-1.078.538-2.133.95-3.152l.291 21.627"/></svg></svg><svg width="4" height="6" xmlns="http://www.w3.org/2000/svg" xmlns:xlink="http://www.w3.org/1999/xlink" xmlns:svgjs="http://svgjs.com/svgjs" viewBox="0.097 0 3.805 6" fill="#f85ab4" x="582" y="851"><svg xmlns="http://www.w3.org/2000/svg" xmlns:xlink="http://www.w3.org/1999/xlink" width="4" height="6" viewBox="0.077 0.609 3.007 4.742"><path paint-order="stroke fill markers" fill-rule="evenodd" d="M.079 2.113c0 .83 1.503 3.238 1.503 3.238s1.503-2.407 1.503-3.238a1.504 1.504 0 1 0-3.008 0H.08z"/></svg></svg><svg width="4" height="5" xmlns="http://www.w3.org/2000/svg" xmlns:xlink="http://www.w3.org/1999/xlink" xmlns:svgjs="http://svgjs.com/svgjs" viewBox="0.068 0 3.864 5" fill="#f85ab4" x="579" y="855"><svg xmlns="http://www.w3.org/2000/svg" xmlns:xlink="http://www.w3.org/1999/xlink" width="4" height="5" viewBox="0.354 0.393 3.263 4.221"><path paint-order="stroke fill markers" fill-rule="evenodd" d="M.594 2.713c.45.696 3.022 1.901 3.022 1.901s-.046-2.838-.498-3.535A1.503 1.503 0 1 0 .595 2.713H.594z"/></svg></svg><svg width="6" height="4" xmlns="http://www.w3.org/2000/svg" xmlns:xlink="http://www.w3.org/1999/xlink" xmlns:svgjs="http://svgjs.com/svgjs" viewBox="0.116 0 5.767 4" fill="#f85ab4" x="578" y="862"><svg xmlns="http://www.w3.org/2000/svg" xmlns:xlink="http://www.w3.org/1999/xlink" width="6" height="4" viewBox="0.875 0.726 4.395 3.048"><path paint-order="stroke fill markers" fill-rule="evenodd" d="M1.701 3.571c.742.374 3.569.117 3.569.117S3.797 1.26 3.055.888A1.503 1.503 0 1 0 1.7 3.57z"/></svg></svg><svg width="5" height="5" xmlns="http://www.w3.org/2000/svg" xmlns:xlink="http://www.w3.org/1999/xlink" xmlns:svgjs="http://svgjs.com/svgjs" viewBox="0 0.411 5 4.179" fill="#f85ab4" x="580" y="868"><svg xmlns="http://www.w3.org/2000/svg" xmlns:xlink="http://www.w3.org/1999/xlink" width="5" height="5" viewBox="0.514 0.785 4.106 3.432"><path paint-order="stroke fill markers" fill-rule="evenodd" d="M1.123 3.5c.664.498 3.497.717 3.497.717S3.578 1.577 2.912 1.08a1.503 1.503 0 0 0-1.789 2.417V3.5z"/></svg></svg><svg width="5" height="4" xmlns="http://www.w3.org/2000/svg" xmlns:xlink="http://www.w3.org/1999/xlink" xmlns:svgjs="http://svgjs.com/svgjs" viewBox="0.464 0 4.071 4" fill="#f85ab4" x="582" y="857"><svg xmlns="http://www.w3.org/2000/svg" xmlns:xlink="http://www.w3.org/1999/xlink" width="5" height="4" viewBox="0.401 0.193 3.827 3.76"><path paint-order="stroke fill markers" fill-rule="evenodd" d="M3.771 2.775c-.595.58-3.37 1.178-3.37 1.178S1.08 1.197 1.676.618a1.504 1.504 0 0 1 2.095 2.157z"/></svg></svg><svg width="6" height="4" xmlns="http://www.w3.org/2000/svg" xmlns:xlink="http://www.w3.org/1999/xlink" xmlns:svgjs="http://svgjs.com/svgjs" viewBox="0.116 0 5.768 4" fill="#f85ab4" x="583" y="863"><svg xmlns="http://www.w3.org/2000/svg" xmlns:xlink="http://www.w3.org/1999/xlink" width="6" height="4" viewBox="0.774 0.882 4.395 3.048"><path paint-order="stroke fill markers" fill-rule="evenodd" d="M4.342 3.728c-.741.373-3.568.116-3.568.116s1.473-2.427 2.215-2.8a1.503 1.503 0 1 1 1.353 2.684z"/></svg></svg><svg width="5" height="5" xmlns="http://www.w3.org/2000/svg" xmlns:xlink="http://www.w3.org/1999/xlink" xmlns:svgjs="http://svgjs.com/svgjs" viewBox="0 0.412 5 4.175" fill="#f85ab4" x="584" y="870"><svg xmlns="http://www.w3.org/2000/svg" xmlns:xlink="http://www.w3.org/1999/xlink" width="5" height="5" viewBox="0.453 0.985 4.106 3.429"><path paint-order="stroke fill markers" fill-rule="evenodd" d="M3.95 3.696c-.664.498-3.497.717-3.497.717S1.495 1.773 2.16 1.28A1.503 1.503 0 1 1 3.95 3.696z"/></svg></svg><svg width="16" height="6" xmlns="http://www.w3.org/2000/svg" xmlns:xlink="http://www.w3.org/1999/xlink" xmlns:svgjs="http://svgjs.com/svgjs" viewBox="0 0.156 16 5.689" opacity=".102" x="445" y="871"><svg xmlns="http://www.w3.org/2000/svg" xmlns:xlink="http://www.w3.org/1999/xlink" width="16" height="6" viewBox="0.624 0.542 14.93 5.309"><path paint-order="stroke fill markers" fill-rule="evenodd" d="M8.09 5.85C3.96 5.85.623 4.664.623 3.196S3.961.542 8.09.542c4.129 0 7.465 1.186 7.465 2.654S12.218 5.85 8.09 5.85z"/></svg></svg><svg width="5" height="47" xmlns="http://www.w3.org/2000/svg" xmlns:xlink="http://www.w3.org/1999/xlink" xmlns:svgjs="http://svgjs.com/svgjs" viewBox="0.08 0 4.839 47" fill="none" stroke-miterlimit="100" stroke="#535461" stroke-width="2" x="450" y="828"><svg xmlns="http://www.w3.org/2000/svg" xmlns:xlink="http://www.w3.org/1999/xlink" width="5" height="47" viewBox="0.02 0.06 4.753 46.163"><path paint-order="stroke fill markers" d="M3.096 46.223s4.259-14.461-.798-25.103C.175 16.652-.522 11.639.452 6.792A38.413 38.413 0 0 1 2.472.06l.624 46.163"/></svg></svg><svg width="7" height="11" xmlns="http://www.w3.org/2000/svg" xmlns:xlink="http://www.w3.org/1999/xlink" xmlns:svgjs="http://svgjs.com/svgjs" viewBox="0.013 0 6.975 11" fill="#f85ab4" x="449" y="818"><svg xmlns="http://www.w3.org/2000/svg" xmlns:xlink="http://www.w3.org/1999/xlink" width="7" height="11" viewBox="0.332 0.124 6.417 10.119"><path paint-order="stroke fill markers" fill-rule="evenodd" d="M.332 3.333c0 1.772 3.208 6.91 3.208 6.91S6.75 5.102 6.75 3.334a3.208 3.208 0 1 0-6.417 0z"/></svg></svg><svg width="8" height="10" xmlns="http://www.w3.org/2000/svg" xmlns:xlink="http://www.w3.org/1999/xlink" xmlns:svgjs="http://svgjs.com/svgjs" viewBox="0.14 0 7.72 10" fill="#f85ab4" x="443" y="826"><svg xmlns="http://www.w3.org/2000/svg" xmlns:xlink="http://www.w3.org/1999/xlink" width="8" height="10" viewBox="0.472 0.131 7.006 9.075"><path paint-order="stroke fill markers" fill-rule="evenodd" d="M1.028 5.149c.964 1.493 6.45 4.057 6.45 4.057s-.1-6.058-1.063-7.545a3.208 3.208 0 1 0-5.387 3.484v.004z"/></svg></svg><svg width="10" height="8" xmlns="http://www.w3.org/2000/svg" xmlns:xlink="http://www.w3.org/1999/xlink" xmlns:svgjs="http://svgjs.com/svgjs" viewBox="0 0.536 10 6.927" fill="#f85ab4" x="442" y="841"><svg xmlns="http://www.w3.org/2000/svg" xmlns:xlink="http://www.w3.org/1999/xlink" width="10" height="8" viewBox="0.495 0.861 9.381 6.498"><path paint-order="stroke fill markers" fill-rule="evenodd" d="M2.259 6.924c1.578.798 7.616.254 7.616.254s-3.152-5.18-4.726-5.973a3.209 3.209 0 1 0-2.89 5.73v-.011z"/></svg></svg><svg width="10" height="9" xmlns="http://www.w3.org/2000/svg" xmlns:xlink="http://www.w3.org/1999/xlink" xmlns:svgjs="http://svgjs.com/svgjs" viewBox="0 0.326 10 8.348" fill="#f85ab4" x="445" y="854"><svg xmlns="http://www.w3.org/2000/svg" xmlns:xlink="http://www.w3.org/1999/xlink" width="10" height="9" viewBox="0.992 0.788 8.766 7.318"><path paint-order="stroke fill markers" fill-rule="evenodd" d="M2.293 6.576c1.425 1.054 7.465 1.53 7.465 1.53s-2.223-5.64-3.65-6.689a3.208 3.208 0 1 0-3.815 5.16z"/></svg></svg><svg width="9" height="9" xmlns="http://www.w3.org/2000/svg" xmlns:xlink="http://www.w3.org/1999/xlink" xmlns:svgjs="http://svgjs.com/svgjs" viewBox="0 0.08 9 8.84" fill="#f85ab4" x="450" y="830"><svg xmlns="http://www.w3.org/2000/svg" xmlns:xlink="http://www.w3.org/1999/xlink" width="9" height="9" viewBox="0.022 0.037 8.172 8.027"><path paint-order="stroke fill markers" fill-rule="evenodd" d="M7.215 5.55C5.945 6.784.022 8.063.022 8.063S1.472 2.18 2.742.946a3.211 3.211 0 1 1 4.48 4.604h-.007z"/></svg></svg><svg width="11" height="7" xmlns="http://www.w3.org/2000/svg" xmlns:xlink="http://www.w3.org/1999/xlink" xmlns:svgjs="http://svgjs.com/svgjs" viewBox="0.45 0 10.099 7" fill="#f85ab4" x="452" y="844"><svg xmlns="http://www.w3.org/2000/svg" xmlns:xlink="http://www.w3.org/1999/xlink" width="11" height="7" viewBox="0.958 0.323 9.381 6.502"><path paint-order="stroke fill markers" fill-rule="evenodd" d="M8.575 6.392c-1.583.798-7.617.247-7.617.247S4.11 1.46 5.684.667a3.209 3.209 0 0 1 2.89 5.73v-.005z"/></svg></svg><svg width="10" height="8" xmlns="http://www.w3.org/2000/svg" xmlns:xlink="http://www.w3.org/1999/xlink" xmlns:svgjs="http://svgjs.com/svgjs" viewBox="0.208 0 9.583 8" fill="#f85ab4" x="454" y="859"><svg xmlns="http://www.w3.org/2000/svg" xmlns:xlink="http://www.w3.org/1999/xlink" width="10" height="8" viewBox="0.395 0.476 8.766 7.318"><path paint-order="stroke fill markers" fill-rule="evenodd" d="M7.86 6.264C6.435 7.318.395 7.794.395 7.794s2.223-5.64 3.65-6.689a3.209 3.209 0 0 1 3.815 5.16z"/></svg></svg><svg width="19" height="24" xmlns="http://www.w3.org/2000/svg" xmlns:xlink="http://www.w3.org/1999/xlink" xmlns:svgjs="http://svgjs.com/svgjs" viewBox="0 0.522 19 22.955" fill="#f8bdc5" x="529" y="812"><svg xmlns="http://www.w3.org/2000/svg" xmlns:xlink="http://www.w3.org/1999/xlink" width="19" height="24" viewBox="0.184 0.753 18.432 22.269"><path paint-order="stroke fill markers" fill-rule="evenodd" d="M14.653.753s-7.737 13.044-9.55 14.776c0 0-7.737 8.029-3.804 7.465.289-.041 5.95-4.827 6.28-5.61.33-.784 11.037-14.692 11.037-14.692L17.09 1.287 14.653.753z"/></svg></svg><svg width="3" height="40" xmlns="http://www.w3.org/2000/svg" xmlns:xlink="http://www.w3.org/1999/xlink" xmlns:svgjs="http://svgjs.com/svgjs" viewBox="0.243 0 2.513 40" fill="#40414d" x="565" y="844"><svg xmlns="http://www.w3.org/2000/svg" xmlns:xlink="http://www.w3.org/1999/xlink" width="3" height="40" viewBox="0.002 0.063 2.454 39.058"><path paint-order="stroke fill markers" fill-rule="evenodd" d="M2.455 39.12H.002V.064h2.453v39.058z"/></svg></svg><svg width="3" height="40" xmlns="http://www.w3.org/2000/svg" xmlns:xlink="http://www.w3.org/1999/xlink" xmlns:svgjs="http://svgjs.com/svgjs" viewBox="0.244 0 2.513 40" fill="#40414d" x="540" y="844"><svg xmlns="http://www.w3.org/2000/svg" xmlns:xlink="http://www.w3.org/1999/xlink" width="3" height="40" viewBox="0.47 0.063 2.454 39.058"><path paint-order="stroke fill markers" fill-rule="evenodd" d="M2.923 39.12H.47V.064h2.453v39.058z"/></svg></svg><svg width="28" height="7" xmlns="http://www.w3.org/2000/svg" xmlns:xlink="http://www.w3.org/1999/xlink" xmlns:svgjs="http://svgjs.com/svgjs" viewBox="0 0.75 28 5.501" fill="#f6c6cd" x="538" y="837"><svg xmlns="http://www.w3.org/2000/svg" xmlns:xlink="http://www.w3.org/1999/xlink" width="28" height="7" viewBox="0.506 0.682 27.477 5.398"><path paint-order="stroke fill markers" fill-rule="evenodd" d="M.506 3.38c0 1.494 10.197 2.7 16.433 2.7 6.236 0 11.043-1.206 11.043-2.7 0-1.493-4.81-2.698-11.045-2.698C10.703.682.506 1.887.506 3.38z"/></svg></svg><svg width="32" height="5" xmlns="http://www.w3.org/2000/svg" xmlns:xlink="http://www.w3.org/1999/xlink" xmlns:svgjs="http://svgjs.com/svgjs" viewBox="0 0.214 32 4.572" fill="#40414d" x="538" y="840"><svg xmlns="http://www.w3.org/2000/svg" xmlns:xlink="http://www.w3.org/1999/xlink" width="32" height="5" viewBox="0.497 0.38 30.921 4.418"><path paint-order="stroke fill markers" fill-rule="evenodd" d="M28.432 4.798H2.247a1.743 1.743 0 0 1-1.75-1.742V.38h30.92v1.432a2.986 2.986 0 0 1-2.985 2.986z"/></svg></svg><svg width="10" height="31" xmlns="http://www.w3.org/2000/svg" xmlns:xlink="http://www.w3.org/1999/xlink" xmlns:svgjs="http://svgjs.com/svgjs" viewBox="0 0.303 10 30.394" fill="#40414d" x="565" y="814"><svg xmlns="http://www.w3.org/2000/svg" xmlns:xlink="http://www.w3.org/1999/xlink" width="10" height="31" viewBox="0.104 0.341 9.886 30.048"><path paint-order="stroke fill markers" fill-rule="evenodd" d="M1.408 30.336L.104 30.04l6.5-28.794A1.161 1.161 0 0 1 7.991.37l1.092.246c.626.141 1.018.763.877 1.388L3.924 28.75a2.1 2.1 0 0 1-2.511 1.587l-.005-.001z"/></svg></svg><svg width="17" height="11" xmlns="http://www.w3.org/2000/svg" xmlns:xlink="http://www.w3.org/1999/xlink" xmlns:svgjs="http://svgjs.com/svgjs" viewBox="0 0.324 17 10.353" fill="#594c76" x="522" y="853"><svg xmlns="http://www.w3.org/2000/svg" xmlns:xlink="http://www.w3.org/1999/xlink" width="17" height="11" viewBox="0.327 0.486 15.949 9.712"><path paint-order="stroke fill markers" fill-rule="evenodd" d="M14.58 2.349s2.476 3.097 1.445 4.336c-1.033 1.24-6.185 3.609-7.846 3.51-1.755-.102-7.63.206-7.845-2.476 0 0-.413-1.24 4.956-1.445C10.658 6.068 9 .486 9 .486l5.58 1.863z"/></svg></svg><svg width="38" height="29" xmlns="http://www.w3.org/2000/svg" xmlns:xlink="http://www.w3.org/1999/xlink" xmlns:svgjs="http://svgjs.com/svgjs" viewBox="0 0.061 38 28.879" opacity=".102" x="529" y="828"><svg xmlns="http://www.w3.org/2000/svg" xmlns:xlink="http://www.w3.org/1999/xlink" width="38" height="29" viewBox="0.206 0.248 37.288 28.338"><path paint-order="stroke fill markers" fill-rule="evenodd" d="M37.098 1.334s2.477 8.46-4.955 9.91l-8.052-.413S12.735 8.56 9.638 10.212c0 0-1.239.206-.83 1.858.41 1.653-.618 12.8-.618 12.8v3.716s-7.02 0-7.845-.829c0 0 .619-3.303 0-5.987s1.032-11.15 1.032-11.15l.166-5.086a3.543 3.543 0 0 1 1.87-3.055c.392-.208.826-.318 1.268-.322 0 0 14.04-2.271 18.995-1.858a1812.94 1812.94 0 0 0 13.422 1.035z"/></svg></svg><svg width="38" height="29" xmlns="http://www.w3.org/2000/svg" xmlns:xlink="http://www.w3.org/1999/xlink" xmlns:svgjs="http://svgjs.com/svgjs" viewBox="0 0.06 38 28.88" fill="#8b9cd1" x="529" y="828"><svg xmlns="http://www.w3.org/2000/svg" xmlns:xlink="http://www.w3.org/1999/xlink" width="38" height="29" viewBox="0.208 0.034 37.287 28.338"><path paint-order="stroke fill markers" fill-rule="evenodd" d="M37.098 1.127s2.477 8.46-4.955 9.91l-8.052-.413s-11.356-2.271-14.453-.619c0 0-1.239.206-.83 1.858.41 1.652-.616 12.794-.616 12.794v3.715s-7.02 0-7.845-.829c0 0 .619-3.303 0-5.987-.62-2.684 1.032-11.15 1.032-11.15l.166-5.086a3.542 3.542 0 0 1 1.87-3.055c.391-.208.826-.318 1.268-.322 0 0 14.04-2.271 18.995-1.858 4.955.413 13.42 1.042 13.42 1.042z"/></svg></svg><svg width="13" height="15" xmlns="http://www.w3.org/2000/svg" xmlns:xlink="http://www.w3.org/1999/xlink" xmlns:svgjs="http://svgjs.com/svgjs" viewBox="0.033 0 12.934 15" fill="#f80583" x="543" y="802"><svg xmlns="http://www.w3.org/2000/svg" xmlns:xlink="http://www.w3.org/1999/xlink" width="13" height="15" viewBox="0.18 0.081 12.8 14.845"><path paint-order="stroke fill markers" fill-rule="evenodd" d="M9.264.081S5.55 4.418 5.135 5.862C4.722 7.307.18 11.023.18 11.023s3.303 2.474 2.69 3.716C2.255 15.982 7.2 10.61 7.2 10.61l5.78-8.46L9.265.08z"/></svg></svg><svg width="13" height="15" xmlns="http://www.w3.org/2000/svg" xmlns:xlink="http://www.w3.org/1999/xlink" xmlns:svgjs="http://svgjs.com/svgjs" viewBox="0.033 0 12.934 15" fill="#f85ab4" x="543" y="802"><svg xmlns="http://www.w3.org/2000/svg" xmlns:xlink="http://www.w3.org/1999/xlink" width="13" height="15" viewBox="0.18 0.081 12.8 14.845"><path paint-order="stroke fill markers" fill-rule="evenodd" d="M9.264.081S5.55 4.418 5.135 5.862C4.722 7.307.18 11.023.18 11.023s3.303 2.474 2.69 3.716C2.255 15.982 7.2 10.61 7.2 10.61l5.78-8.46L9.265.08z"/></svg></svg><svg width="11" height="12" xmlns="http://www.w3.org/2000/svg" xmlns:xlink="http://www.w3.org/1999/xlink" xmlns:svgjs="http://svgjs.com/svgjs" viewBox="0.286 0 10.427 12" fill="#f8bdc5" x="549" y="795"><svg xmlns="http://www.w3.org/2000/svg" xmlns:xlink="http://www.w3.org/1999/xlink" width="11" height="12" viewBox="0.786 0.304 9.493 10.925"><path paint-order="stroke fill markers" fill-rule="evenodd" d="M.786 2.126s1.858 5.987 1.858 8.258c0 2.27 7.845-.619 7.631-1.858-.214-1.24-4.542-5.781-4.75-7.631C5.32-.955.787 2.125.787 2.125z"/></svg></svg><svg width="22" height="31" xmlns="http://www.w3.org/2000/svg" xmlns:xlink="http://www.w3.org/1999/xlink" xmlns:svgjs="http://svgjs.com/svgjs" viewBox="0 0.01 22 30.979" opacity=".102" x="545" y="801"><svg xmlns="http://www.w3.org/2000/svg" xmlns:xlink="http://www.w3.org/1999/xlink" width="22" height="31" viewBox="0.458 0.129 21.335 30.043"><path paint-order="stroke fill markers" fill-rule="evenodd" d="M10.989.255s7.226-1.858 8.258 8.671c1.032 10.53-.83 11.768 2.271 18.169 3.1 6.4-21.06.829-21.06.829s1.24-1.445 5.161-.83l1.858-5.573s.619-2.477-2.89-2.477c-3.508 0-1.858-7.226-1.858-7.226s1.858-6.195 2.89-6.814C6.651 4.385 8.5.668 10.99.255z"/></svg></svg><svg width="22" height="31" xmlns="http://www.w3.org/2000/svg" xmlns:xlink="http://www.w3.org/1999/xlink" xmlns:svgjs="http://svgjs.com/svgjs" viewBox="0 0.01 22 30.979" fill="#f85ab4" x="545" y="800"><svg xmlns="http://www.w3.org/2000/svg" xmlns:xlink="http://www.w3.org/1999/xlink" width="22" height="31" viewBox="0.458 0.716 21.335 30.043"><path paint-order="stroke fill markers" fill-rule="evenodd" d="M10.989.842s7.226-1.858 8.258 8.671c1.032 10.53-.83 11.768 2.271 18.168 3.1 6.4-21.06.83-21.06.83s1.24-1.445 5.161-.83l1.858-5.574s.619-2.476-2.89-2.476c-3.508 0-1.858-7.226-1.858-7.226S4.587 6.21 5.619 5.59C6.651 4.973 8.5 1.255 10.99.842z"/></svg></svg><svg width="20" height="23" xmlns="http://www.w3.org/2000/svg" xmlns:xlink="http://www.w3.org/1999/xlink" xmlns:svgjs="http://svgjs.com/svgjs" viewBox="0.482 0 19.037 23" fill="#f8bdc5" x="532" y="815"><svg xmlns="http://www.w3.org/2000/svg" xmlns:xlink="http://www.w3.org/1999/xlink" width="20" height="23" viewBox="0.668 0.573 18.432 22.27"><path paint-order="stroke fill markers" fill-rule="evenodd" d="M15.137.573S7.4 13.617 5.587 15.35c0 0-7.738 8.03-3.804 7.465.288-.041 5.95-4.827 6.28-5.61C8.393 16.42 19.1 2.512 19.1 2.512l-1.526-1.405-2.437-.534z"/></svg></svg><svg width="15" height="19" xmlns="http://www.w3.org/2000/svg" xmlns:xlink="http://www.w3.org/1999/xlink" xmlns:svgjs="http://svgjs.com/svgjs" viewBox="0 0.096 15 18.809" opacity=".102" x="546" y="802"><svg xmlns="http://www.w3.org/2000/svg" xmlns:xlink="http://www.w3.org/1999/xlink" width="15" height="19" viewBox="0.657 0.559 14.272 17.896"><path paint-order="stroke fill markers" fill-rule="evenodd" d="M14.317 8.545l-10.95 9.91S1.31 14.326.692 14.326c-.62 0 7.431-12.181 7.431-12.181s2.066-2.477 3.303-1.24c1.238 1.238 4.956.414 2.892 7.64z"/></svg></svg><svg width="16" height="19" xmlns="http://www.w3.org/2000/svg" xmlns:xlink="http://www.w3.org/1999/xlink" xmlns:svgjs="http://svgjs.com/svgjs" viewBox="0.42 0 15.16 19" fill="#f85ab4" x="546" y="802"><svg xmlns="http://www.w3.org/2000/svg" xmlns:xlink="http://www.w3.org/1999/xlink" width="16" height="19" viewBox="0.856 0.146 14.28 17.896"><path paint-order="stroke fill markers" fill-rule="evenodd" d="M14.523 8.132l-10.949 9.91S1.508 13.913.89 13.913c-.62 0 7.44-12.181 7.44-12.181s2.065-2.477 3.303-1.24c1.237 1.238 4.955.414 2.89 7.64z"/></svg></svg><svg width="15" height="14" xmlns="http://www.w3.org/2000/svg" xmlns:xlink="http://www.w3.org/1999/xlink" xmlns:svgjs="http://svgjs.com/svgjs" viewBox="0.5 0 14 14" fill="#f8bdc5" x="544" y="787"><svg xmlns="http://www.w3.org/2000/svg" xmlns:xlink="http://www.w3.org/1999/xlink" width="15" height="14" viewBox="0.831 0.215 13.626 13.627"><path paint-order="stroke fill markers" fill-rule="evenodd" d="M7.644 13.842A6.807 6.807 0 0 1 .831 7.029 6.807 6.807 0 0 1 7.644.215a6.807 6.807 0 0 1 6.813 6.814 6.807 6.807 0 0 1-6.813 6.813z"/></svg></svg><svg width="31" height="40" xmlns="http://www.w3.org/2000/svg" xmlns:xlink="http://www.w3.org/1999/xlink" xmlns:svgjs="http://svgjs.com/svgjs" viewBox="0 0.127 31 39.746" opacity=".102" x="545" y="781"><svg xmlns="http://www.w3.org/2000/svg" xmlns:xlink="http://www.w3.org/1999/xlink" width="31" height="40" viewBox="0.279 0.929 30.467 39.063"><path paint-order="stroke fill markers" fill-rule="evenodd" d="M3.331 10.79C2.1 10.954.856 10.08.448 8.903c-.408-1.174-.046-2.54.776-3.47.823-.93 2.048-1.451 3.285-1.573.751-.073 1.553-.02 2.208-.394.413-.236.72-.617 1.067-.943C9.083 1.3 10.966.855 12.749.938c1.783.083 3.505.643 5.204 1.195.634.206 1.364.512 1.51 1.161.11.488-.166.97-.254 1.46-.292 1.558 1.21 2.838 2.61 3.58 1.403.742 3.055 1.521 3.445 3.059.35 1.378-.485 2.737-1.029 4.051a10.435 10.435 0 0 0-.25 7.223c.398 1.191 1.015 2.323 1.257 3.548a6.12 6.12 0 0 1-.607 4.04c-.194.362-.431.722-.46 1.13-.002.342.08.68.236.985a10.506 10.506 0 0 0 6.336 5.712c-.443.803-1.41 1.138-2.303 1.348-1.523.358-3.08.546-4.645.561-1.052.01-2.132-.064-3.092-.497s-1.795-1.261-1.976-2.298c-.105-.6.012-1.221-.063-1.825-.166-1.36-1.26-2.427-1.66-3.738-.382-1.252-.604-1.443-.457-2.745.148-1.302.12-2.749-.73-3.746-.889-1.045-2.452-1.277-3.792-.98-1.34.297-2.034-.123-3.258.498a25.186 25.186 0 0 1-6.792 2.309c.64-1.696 1.445-3.565 3.124-4.25.48-.196 1.038-.3 1.365-.704.521-.644.166-1.675.616-2.369.45-.693 1.52-.725 2.135-1.302.522-.498.619-1.312.416-2-.202-.686-.649-1.272-1.1-1.824-.4-.497-.808-.985-1.226-1.466a5.51 5.51 0 0 1-.965-1.367c-.141-.332-.115-.96-.345-1.223-.584-.669-1.956.23-2.668.325z"/></svg></svg><svg width="31" height="40" xmlns="http://www.w3.org/2000/svg" xmlns:xlink="http://www.w3.org/1999/xlink" xmlns:svgjs="http://svgjs.com/svgjs" viewBox="0 0.127 31 39.747" fill="#eb6475" x="545" y="781"><svg xmlns="http://www.w3.org/2000/svg" xmlns:xlink="http://www.w3.org/1999/xlink" width="31" height="40" viewBox="0.53 0.778 30.467 39.063"><path paint-order="stroke fill markers" fill-rule="evenodd" d="M3.582 10.638c-1.233.166-2.475-.71-2.883-1.884-.408-1.175-.047-2.54.776-3.47.823-.932 2.047-1.452 3.285-1.573.751-.073 1.552-.02 2.208-.395.413-.236.72-.617 1.066-.943C9.334 1.15 11.216.704 13 .787c1.784.084 3.506.642 5.204 1.195.634.206 1.364.513 1.51 1.161.111.488-.166.97-.254 1.46-.292 1.558 1.21 2.838 2.611 3.58 1.402.741 3.055 1.521 3.444 3.06.35 1.378-.484 2.736-1.028 4.05a10.434 10.434 0 0 0-.25 7.223c.397 1.191 1.014 2.322 1.257 3.549a6.123 6.123 0 0 1-.607 4.039c-.194.362-.432.721-.46 1.13-.002.342.079.68.236.985a10.505 10.505 0 0 0 6.335 5.712c-.443.803-1.41 1.138-2.303 1.349-1.523.357-3.08.545-4.644.56-1.052.01-2.132-.065-3.093-.498-.96-.433-1.795-1.26-1.976-2.297-.104-.6.012-1.221-.063-1.825-.166-1.36-1.259-2.427-1.659-3.737-.383-1.253-.605-1.444-.457-2.746.147-1.302.12-2.749-.73-3.746-.89-1.045-2.452-1.277-3.793-.98-1.34.297-2.033-.123-3.258.497a25.175 25.175 0 0 1-6.791 2.31c.64-1.696 1.445-3.565 3.123-4.25.481-.196 1.039-.3 1.366-.704.52-.643.166-1.676.615-2.369.45-.693 1.52-.725 2.135-1.302.523-.498.62-1.312.417-1.999s-.649-1.272-1.1-1.825c-.4-.497-.808-.985-1.226-1.466a5.517 5.517 0 0 1-.952-1.366c-.141-.331-.115-.959-.345-1.222-.598-.67-1.97.23-2.681.323z"/></svg></svg><svg width="17" height="11" xmlns="http://www.w3.org/2000/svg" xmlns:xlink="http://www.w3.org/1999/xlink" xmlns:svgjs="http://svgjs.com/svgjs" viewBox="522 853 17 11" x="522" y="853"><svg width="2" height="3" xmlns="http://www.w3.org/2000/svg" xmlns:xlink="http://www.w3.org/1999/xlink" xmlns:svgjs="http://svgjs.com/svgjs" viewBox="0.78 0 0.44 3" fill="#fff" x="530" y="853"><svg xmlns="http://www.w3.org/2000/svg" xmlns:xlink="http://www.w3.org/1999/xlink" width="2" height="3" viewBox="0.999 0.491 0.238 1.626"><path paint-order="stroke fill markers" fill-rule="evenodd" d="M1.234 2.117A7.145 7.145 0 0 0 1 .49l.104.035c.103.524.147 1.057.131 1.59z"/></svg></svg><svg width="17" height="6" xmlns="http://www.w3.org/2000/svg" xmlns:xlink="http://www.w3.org/1999/xlink" xmlns:svgjs="http://svgjs.com/svgjs" viewBox="0 0.598 17 4.804" fill="#fff" x="522" y="858"><svg xmlns="http://www.w3.org/2000/svg" xmlns:xlink="http://www.w3.org/1999/xlink" width="17" height="6" viewBox="0.321 0.68 15.955 4.508"><path paint-order="stroke fill markers" fill-rule="evenodd" d="M8.173 4.776c1.659.098 6.813-2.271 7.845-3.51a1.1 1.1 0 0 0 .239-.586c.06.35-.026.71-.24.995-1.03 1.24-6.184 3.609-7.844 3.51C6.418 5.084.542 5.393.328 2.71a.333.333 0 0 1 .028-.218C.829 4.97 6.462 4.68 8.173 4.776z"/></svg></svg></svg><svg width="57" height="115" xmlns="http://www.w3.org/2000/svg" xmlns:xlink="http://www.w3.org/1999/xlink" xmlns:svgjs="http://svgjs.com/svgjs" viewBox="0.119 0 56.761 115" fill="gray" x="485" y="770"><svg xmlns="http://www.w3.org/2000/svg" xmlns:xlink="http://www.w3.org/1999/xlink" width="57" height="115" viewBox="0.199 0.087 56.377 114.222"><path paint-order="stroke fill markers" fill-rule="evenodd" d="M1.09 94.093c.996-.332 2.489-.71 3.665-.576 1.118-.408 3.749-1.473 5.546-3.05a39.937 39.937 0 0 1 .117-4.685c.92-10.451-1.148-17.334-1.148-17.334s-1.622-5.254-1.445-9.613l-.165.315c-.143-3.761-1.424-7.653-2.383-10.077a.783.783 0 0 1-.107-.04l-1.09-2.54a2.215 2.215 0 0 1-.203-.47l-.166-.403.052-.022-.052-.207c-.685-2.899-1.207-9.771-1.207-9.771C.667 28.387 5.029 23.91 5.029 23.91l7.4-6.375a.933.933 0 0 0-.073.26l.061-.053c.105-.298.22-.664.332-1.068a5.617 5.617 0 0 1-.74-.626 5.686 5.686 0 0 1-1.659-2.96c-.179-.882-.144-1.79-.107-2.687l.122-3.072a9.76 9.76 0 0 1 .183-1.792c.559-2.445 3.057-4.147 5.564-4.255.798-.033 1.594.068 2.389.128.645.053 1.294.067 1.94.042a.354.354 0 0 0 .21-.055.308.308 0 0 0 .091-.213 1.056 1.056 0 0 0-.259-.79.982.982 0 0 0-.332-.194l.18.044a.982.982 0 0 0-.294-.158c.64.151 1.296.309 1.846.664.158.103.303.225.432.363.34.3.562.712.623 1.161.287-.28.563-.589.664-.974a.978.978 0 0 0 0-.47c.043.054.085.109.126.165 0-.016 0-.033-.012-.05.468.583.798 1.263.964 1.991a.774.774 0 0 0 .158-.572c.036.113.071.227.103.343a.795.795 0 0 0 .011-.229c.287.88.417 1.802.383 2.726 0 .922-.408 2.357-1.396 2.68-.05.017-.103.03-.156.042a6.196 6.196 0 0 1-4.18 9.464l-.046.354h-.04c-.026.249-.047.51-.064.784.248.245.52.464.813.654.828.49 1.753.796 2.71.897a8.063 8.063 0 0 1 3.26.97c1.181.663 2.488 1.623 2.895 2.793.684 1.952 4.44 4.977 6.967 5.353l.896-.051.065-.02v.017l.22-.014h.07v.014l.228-.014s.023.105.053.29c1.269-.434 3.961-1.645 7.465-4.824C49 21.053 54.27 21.75 56.303 22.196a.35.35 0 0 1 .092.645c-.819.451-2.093 1.106-2.69 1.18 0 0 1.23 1.274-.077 1.954a.94.94 0 0 1-.983-.095c-.63-.46-2.378.582-4.91 1.125 0 0-7.146 7.395-10.69 8.54-.083.162-.173.319-.271.471l-.22-.018-.01.018h-.03l-.027.232s-5.516-.29-7.3-2.292a2.872 2.872 0 0 1-.35-.374l1.918 24.135h-.018l.018.228h-1.41c-.123 2.971.004 5.947.378 8.897V82.57s.073 1.385-2.802 3.4a107.427 107.427 0 0 0-8.706 6.747l-.348.302c.53 4.811 1.636 13.782 2.558 14.118l-.569.1c.98 1.235 3.743 4.626 4.587 4.72 1.033.115 1.722 1.722 0 2.067-1.59.319-5.72.734-10.227-1.008a1.561 1.561 0 0 1-.982-1.66l.331-2.534a.354.354 0 0 0-.146.154c-.229.689 0-.919 0-.919a71.806 71.806 0 0 1-2.22-9.263l-3.415 2.941s-.07-.084-.187-.237c-.83 1.898-2.323 5.775-1.991 8.618.46 3.904-3.904.46-3.444-1.836C2.534 106.42.876 98.55.229 95.614a1.309 1.309 0 0 1 .861-1.52z"/></svg></svg><svg width="22" height="15" xmlns="http://www.w3.org/2000/svg" xmlns:xlink="http://www.w3.org/1999/xlink" xmlns:svgjs="http://svgjs.com/svgjs" viewBox="0 0.242 22 14.515" fill="#fec3be" x="520" y="792"><svg xmlns="http://www.w3.org/2000/svg" xmlns:xlink="http://www.w3.org/1999/xlink" width="22" height="15" viewBox="0.51 0.764 20.528 13.544"><path paint-order="stroke fill markers" fill-rule="evenodd" d="M1.735 8.4s3.252-.56 8.071-4.931C13.622.009 18.764.69 20.755 1.126a.332.332 0 0 1 .091.629c-.801.44-2.045 1.08-2.627 1.153 0 0 1.2 1.244-.075 1.91a.92.92 0 0 1-.96-.094c-.614-.447-2.323.57-4.793 1.099 0 0-9.64 9.976-11.881 8.294L1.735 8.4z"/></svg></svg><svg width="9" height="12" xmlns="http://www.w3.org/2000/svg" xmlns:xlink="http://www.w3.org/1999/xlink" xmlns:svgjs="http://svgjs.com/svgjs" viewBox="0.651 0 7.697 12" fill="#fec3be" x="497" y="782"><svg xmlns="http://www.w3.org/2000/svg" xmlns:xlink="http://www.w3.org/1999/xlink" width="9" height="12" viewBox="0.523 0.025 7.621 11.881"><path paint-order="stroke fill markers" fill-rule="evenodd" d="M8.144 4.844s-.897 3.815 0 6.501l-4.036.56-3.585-1.799V7.76S2.206 4.172 1.756.025l6.388 4.819z"/></svg></svg><svg width="9" height="19" xmlns="http://www.w3.org/2000/svg" xmlns:xlink="http://www.w3.org/1999/xlink" xmlns:svgjs="http://svgjs.com/svgjs" viewBox="0.406 0 8.188 19" fill="#5a5773" x="485" y="862"><svg xmlns="http://www.w3.org/2000/svg" xmlns:xlink="http://www.w3.org/1999/xlink" width="9" height="19" viewBox="0.966 0.741 7.745 17.971"><path paint-order="stroke fill markers" fill-rule="evenodd" d="M8.711 7.458s-2.918 5.717-2.465 9.527c.453 3.81-3.815.448-3.363-1.793.364-1.813-1.255-9.5-1.886-12.366a1.277 1.277 0 0 1 .85-1.492C3.195.89 5.45.338 6.585 1.178c1.678 1.235 2.126 6.28 2.126 6.28z"/></svg></svg><svg width="13" height="9" xmlns="http://www.w3.org/2000/svg" xmlns:xlink="http://www.w3.org/1999/xlink" xmlns:svgjs="http://svgjs.com/svgjs" viewBox="0 0.335 13 8.329" fill="#5a5773" x="498" y="875"><svg xmlns="http://www.w3.org/2000/svg" xmlns:xlink="http://www.w3.org/1999/xlink" width="13" height="9" viewBox="0.671 0.397 11.982 7.677"><path paint-order="stroke fill markers" fill-rule="evenodd" d="M6.81.734s3.815 4.932 4.82 5.045c1.006.112 1.683 1.682 0 2.017-1.55.31-5.585.716-9.986-.986a1.524 1.524 0 0 1-.96-1.622L1.318.397l5.492.337z"/></svg></svg><svg width="26" height="48" xmlns="http://www.w3.org/2000/svg" xmlns:xlink="http://www.w3.org/1999/xlink" xmlns:svgjs="http://svgjs.com/svgjs" viewBox="0.377 0 25.246 48" fill="#605d82" x="489" y="823"><svg xmlns="http://www.w3.org/2000/svg" xmlns:xlink="http://www.w3.org/1999/xlink" width="26" height="48" viewBox="0.842 0.387 24.937 47.413"><path paint-order="stroke fill markers" fill-rule="evenodd" d="M22.087.387l3.65.487s-.853 6.125.042 12.852v15.357s.072 1.352-2.735 3.317a104.945 104.945 0 0 0-8.5 6.588L4.37 47.8S.335 42.868.896 39.953c0 0 6.725-2.13 7.623-5.605.514-1.99 3.121-3.65 5.256-4.703 2.751-1.359 4.25-4.446 3.498-7.419a5.724 5.724 0 0 0-.573-1.441c-1.793-3.14-4.371-10.201-4.371-10.201l4.932-9.416 4.826-.781z"/></svg></svg><svg width="26" height="48" xmlns="http://www.w3.org/2000/svg" xmlns:xlink="http://www.w3.org/1999/xlink" xmlns:svgjs="http://svgjs.com/svgjs" viewBox="0.381 0 25.237 48" opacity=".051" x="489" y="823"><svg xmlns="http://www.w3.org/2000/svg" xmlns:xlink="http://www.w3.org/1999/xlink" width="26" height="48" viewBox="0.866 0.387 24.931 47.417"><path paint-order="stroke fill markers" fill-rule="evenodd" d="M22.104.387l3.65.487S24.9 7 25.795 13.726v15.357s.072 1.352-2.735 3.317a104.978 104.978 0 0 0-8.494 6.591L4.394 47.804S.358 42.87.92 39.957c0 0 6.725-2.13 7.623-5.606.514-1.99 3.122-3.65 5.257-4.703 2.75-1.358 4.25-4.445 3.497-7.418a5.713 5.713 0 0 0-.572-1.442c-1.794-3.139-4.371-10.2-4.371-10.2l4.931-9.417 4.82-.784z"/></svg></svg><svg width="17" height="56" xmlns="http://www.w3.org/2000/svg" xmlns:xlink="http://www.w3.org/1999/xlink" xmlns:svgjs="http://svgjs.com/svgjs" viewBox="0.355 0 16.289 56" fill="#605d82" x="493" y="823"><svg xmlns="http://www.w3.org/2000/svg" xmlns:xlink="http://www.w3.org/1999/xlink" width="17" height="56" viewBox="0.407 0.433 15.885 54.609"><path paint-order="stroke fill markers" fill-rule="evenodd" d="M12.705 53.07s-6.617 1.122-6.838 1.802c-.22.68 0-.897 0-.897S2.052 42.429 2.953 32.228c.9-10.2-1.122-16.921-1.122-16.921S-.523 7.684.823 3.313C2.168-1.058 16.292.846 16.292.846s-4.932 11.535-4.82 17.032c0 0-.56 16.59-1.569 18.495 0-.004 1.57 16.25 2.802 16.698z"/></svg></svg><svg width="18" height="38" xmlns="http://www.w3.org/2000/svg" xmlns:xlink="http://www.w3.org/1999/xlink" xmlns:svgjs="http://svgjs.com/svgjs" viewBox="0 0.095 18 37.81" fill="#fff" x="497" y="789"><svg xmlns="http://www.w3.org/2000/svg" xmlns:xlink="http://www.w3.org/1999/xlink" width="18" height="38" viewBox="0.522 0.759 17.371 36.489"><path paint-order="stroke fill markers" fill-rule="evenodd" d="M7.92.759S7.25 4.906.523 3.113l4.479 34.075s13.003.448 12.892-1.121l-2.686-20.624L7.92.76z"/></svg></svg><svg width="18" height="39" xmlns="http://www.w3.org/2000/svg" xmlns:xlink="http://www.w3.org/1999/xlink" xmlns:svgjs="http://svgjs.com/svgjs" viewBox="0.236 0 17.528 39" opacity=".102" x="504" y="789"><svg xmlns="http://www.w3.org/2000/svg" xmlns:xlink="http://www.w3.org/1999/xlink" width="18" height="39" viewBox="0.751 0.535 17.205 38.281"><path paint-order="stroke fill markers" fill-rule="evenodd" d="M.753.535s1.274 1.367 3.238 1.538c1.116.085 2.2.409 3.182.947 1.161.645 2.427 1.584 2.82 2.729.785 2.24 5.717 5.94 7.963 5.156l-.785 6.725s-6.388-.332-7.51-2.802l1.907 23.988h-1.68s-.897-6.501-1.568-7.847c-.672-1.345-2.018-8.742-2.13-10.537-.114-1.795-1.794-12.11-3.252-13.9L.75 1.207.753.535z"/></svg></svg><svg width="19" height="40" xmlns="http://www.w3.org/2000/svg" xmlns:xlink="http://www.w3.org/1999/xlink" xmlns:svgjs="http://svgjs.com/svgjs" viewBox="0.367 0 18.266 40" opacity=".102" x="504" y="789"><svg xmlns="http://www.w3.org/2000/svg" xmlns:xlink="http://www.w3.org/1999/xlink" width="19" height="40" viewBox="0.751 0.871 17.429 38.167"><path paint-order="stroke fill markers" fill-rule="evenodd" d="M.753.871s1.493 1.256 3.462 1.425c1.116.087 2.2.41 3.182.948 1.161.645 2.427 1.584 2.82 2.729.785 2.24 5.717 5.94 7.963 5.155l-.785 6.726s-6.388-.332-7.51-2.802l1.908 23.986h-1.68s-.898-6.501-1.57-7.847c-.672-1.345-2.017-8.742-2.13-10.537-.112-1.795-1.793-12.11-3.251-13.9L.752 1.542l.001-.67z"/></svg></svg><svg width="19" height="39" xmlns="http://www.w3.org/2000/svg" xmlns:xlink="http://www.w3.org/1999/xlink" xmlns:svgjs="http://svgjs.com/svgjs" viewBox="0.596 0 17.808 39" fill="#67647e" x="504" y="789"><svg xmlns="http://www.w3.org/2000/svg" xmlns:xlink="http://www.w3.org/1999/xlink" width="19" height="39" viewBox="0.751 0.647 17.429 38.168"><path paint-order="stroke fill markers" fill-rule="evenodd" d="M.753.647s1.493 1.256 3.462 1.426c1.116.085 2.2.409 3.182.947 1.161.645 2.427 1.584 2.82 2.729.785 2.24 5.717 5.94 7.963 5.156l-.785 6.725s-6.388-.332-7.51-2.802l1.906 23.988h-1.678s-.898-6.501-1.57-7.847c-.672-1.345-2.017-8.742-2.13-10.537-.112-1.795-1.793-12.11-3.251-13.9L.752 1.319.752.647z"/></svg></svg><svg width="8" height="7" xmlns="http://www.w3.org/2000/svg" xmlns:xlink="http://www.w3.org/1999/xlink" xmlns:svgjs="http://svgjs.com/svgjs" viewBox="0.561 0 6.877 7" opacity=".102" x="498" y="782"><svg xmlns="http://www.w3.org/2000/svg" xmlns:xlink="http://www.w3.org/1999/xlink" width="8" height="7" viewBox="0.756 0.36 6.389 6.503"><path paint-order="stroke fill markers" fill-rule="evenodd" d="M1.036 3.33C1.182 2.27.891 1.607.756.36l6.389 4.82s-.153.653-.27 1.605c-.318.051-.64.077-.963.078-2.23 0-3.829-1.734-4.876-3.532z"/></svg></svg><svg width="13" height="13" xmlns="http://www.w3.org/2000/svg" xmlns:xlink="http://www.w3.org/1999/xlink" xmlns:svgjs="http://svgjs.com/svgjs" fill="#fec3be" x="497" y="776"><svg xmlns="http://www.w3.org/2000/svg" xmlns:xlink="http://www.w3.org/1999/xlink" width="13" height="13" viewBox="0.859 0.421 12.107 12.107"><path paint-order="stroke fill markers" fill-rule="evenodd" d="M6.912 12.528A6.048 6.048 0 0 1 .86 6.474 6.048 6.048 0 0 1 6.912.421a6.048 6.048 0 0 1 6.053 6.053 6.048 6.048 0 0 1-6.053 6.054z"/></svg></svg><svg width="16" height="18" xmlns="http://www.w3.org/2000/svg" xmlns:xlink="http://www.w3.org/1999/xlink" xmlns:svgjs="http://svgjs.com/svgjs" viewBox="0 0.012 16 17.976" opacity=".102" x="495" y="771"><svg xmlns="http://www.w3.org/2000/svg" xmlns:xlink="http://www.w3.org/1999/xlink" width="16" height="18" viewBox="0.863 0.655 14.66 16.47"><path paint-order="stroke fill markers" fill-rule="evenodd" d="M15.518 5.54a7.66 7.66 0 0 0-.498-2.996.747.747 0 0 1-.128.968A4.796 4.796 0 0 0 13.378.817c.431.07.652.606.547 1.03-.104.425-.433.752-.748 1.054.036-.642-.386-1.24-.924-1.593-.537-.353-1.178-.497-1.803-.653.447.158.73.599.692 1.072a.298.298 0 0 1-.09.207.344.344 0 0 1-.204.054c-.632.025-1.264.012-1.895-.04a19.873 19.873 0 0 0-2.332-.124c-2.448.103-4.887 1.767-5.433 4.148A9.516 9.516 0 0 0 1.01 7.72l-.119 3c-.035.875-.07 1.763.106 2.622a5.556 5.556 0 0 0 2.855 3.783c.88-1.274.958-2.912 1.263-4.43.047-.351.177-.687.38-.978.22-.276.608-.45.937-.319.328.131.471.634.197.858.236.287.7.072.97-.183.77-.73 1.3-1.675 1.52-2.712.11-.523.22-1.161.724-1.342.176-.049.36-.061.542-.037 1.067.073 2.735.515 3.77.176.965-.324 1.363-1.718 1.363-2.618z"/></svg></svg><svg width="16" height="17" xmlns="http://www.w3.org/2000/svg" xmlns:xlink="http://www.w3.org/1999/xlink" xmlns:svgjs="http://svgjs.com/svgjs" viewBox="0.43 0 15.141 17" fill="#916168" x="495" y="771"><svg xmlns="http://www.w3.org/2000/svg" xmlns:xlink="http://www.w3.org/1999/xlink" width="16" height="17" viewBox="0.752 0.539 14.66 16.46"><path paint-order="stroke fill markers" fill-rule="evenodd" d="M15.407 5.427a7.66 7.66 0 0 0-.498-2.995.747.747 0 0 1-.128.966A4.796 4.796 0 0 0 13.267.701c.431.07.652.606.547 1.03-.104.425-.433.752-.748 1.054.036-.642-.387-1.24-.924-1.593C11.604.84 10.964.695 10.339.54c.447.158.73.599.691 1.071a.297.297 0 0 1-.09.208.343.343 0 0 1-.203.054c-.632.025-1.265.012-1.895-.04a19.878 19.878 0 0 0-2.332-.124c-2.449.103-4.887 1.767-5.433 4.147a9.523 9.523 0 0 0-.178 1.75L.78 10.602c-.035.876-.07 1.764.106 2.623a5.557 5.557 0 0 0 2.855 3.772c.88-1.274.957-2.911 1.262-4.429a2.24 2.24 0 0 1 .38-.979c.221-.275.61-.45.938-.318.328.13.471.634.197.858.236.287.7.073.97-.183.77-.73 1.3-1.675 1.52-2.712.11-.523.22-1.162.723-1.342a1.36 1.36 0 0 1 .543-.037c1.067.073 2.735.514 3.77.176.963-.302 1.363-1.704 1.363-2.605z"/></svg></svg><svg width="3" height="8" xmlns="http://www.w3.org/2000/svg" xmlns:xlink="http://www.w3.org/1999/xlink" xmlns:svgjs="http://svgjs.com/svgjs" viewBox="0.325 0 2.351 8" opacity=".102" x="520" y="799"><svg xmlns="http://www.w3.org/2000/svg" xmlns:xlink="http://www.w3.org/1999/xlink" width="3" height="8" viewBox="0.727 0.903 1.976 6.725"><path paint-order="stroke fill markers" fill-rule="evenodd" d="M2.464.903s.897 4.147-.785 6.725L.727 7.55 1.246.972l1.218-.07z"/></svg></svg><svg width="3" height="8" xmlns="http://www.w3.org/2000/svg" xmlns:xlink="http://www.w3.org/1999/xlink" xmlns:svgjs="http://svgjs.com/svgjs" viewBox="0.325 0 2.351 8" fill="#fd6f8d" x="520" y="799"><svg xmlns="http://www.w3.org/2000/svg" xmlns:xlink="http://www.w3.org/1999/xlink" width="3" height="8" viewBox="0.503 0.903 1.976 6.725"><path paint-order="stroke fill markers" fill-rule="evenodd" d="M2.24.903s.897 4.147-.785 6.725L.503 7.55 1.022.972 2.24.902z"/></svg></svg><svg width="18" height="44" xmlns="http://www.w3.org/2000/svg" xmlns:xlink="http://www.w3.org/1999/xlink" xmlns:svgjs="http://svgjs.com/svgjs" viewBox="0 0.31 18 43.38" opacity=".102" x="488" y="788"><svg xmlns="http://www.w3.org/2000/svg" xmlns:xlink="http://www.w3.org/1999/xlink" width="18" height="44" viewBox="0.001 0.582 17.93 43.212"><path paint-order="stroke fill markers" fill-rule="evenodd" d="M10.139.582l-7.23 6.221S-1.354 11.175.443 18.237c0 0 .784 10.312 1.682 10.76 0 0 3.138 6.278 3.362 12.219 0 0 4.204-8.46 6.11-3.306 1.906 5.154 6.334 5.884 6.334 5.884l-2.467-30.49S9.243 2.488 10.139.583z"/></svg></svg><svg width="19" height="44" xmlns="http://www.w3.org/2000/svg" xmlns:xlink="http://www.w3.org/1999/xlink" xmlns:svgjs="http://svgjs.com/svgjs" viewBox="0.372 0 18.256 44" fill="#67647e" x="487" y="788"><svg xmlns="http://www.w3.org/2000/svg" xmlns:xlink="http://www.w3.org/1999/xlink" width="19" height="44" viewBox="0.778 0.582 17.929 43.212"><path paint-order="stroke fill markers" fill-rule="evenodd" d="M10.915.582l-7.23 6.221s-4.26 4.372-2.466 11.434c0 0 .784 10.312 1.682 10.76 0 0 3.138 6.278 3.362 12.219 0 0 4.428-8.912 6.334-3.756 1.906 5.156 6.11 6.334 6.11 6.334l-2.472-30.49S10.017 2.488 10.915.583z"/></svg></svg><svg width="11" height="17" xmlns="http://www.w3.org/2000/svg" xmlns:xlink="http://www.w3.org/1999/xlink" xmlns:svgjs="http://svgjs.com/svgjs" viewBox="0.194 0 10.612 17" fill="#fec3be" x="489" y="814"><svg xmlns="http://www.w3.org/2000/svg" xmlns:xlink="http://www.w3.org/1999/xlink" width="11" height="17" viewBox="0.901 0.648 9.584 15.353"><path paint-order="stroke fill markers" fill-rule="evenodd" d="M5.609.868S3.816-.365.9 2.998l7.173 13.003 2.41-3.65S5.384 2.326 5.61.868z"/></svg></svg><svg width="8" height="7" xmlns="http://www.w3.org/2000/svg" xmlns:xlink="http://www.w3.org/1999/xlink" xmlns:svgjs="http://svgjs.com/svgjs" viewBox="0 0.204 8 6.592" opacity=".102" x="489" y="813"><svg xmlns="http://www.w3.org/2000/svg" xmlns:xlink="http://www.w3.org/1999/xlink" width="8" height="7" viewBox="0.398 0.69 6.948 5.725"><path paint-order="stroke fill markers" fill-rule="evenodd" d="M7.346 2.596S3.379 7.052 1.832 6.337L.398 2.994 5.775.69l1.57 1.906z"/></svg></svg><svg width="8" height="7" xmlns="http://www.w3.org/2000/svg" xmlns:xlink="http://www.w3.org/1999/xlink" xmlns:svgjs="http://svgjs.com/svgjs" viewBox="0 0.204 8 6.592" fill="#fd6f8d" x="489" y="813"><svg xmlns="http://www.w3.org/2000/svg" xmlns:xlink="http://www.w3.org/1999/xlink" width="8" height="7" viewBox="0.398 0.466 6.948 5.725"><path paint-order="stroke fill markers" fill-rule="evenodd" d="M7.346 2.372S3.379 6.828 1.832 6.113L.398 2.777 5.775.467l1.57 1.905z"/></svg></svg><svg width="4" height="7" xmlns="http://www.w3.org/2000/svg" xmlns:xlink="http://www.w3.org/1999/xlink" xmlns:svgjs="http://svgjs.com/svgjs" viewBox="0 0.278 4 6.444" opacity=".102" x="496" y="825"><svg xmlns="http://www.w3.org/2000/svg" xmlns:xlink="http://www.w3.org/1999/xlink" width="4" height="7" viewBox="0.346 0.513 3.587 5.778"><path paint-order="stroke fill markers" fill-rule="evenodd" d="M3.242.513S1.354 4.383.346 4.61l1.456 1.682 2.13-4.036-.69-1.742z"/></svg></svg><svg width="5" height="7" xmlns="http://www.w3.org/2000/svg" xmlns:xlink="http://www.w3.org/1999/xlink" xmlns:svgjs="http://svgjs.com/svgjs" viewBox="0.328 0 4.345 7" fill="#4d4981" x="496" y="825"><svg xmlns="http://www.w3.org/2000/svg" xmlns:xlink="http://www.w3.org/1999/xlink" width="5" height="7" viewBox="0.459 0.624 3.586 5.778"><path paint-order="stroke fill markers" fill-rule="evenodd" d="M3.355.624S1.467 4.494.459 4.72l1.456 1.683 2.13-4.037-.69-1.742z"/></svg></svg><svg width="2" height="12" xmlns="http://www.w3.org/2000/svg" xmlns:xlink="http://www.w3.org/1999/xlink" xmlns:svgjs="http://svgjs.com/svgjs" viewBox="0.623 0 0.754 12" opacity=".102" x="495" y="801"><svg xmlns="http://www.w3.org/2000/svg" xmlns:xlink="http://www.w3.org/1999/xlink" width="2" height="12" viewBox="0.76 0.696 0.697 11.097"><path paint-order="stroke fill markers" fill-rule="evenodd" d="M.785.696s-.224 8.07.672 11.097L.785.696"/></svg></svg><svg width="2" height="3" xmlns="http://www.w3.org/2000/svg" xmlns:xlink="http://www.w3.org/1999/xlink" xmlns:svgjs="http://svgjs.com/svgjs" viewBox="0 0.333 2 2.333" opacity=".102" x="512" y="801"><svg xmlns="http://www.w3.org/2000/svg" xmlns:xlink="http://www.w3.org/1999/xlink" width="2" height="3" viewBox="0.6 0.696 1.345 1.569"><path paint-order="stroke fill markers" fill-rule="evenodd" d="M1.945 2.265S.6 1.818.6.696l1.345 1.57"/></svg></svg><svg width="11" height="3" xmlns="http://www.w3.org/2000/svg" xmlns:xlink="http://www.w3.org/1999/xlink" xmlns:svgjs="http://svgjs.com/svgjs" viewBox="0 0.233 11 2.534" fill="#40414d" x="531" y="793"><svg xmlns="http://www.w3.org/2000/svg" xmlns:xlink="http://www.w3.org/1999/xlink" width="11" height="3" viewBox="0.534 0.476 9.51 2.191"><path paint-order="stroke fill markers" fill-rule="evenodd" d="M.642.476l9.402 1.52-.109.67L.534 1.149.642.476z"/></svg></svg><svg width="5" height="3" xmlns="http://www.w3.org/2000/svg" xmlns:xlink="http://www.w3.org/1999/xlink" xmlns:svgjs="http://svgjs.com/svgjs" viewBox="0.042 0 4.917 3" fill="#40414d" x="540" y="794"><svg xmlns="http://www.w3.org/2000/svg" xmlns:xlink="http://www.w3.org/1999/xlink" width="5" height="3" viewBox="0.309 0.299 3.82 2.331"><path paint-order="stroke fill markers" fill-rule="evenodd" d="M4.129 1.828s-.974.664-1.91.784a1.814 1.814 0 0 1-.515 0C.846 2.474.402 2.054.32 1.562A1.135 1.135 0 0 1 .428.897c.232-.443.787-.7 1.644-.56.262.049.512.148.737.291.503.324.95.73 1.32 1.2z"/></svg></svg><svg width="3" height="3" xmlns="http://www.w3.org/2000/svg" xmlns:xlink="http://www.w3.org/1999/xlink" xmlns:svgjs="http://svgjs.com/svgjs" viewBox="0.051 0 2.897 3" fill="#f8bdc5" x="542" y="794"><svg xmlns="http://www.w3.org/2000/svg" width="3" height="3" viewBox="0.202 0.616 1.927 1.995"><path paint-order="stroke fill markers" fill-rule="evenodd" d="M2.13 1.828s-.975.664-1.91.784A.47.47 0 0 1 .24 2.3c.09-.14.196-.27.315-.388.098-.137.124-.362-.02-.445a.559.559 0 0 1-.098-.053c-.086-.078 0-.217.073-.3C.65.973.81.805.807.616c.506.328.952.737 1.322 1.212z"/></svg></svg></svg>