<svg width="684" height="479" xmlns="http://www.w3.org/2000/svg" xmlns:xlink="http://www.w3.org/1999/xlink" xmlns:svgjs="http://svgjs.com/svgjs" viewBox="0 0.278 684 478.444" fill="#f85ab4"><svg xmlns="http://www.w3.org/2000/svg" width="684" height="479" viewBox="0 0 683.964 478.419"><path paint-order="stroke fill markers" fill-rule="evenodd" d="M0 0v326.806s21.003 16.569 41.81 20.242c20.81 3.674 52.022 8.082 52.022 8.082s44.853 10.287 66.586 23.022c21.733 12.736 29.363 17.88 61.037 46.534 31.675 28.654 75.76 45.896 113.216 53.733 0 0 36.546-1.567 68.048-13.813 31.501-12.245 49.94-20.572 66.124-36.981 16.184-16.41 31.906-28.655 31.906-28.655s46.24-33.063 82.076-39.186c35.837-6.123 98.881-13.368 100.444-26.612 1.563-13.245 0-333.172 0-333.172H0z"/></svg></svg>