<svg width="125" height="118" xmlns="http://www.w3.org/2000/svg" xmlns:xlink="http://www.w3.org/1999/xlink" xmlns:svgjs="http://svgjs.com/svgjs" viewBox="93 1090 125 118"><svg width="3" height="1" xmlns="http://www.w3.org/2000/svg" xmlns:xlink="http://www.w3.org/1999/xlink" xmlns:svgjs="http://svgjs.com/svgjs" viewBox="0 0.235 3 0.531" fill="#3f3d56" x="105" y="1139"><svg xmlns="http://www.w3.org/2000/svg" xmlns:xlink="http://www.w3.org/1999/xlink" width="3" height="1" viewBox="0.582 0.539 1.522 0.269"><path paint-order="stroke fill markers" fill-rule="evenodd" d="M1.635.808C1.285.808.93.802.582.792L.59.539c.5.016 1.009.02 1.51.013l.004.253c-.156.002-.313.003-.47.003z"/></svg></svg><svg width="3" height="1" xmlns="http://www.w3.org/2000/svg" xmlns:xlink="http://www.w3.org/1999/xlink" xmlns:svgjs="http://svgjs.com/svgjs" viewBox="0 0.132 3 0.735" fill="#3f3d56" x="108" y="1139"><svg xmlns="http://www.w3.org/2000/svg" xmlns:xlink="http://www.w3.org/1999/xlink" width="3" height="1" viewBox="0.61 0.374 1.531 0.375"><path paint-order="stroke fill markers" fill-rule="evenodd" d="M.625.75L.61.496c.5-.03 1.006-.07 1.505-.123l.026.251C1.64.678 1.13.72.625.75z"/></svg></svg><svg width="3" height="1" xmlns="http://www.w3.org/2000/svg" xmlns:xlink="http://www.w3.org/1999/xlink" xmlns:svgjs="http://svgjs.com/svgjs" viewBox="0 0.107 3 0.785" fill="#3f3d56" x="102" y="1139"><svg xmlns="http://www.w3.org/2000/svg" xmlns:xlink="http://www.w3.org/1999/xlink" width="3" height="1" viewBox="0.548 0.309 1.534 0.402"><path paint-order="stroke fill markers" fill-rule="evenodd" d="M2.063.71A33.795 33.795 0 0 1 .548.56L.58.308c.497.06 1.003.11 1.503.149l-.02.252z"/></svg></svg><svg width="3" height="2" xmlns="http://www.w3.org/2000/svg" xmlns:xlink="http://www.w3.org/1999/xlink" xmlns:svgjs="http://svgjs.com/svgjs" viewBox="0 0.502 3 0.996" fill="#3f3d56" x="111" y="1138"><svg xmlns="http://www.w3.org/2000/svg" xmlns:xlink="http://www.w3.org/1999/xlink" width="3" height="2" viewBox="0.613 0.922 1.537 0.51"><path paint-order="stroke fill markers" fill-rule="evenodd" d="M.65 1.432l-.037-.25c.497-.075.997-.163 1.487-.26l.05.248c-.494.098-.999.186-1.5.262z"/></svg></svg><svg width="3" height="2" xmlns="http://www.w3.org/2000/svg" xmlns:xlink="http://www.w3.org/1999/xlink" xmlns:svgjs="http://svgjs.com/svgjs" viewBox="0 0.477 3 1.046" fill="#3f3d56" x="99" y="1138"><svg xmlns="http://www.w3.org/2000/svg" xmlns:xlink="http://www.w3.org/1999/xlink" width="3" height="2" viewBox="0.548 0.804 1.537 0.536"><path paint-order="stroke fill markers" fill-rule="evenodd" d="M2.043 1.34c-.498-.085-1.001-.182-1.495-.29L.602.805c.49.106.988.203 1.483.286l-.042.25z"/></svg></svg><svg width="3" height="1" xmlns="http://www.w3.org/2000/svg" xmlns:xlink="http://www.w3.org/1999/xlink" xmlns:svgjs="http://svgjs.com/svgjs" viewBox="0.308 0 2.385 1" fill="#3f3d56" x="114" y="1138"><svg xmlns="http://www.w3.org/2000/svg" xmlns:xlink="http://www.w3.org/1999/xlink" width="3" height="1" viewBox="0.574 0.197 1.53 0.641"><path paint-order="stroke fill markers" fill-rule="evenodd" d="M.635.839L.575.593c.487-.12.977-.253 1.457-.396l.072.243C1.621.583 1.126.717.635.839z"/></svg></svg><svg width="3" height="1" xmlns="http://www.w3.org/2000/svg" xmlns:xlink="http://www.w3.org/1999/xlink" xmlns:svgjs="http://svgjs.com/svgjs" viewBox="0.354 0 2.291 1" fill="#3f3d56" x="96" y="1138"><svg xmlns="http://www.w3.org/2000/svg" xmlns:xlink="http://www.w3.org/1999/xlink" width="3" height="1" viewBox="0.608 0.028 1.526 0.666"><path paint-order="stroke fill markers" fill-rule="evenodd" d="M2.07.694C1.58.564 1.088.421.607.269L.684.028c.477.151.965.293 1.45.421l-.065.245z"/></svg></svg><svg width="2" height="1" xmlns="http://www.w3.org/2000/svg" xmlns:xlink="http://www.w3.org/1999/xlink" xmlns:svgjs="http://svgjs.com/svgjs" viewBox="0.017 0 1.966 1" fill="#3f3d56" x="117" y="1137"><svg xmlns="http://www.w3.org/2000/svg" xmlns:xlink="http://www.w3.org/1999/xlink" width="2" height="1" viewBox="0.469 0.206 1.509 0.767"><path paint-order="stroke fill markers" fill-rule="evenodd" d="M.552.973L.47.735C.943.57 1.42.392 1.884.205l.094.236C1.51.628 1.03.808.552.973z"/></svg></svg><svg width="3" height="2" xmlns="http://www.w3.org/2000/svg" xmlns:xlink="http://www.w3.org/1999/xlink" xmlns:svgjs="http://svgjs.com/svgjs" viewBox="0 0.211 3 1.579" fill="#3f3d56" x="93" y="1136"><svg xmlns="http://www.w3.org/2000/svg" xmlns:xlink="http://www.w3.org/1999/xlink" width="3" height="2" viewBox="0.745 0.983 1.506 0.793"><path paint-order="stroke fill markers" fill-rule="evenodd" d="M2.164 1.776a32.992 32.992 0 0 1-1.42-.56L.844.983c.463.195.937.382 1.408.555l-.087.238z"/></svg></svg><svg width="2" height="2" xmlns="http://www.w3.org/2000/svg" xmlns:xlink="http://www.w3.org/1999/xlink" xmlns:svgjs="http://svgjs.com/svgjs" viewBox="0 0.399 2 1.202" fill="#3f3d56" x="120" y="1135"><svg xmlns="http://www.w3.org/2000/svg" xmlns:xlink="http://www.w3.org/1999/xlink" width="2" height="2" viewBox="0.27 0.959 1.473 0.885"><path paint-order="stroke fill markers" fill-rule="evenodd" d="M.375 1.844l-.105-.23c.454-.206.911-.427 1.358-.655l.115.225c-.45.23-.91.452-1.368.66z"/></svg></svg><svg width="3" height="2" xmlns="http://www.w3.org/2000/svg" xmlns:xlink="http://www.w3.org/1999/xlink" xmlns:svgjs="http://svgjs.com/svgjs" viewBox="0.067 0 2.867 2" fill="#3f3d56" x="122" y="1134"><svg xmlns="http://www.w3.org/2000/svg" xmlns:xlink="http://www.w3.org/1999/xlink" width="3" height="2" viewBox="0.954 0.465 1.428 0.996"><path paint-order="stroke fill markers" fill-rule="evenodd" d="M1.079 1.462l-.125-.22c.436-.249.87-.51 1.293-.777l.135.213a32.6 32.6 0 0 1-1.303.784z"/></svg></svg><svg width="2" height="2" xmlns="http://www.w3.org/2000/svg" xmlns:xlink="http://www.w3.org/1999/xlink" xmlns:svgjs="http://svgjs.com/svgjs" viewBox="0 0.198 2 1.604" fill="#3f3d56" x="125" y="1132"><svg xmlns="http://www.w3.org/2000/svg" xmlns:xlink="http://www.w3.org/1999/xlink" width="2" height="2" viewBox="0.503 0.737 1.371 1.1"><path paint-order="stroke fill markers" fill-rule="evenodd" d="M.648 1.837L.503 1.63c.41-.287.82-.587 1.217-.893l.154.2c-.4.308-.813.611-1.226.9z"/></svg></svg><svg width="3" height="2" xmlns="http://www.w3.org/2000/svg" xmlns:xlink="http://www.w3.org/1999/xlink" xmlns:svgjs="http://svgjs.com/svgjs" viewBox="0.408 0 2.184 2" fill="#3f3d56" x="127" y="1130"><svg xmlns="http://www.w3.org/2000/svg" xmlns:xlink="http://www.w3.org/1999/xlink" width="3" height="2" viewBox="0.896 0.791 1.303 1.193"><path paint-order="stroke fill markers" fill-rule="evenodd" d="M1.059 1.984L.896 1.79c.382-.323.763-.66 1.131-1L2.2.976c-.371.344-.755.682-1.14 1.008z"/></svg></svg><svg width="2" height="2" xmlns="http://www.w3.org/2000/svg" xmlns:xlink="http://www.w3.org/1999/xlink" xmlns:svgjs="http://svgjs.com/svgjs" viewBox="0.041 0 1.918 2" fill="#3f3d56" x="130" y="1128"><svg xmlns="http://www.w3.org/2000/svg" xmlns:xlink="http://www.w3.org/1999/xlink" width="2" height="2" viewBox="0.112 0.641 1.224 1.277"><path paint-order="stroke fill markers" fill-rule="evenodd" d="M.292 1.918l-.18-.178C.465 1.383.814 1.013 1.15.641l.188.17c-.338.374-.69.746-1.045 1.107z"/></svg></svg><svg width="2" height="2" xmlns="http://www.w3.org/2000/svg" xmlns:xlink="http://www.w3.org/1999/xlink" xmlns:svgjs="http://svgjs.com/svgjs" viewBox="0.159 0 1.682 2" fill="#3f3d56" x="132" y="1126"><svg xmlns="http://www.w3.org/2000/svg" xmlns:xlink="http://www.w3.org/1999/xlink" width="2" height="2" viewBox="0.134 0.307 1.135 1.35"><path paint-order="stroke fill markers" fill-rule="evenodd" d="M.33 1.656l-.196-.16c.319-.388.633-.788.933-1.19l.202.152C.967.863.651 1.266.33 1.656z"/></svg></svg><svg width="2" height="3" xmlns="http://www.w3.org/2000/svg" xmlns:xlink="http://www.w3.org/1999/xlink" xmlns:svgjs="http://svgjs.com/svgjs" viewBox="0 0.137 2 2.726" fill="#3f3d56" x="133" y="1123"><svg xmlns="http://www.w3.org/2000/svg" xmlns:xlink="http://www.w3.org/1999/xlink" width="2" height="3" viewBox="0.944 0.806 1.036 1.412"><path paint-order="stroke fill markers" fill-rule="evenodd" d="M1.153 2.218l-.209-.142c.282-.415.558-.842.82-1.27L1.98.94c-.265.43-.543.86-.827 1.279z"/></svg></svg><svg width="2" height="2" xmlns="http://www.w3.org/2000/svg" xmlns:xlink="http://www.w3.org/1999/xlink" xmlns:svgjs="http://svgjs.com/svgjs" viewBox="0.366 0 1.268 2" fill="#3f3d56" x="135" y="1121"><svg xmlns="http://www.w3.org/2000/svg" xmlns:xlink="http://www.w3.org/1999/xlink" width="2" height="2" viewBox="0.526 0.159 0.927 1.462"><path paint-order="stroke fill markers" fill-rule="evenodd" d="M.748 1.622L.526 1.5c.243-.44.479-.89.701-1.34l.227.111C1.23.725.992 1.18.748 1.621z"/></svg></svg><svg width="2" height="2" xmlns="http://www.w3.org/2000/svg" xmlns:xlink="http://www.w3.org/1999/xlink" xmlns:svgjs="http://svgjs.com/svgjs" viewBox="0.46 0 1.08 2" fill="#3f3d56" x="136" y="1118"><svg xmlns="http://www.w3.org/2000/svg" xmlns:xlink="http://www.w3.org/1999/xlink" width="2" height="2" viewBox="0.866 0.388 0.811 1.502"><path paint-order="stroke fill markers" fill-rule="evenodd" d="M1.097 1.89l-.231-.102c.201-.46.395-.931.575-1.4l.236.09c-.182.473-.377.948-.58 1.411z"/></svg></svg><svg width="2" height="3" xmlns="http://www.w3.org/2000/svg" xmlns:xlink="http://www.w3.org/1999/xlink" xmlns:svgjs="http://svgjs.com/svgjs" viewBox="0.325 0 1.351 3" fill="#3f3d56" x="137" y="1115"><svg xmlns="http://www.w3.org/2000/svg" xmlns:xlink="http://www.w3.org/1999/xlink" width="2" height="3" viewBox="0.95 0.518 0.686 1.523"><path paint-order="stroke fill markers" fill-rule="evenodd" d="M1.19 2.042l-.24-.08c.158-.475.307-.96.443-1.444l.243.068c-.137.487-.287.977-.446 1.456z"/></svg></svg><svg width="2" height="3" xmlns="http://www.w3.org/2000/svg" xmlns:xlink="http://www.w3.org/1999/xlink" xmlns:svgjs="http://svgjs.com/svgjs" viewBox="0.457 0 1.087 3" fill="#3f3d56" x="138" y="1112"><svg xmlns="http://www.w3.org/2000/svg" xmlns:xlink="http://www.w3.org/1999/xlink" width="2" height="3" viewBox="0.768 0.577 0.556 1.536"><path paint-order="stroke fill markers" fill-rule="evenodd" d="M1.014 2.112l-.246-.057c.113-.487.217-.984.308-1.478l.248.045c-.091.498-.196 1-.31 1.49z"/></svg></svg><svg width="1" height="3" xmlns="http://www.w3.org/2000/svg" xmlns:xlink="http://www.w3.org/1999/xlink" xmlns:svgjs="http://svgjs.com/svgjs" viewBox="0.087 0 0.826 3" fill="#3f3d56" x="139" y="1109"><svg xmlns="http://www.w3.org/2000/svg" xmlns:xlink="http://www.w3.org/1999/xlink" width="1" height="3" viewBox="0.315 0.585 0.423 1.535"><path paint-order="stroke fill markers" fill-rule="evenodd" d="M.565 2.12l-.25-.034c.068-.495.125-1 .17-1.5l.252.022A32.894 32.894 0 0 1 .565 2.12z"/></svg></svg><svg width="1" height="3" xmlns="http://www.w3.org/2000/svg" xmlns:xlink="http://www.w3.org/1999/xlink" xmlns:svgjs="http://svgjs.com/svgjs" viewBox="0.217 0 0.566 3" fill="#3f3d56" x="139" y="1106"><svg xmlns="http://www.w3.org/2000/svg" xmlns:xlink="http://www.w3.org/1999/xlink" width="1" height="3" viewBox="0.587 0.568 0.287 1.521"><path paint-order="stroke fill markers" fill-rule="evenodd" d="M.84 2.09l-.253-.012c.023-.5.034-1.009.034-1.51h.253c0 .505-.011 1.017-.034 1.522z"/></svg></svg><svg width="1" height="3" xmlns="http://www.w3.org/2000/svg" xmlns:xlink="http://www.w3.org/1999/xlink" xmlns:svgjs="http://svgjs.com/svgjs" viewBox="0.025 0 0.949 3" fill="#3f3d56" x="139" y="1101"><svg xmlns="http://www.w3.org/2000/svg" xmlns:xlink="http://www.w3.org/1999/xlink" width="1" height="3" viewBox="0.265 0.665 0.438 1.384"><path paint-order="stroke fill markers" fill-rule="evenodd" d="M.458 1.94C.408 1.44.338 1.197.265.701l.25-.037c.074.5.137.882.188 1.384l-.245-.11z"/></svg></svg><svg width="2" height="3" xmlns="http://www.w3.org/2000/svg" xmlns:xlink="http://www.w3.org/1999/xlink" xmlns:svgjs="http://svgjs.com/svgjs" viewBox="0.442 0 1.117 3" fill="#3f3d56" x="138" y="1098"><svg xmlns="http://www.w3.org/2000/svg" xmlns:xlink="http://www.w3.org/1999/xlink" width="2" height="3" viewBox="0.687 0.679 0.571 1.535"><path paint-order="stroke fill markers" fill-rule="evenodd" d="M1.01 2.214A33.3 33.3 0 0 0 .687.738l.245-.06c.12.49.229.99.326 1.487l-.248.049z"/></svg></svg><svg width="2" height="3" xmlns="http://www.w3.org/2000/svg" xmlns:xlink="http://www.w3.org/1999/xlink" xmlns:svgjs="http://svgjs.com/svgjs" viewBox="0.309 0 1.381 3" fill="#3f3d56" x="137" y="1095"><svg xmlns="http://www.w3.org/2000/svg" xmlns:xlink="http://www.w3.org/1999/xlink" width="2" height="3" viewBox="0.838 0.758 0.7 1.521"><path paint-order="stroke fill markers" fill-rule="evenodd" d="M1.296 2.28A32.965 32.965 0 0 0 .838.84l.239-.082c.164.477.32.966.461 1.45l-.242.071z"/></svg></svg><svg width="2" height="3" xmlns="http://www.w3.org/2000/svg" xmlns:xlink="http://www.w3.org/1999/xlink" xmlns:svgjs="http://svgjs.com/svgjs" viewBox="0.173 0 1.654 3" fill="#3f3d56" x="136" y="1092"><svg xmlns="http://www.w3.org/2000/svg" xmlns:xlink="http://www.w3.org/1999/xlink" width="2" height="3" viewBox="0.727 0.933 0.822 1.491"><path paint-order="stroke fill markers" fill-rule="evenodd" d="M1.314 2.424a32.946 32.946 0 0 0-.587-1.388l.23-.103c.207.458.406.93.592 1.398l-.235.093z"/></svg></svg><svg width="2" height="2" xmlns="http://www.w3.org/2000/svg" xmlns:xlink="http://www.w3.org/1999/xlink" xmlns:svgjs="http://svgjs.com/svgjs" viewBox="0.355 0 1.29 2" fill="#3f3d56" x="135" y="1090"><svg xmlns="http://www.w3.org/2000/svg" xmlns:xlink="http://www.w3.org/1999/xlink" width="2" height="2" viewBox="0.365 0.223 0.938 1.454"><path paint-order="stroke fill markers" fill-rule="evenodd" d="M1.077 1.677A32.901 32.901 0 0 0 .365.347l.22-.124c.248.439.49.89.717 1.34l-.225.114z"/></svg></svg><svg width="14" height="15" xmlns="http://www.w3.org/2000/svg" xmlns:xlink="http://www.w3.org/1999/xlink" xmlns:svgjs="http://svgjs.com/svgjs" viewBox="0.487 0 13.027 15" fill="#3f3d56" x="122" y="1164"><svg xmlns="http://www.w3.org/2000/svg" xmlns:xlink="http://www.w3.org/1999/xlink" width="14" height="15" viewBox="0.532 0.619 12.478 14.368"><path paint-order="stroke fill markers" fill-rule="evenodd" d="M9.577 5.366c3.446 3.968 3.432 9.62 3.432 9.62s-5.599-.778-9.045-4.746C.52 6.273.532.62.532.62s5.599.779 9.045 4.746z"/></svg></svg><svg width="9" height="19" xmlns="http://www.w3.org/2000/svg" xmlns:xlink="http://www.w3.org/1999/xlink" xmlns:svgjs="http://svgjs.com/svgjs" viewBox="0.253 0 8.494 19" fill="#f80583" x="126" y="1127"><svg xmlns="http://www.w3.org/2000/svg" xmlns:xlink="http://www.w3.org/1999/xlink" width="9" height="19" viewBox="0.605 0.57 8.145 18.218"><path paint-order="stroke fill markers" fill-rule="evenodd" d="M1.119 10.753c1.518 5.031 6.307 8.036 6.307 8.036s2.327-5.152.81-10.183C6.717 3.576 1.928.57 1.928.57S-.4 5.722 1.119 10.753z"/></svg></svg><svg width="15" height="14" xmlns="http://www.w3.org/2000/svg" xmlns:xlink="http://www.w3.org/1999/xlink" xmlns:svgjs="http://svgjs.com/svgjs" viewBox="0 0.109 15 13.782" fill="#3f3d56" x="119" y="1132"><svg xmlns="http://www.w3.org/2000/svg" xmlns:xlink="http://www.w3.org/1999/xlink" width="15" height="14" viewBox="0.582 0.905 14.013 12.875"><path paint-order="stroke fill markers" fill-rule="evenodd" d="M10.103 4.605c3.87 3.556 4.492 9.175 4.492 9.175s-5.651-.146-9.521-3.7C1.204 6.523.582.904.582.904s5.651.145 9.521 3.7z"/></svg></svg><svg width="17" height="13" xmlns="http://www.w3.org/2000/svg" xmlns:xlink="http://www.w3.org/1999/xlink" xmlns:svgjs="http://svgjs.com/svgjs" viewBox="0 0.136 17 12.728" fill="#3f3d56" x="135" y="1148"><svg xmlns="http://www.w3.org/2000/svg" xmlns:xlink="http://www.w3.org/1999/xlink" width="17" height="13" viewBox="0.914 0.694 15.252 11.419"><path paint-order="stroke fill markers" fill-rule="evenodd" d="M6.318 3.424C2.106 6.566.914 12.093.914 12.093s5.637.431 9.849-2.71c4.212-3.143 5.404-8.67 5.404-8.67s-5.637-.43-9.85 2.711z"/></svg></svg><svg width="16" height="3" xmlns="http://www.w3.org/2000/svg" xmlns:xlink="http://www.w3.org/1999/xlink" xmlns:svgjs="http://svgjs.com/svgjs" viewBox="0 0.303 16 2.393" fill="#3f3d56" x="129" y="1191"><svg xmlns="http://www.w3.org/2000/svg" xmlns:xlink="http://www.w3.org/1999/xlink" width="16" height="3" viewBox="0.291 0.027 14.858 2.222"><path paint-order="stroke fill markers" fill-rule="evenodd" d="M15.148 2.114s-.037.048-.11.136H.29A13.412 13.412 0 0 1 5.108.23c5.164-.975 10.04 1.884 10.04 1.884z"/></svg></svg><svg width="10" height="49" xmlns="http://www.w3.org/2000/svg" xmlns:xlink="http://www.w3.org/1999/xlink" xmlns:svgjs="http://svgjs.com/svgjs" viewBox="0.88 0 8.24 49" fill="#3f3d56" x="127" y="1145"><svg xmlns="http://www.w3.org/2000/svg" xmlns:xlink="http://www.w3.org/1999/xlink" width="10" height="49" viewBox="0.995 0.022 8.11 48.227"><path paint-order="stroke fill markers" fill-rule="evenodd" d="M8.022 32.86c-.018.09-.037.178-.057.267-.017.087-.037.174-.056.261-.04.188-.083.375-.126.562a42.308 42.308 0 0 1-6.203 14.3H.995c2.893-4.155 5.072-9.058 6.314-14.395.036-.155.072-.31.106-.467a43.575 43.575 0 0 0 .356-1.775C9.381 22.75 8.71 12.622 5.731.71L5.604.203a.793.793 0 0 1-.016-.061l.468-.12c.053.209.106.417.156.625l.03.112c3.09 12.428 3.671 22.936 1.78 32.101z"/></svg></svg><svg width="11" height="10" xmlns="http://www.w3.org/2000/svg" xmlns:xlink="http://www.w3.org/1999/xlink" xmlns:svgjs="http://svgjs.com/svgjs" viewBox="0.5 0 10 10" fill="#3f3d56" x="115" y="1120"><svg xmlns="http://www.w3.org/2000/svg" xmlns:xlink="http://www.w3.org/1999/xlink" width="11" height="10" viewBox="0.998 0.8 9.172 9.172"><path paint-order="stroke fill markers" fill-rule="evenodd" d="M5.584 9.972A4.582 4.582 0 0 1 .998 5.386 4.582 4.582 0 0 1 5.584.8a4.582 4.582 0 0 1 4.586 4.586 4.582 4.582 0 0 1-4.586 4.586z"/></svg></svg><svg width="12" height="12" xmlns="http://www.w3.org/2000/svg" xmlns:xlink="http://www.w3.org/1999/xlink" xmlns:svgjs="http://svgjs.com/svgjs" viewBox="0.541 0 10.919 12" fill="#3f3d56" x="200" y="1173"><svg xmlns="http://www.w3.org/2000/svg" xmlns:xlink="http://www.w3.org/1999/xlink" width="12" height="12" viewBox="0.682 0.446 10.442 11.476"><path paint-order="stroke fill markers" fill-rule="evenodd" d="M3.662 4.144C.78 7.314.682 11.922.682 11.922s4.58-.53 7.463-3.698c2.884-3.17 2.98-7.778 2.98-7.778s-4.58.53-7.463 3.698z"/></svg></svg><svg width="8" height="15" xmlns="http://www.w3.org/2000/svg" xmlns:xlink="http://www.w3.org/1999/xlink" xmlns:svgjs="http://svgjs.com/svgjs" viewBox="0.571 0 6.859 15" fill="#f80583" x="201" y="1143"><svg xmlns="http://www.w3.org/2000/svg" xmlns:xlink="http://www.w3.org/1999/xlink" width="8" height="15" viewBox="0.641 0.144 6.743 14.747"><path paint-order="stroke fill markers" fill-rule="evenodd" d="M6.893 8.46C5.56 12.531 1.6 14.89 1.6 14.89s-1.8-4.243-.467-8.315C2.465 2.503 6.425.144 6.425.144s1.8 4.243.468 8.315z"/></svg></svg><svg width="13" height="11" xmlns="http://www.w3.org/2000/svg" xmlns:xlink="http://www.w3.org/1999/xlink" xmlns:svgjs="http://svgjs.com/svgjs" viewBox="0.229 0 12.543 11" fill="#3f3d56" x="202" y="1147"><svg xmlns="http://www.w3.org/2000/svg" xmlns:xlink="http://www.w3.org/1999/xlink" width="13" height="11" viewBox="0.463 0.65 11.666 10.231"><path paint-order="stroke fill markers" fill-rule="evenodd" d="M4.297 3.486C1.076 6.311.463 10.88.463 10.88s4.609-.012 7.83-2.837C11.516 5.218 12.129.65 12.129.65s-4.61.011-7.83 2.836z"/></svg></svg><svg width="13" height="11" xmlns="http://www.w3.org/2000/svg" xmlns:xlink="http://www.w3.org/1999/xlink" xmlns:svgjs="http://svgjs.com/svgjs" viewBox="0 0.406 13 10.188" fill="#3f3d56" x="188" y="1159"><svg xmlns="http://www.w3.org/2000/svg" xmlns:xlink="http://www.w3.org/1999/xlink" width="13" height="11" viewBox="0.084 0.934 12.218 9.576"><path paint-order="stroke fill markers" fill-rule="evenodd" d="M8.06 3.335c3.375 2.641 4.242 7.168 4.242 7.168s-4.603.246-7.977-2.395C.951 5.468.084.94.084.94S4.687.694 8.06 3.335z"/></svg></svg><svg width="5" height="37" xmlns="http://www.w3.org/2000/svg" xmlns:xlink="http://www.w3.org/1999/xlink" xmlns:svgjs="http://svgjs.com/svgjs" viewBox="0.367 0 4.265 37" fill="#3f3d56" x="200" y="1157"><svg xmlns="http://www.w3.org/2000/svg" xmlns:xlink="http://www.w3.org/1999/xlink" width="5" height="37" viewBox="0.008 0.273 4.147 35.977"><path paint-order="stroke fill markers" fill-rule="evenodd" d="M4.155 36.25h-.44a35.378 35.378 0 0 1-3.022-9.247 42.309 42.309 0 0 1-.631-5.615C-.231 15.288.66 8.516 2.752.871c.007-.031.015-.062.025-.093.045-.168.092-.336.139-.505l.38.107-.014.046-.114.414C1.06 8.51.162 15.289.456 21.388a42.43 42.43 0 0 0 .625 5.544 34.91 34.91 0 0 0 3.074 9.317z"/></svg></svg><svg width="9" height="9" xmlns="http://www.w3.org/2000/svg" xmlns:xlink="http://www.w3.org/1999/xlink" xmlns:svgjs="http://svgjs.com/svgjs" fill="#3f3d56" x="209" y="1137"><svg xmlns="http://www.w3.org/2000/svg" xmlns:xlink="http://www.w3.org/1999/xlink" width="9" height="9" viewBox="0.714 0.762 7.479 7.479"><path paint-order="stroke fill markers" fill-rule="evenodd" d="M4.454 8.241a3.736 3.736 0 0 1-3.74-3.74A3.736 3.736 0 0 1 4.454.763a3.736 3.736 0 0 1 3.739 3.74 3.736 3.736 0 0 1-3.74 3.74z"/></svg></svg><svg width="27" height="40" xmlns="http://www.w3.org/2000/svg" xmlns:xlink="http://www.w3.org/1999/xlink" xmlns:svgjs="http://svgjs.com/svgjs" viewBox="0.013 0 26.974 40" fill="#2f2e41" x="153" y="1154"><svg xmlns="http://www.w3.org/2000/svg" xmlns:xlink="http://www.w3.org/1999/xlink" width="27" height="40" viewBox="0.076 0.297 26.267 38.952"><path paint-order="stroke fill markers" fill-rule="evenodd" d="M20.102 21.051l-.107 3.337-.472 14.862H5.8L4.406 24.388l-.689-7.343L.077 5.03 23.741.297s1.821 6.919 2.548 12.015c.728 5.098-6.188 8.74-6.188 8.74z"/></svg></svg><svg width="27" height="40" xmlns="http://www.w3.org/2000/svg" xmlns:xlink="http://www.w3.org/1999/xlink" xmlns:svgjs="http://svgjs.com/svgjs" viewBox="0.013 0 26.974 40" opacity=".2" x="153" y="1154"><svg xmlns="http://www.w3.org/2000/svg" xmlns:xlink="http://www.w3.org/1999/xlink" width="27" height="40" viewBox="0.076 0.297 26.267 38.952"><path paint-order="stroke fill markers" fill-rule="evenodd" d="M20.102 21.051l-.107 3.337-.472 14.862H5.8L4.406 24.388l-.689-7.343L.077 5.03 23.741.297s1.821 6.919 2.548 12.015c.728 5.098-6.188 8.74-6.188 8.74z"/></svg></svg><svg width="29" height="26" xmlns="http://www.w3.org/2000/svg" xmlns:xlink="http://www.w3.org/1999/xlink" xmlns:svgjs="http://svgjs.com/svgjs" viewBox="0 0.268 29 25.464" fill="#2f2e41" x="165" y="1093"><svg xmlns="http://www.w3.org/2000/svg" xmlns:xlink="http://www.w3.org/1999/xlink" width="29" height="26" viewBox="0.021 0.473 28.288 24.838"><path paint-order="stroke fill markers" fill-rule="evenodd" d="M13.173.473C5.909.473.021 7.008.021 15.07v10.242h3.15l1.823-3.795-.456 3.795h20.247l1.658-3.45-.414 3.45h2.28V17.27c0-9.277-6.777-16.797-15.136-16.797z"/></svg></svg><svg width="22" height="11" xmlns="http://www.w3.org/2000/svg" xmlns:xlink="http://www.w3.org/1999/xlink" xmlns:svgjs="http://svgjs.com/svgjs" viewBox="0 0.287 22 10.427" fill="#ffb9b9" x="163" y="1139"><svg xmlns="http://www.w3.org/2000/svg" xmlns:xlink="http://www.w3.org/1999/xlink" width="22" height="11" viewBox="0.635 0.537 20.389 9.663"><path paint-order="stroke fill markers" fill-rule="evenodd" d="M2.82 1.826L.634 10.2l20.389-.728-.364-6.918S5.368-1.45 2.82 1.826z"/></svg></svg><svg width="13" height="18" xmlns="http://www.w3.org/2000/svg" xmlns:xlink="http://www.w3.org/1999/xlink" xmlns:svgjs="http://svgjs.com/svgjs" viewBox="0.071 0 12.857 18" fill="#ffb9b9" x="146" y="1171"><svg xmlns="http://www.w3.org/2000/svg" xmlns:xlink="http://www.w3.org/1999/xlink" width="13" height="18" viewBox="0.158 0.046 12.743 17.84"><path paint-order="stroke fill markers" fill-rule="evenodd" d="M.158 3.322l6.554 14.564 6.19-7.646L7.803.046.158 3.322z"/></svg></svg><svg width="18" height="18" xmlns="http://www.w3.org/2000/svg" xmlns:xlink="http://www.w3.org/1999/xlink" xmlns:svgjs="http://svgjs.com/svgjs" fill="#ffb9b9" x="167" y="1099"><svg xmlns="http://www.w3.org/2000/svg" xmlns:xlink="http://www.w3.org/1999/xlink" width="18" height="18" viewBox="0.276 0.32 16.748 16.748"><path paint-order="stroke fill markers" fill-rule="evenodd" d="M8.65 17.068A8.367 8.367 0 0 1 .276 8.694 8.366 8.366 0 0 1 8.65.32a8.366 8.366 0 0 1 8.374 8.374 8.367 8.367 0 0 1-8.374 8.374z"/></svg></svg><svg width="20" height="17" xmlns="http://www.w3.org/2000/svg" xmlns:xlink="http://www.w3.org/1999/xlink" xmlns:svgjs="http://svgjs.com/svgjs" viewBox="0 0.038 20 16.923" fill="#ffb9b9" x="169" y="1110"><svg xmlns="http://www.w3.org/2000/svg" xmlns:xlink="http://www.w3.org/1999/xlink" width="20" height="17" viewBox="0.096 0.606 18.933 16.02"><path paint-order="stroke fill markers" fill-rule="evenodd" d="M19.029 8.616l-3.852 3.212-.517.43-.364 4.369H.096s1.937-1.679 3.736-3.416c.036-.04.076-.083.12-.124.244-.236.462-.455.659-.651.105-.11.207-.211.298-.306.15-.157.295-.306.441-.455a14.266 14.266 0 0 0 1.052-1.238l.004-.004c.087-.116.169-.236.244-.36C7.742 8.253 5.193 4.61 5.193 4.61l8.01-4.005c.28 3.947 3.62 6.583 5.112 7.573.437.288.714.437.714.437z"/></svg></svg><svg width="30" height="62" xmlns="http://www.w3.org/2000/svg" xmlns:xlink="http://www.w3.org/1999/xlink" xmlns:svgjs="http://svgjs.com/svgjs" viewBox="0.395 0 29.209 62" fill="#ffb9b9" x="180" y="1118"><svg xmlns="http://www.w3.org/2000/svg" xmlns:xlink="http://www.w3.org/1999/xlink" width="30" height="62" viewBox="0.747 0.554 28.91 61.363"><path paint-order="stroke fill markers" fill-rule="evenodd" d="M27.69 61.784c-5.461 1.456-5.826-9.467-5.826-9.467L14.411 37.41a34.47 34.47 0 0 1-3.212-10.001L9.485 16.637l-.52.622v.004l-.936.466-5.687-9.102-1.595-2.55V3.166L6.21.616h2.184S8.44.61 8.524.602c1.005-.106 7.544-.543 7.88 5.84.13 2.505.12 4.58.051 6.209a48.075 48.075 0 0 0 1.27 13.402c.386 1.581.806 2.955 1.227 3.69 1.456 2.55 6.553 22.574 6.553 22.574s7.646 8.01 2.185 9.467z"/></svg></svg><svg width="27" height="36" xmlns="http://www.w3.org/2000/svg" xmlns:xlink="http://www.w3.org/1999/xlink" xmlns:svgjs="http://svgjs.com/svgjs" viewBox="0 0.087 27 35.826" fill="#ffb9b9" x="148" y="1106"><svg xmlns="http://www.w3.org/2000/svg" xmlns:xlink="http://www.w3.org/1999/xlink" width="27" height="36" viewBox="0.327 0.884 25.866 34.322"><path paint-order="stroke fill markers" fill-rule="evenodd" d="M26.193 16.622l-1.38 2.515-.815 1.49-3.994 7.281s-1.132.925-2.967 2.12c-3.051 1.984-8.054 4.707-13.053 5.162-8.01.729-.364-25.122-.364-25.122S6.168-.127 9.81.966c3.64 1.092.728 4.733-1.821 11.65-2.549 6.918-.364 14.564-.364 14.564s7.646-4.733 11.65-8.374c2.087-1.897 3.878-2.41 5.113-2.465h.003c.41-.022.82.01 1.22.095.2.04.396.102.582.186z"/></svg></svg><svg width="3" height="3" xmlns="http://www.w3.org/2000/svg" xmlns:xlink="http://www.w3.org/1999/xlink" xmlns:svgjs="http://svgjs.com/svgjs" viewBox="0.177 0 2.645 3" fill="#d0cde1" x="173" y="1120"><svg xmlns="http://www.w3.org/2000/svg" xmlns:xlink="http://www.w3.org/1999/xlink" width="3" height="3" viewBox="0.909 0.437 1.493 1.693"><path paint-order="stroke fill markers" fill-rule="evenodd" d="M2.402.437C2.388.477 2.217.801.91 2.13A17.605 17.605 0 0 0 2.402.437z"/></svg></svg><svg width="26" height="27" xmlns="http://www.w3.org/2000/svg" xmlns:xlink="http://www.w3.org/1999/xlink" xmlns:svgjs="http://svgjs.com/svgjs" viewBox="0.194 0 25.613 27" fill="#d0cde1" x="164" y="1118"><svg xmlns="http://www.w3.org/2000/svg" xmlns:xlink="http://www.w3.org/1999/xlink" width="26" height="27" viewBox="0.367 0.18 24.936 26.287"><path paint-order="stroke fill markers" fill-rule="evenodd" d="M25.303 16.818l-.338.445-5.305 9.204s-6.918-2.548-12.015-3.277a7.14 7.14 0 0 0-7.278 3.266l1.452-5.814-.782-2.615c-.091-.306-.197-.644-.31-1.026C-.365 13.36 3.64 9.355 3.64 9.355L8.388 4.34h.003c.41-.022.82.01 1.22.095-.197.196-.415.415-.659.652-.044.04-.084.083-.12.123-1.395 1.424-.67 1.82-.018 1.926.215.033.434.044.651.033 1.519.219 4.843-1.114 7.282-2.228 1.66-.757 2.913-1.413 2.913-1.413L22.838.617l.477-.437c.437.287.714.437.714.437h.364s.047-.008.131-.015l-1.658 1.23a6.163 6.163 0 0 0-2.478 5.338l4.915 9.648z"/></svg></svg><svg width="56" height="36" xmlns="http://www.w3.org/2000/svg" xmlns:xlink="http://www.w3.org/1999/xlink" xmlns:svgjs="http://svgjs.com/svgjs" viewBox="0 0.647 56 34.707" fill="#2f2e41" x="130" y="1141"><svg xmlns="http://www.w3.org/2000/svg" xmlns:xlink="http://www.w3.org/1999/xlink" width="56" height="36" viewBox="0.233 0.626 55.693 34.517"><path paint-order="stroke fill markers" fill-rule="evenodd" d="M39.46 4.195l-5.323 2.079S5.236-4.907.867 4.195c-4.37 9.103 15.291 30.948 15.291 30.948l8.739-4.005-3.641-10.923s21.117 17.84 29.855 8.01 2.913-23.73 2.913-23.73-5.461-4.305-14.564-.3z"/></svg></svg><svg width="18" height="30" xmlns="http://www.w3.org/2000/svg" xmlns:xlink="http://www.w3.org/1999/xlink" xmlns:svgjs="http://svgjs.com/svgjs" viewBox="0.359 0 17.282 30" fill="#2f2e41" x="150" y="1178"><svg xmlns="http://www.w3.org/2000/svg" xmlns:xlink="http://www.w3.org/1999/xlink" width="18" height="30" viewBox="0.892 0.812 16.511 28.661"><path paint-order="stroke fill markers" fill-rule="evenodd" d="M4.168 6.881L.892 9.43S3.804 21.08 2.712 22.9c-1.092 1.82-3.277 6.918.728 6.554 4.005-.364 8.374-6.554 8.738-8.738.364-2.185 2.913-8.738 2.913-8.738s4.37-10.195 1.093-10.56C12.907 1.057 7.687.813 7.687.813l-3.519 6.07z"/></svg></svg><svg width="24" height="25" xmlns="http://www.w3.org/2000/svg" xmlns:xlink="http://www.w3.org/1999/xlink" xmlns:svgjs="http://svgjs.com/svgjs" viewBox="0 0.191 24 24.618" fill="#2f2e41" x="167" y="1094"><svg xmlns="http://www.w3.org/2000/svg" xmlns:xlink="http://www.w3.org/1999/xlink" width="24" height="25" viewBox="0.197 0.717 23.003 23.595"><path paint-order="stroke fill markers" fill-rule="evenodd" d="M14.912 3.494C13.592 1.794 11.644.717 9.47.717H9.21C4.233.717.197 5.222.197 10.779h1.668l.27-2.05.394 2.05h9.894l.83-1.735-.208 1.735h1.947c.908 4.511-.397 9.022-3.916 13.533h3.316l1.658-3.47-.414 3.47h6.32l1.244-7.98c0-5.978-3.473-11.046-8.288-12.838z"/></svg></svg><svg width="86" height="1" xmlns="http://www.w3.org/2000/svg" xmlns:xlink="http://www.w3.org/1999/xlink" xmlns:svgjs="http://svgjs.com/svgjs" viewBox="0 0.274 86 0.453" fill="#3f3d56" x="117" y="1207"><svg xmlns="http://www.w3.org/2000/svg" width="86" height="1" viewBox="0.833 0.339 84.251 0.443"><path paint-order="stroke fill markers" fill-rule="evenodd" d="M.833.34h84.25v.443H.834V.339z"/></svg></svg></svg>