<svg width="91" height="148" xmlns="http://www.w3.org/2000/svg" xmlns:xlink="http://www.w3.org/1999/xlink" xmlns:svgjs="http://svgjs.com/svgjs" viewBox="464 1927 91 148"><svg width="25" height="33" xmlns="http://www.w3.org/2000/svg" xmlns:xlink="http://www.w3.org/1999/xlink" xmlns:svgjs="http://svgjs.com/svgjs" viewBox="0.4 0 24.2 33" fill="#f2f2f2" x="464" y="2024"><svg xmlns="http://www.w3.org/2000/svg" xmlns:xlink="http://www.w3.org/1999/xlink" width="25" height="33" viewBox="0.238 0.176 23.86 32.537"><path paint-order="stroke fill markers" fill-rule="evenodd" d="M22.588 14.382l-5.616 5.17 4.463-7.489C17.919 5.687 12.168.176 12.168.176S.238 11.606.238 20.591s5.341 12.123 11.93 12.123c6.589 0 11.93-3.137 11.93-12.123 0-2-.591-4.12-1.51-6.21z"/></svg></svg><svg width="4" height="34" xmlns="http://www.w3.org/2000/svg" xmlns:xlink="http://www.w3.org/1999/xlink" xmlns:svgjs="http://svgjs.com/svgjs" viewBox="0.219 0 3.562 34" fill="#fff" x="476" y="2023"><svg xmlns="http://www.w3.org/2000/svg" xmlns:xlink="http://www.w3.org/1999/xlink" width="4" height="34" viewBox="0.101 0.678 3.427 32.711"><path paint-order="stroke fill markers" fill-rule="evenodd" d="M3.528 20.831v.443C3.502 26.422 2.634 30.44.93 33.267c-.024.042-.05.081-.075.123l-.19-.116-.182-.114c1.89-3.054 2.558-7.371 2.582-11.862.002-.144.005-.291.002-.438a59.822 59.822 0 0 0-.308-5.692l-.044-.438a87.837 87.837 0 0 0-1.097-7.297C.958 3.973.285 1.468.132.913L.1.8l.208-.06.003-.002.21-.059c.002.01.04.134.1.366.235.869.845 3.226 1.444 6.335.026.14.054.284.08.43.312 1.659.617 3.514.858 5.46.061.49.116.972.164 1.448a59.673 59.673 0 0 1 .36 6.115z"/></svg></svg><svg width="11" height="2" xmlns="http://www.w3.org/2000/svg" xmlns:xlink="http://www.w3.org/1999/xlink" xmlns:svgjs="http://svgjs.com/svgjs" viewBox="0 0.178 11 1.643" fill="#fff" x="471" y="2029"><svg xmlns="http://www.w3.org/2000/svg" xmlns:xlink="http://www.w3.org/1999/xlink" width="11" height="2" viewBox="0.017 0.348 10.627 1.587"><path paint-order="stroke fill markers" fill-rule="evenodd" d="M7.066 1.379a12.072 12.072 0 0 1-1.684.118A11.77 11.77 0 0 1 .295.348l-.278.35a12.203 12.203 0 0 0 5.365 1.237 12.587 12.587 0 0 0 1.765-.127A12.102 12.102 0 0 0 10.644.75c-.095-.12-.187-.239-.276-.355-1.046.489-2.16.82-3.302.985z"/></svg></svg><svg width="18" height="7" xmlns="http://www.w3.org/2000/svg" xmlns:xlink="http://www.w3.org/1999/xlink" xmlns:svgjs="http://svgjs.com/svgjs" viewBox="0 0.602 18 5.796" fill="#fff" x="468" y="2032"><svg xmlns="http://www.w3.org/2000/svg" xmlns:xlink="http://www.w3.org/1999/xlink" width="18" height="7" viewBox="0.605 0.661 17.11 5.51"><path paint-order="stroke fill markers" fill-rule="evenodd" d="M11.169 5.717a7.774 7.774 0 0 1-.454.013c-.046.002-.095.002-.14.002-3.872 0-7.498-1.894-9.709-5.071-.088.13-.175.258-.26.39a12.267 12.267 0 0 0 9.968 5.12c.062 0 .123 0 .185-.003a12.2 12.2 0 0 0 6.957-2.293c-.071-.13-.141-.259-.213-.388a11.747 11.747 0 0 1-6.334 2.23z"/></svg></svg><svg width="22" height="10" xmlns="http://www.w3.org/2000/svg" xmlns:xlink="http://www.w3.org/1999/xlink" xmlns:svgjs="http://svgjs.com/svgjs" viewBox="0 0.234 22 9.532" fill="#fff" x="466" y="2035"><svg xmlns="http://www.w3.org/2000/svg" xmlns:xlink="http://www.w3.org/1999/xlink" width="22" height="10" viewBox="0.913 0.338 20.706 8.972"><path paint-order="stroke fill markers" fill-rule="evenodd" d="M13.528 8.831a10.84 10.84 0 0 1-.954.04A11.86 11.86 0 0 1 1.204.338c-.098.177-.197.353-.291.53a12.294 12.294 0 0 0 12.615 8.406 12.258 12.258 0 0 0 8.09-3.948c-.046-.163-.099-.323-.151-.485a11.821 11.821 0 0 1-7.94 3.99z"/></svg></svg><svg width="28" height="22" xmlns="http://www.w3.org/2000/svg" xmlns:xlink="http://www.w3.org/1999/xlink" xmlns:svgjs="http://svgjs.com/svgjs" viewBox="0.102 0 27.796 22" fill="#2f2e41" x="523" y="1932"><svg xmlns="http://www.w3.org/2000/svg" xmlns:xlink="http://www.w3.org/1999/xlink" width="28" height="22" viewBox="0.865 0.328 26.608 21.059"><path paint-order="stroke fill markers" fill-rule="evenodd" d="M22.322 5.169C19.049.56 12.574.345 12.574.345S6.265-.327 2.218 6.692C-1.555 13.234 3.76 21.367 3.76 21.367c1.05.063 5.592.09 19.11-1.58l.606-3.266 1.737 2.978 2.26-.274c-.356-3.466-2.003-9.622-5.152-14.056z"/></svg></svg><svg width="9" height="38" xmlns="http://www.w3.org/2000/svg" xmlns:xlink="http://www.w3.org/1999/xlink" xmlns:svgjs="http://svgjs.com/svgjs" viewBox="0.003 0 8.993 38" fill="#ffb8b8" x="546" y="1971"><svg xmlns="http://www.w3.org/2000/svg" xmlns:xlink="http://www.w3.org/1999/xlink" width="9" height="38" viewBox="0.267 0.828 8.662 36.6"><path paint-order="stroke fill markers" fill-rule="evenodd" d="M7.037 30.652L6.17.828.267 3.411l2.848 27.564a3.605 3.605 0 1 0 3.922-.323z"/></svg></svg><svg width="9" height="20" xmlns="http://www.w3.org/2000/svg" xmlns:xlink="http://www.w3.org/1999/xlink" xmlns:svgjs="http://svgjs.com/svgjs" viewBox="0.089 0 8.822 20" fill="#f85ab4" x="545" y="1956"><svg xmlns="http://www.w3.org/2000/svg" xmlns:xlink="http://www.w3.org/1999/xlink" width="9" height="20" viewBox="0.345 0.518 8.485 19.237"><path paint-order="stroke fill markers" fill-rule="evenodd" d="M.345 19.702c3.85.372 6.614-1.218 8.485-4.427L7.538 9.362A9.047 9.047 0 0 0 1.216.735L.529.518.345 19.702z"/></svg></svg><svg width="10" height="17" xmlns="http://www.w3.org/2000/svg" xmlns:xlink="http://www.w3.org/1999/xlink" xmlns:svgjs="http://svgjs.com/svgjs" viewBox="0.467 0 9.066 17" fill="#f80583" x="505" y="1951"><svg xmlns="http://www.w3.org/2000/svg" xmlns:xlink="http://www.w3.org/1999/xlink" width="10" height="17" viewBox="0.946 0.416 8.578 16.085"><path paint-order="stroke fill markers" fill-rule="evenodd" d="M8.233 16.5c-.05 0-.1-.004-.15-.014l-7.121-.12-.016-.178v-.008l.591-14.672A1.142 1.142 0 0 1 2.73.418L8.433.67c.63.028 1.119.562 1.09 1.192L8.963 15.8a.731.731 0 0 1-.73.7z"/></svg></svg><svg width="10" height="17" xmlns="http://www.w3.org/2000/svg" xmlns:xlink="http://www.w3.org/1999/xlink" xmlns:svgjs="http://svgjs.com/svgjs" viewBox="0.436 0 9.128 17" fill="#2f2e41" x="505" y="1951"><svg xmlns="http://www.w3.org/2000/svg" xmlns:xlink="http://www.w3.org/1999/xlink" width="10" height="17" viewBox="0.666 0.522 8.585 15.99"><path paint-order="stroke fill markers" fill-rule="evenodd" d="M7.457 16.511h-.055l-5.59-.25A1.2 1.2 0 0 1 .666 15.01l.598-13.397A1.144 1.144 0 0 1 2.456.523L8.16.777c.63.029 1.118.562 1.09 1.192l-.597 13.397a1.199 1.199 0 0 1-1.196 1.145z"/></svg></svg><svg width="2" height="2" xmlns="http://www.w3.org/2000/svg" xmlns:xlink="http://www.w3.org/1999/xlink" xmlns:svgjs="http://svgjs.com/svgjs" fill="#f80583" x="509" y="1954"><svg xmlns="http://www.w3.org/2000/svg" xmlns:xlink="http://www.w3.org/1999/xlink" width="2" height="2" viewBox="0.137 0.205 1.633 1.633"><path paint-order="stroke fill markers" fill-rule="evenodd" d="M.954 1.839A.816.816 0 1 1 .952.207a.816.816 0 0 1 .002 1.632z"/></svg></svg><svg width="19" height="22" xmlns="http://www.w3.org/2000/svg" xmlns:xlink="http://www.w3.org/1999/xlink" xmlns:svgjs="http://svgjs.com/svgjs" viewBox="0.312 0 18.376 22" fill="#ffb8b8" x="505" y="1963"><svg xmlns="http://www.w3.org/2000/svg" xmlns:xlink="http://www.w3.org/1999/xlink" width="19" height="22" viewBox="0.211 0.223 17.959 21.501"><path paint-order="stroke fill markers" fill-rule="evenodd" d="M11.742 8.147v5.385L6.54 5.334a3.397 3.397 0 1 0-3.304 1.661l7.273 12.886a3.622 3.622 0 0 0 6.762-1.442l.9-9.597-6.428-.695z"/></svg></svg><svg width="9" height="19" xmlns="http://www.w3.org/2000/svg" xmlns:xlink="http://www.w3.org/1999/xlink" xmlns:svgjs="http://svgjs.com/svgjs" viewBox="0.31 0 8.381 19" fill="#f85ab4" x="515" y="1957"><svg xmlns="http://www.w3.org/2000/svg" xmlns:xlink="http://www.w3.org/1999/xlink" width="9" height="19" viewBox="0.873 0.249 7.991 18.117"><path paint-order="stroke fill markers" fill-rule="evenodd" d="M8.864 18.316c-3.625.35-6.23-1.147-7.99-4.17l1.215-5.568A8.52 8.52 0 0 1 8.044.453l.647-.204.173 18.067z"/></svg></svg><svg width="7" height="17" xmlns="http://www.w3.org/2000/svg" xmlns:xlink="http://www.w3.org/1999/xlink" xmlns:svgjs="http://svgjs.com/svgjs" viewBox="0.126 0 6.747 17" fill="#ffb6b6" x="528" y="2055"><svg xmlns="http://www.w3.org/2000/svg" xmlns:xlink="http://www.w3.org/1999/xlink" width="7" height="17" viewBox="0.303 0.565 6.449 16.25"><path paint-order="stroke fill markers" fill-rule="evenodd" d="M4.27 16.815l-3.967-.644L.898.565l5.854.95-2.482 15.3z"/></svg></svg><svg width="14" height="6" xmlns="http://www.w3.org/2000/svg" xmlns:xlink="http://www.w3.org/1999/xlink" xmlns:svgjs="http://svgjs.com/svgjs" viewBox="0 0.18 14 5.64" fill="#2f2e41" x="520" y="2069"><svg xmlns="http://www.w3.org/2000/svg" xmlns:xlink="http://www.w3.org/1999/xlink" width="14" height="6" viewBox="0.203 0.606 12.958 5.22"><path paint-order="stroke fill markers" fill-rule="evenodd" d="M13.16 5.814L.204 5.827v-.164A5.044 5.044 0 0 1 5.241.614l7.915-.008.005 5.208z"/></svg></svg><svg width="14" height="17" xmlns="http://www.w3.org/2000/svg" xmlns:xlink="http://www.w3.org/1999/xlink" xmlns:svgjs="http://svgjs.com/svgjs" viewBox="0.331 0 13.338 17" fill="#ffb6b6" x="538" y="2048"><svg xmlns="http://www.w3.org/2000/svg" xmlns:xlink="http://www.w3.org/1999/xlink" width="14" height="17" viewBox="0.948 0.889 12.277 15.649"><path paint-order="stroke fill markers" fill-rule="evenodd" d="M13.226 14.727l-3.588 1.81L.948 3.56 6.244.89l6.982 13.837z"/></svg></svg><svg width="13" height="11" xmlns="http://www.w3.org/2000/svg" xmlns:xlink="http://www.w3.org/1999/xlink" xmlns:svgjs="http://svgjs.com/svgjs" viewBox="0.109 0 12.781 11" fill="#2f2e41" x="541" y="2061"><svg xmlns="http://www.w3.org/2000/svg" xmlns:xlink="http://www.w3.org/1999/xlink" width="13" height="11" viewBox="0.711 0.094 12.184 10.486"><path paint-order="stroke fill markers" fill-rule="evenodd" d="M12.895 4.743L1.327 10.58l-.074-.146a5.044 5.044 0 0 1 2.23-6.775h.001L10.55.094l2.345 4.65z"/></svg></svg><svg width="15" height="16" xmlns="http://www.w3.org/2000/svg" xmlns:xlink="http://www.w3.org/1999/xlink" xmlns:svgjs="http://svgjs.com/svgjs" viewBox="0 0.5 15 15" fill="#ffb8b8" x="528" y="1937"><svg xmlns="http://www.w3.org/2000/svg" xmlns:xlink="http://www.w3.org/1999/xlink" width="15" height="16" viewBox="0.076 0.913 14.108 14.108"><path paint-order="stroke fill markers" fill-rule="evenodd" d="M7.13 15.02A7.047 7.047 0 0 1 .076 7.966C.076 4.066 3.23.913 7.13.913c3.901 0 7.054 3.153 7.054 7.053 0 3.901-3.153 7.054-7.054 7.054z"/></svg></svg><svg width="19" height="12" xmlns="http://www.w3.org/2000/svg" xmlns:xlink="http://www.w3.org/1999/xlink" xmlns:svgjs="http://svgjs.com/svgjs" viewBox="0 0.153 19 11.693" fill="#2f2e41" x="526" y="1934"><svg xmlns="http://www.w3.org/2000/svg" xmlns:xlink="http://www.w3.org/1999/xlink" width="19" height="12" viewBox="0.817 0.505 17.363 10.685"><path paint-order="stroke fill markers" fill-rule="evenodd" d="M17.875 3.855L11.478.505l-8.833 1.37L.817 9.949c9.022 1.297 15.266 2.041 17.363-.152l-.305-5.94z"/></svg></svg><svg width="28" height="73" xmlns="http://www.w3.org/2000/svg" xmlns:xlink="http://www.w3.org/1999/xlink" xmlns:svgjs="http://svgjs.com/svgjs" viewBox="0.187 0 27.627 73" fill="#2f2e41" x="521" y="1986"><svg xmlns="http://www.w3.org/2000/svg" xmlns:xlink="http://www.w3.org/1999/xlink" width="28" height="73" viewBox="0.527 0.296 27.253 72.013"><path paint-order="stroke fill markers" fill-rule="evenodd" d="M2.754 3.074s-5.378 10.998.58 27.273L19.79 72.308l7.868-4.65-8.02-18.066 6.524-22.113a38.433 38.433 0 0 0 1.36-15.473c-.47-3.888-1.56-7.843-3.934-9.836-5.584-4.691-20.834.904-20.834.904z"/></svg></svg><svg width="14" height="33" xmlns="http://www.w3.org/2000/svg" xmlns:xlink="http://www.w3.org/1999/xlink" xmlns:svgjs="http://svgjs.com/svgjs" viewBox="0.272 0 13.455 33" fill="#2f2e41" x="526" y="2032"><svg xmlns="http://www.w3.org/2000/svg" xmlns:xlink="http://www.w3.org/1999/xlink" width="14" height="33" viewBox="0.783 0.397 12.944 31.745"><path paint-order="stroke fill markers" fill-rule="evenodd" d="M6.75.397L.782 30.645l7.946 1.498L13.727 5.96 6.749.397z"/></svg></svg><svg width="26" height="36" xmlns="http://www.w3.org/2000/svg" xmlns:xlink="http://www.w3.org/1999/xlink" xmlns:svgjs="http://svgjs.com/svgjs" viewBox="0.056 0 25.888 36" fill="#f85ab4" x="523" y="1955"><svg xmlns="http://www.w3.org/2000/svg" xmlns:xlink="http://www.w3.org/1999/xlink" width="26" height="36" viewBox="0.229 0.464 25.429 35.361"><path paint-order="stroke fill markers" fill-rule="evenodd" d="M17.333.464l-9.12.122L.229 2.422l.473 31.976s14.434 4.084 20.774-1.563l4.182-29.928C23.312 1.58 20.494.817 17.333.464z"/></svg></svg><svg width="10" height="10" xmlns="http://www.w3.org/2000/svg" xmlns:xlink="http://www.w3.org/1999/xlink" xmlns:svgjs="http://svgjs.com/svgjs" fill="#2f2e41" x="535" y="1928"><svg xmlns="http://www.w3.org/2000/svg" xmlns:xlink="http://www.w3.org/1999/xlink" width="10" height="10" viewBox="0.007 0.71 9.037 9.037"><path paint-order="stroke fill markers" fill-rule="evenodd" d="M4.525 9.747A4.514 4.514 0 0 1 .007 5.228 4.514 4.514 0 0 1 4.525.71a4.514 4.514 0 0 1 4.519 4.518 4.514 4.514 0 0 1-4.519 4.519z"/></svg></svg><svg width="8" height="10" xmlns="http://www.w3.org/2000/svg" xmlns:xlink="http://www.w3.org/1999/xlink" xmlns:svgjs="http://svgjs.com/svgjs" viewBox="0.399 0 7.203 10" fill="#2f2e41" x="533" y="1927"><svg xmlns="http://www.w3.org/2000/svg" width="8" height="10" viewBox="0.964 0.323 6.443 8.946"><path paint-order="stroke fill markers" fill-rule="evenodd" d="M2.007 5.185a4.516 4.516 0 0 1 5.4-4.43 4.517 4.517 0 1 0-2.806 8.514 4.515 4.515 0 0 1-2.594-4.084z"/></svg></svg></svg>