<svg width="157" height="172" xmlns="http://www.w3.org/2000/svg" xmlns:xlink="http://www.w3.org/1999/xlink" xmlns:svgjs="http://svgjs.com/svgjs" viewBox="86 2207 157 172"><svg width="8" height="9" xmlns="http://www.w3.org/2000/svg" xmlns:xlink="http://www.w3.org/1999/xlink" xmlns:svgjs="http://svgjs.com/svgjs" viewBox="0 0.5 8 8" fill="#f80583" x="94" y="2292"><svg xmlns="http://www.w3.org/2000/svg" xmlns:xlink="http://www.w3.org/1999/xlink" width="8" height="9" viewBox="0.404 0.972 7.247 7.247"><path paint-order="stroke fill markers" fill-rule="evenodd" d="M4.027 8.219A3.62 3.62 0 0 1 .404 4.595 3.62 3.62 0 0 1 4.027.972a3.62 3.62 0 0 1 3.624 3.623A3.62 3.62 0 0 1 4.027 8.22z"/></svg></svg><svg width="8" height="9" xmlns="http://www.w3.org/2000/svg" xmlns:xlink="http://www.w3.org/1999/xlink" xmlns:svgjs="http://svgjs.com/svgjs" viewBox="0 0.5 8 8" fill="#f80583" x="110" y="2322"><svg xmlns="http://www.w3.org/2000/svg" xmlns:xlink="http://www.w3.org/1999/xlink" width="8" height="9" viewBox="0.291 0.795 7.247 7.247"><path paint-order="stroke fill markers" fill-rule="evenodd" d="M3.915 8.042A3.62 3.62 0 0 1 .29 4.42 3.62 3.62 0 0 1 3.915.795 3.62 3.62 0 0 1 7.538 4.42a3.62 3.62 0 0 1-3.623 3.623z"/></svg></svg><svg width="8" height="8" xmlns="http://www.w3.org/2000/svg" xmlns:xlink="http://www.w3.org/1999/xlink" xmlns:svgjs="http://svgjs.com/svgjs" fill="#f80583" x="98" y="2315"><svg xmlns="http://www.w3.org/2000/svg" xmlns:xlink="http://www.w3.org/1999/xlink" width="8" height="8" viewBox="0.028 0.27 7.247 7.247"><path paint-order="stroke fill markers" fill-rule="evenodd" d="M3.651 7.517A3.62 3.62 0 0 1 .028 3.893 3.62 3.62 0 0 1 3.65.27a3.62 3.62 0 0 1 3.623 3.623 3.62 3.62 0 0 1-3.623 3.624z"/></svg></svg><svg width="9" height="72" xmlns="http://www.w3.org/2000/svg" xmlns:xlink="http://www.w3.org/1999/xlink" xmlns:svgjs="http://svgjs.com/svgjs" viewBox="0.515 0 7.97 72" fill="#cfcce0" x="100" y="2299"><svg xmlns="http://www.w3.org/2000/svg" xmlns:xlink="http://www.w3.org/1999/xlink" width="9" height="72" viewBox="0.542 0.243 7.868 71.081"><path paint-order="stroke fill markers" fill-rule="evenodd" d="M2.807 71.324c-.064-.105-1.573-2.623-2.095-7.852-.48-4.798-.172-12.885 4.022-24.165C12.68 17.937 2.904.694 2.804.523l.482-.28c.025.043 2.548 4.44 4.038 11.44A49.907 49.907 0 0 1 5.257 39.5c-7.932 21.334-2.035 31.433-1.975 31.532l-.475.29z"/></svg></svg><svg width="9" height="9" xmlns="http://www.w3.org/2000/svg" xmlns:xlink="http://www.w3.org/1999/xlink" xmlns:svgjs="http://svgjs.com/svgjs" fill="#cfcce0" x="95" y="2290"><svg xmlns="http://www.w3.org/2000/svg" xmlns:xlink="http://www.w3.org/1999/xlink" width="9" height="9" viewBox="0.798 0.742 7.804 7.804"><path paint-order="stroke fill markers" fill-rule="evenodd" d="M4.7 8.547a3.902 3.902 0 1 1 0-7.805 3.902 3.902 0 0 1 0 7.805zm0-7.247a3.345 3.345 0 1 0 0 6.689 3.345 3.345 0 0 0 0-6.69z"/></svg></svg><svg width="8" height="8" xmlns="http://www.w3.org/2000/svg" xmlns:xlink="http://www.w3.org/1999/xlink" xmlns:svgjs="http://svgjs.com/svgjs" fill="#cfcce0" x="107" y="2304"><svg xmlns="http://www.w3.org/2000/svg" xmlns:xlink="http://www.w3.org/1999/xlink" width="8" height="8" viewBox="0.504 0.4 7.247 7.247"><path paint-order="stroke fill markers" fill-rule="evenodd" d="M4.127 7.646A3.62 3.62 0 0 1 .504 4.023 3.62 3.62 0 0 1 4.127.4a3.62 3.62 0 0 1 3.624 3.623 3.62 3.62 0 0 1-3.624 3.623z"/></svg></svg><svg width="9" height="8" xmlns="http://www.w3.org/2000/svg" xmlns:xlink="http://www.w3.org/1999/xlink" xmlns:svgjs="http://svgjs.com/svgjs" viewBox="0.5 0 8 8" fill="#cfcce0" x="99" y="2313"><svg xmlns="http://www.w3.org/2000/svg" xmlns:xlink="http://www.w3.org/1999/xlink" width="9" height="8" viewBox="0.421 0.04 7.804 7.804"><path paint-order="stroke fill markers" fill-rule="evenodd" d="M4.323 7.844a3.902 3.902 0 1 1 0-7.804 3.902 3.902 0 0 1 0 7.804zm0-7.246a3.345 3.345 0 1 0 0 6.689 3.345 3.345 0 0 0 0-6.69z"/></svg></svg><svg width="9" height="9" xmlns="http://www.w3.org/2000/svg" xmlns:xlink="http://www.w3.org/1999/xlink" xmlns:svgjs="http://svgjs.com/svgjs" fill="#cfcce0" x="108" y="2320"><svg xmlns="http://www.w3.org/2000/svg" xmlns:xlink="http://www.w3.org/1999/xlink" width="9" height="9" viewBox="0.898 0.566 7.804 7.804"><path paint-order="stroke fill markers" fill-rule="evenodd" d="M4.8 8.37a3.902 3.902 0 1 1 0-7.805 3.902 3.902 0 0 1 0 7.805zm0-7.247a3.345 3.345 0 1 0 0 6.69 3.345 3.345 0 0 0 0-6.69z"/></svg></svg><svg width="9" height="8" xmlns="http://www.w3.org/2000/svg" xmlns:xlink="http://www.w3.org/1999/xlink" xmlns:svgjs="http://svgjs.com/svgjs" viewBox="0.5 0 8 8" fill="#cfcce0" x="96" y="2332"><svg xmlns="http://www.w3.org/2000/svg" xmlns:xlink="http://www.w3.org/1999/xlink" width="9" height="8" viewBox="0.913 0.551 7.247 7.247"><path paint-order="stroke fill markers" fill-rule="evenodd" d="M4.536 7.797A3.62 3.62 0 0 1 .913 4.174 3.62 3.62 0 0 1 4.536.551 3.62 3.62 0 0 1 8.16 4.174a3.62 3.62 0 0 1-3.623 3.623z"/></svg></svg><svg width="9" height="17" xmlns="http://www.w3.org/2000/svg" xmlns:xlink="http://www.w3.org/1999/xlink" xmlns:svgjs="http://svgjs.com/svgjs" viewBox="0.238 0 8.524 17" fill="#cfcce0" x="104" y="2354"><svg xmlns="http://www.w3.org/2000/svg" xmlns:xlink="http://www.w3.org/1999/xlink" width="9" height="17" viewBox="0.416 0.849 7.827 15.608"><path paint-order="stroke fill markers" fill-rule="evenodd" d="M.996 16.457S-2.628 7.537 8.242.849L.996 16.457z"/></svg></svg><svg width="15" height="11" xmlns="http://www.w3.org/2000/svg" xmlns:xlink="http://www.w3.org/1999/xlink" xmlns:svgjs="http://svgjs.com/svgjs" viewBox="0 0.606 15 9.787" fill="#cfcce0" x="86" y="2360"><svg xmlns="http://www.w3.org/2000/svg" xmlns:xlink="http://www.w3.org/1999/xlink" width="15" height="11" viewBox="0.127 0.891 14.412 9.404"><path paint-order="stroke fill markers" fill-rule="evenodd" d="M14.54 10.295S12.89.811.126.892l14.412 9.403z"/></svg></svg><svg width="65" height="32" xmlns="http://www.w3.org/2000/svg" xmlns:xlink="http://www.w3.org/1999/xlink" xmlns:svgjs="http://svgjs.com/svgjs" viewBox="0 0.263 65 31.474" fill="#f85ab4" x="169" y="2342"><svg xmlns="http://www.w3.org/2000/svg" xmlns:xlink="http://www.w3.org/1999/xlink" width="65" height="32" viewBox="0.597 0.994 63.624 30.807"><path paint-order="stroke fill markers" fill-rule="evenodd" d="M62.351 31.802H.677s-1.25-18.336 6.147-18.544c7.396-.209 6.563 8.126 15.835-3.334C31.931-1.536 43.182-.91 44.641 5.861c1.458 6.772-2.813 12.19 5 10.522 7.814-1.667 19.065 2.709 12.71 15.419z"/></svg></svg><svg width="10" height="32" xmlns="http://www.w3.org/2000/svg" xmlns:xlink="http://www.w3.org/1999/xlink" xmlns:svgjs="http://svgjs.com/svgjs" viewBox="0.059 0 9.882 32" fill="#f2f2f2" x="199" y="2342"><svg xmlns="http://www.w3.org/2000/svg" xmlns:xlink="http://www.w3.org/1999/xlink" width="10" height="32" viewBox="0.265 0.887 9.548 30.919"><path paint-order="stroke fill markers" fill-rule="evenodd" d="M.473 31.806l-.208-.008c.485-12.073 3.014-19.829 5.05-24.21C7.524 2.831 9.653.906 9.674.887l.138.155c-.02.02-2.125 1.926-4.317 6.65C3.47 12.055.956 19.78.473 31.806z"/></svg></svg><svg width="9" height="14" xmlns="http://www.w3.org/2000/svg" xmlns:xlink="http://www.w3.org/1999/xlink" xmlns:svgjs="http://svgjs.com/svgjs" viewBox="0.239 0 8.523 14" fill="#f2f2f2" x="221" y="2360"><svg xmlns="http://www.w3.org/2000/svg" xmlns:xlink="http://www.w3.org/1999/xlink" width="9" height="14" viewBox="0.595 0.234 8.277 13.596"><path paint-order="stroke fill markers" fill-rule="evenodd" d="M.795 13.83l-.2-.057C3.003 5.505 8.675.286 8.732.234l.14.154C8.815.44 3.186 5.622.795 13.831z"/></svg></svg><svg width="7" height="19" xmlns="http://www.w3.org/2000/svg" xmlns:xlink="http://www.w3.org/1999/xlink" xmlns:svgjs="http://svgjs.com/svgjs" viewBox="0.513 0 5.974 19" fill="#f2f2f2" x="173" y="2355"><svg xmlns="http://www.w3.org/2000/svg" xmlns:xlink="http://www.w3.org/1999/xlink" width="7" height="19" viewBox="0.922 0.673 5.705 18.143"><path paint-order="stroke fill markers" fill-rule="evenodd" d="M6.391 18.816l-.206-.029c.817-5.893-.66-10.466-2.041-13.264C2.647 2.493.939.84.922.823l.144-.15C1.084.689 2.818 2.369 4.33 5.43c1.395 2.824 2.886 7.44 2.061 13.385z"/></svg></svg><svg width="81" height="40" xmlns="http://www.w3.org/2000/svg" xmlns:xlink="http://www.w3.org/1999/xlink" xmlns:svgjs="http://svgjs.com/svgjs" viewBox="0 0.25 81 39.5" fill="#cfcce0" x="162" y="2335"><svg xmlns="http://www.w3.org/2000/svg" xmlns:xlink="http://www.w3.org/1999/xlink" width="81" height="40" viewBox="0.9 0.44 79.237 38.641"><path paint-order="stroke fill markers" fill-rule="evenodd" d="M77.722 39.08H1.025l-.018-.26C.963 38.175-.015 22.93 4.925 17.49c1.104-1.217 2.434-1.855 3.953-1.898 3.22-.091 5.244 1.115 6.876 2.083 3.076 1.825 5.108 3.03 12.497-6.102C36.255 1.68 44.89-.448 49.856.735c3.208.765 5.419 2.926 6.066 5.93.613 2.845.418 5.518.26 7.666-.167 2.298-.3 4.113.644 4.936.788.686 2.36.748 4.949.196 5.264-1.123 12.61-.162 16.297 4.602 1.984 2.563 3.547 7.222-.273 14.861l-.077.154zm-76.174-.557h75.829c2.846-5.775 2.935-10.654.254-14.117-3.382-4.37-10.478-5.52-15.74-4.398-2.812.6-4.488.501-5.431-.321-1.154-1.006-1.013-2.943-.834-5.396.155-2.113.347-4.742-.25-7.508-.6-2.786-2.659-4.792-5.65-5.506-4.806-1.146-13.2.955-21.042 10.647-7.692 9.506-10.009 8.132-13.215 6.23-1.652-.98-3.528-2.09-6.575-2.004-1.362.038-2.558.615-3.557 1.714-4.44 4.89-3.897 18.598-3.789 20.659z"/></svg></svg><svg width="33" height="23" xmlns="http://www.w3.org/2000/svg" xmlns:xlink="http://www.w3.org/1999/xlink" xmlns:svgjs="http://svgjs.com/svgjs" viewBox="0 0.104 33 22.792" fill="#2f2e41" x="147" y="2240"><svg xmlns="http://www.w3.org/2000/svg" xmlns:xlink="http://www.w3.org/1999/xlink" width="33" height="23" viewBox="0.372 0.064 32.6 22.516"><path paint-order="stroke fill markers" fill-rule="evenodd" d="M14.52 1.123S10.212-.415 7.444 5.736C4.678 11.886.372 18.653.372 18.653l2.46.615s.616-4.306 2.153-4.92l-.615 5.535s18.453 6.459 26.757-.615l-.308-2.153s1.23.308 1.23 2.153l.923-.923s-.922-1.845-3.69-4.305c-1.817-1.615-2.441-4.688-2.656-6.608a7.995 7.995 0 0 0-1.841-4.355c-1.84-2.132-5.191-4.398-10.266-1.954z"/></svg></svg><svg width="21" height="57" xmlns="http://www.w3.org/2000/svg" xmlns:xlink="http://www.w3.org/1999/xlink" xmlns:svgjs="http://svgjs.com/svgjs" viewBox="0.188 0 20.625 57" fill="#ffb9b9" x="143" y="2224"><svg xmlns="http://www.w3.org/2000/svg" xmlns:xlink="http://www.w3.org/1999/xlink" width="21" height="57" viewBox="0.041 0.524 20.279 56.045"><path paint-order="stroke fill markers" fill-rule="evenodd" d="M13.977 41.24l-4.459-5.575-3.345-11.428L18.995 10.58S21.782-.012 19.273.545c-2.508.558-3.066 8.362-3.066 8.362L.041 21.45S1.714 39.01 6.452 45.14l3.623 11.428 3.902-15.33z"/></svg></svg><svg width="22" height="57" xmlns="http://www.w3.org/2000/svg" xmlns:xlink="http://www.w3.org/1999/xlink" xmlns:svgjs="http://svgjs.com/svgjs" viewBox="0.688 0 20.625 57" fill="#ffb9b9" x="162" y="2224"><svg xmlns="http://www.w3.org/2000/svg" xmlns:xlink="http://www.w3.org/1999/xlink" width="22" height="57" viewBox="0.899 0.524 20.279 56.045"><path paint-order="stroke fill markers" fill-rule="evenodd" d="M7.241 41.24l4.46-5.575 3.345-11.428L2.224 10.58S-.563-.012 1.946.545c2.508.558 3.066 8.362 3.066 8.362L21.178 21.45s-1.673 17.56-6.411 23.691L11.144 56.57 7.24 41.239z"/></svg></svg><svg width="16" height="15" xmlns="http://www.w3.org/2000/svg" xmlns:xlink="http://www.w3.org/1999/xlink" xmlns:svgjs="http://svgjs.com/svgjs" viewBox="0.5 0 15 15" fill="#ffb9b9" x="155" y="2246"><svg xmlns="http://www.w3.org/2000/svg" xmlns:xlink="http://www.w3.org/1999/xlink" width="16" height="15" viewBox="0.863 0.007 14.493 14.493"><path paint-order="stroke fill markers" fill-rule="evenodd" d="M8.11 14.5A7.24 7.24 0 0 1 .862 7.255 7.24 7.24 0 0 1 8.109.007a7.24 7.24 0 0 1 7.247 7.247 7.24 7.24 0 0 1-7.247 7.247z"/></svg></svg><svg width="15" height="21" xmlns="http://www.w3.org/2000/svg" xmlns:xlink="http://www.w3.org/1999/xlink" xmlns:svgjs="http://svgjs.com/svgjs" viewBox="0.494 0 14.012 21" fill="#ffb9b9" x="156" y="2257"><svg xmlns="http://www.w3.org/2000/svg" xmlns:xlink="http://www.w3.org/1999/xlink" width="15" height="21" viewBox="0.986 0.156 13.394 20.075"><path paint-order="stroke fill markers" fill-rule="evenodd" d="M3.765.156S4.043 6.009 2.37 7.96C.699 9.911-.974 19.945 7.11 20.224c8.082.279 7.246-8.362 7.246-8.362l-1.672-4.738S10.175 3.501 11.012.156H3.765z"/></svg></svg><svg width="13" height="20" xmlns="http://www.w3.org/2000/svg" xmlns:xlink="http://www.w3.org/1999/xlink" xmlns:svgjs="http://svgjs.com/svgjs" viewBox="0.413 0 12.174 20" fill="#ffb9b9" x="151" y="2322"><svg xmlns="http://www.w3.org/2000/svg" xmlns:xlink="http://www.w3.org/1999/xlink" width="13" height="20" viewBox="0.403 0.098 11.706 19.232"><path paint-order="stroke fill markers" fill-rule="evenodd" d="M1.24.098L7.231 1.91s4.878-2.927 4.878-.14c0 2.788-1.673 6.411-1.116 8.92.558 2.508 1.673 8.64 0 8.64-1.672 0-5.017-10.87-5.017-10.87L.403 5.394 1.24.098z"/></svg></svg><svg width="11" height="18" xmlns="http://www.w3.org/2000/svg" xmlns:xlink="http://www.w3.org/1999/xlink" xmlns:svgjs="http://svgjs.com/svgjs" viewBox="0.635 0 9.731 18" fill="#ffb9b9" x="156" y="2361"><svg xmlns="http://www.w3.org/2000/svg" xmlns:xlink="http://www.w3.org/1999/xlink" width="11" height="18" viewBox="0.668 0.12 9.569 17.7"><path paint-order="stroke fill markers" fill-rule="evenodd" d="M3.765.12l-2.23 8.64s-1.951 2.509 0 3.624c.915.523 1.586 1.598 2.039 2.593a4.767 4.767 0 0 0 4.68 2.832c.952-.08 1.753-.455 1.948-1.433a2.243 2.243 0 0 0-.431-1.756c-2.056-2.779-2.522-4.605-2.522-4.605L8.085.259 3.765.12z"/></svg></svg><svg width="18" height="11" xmlns="http://www.w3.org/2000/svg" xmlns:xlink="http://www.w3.org/1999/xlink" xmlns:svgjs="http://svgjs.com/svgjs" viewBox="0 0.394 18 10.213" fill="#2f2e41" x="154" y="2244"><svg xmlns="http://www.w3.org/2000/svg" xmlns:xlink="http://www.w3.org/1999/xlink" width="18" height="11" viewBox="0.06 0.392 17.888 10.149"><path paint-order="stroke fill markers" fill-rule="evenodd" d="M.368 10.541s2.46-3.383 4.613-3.998c2.153-.615 2.46-3.69 2.46-3.69s5.536 6.15 8.92 6.458c3.382.307.307-7.381.307-7.381L10.517.392l-5.844.615L.06 4.082l.308 6.459z"/></svg></svg><svg width="54" height="66" xmlns="http://www.w3.org/2000/svg" xmlns:xlink="http://www.w3.org/1999/xlink" xmlns:svgjs="http://svgjs.com/svgjs" viewBox="0.202 0 53.596 66" fill="#2f2e41" x="123" y="2297"><svg xmlns="http://www.w3.org/2000/svg" xmlns:xlink="http://www.w3.org/1999/xlink" width="54" height="66" viewBox="0.679 0.949 52.656 64.843"><path paint-order="stroke fill markers" fill-rule="evenodd" d="M26.73 3.916l-1.114 2.23S-1.421 14.785.809 22.868c2.23 8.083 14.773 5.853 14.773 5.853l13.936 2.509 1.394-6.133-9.756-2.508 16.723-6.132.558 28.43-2.23 20.347 5.575.557s6.132-18.674 5.295-26.479c0 0 10.313-31.774 4.46-36.512C45.684-1.938 26.73 3.916 26.73 3.916z"/></svg></svg><svg width="28" height="41" xmlns="http://www.w3.org/2000/svg" xmlns:xlink="http://www.w3.org/1999/xlink" xmlns:svgjs="http://svgjs.com/svgjs" viewBox="0.046 0 27.907 41" fill="#cfcce0" x="148" y="2263"><svg xmlns="http://www.w3.org/2000/svg" xmlns:xlink="http://www.w3.org/1999/xlink" width="28" height="41" viewBox="0.616 0.261 27.061 39.756"><path paint-order="stroke fill markers" fill-rule="evenodd" d="M15.436 5.866L11.087.61 8.141 1.96l-3.066 9.756s-2.508 4.738.558 9.755c0 0 .557 3.345-.279 4.18-.836.837-1.115 6.133-1.115 6.133L.616 38.752s20.625 3.623 26.757-1.394c0 0-3.217-11.863-1.266-15.486 1.95-3.624 2.23-9.178 0-11.687-2.23-2.508-4.587-9.06-4.587-9.06L20.17.26l-4.734 5.605z"/></svg></svg><svg width="6" height="7" xmlns="http://www.w3.org/2000/svg" xmlns:xlink="http://www.w3.org/1999/xlink" xmlns:svgjs="http://svgjs.com/svgjs" viewBox="0 0.5 6 6" fill="#cfcce0" x="174" y="2224"><svg xmlns="http://www.w3.org/2000/svg" xmlns:xlink="http://www.w3.org/1999/xlink" width="6" height="7" viewBox="0.107 0.579 5.589 5.589"><path paint-order="stroke fill markers" fill-rule="evenodd" d="M5.696 3.252H3.023V.58H2.78v2.673H.107v.243H2.78v2.673h.243V3.495h2.673v-.243z"/></svg></svg><svg width="7" height="7" xmlns="http://www.w3.org/2000/svg" xmlns:xlink="http://www.w3.org/1999/xlink" xmlns:svgjs="http://svgjs.com/svgjs" fill="#cfcce0" x="148" y="2218"><svg xmlns="http://www.w3.org/2000/svg" xmlns:xlink="http://www.w3.org/1999/xlink" width="7" height="7" viewBox="0.701 0.99 5.589 5.589"><path paint-order="stroke fill markers" fill-rule="evenodd" d="M6.29 3.663H3.617V.99h-.243v2.673H.701v.243h2.673v2.673h.243V3.906H6.29v-.243z"/></svg></svg><svg width="7" height="6" xmlns="http://www.w3.org/2000/svg" xmlns:xlink="http://www.w3.org/1999/xlink" xmlns:svgjs="http://svgjs.com/svgjs" viewBox="0.5 0 6 6" fill="#cfcce0" x="160" y="2207"><svg xmlns="http://www.w3.org/2000/svg" width="7" height="6" viewBox="0.895 0.049 5.589 5.589"><path paint-order="stroke fill markers" fill-rule="evenodd" d="M6.485 2.722H3.812V.05h-.243v2.673H.895v.243H3.57v2.673h.243V2.965h2.673v-.243z"/></svg></svg></svg>