<svg width="58" height="62" xmlns="http://www.w3.org/2000/svg" xmlns:xlink="http://www.w3.org/1999/xlink" xmlns:svgjs="http://svgjs.com/svgjs" viewBox="196 459 58 62"><svg width="58" height="22" xmlns="http://www.w3.org/2000/svg" xmlns:xlink="http://www.w3.org/1999/xlink" xmlns:svgjs="http://svgjs.com/svgjs" viewBox="0 0.651 58 20.699" fill="#fff" x="196" y="499"><svg xmlns="http://www.w3.org/2000/svg" xmlns:xlink="http://www.w3.org/1999/xlink" width="58" height="22" viewBox="0 0.658 57 20.342"><path paint-order="stroke fill markers" fill-rule="evenodd" d="M53 9c1.698-1.96.876-5.21-1-7C50.123.21 47.876.21 46 2c-1.876 1.79-2.698 5.04-1 7-1.282.401-2.257.88-3 2-.743-1.12-1.718-1.599-3-2 1.698-1.96 1.876-5.21 0-7C37.123.21 33.876.21 32 2c-1.877 1.79-1.698 5.04 0 7-1.282.401-2.258.88-3 2-.743-1.12-2.718-1.599-4-2 1.698-1.96 1.876-5.21 0-7C23.123.21 19.876.21 18 2c-1.876 1.79-1.698 5.04 0 7-1.282.401-2.257.88-3 2-.743-1.12-1.718-1.599-3-2 1.698-1.96 1.876-5.21 0-7C10.123.21 6.876.21 5 2 3.124 3.79 3.302 7.04 5 9c-2.437.76-4.997 3.447-5 6v5c0 .537.463 1 1 1h55c.537 0 1-.463 1-1v-5c-.003-2.553-1.563-5.24-4-6zM8 3c1.61 0 3 1.39 3 3S9.61 9 8 9 5 7.61 5 6C5.002 4.39 6.39 3.002 8 3zm6 16H2v-4c.003-2.145 1.855-3.997 4-4h4c2.145.003 3.997 1.855 4 4v4zm8-16c1.61 0 3 1.39 3 3s-1.39 3-3 3-3-1.39-3-3c.002-1.609 1.391-2.998 3-3zm6 16H16v-4c.003-2.145 1.855-3.997 4-4h4c2.145.003 3.997 1.855 4 4v4zm7-16c1.61 0 3 1.39 3 3s-1.39 3-3 3-2-1.39-2-3c.002-1.609.391-2.998 2-3zm6 16H30v-4c.003-2.145.855-3.997 3-4h4c2.145.003 3.997 1.855 4 4v4zm8-16c1.61 0 3 1.39 3 3s-1.39 3-3 3-3-1.39-3-3c.002-1.609 1.391-2.998 3-3zm6 16H43v-4c.003-2.145 1.855-3.997 4-4h4c2.145.003 3.997 1.855 4 4v4z"/></svg></svg><svg width="31" height="41" xmlns="http://www.w3.org/2000/svg" xmlns:xlink="http://www.w3.org/1999/xlink" xmlns:svgjs="http://svgjs.com/svgjs" viewBox="0.258 0 30.483 41" fill="#fff" x="209" y="459"><svg xmlns="http://www.w3.org/2000/svg" xmlns:xlink="http://www.w3.org/1999/xlink" width="31" height="41" viewBox="0.63 0 29.74 40"><path paint-order="stroke fill markers" fill-rule="evenodd" d="M22 13c.138-.172 0-.78 0-1V9c0-.537-.463-1-1-1l5-6c.221-.295.165-.671 0-1-.164-.33-.632-1-1-1h-7c-.306 0-.816.755-1 1l-1 1-2-1c-.183-.24.303-1 0-1H6c-.37 0-.836.669-1 1-.163.331-.224.706 0 1l5 6c-.536 0-1 .463-1 1v3c0 .22-.137.828 0 1-6.014 3.048-9.567 9.441-8 16 1.568 6.558 8.257 11 15 11s12.433-4.442 14-11c1.567-6.559-1.985-12.952-8-16zM18 2h5l-4 6h-5l4-6zm2 8v1h-9v-1h9zM8 2h5l1 2-2 3-4-5zm8 36C9.025 38 3 32.975 3 26s6.025-13 13-13 12 6.025 12 13c-.007 6.972-5.028 11.992-12 12z"/></svg></svg><svg width="23" height="21" xmlns="http://www.w3.org/2000/svg" xmlns:xlink="http://www.w3.org/1999/xlink" xmlns:svgjs="http://svgjs.com/svgjs" viewBox="0 0.092 23 20.816" fill="#fff" x="213" y="473"><svg xmlns="http://www.w3.org/2000/svg" width="23" height="21" viewBox="0.986 1 21.199 19.186"><path paint-order="stroke fill markers" fill-rule="evenodd" d="M2 9l5 4-2 6c-.13.4-.34.752 0 1 .34.247.66.247 1 0l6-3 5 3c.34.247.66.247 1 0 .34-.248.13-.6 0-1l-2-6 6-4c.34-.248.13-.6 0-1s-.58 0-1 0h-6l-2-6c-.13-.4-.58-1-1-1-.42 0-.87.6-1 1L9 8H2c-.42 0-.87-.4-1 0s.66.752 1 1zm7 1c.42 0 .87-.6 1-1l2-4 1 4c.13.4.58 1 1 1h4l-3 2c-.34.247-1.13.6-1 1l2 4-4-2c-.34-.248-.66-.248-1 0l-3 2 1-4c.13-.4.34-.753 0-1l-4-2h4z"/></svg></svg></svg>