<svg width="51" height="51" xmlns="http://www.w3.org/2000/svg" xmlns:xlink="http://www.w3.org/1999/xlink" xmlns:svgjs="http://svgjs.com/svgjs" viewBox="559 464 51 51"><svg width="41" height="36" xmlns="http://www.w3.org/2000/svg" xmlns:xlink="http://www.w3.org/1999/xlink" xmlns:svgjs="http://svgjs.com/svgjs" viewBox="569 464 41 36" x="569" y="464"><svg width="41" height="36" xmlns="http://www.w3.org/2000/svg" xmlns:xlink="http://www.w3.org/1999/xlink" xmlns:svgjs="http://svgjs.com/svgjs" viewBox="569 464 41 36" x="569" y="464"><svg width="41" height="36" xmlns="http://www.w3.org/2000/svg" xmlns:xlink="http://www.w3.org/1999/xlink" xmlns:svgjs="http://svgjs.com/svgjs" viewBox="0 0.092 41 35.817" fill="#fff" x="569" y="464"><svg xmlns="http://www.w3.org/2000/svg" xmlns:xlink="http://www.w3.org/1999/xlink" width="41" height="36" viewBox="0.334 0.334 39.857 34.818"><path paint-order="stroke fill markers" fill-rule="evenodd" d="M39 25H28v-2h3c.4 0 1-.6 1-1s-.6 0-1 0h-3v-2h2c.815 0 1.424-.424 2-1l5-5c.311.155.642 0 1 0 .608 0 1.57.43 2 0 .43-.43 0-1.392 0-2 0-.609.43-.57 0-1-.43-.43-1.392-1-2-1-.608 0-1.57.57-2 1-.43.43 0 .391 0 1 0 .357-.155.689 0 1l-5 5c-.302.302-.572 0-1 0h-2v-1c0-2.111-1.889-4-4-4h-2V7c.9-.304 2-1.998 2-3 0-1.256-.744-2-2-2-1.255 0-3 .744-3 2 0 1.002 1.1 2.696 2 3v6h-2v-3c0-.401.401-1 0-1-.4 0-1 .599-1 1v3h-2V1c0-.401-.6 0-1 0s0-.401 0 0v12h-2v-3c0-.401-.6-1-1-1s0 .599 0 1v3h-2v-2c0-.816-.423-1.424-1-2L4 4c.422-.852.708-2.292 0-3C3.112.112 1.888.112 1 1c-.888.888-.888 2.112 0 3 .444.444.417 1 1 1 .347 0 .682.157 1 0l5 5c.303.302 0 .572 0 1v2H7c-.323 0-.689-.08-1 0-.388.1-1.1.612-1 1 .1.388.612 1.1 1 1 .193-.05.798-1 1-1h17c1.31 0 2 1.69 2 3v17c0 .201.05.807 0 1-.1.388.612-.1 1 0 .06.015-.06 0 0 0 .323 0 .916.328 1 0 .08-.31 0-.677 0-1v-2h6c.304.9.998 2 2 2 1.256 0 3-.745 3-2 0-1.256-1.745-3-3-3-1.002 0-1.696 1.1-2 2h-6v-2h3c.4 0 1-.6 1-1 0-.401-.6 0-1 0h-3v-2h11c.4 0 1-.6 1-1 0-.401-.6 0-1 0zm-2-13c.156-.156.78-1 1-1 .22 0-.156.844 0 1 .156.156 1-.22 1 0s-.844.844-1 1c-.156.156.22 0 0 0s-.844.156-1 0c-.156-.156 0-.78 0-1 0-.22-.156.156 0 0zM3 3c-.322.322-.678.322-1 0-.322-.322-.322-.678 0-1 .161-.161-.211 0 0 0 .212 0 .84-.161 1 0 .322.322.322.678 0 1zm19 2c-.455 0-1-.545-1-1 0-.455.545 0 1 0 .455 0 0-.455 0 0s.455 1 0 1zm14 26c.455 0 1 .545 1 1 0 .455-.545 0-1 0-.455 0 0 .455 0 0s-.455-1 0-1z"/></svg></svg></svg></svg><svg width="41" height="37" xmlns="http://www.w3.org/2000/svg" xmlns:xlink="http://www.w3.org/1999/xlink" xmlns:svgjs="http://svgjs.com/svgjs" viewBox="559 478 41 37" x="559" y="478"><svg width="41" height="37" xmlns="http://www.w3.org/2000/svg" xmlns:xlink="http://www.w3.org/1999/xlink" xmlns:svgjs="http://svgjs.com/svgjs" viewBox="559 478 41 37" x="559" y="478"><svg width="41" height="37" xmlns="http://www.w3.org/2000/svg" xmlns:xlink="http://www.w3.org/1999/xlink" xmlns:svgjs="http://svgjs.com/svgjs" viewBox="0 0.493 41 36.014" fill="#fff" x="559" y="478"><svg xmlns="http://www.w3.org/2000/svg" xmlns:xlink="http://www.w3.org/1999/xlink" width="41" height="37" viewBox="0.809 0.99 39.857 35.01"><path paint-order="stroke fill markers" fill-rule="evenodd" d="M40 32c-.708-.709-1.148-.422-2 0l-5-5c-.302-.303-1-.572-1-1v-2h2c.324 0 .69.08 1 0 .388-.1.1-.612 0-1s.389-1.1 0-1c-.193.05-.798 0-1 0H17c-1.31 0-2-.69-2-2V3c0-.202-.05-.807 0-1 .1-.388-.612-.9-1-1-.388-.1-.9.612-1 1-.08.31 0 .676 0 1v1H7c-.303-.9-1.998-1-3-1-1.255 0-2 .744-2 2s.745 2 2 2c1.002 0 2.696-.1 3-1h6v2h-3c-.4 0-1-.4-1 0s.6 1 1 1h3v2H1c-.4 0 0-.401 0 0 0 .4-.4 1 0 1h12v2h-3c-.4 0-1-.401-1 0 0 .4.6 1 1 1h3v2h-2c-.815 0-1.423.423-2 1l-5 5c-.31-.155-.642-1-1-1-.608 0-1.57.57-2 1-.43.43 0 1.392 0 2 0 .608-.43.57 0 1 .43.43 1.392 1 2 1 .608 0 1.57-.57 2-1 .43-.43 0-.392 0-1 0-.358.155-.69 0-1l5-5c.303-.303.572-1 1-1h2v2c0 2.11 1.89 4 4 4h1v6c-.9.304-1 .998-1 2 0 1.255.745 3 2 3 1.256 0 2-1.745 2-3 0-1.002-.1-1.696-1-2v-6h2v3c0 .4-.4 1 0 1 .401 0 1-.6 1-1v-3h2v11c0 .4-.4 1 0 1s1-.6 1-1V24h2v3c0 .4.6 1 1 1 .401 0 0-.6 0-1v-3h2v2c0 .815.424 1.423 1 2l5 5c-.421.851-.708 1.292 0 2 .444.444 1.417 1 2 1s.556-.556 1-1c.888-.888.888-2.112 0-3zM4 6c-.455 0 0-.545 0-1 0-.455-.455-1 0-1s1 .545 1 1c0 .455-.545 1-1 1zm0 19c-.156.156-.78 0-1 0-.22 0-.844.156-1 0-.156-.156 0 .22 0 0s-.156-.844 0-1c.156-.156.78 0 1 0 .22 0 .844-.156 1 0 .156.156 0 .78 0 1 0 .22.156-.156 0 0zm16 7c0 .455-.544 1-1 1-.455 0-1-.545-1-1 0-.455.545-1 1-1 .456 0 1 .545 1 1zm19 2c-.322.322-.678.322-1 0-.322-.322-.322-.678 0-1 .161-.161.789 0 1 0 .212 0-.16-.161 0 0 .322.322.322.678 0 1z"/></svg></svg></svg></svg><svg width="17" height="18" xmlns="http://www.w3.org/2000/svg" xmlns:xlink="http://www.w3.org/1999/xlink" xmlns:svgjs="http://svgjs.com/svgjs" viewBox="576 481 17 18" x="576" y="481"><svg width="17" height="18" xmlns="http://www.w3.org/2000/svg" xmlns:xlink="http://www.w3.org/1999/xlink" xmlns:svgjs="http://svgjs.com/svgjs" viewBox="576 481 17 18" x="576" y="481"><svg width="17" height="18" xmlns="http://www.w3.org/2000/svg" xmlns:xlink="http://www.w3.org/1999/xlink" xmlns:svgjs="http://svgjs.com/svgjs" viewBox="0.442 0 16.116 18" fill="#fff" x="576" y="481"><svg xmlns="http://www.w3.org/2000/svg" width="17" height="18" viewBox="0.78 0 15.22 17"><path paint-order="stroke fill markers" fill-rule="evenodd" d="M16 6c0-1.552-1.446-2.573-3-3 .046-.19 1 .2 1 0 0-1.47-1.397-3-3-3-.868 0-2.467.445-3 1-.533-.555-1.132-1-2-1-1.603 0-3 1.53-3 3 0 .2-.046-.19 0 0-1.554.427-2 1.448-2 3 0 .759-.496 2.41 0 3-.485.628 0 1.189 0 2 0 1.234-.086 2.285 1 3 0 1.683 2.156 3 4 3 1.06 0 1.387-.296 2-1 .613.704 1.94 1 3 1 1.774 0 2.893-1.404 3-3 1.078-.625 2-1.817 2-3 0-.87-.362-1.373-1-2 .638-.627 1-2.13 1-3zm-2 3c.7.369 1 1.314 1 2 0 .511-.599.635-1 1-.381-.707-1.148-.732-2-1-.382-.12-.88-.382-1 0s.618.88 1 1c.74.232 1 1.334 1 2 0 .883-.957 1-2 1-1.043 0-2-.117-2-1V9c0-.883.957-1 2-1 .4 0 1-.6 1-1s-.6-1-1-1c-.702 0-1.462.661-2 1V6c0-.4-.6-1-1-1s0 .6 0 1v4c-.244-.153-.71-.909-1-1-.383-.12-.88.618-1 1s-.382.88 0 1c.74.233 2 .334 2 1v2c0 .883-.957 1-2 1-1.043 0-2-.117-2-1 0-.378-.291-.71 0-1a.695.695 0 0 0 0-1 .695.695 0 0 0-1 0c-.174.173.125-.2 0 0-.458-.433-1-.404-1-1 0-1.075.792-2.723 2-3 .39-.09 1.09.39 1 0-.09-.39-.61-1.09-1-1-.486.111-.603.755-1 1-.258-.323-1-1.605-1-2 0-1.092.724-1.992 2-2 .007 0-.006 0 0 0 .166 0 .864.116 1 0 .278-.235.187-.7 0-1-.006-.009.006.009 0 0-.003-.004.003.004 0 0-.011-.016.012.015 0 0-.121-.143 0 .316 0 0 0-.669.197-2 1-2 .803 0 2 1.331 2 2 0 .4-.4 0 0 0s1 .4 1 0c0-.669 1.197-2 2-2 .803 0 1 1.331 1 2 0 .179.062-.125 0 0-.413.039-.62-.16-1 0-.37.156-1.156.63-1 1 .156.37.63 1.156 1 1 .314-.132.648-.997 1-1 .007 0-.007 0 0 0 .006 0-.007 0 0 0 1.276.008 3 .908 3 2 0 .686-.3 1.63-1 2-.238.126-1 .73-1 1s.762-.126 1 0z"/></svg></svg></svg></svg></svg>