<svg width="547" height="514" xmlns="http://www.w3.org/2000/svg" xmlns:xlink="http://www.w3.org/1999/xlink" xmlns:svgjs="http://svgjs.com/svgjs" viewBox="136 254 547 514"><svg width="332" height="361" xmlns="http://www.w3.org/2000/svg" xmlns:xlink="http://www.w3.org/1999/xlink" xmlns:svgjs="http://svgjs.com/svgjs" viewBox="222 254 332 361" x="222" y="254"><svg width="332" height="361" xmlns="http://www.w3.org/2000/svg" xmlns:xlink="http://www.w3.org/1999/xlink" xmlns:svgjs="http://svgjs.com/svgjs" viewBox="0.322 0 331.355 361" fill="#dd2e41" x="222" y="254"><svg xmlns="http://www.w3.org/2000/svg" xmlns:xlink="http://www.w3.org/1999/xlink" width="332" height="361" viewBox="0.618 0.255 330.966 360.576"><path paint-order="stroke fill markers" fill-rule="evenodd" d="M31.562.255L331.583 134.88l-62.82 225.951L.618 359.357 31.562.255z"/></svg></svg></svg><svg width="547" height="484" xmlns="http://www.w3.org/2000/svg" xmlns:xlink="http://www.w3.org/1999/xlink" xmlns:svgjs="http://svgjs.com/svgjs" viewBox="136 284 547 484" x="136" y="284"><svg width="55" height="76" xmlns="http://www.w3.org/2000/svg" xmlns:xlink="http://www.w3.org/1999/xlink" xmlns:svgjs="http://svgjs.com/svgjs" viewBox="0 0.588 55 74.824" fill="#fe9083" x="243" y="380"><svg xmlns="http://www.w3.org/2000/svg" xmlns:xlink="http://www.w3.org/1999/xlink" width="55" height="76" viewBox="0.38 0.88 54.486 74.125"><path paint-order="stroke fill markers" fill-rule="evenodd" d="M54.703 42.767c.09.64.163.984.163.984a85.411 85.411 0 0 1-2.475 8.44c-2.923 8.395-6.56 14.36-9.29 18.072-2.37 3.206-4.056 4.742-4.056 4.742C17.29 68.176 6.568 46.897 2.452 36.309a.527.527 0 0 1-.059-.164 66.002 66.002 0 0 1-1.64-4.651v-.016C.499 30.643.38 30.18.38 30.18c.09-.18.18-.373.269-.552l.044-.075c.358-.745.716-1.505 1.044-2.236a106.203 106.203 0 0 0 5.965-16.656c1.058-3.907 1.625-6.92 1.894-8.514.133-.82.193-1.268.193-1.268l10.14 5.353 34.937 18.491a57.578 57.578 0 0 0-.745 8.856 55.9 55.9 0 0 0 .135 4.952c.104 1.729.283 3.1.416 3.996v.014c0 .09.015.15.031.225z"/></svg></svg><svg width="56" height="54" xmlns="http://www.w3.org/2000/svg" xmlns:xlink="http://www.w3.org/1999/xlink" xmlns:svgjs="http://svgjs.com/svgjs" viewBox="0.201 0 55.597 54" fill="#d5cdf8" x="243" y="409"><svg xmlns="http://www.w3.org/2000/svg" xmlns:xlink="http://www.w3.org/1999/xlink" width="56" height="54" viewBox="0.649 0.629 54.671 53.101"><path paint-order="stroke fill markers" fill-rule="evenodd" d="M45.01 48.346a29.984 29.984 0 0 1-7.217 5.28c-.06.044-.12.073-.179.104 0 0-.075-.045-.208-.12l-.016-.015c-.76-.462-3.354-2.057-6.844-4.682C21.42 42.039 6.18 28.14 1.826 9.412c-.015-.03-.015-.044-.03-.075A46.557 46.557 0 0 1 .753 2.494v-.016A36.12 36.12 0 0 1 .649.629s3.026 7.113 8.275 14.793c6.174 9.037 15.434 18.892 26.498 18.952 9.574.06 14.479-6.486 16.969-12.526a34.105 34.105 0 0 0 2.013-6.859c.016-.015.016-.03.016-.03.104-.536.178-1.014.252-1.417v-.014c.03-.209.06-.388.075-.552.09-.67.12-1.058.12-1.058s3.668 22.903-9.856 36.428z"/></svg></svg><svg width="56" height="54" xmlns="http://www.w3.org/2000/svg" xmlns:xlink="http://www.w3.org/1999/xlink" xmlns:svgjs="http://svgjs.com/svgjs" viewBox="0.147 0 55.707 54" fill="#ccf" opacity=".502" x="243" y="409"><svg xmlns="http://www.w3.org/2000/svg" xmlns:xlink="http://www.w3.org/1999/xlink" width="56" height="54" viewBox="0.649 0.629 54.671 52.996"><path paint-order="stroke fill markers" fill-rule="evenodd" d="M45.01 48.346a29.984 29.984 0 0 1-7.217 5.28h-.179l-.208-.016-.016-.015c-.76-.462-3.354-2.057-6.844-4.682C21.42 42.039 6.18 28.14 1.826 9.412c-.015-.03-.015-.044-.03-.075A46.557 46.557 0 0 1 .753 2.494v-.016A36.12 36.12 0 0 1 .649.629s3.026 7.113 8.275 14.793c0 0 6.024 16.552 19.058 24.753 6.53 4.1 11.481 3.504 15.12 1.088 3.638-2.4 5.994-6.59 7.38-9.752a22.892 22.892 0 0 0 1.909-8.32c.016-.493.016-.94 0-1.343a34.105 34.105 0 0 0 2.013-6.859c.016-.015.016-.03.016-.03.104-.536.178-1.014.252-1.417v-.014c.03-.209.06-.388.075-.552.09-.67.12-1.058.12-1.058s3.668 22.903-9.856 36.428z"/></svg></svg><svg width="222" height="214" xmlns="http://www.w3.org/2000/svg" xmlns:xlink="http://www.w3.org/1999/xlink" xmlns:svgjs="http://svgjs.com/svgjs" viewBox="0 0.112 222 213.775" fill="#9e8cef" x="161" y="407"><svg xmlns="http://www.w3.org/2000/svg" xmlns:xlink="http://www.w3.org/1999/xlink" width="222" height="214" viewBox="0.304 0.318 220.926 212.741"><path paint-order="stroke fill markers" fill-rule="evenodd" d="M213.173 181.766c-1.022 2.143-1.889 3.448-2.418 3.813-.164.073-.238.119-.238.119a3.08 3.08 0 0 1-.51.009 2.24 2.24 0 0 1-.237-.018 8.31 8.31 0 0 1-.547-.083c-.01 0-.019 0-.038-.01l-.374-.08a.172.172 0 0 1-.063-.019 9.38 9.38 0 0 1-.885-.265 9.812 9.812 0 0 1-.812-.301 5.85 5.85 0 0 1-.493-.219c-.128-.054-.256-.119-.392-.182-.41-.192-.84-.42-1.296-.684-.447-.256-.92-.557-1.413-.885h-.01c-.009-.01-.018 0-.018 0-.119-.083-.229-.164-.346-.247a29.635 29.635 0 0 1-2.592-2.035c0-.009-.018-.018-.046-.036a.167.167 0 0 0-.054-.063 49.096 49.096 0 0 1-1.66-1.533 15.411 15.411 0 0 1-.566-.566c-.065-.082-.137-.146-.21-.22-.137-.155-.283-.31-.429-.465 0-.01 0-.01-.01-.01-.127-.126-.246-.254-.373-.39l-.456-.512c-.147-.155-.284-.32-.43-.484-.145-.173-.29-.337-.437-.51a71.78 71.78 0 0 1-1.314-1.615c-.045-.064-.1-.128-.155-.201-.246-.319-.493-.647-.748-.985a2.607 2.607 0 0 1-.11-.155 14.884 14.884 0 0 1-.337-.456c-.156-.21-.302-.42-.457-.64-.3-.427-.602-.866-.912-1.322-1.623-2.427-3.293-5.236-4.963-8.466-.036-.074-.072-.155-.119-.238-.164-.329-.328-.647-.493-.976-.309-.62-.62-1.241-.911-1.852a88.193 88.193 0 0 1-.794-1.633c-.183-.383-.365-.757-.53-1.132a133.192 133.192 0 0 1-1.56-3.375c-.328-.73-.648-1.45-.958-2.162-.045-.12-.1-.228-.145-.347a99.996 99.996 0 0 1-.685-1.597c-.164-.392-.328-.775-.483-1.158-.055-.137-.11-.274-.164-.402-.439-1.058-.849-2.08-1.233-3.075l-.875-2.29c-.027-.09-.064-.182-.1-.273a160.011 160.011 0 0 1-1.798-5.127c-.109-.33-.218-.649-.32-.968-.29-.912-.556-1.77-.792-2.572-.403-1.342-.731-2.528-.995-3.54-.11-.41-.21-.785-.292-1.14a14.334 14.334 0 0 1-.164-.648c-.055-.237-.11-.457-.156-.666-.018-.046-.027-.092-.036-.137-.027-.147-.063-.273-.092-.401a37.484 37.484 0 0 1-.236-1.123l-.064-.356-.95 1.505-4.88 7.737c-.584 1.762-1.241 4.334-1.943 7.445 0 0-.01.027-.018.073v.01c0 .018 0 .036-.01.063h-.009c-.009.063-.036.155-.055.274 0 0-.01.01-.01.018v.01c-.026.09-.045.182-.063.272-.866 3.914-1.788 8.604-2.71 13.585-1.55 8.44-3.083 17.7-4.27 25.318-.172 1.15-.346 2.253-.501 3.321l-.191 1.286a546.77 546.77 0 0 0-.867 5.921l-.018.174c-.047.346-.092.675-.128.985-.036.246-.064.484-.101.712-.054.42-.109.803-.155 1.159-.164 1.258-.255 2.144-.246 2.554.018.32.182.83.447 1.47v.009c.33.775.803 1.724 1.34 2.773 0 0 .01 0 .01.009.183.365.384.739.584 1.114l.055.108c.922 1.734 1.934 3.558 2.719 5.064.812 1.56 1.386 2.773 1.34 3.156 0 0 0 .02-.008.029-.01.063-.028.126-.046.2-.018.054-.036.109-.064.173a5.89 5.89 0 0 1-.465.858c-.146.237-.32.493-.502.757-.018.018-.027.037-.046.055l.028-.055H42.628c-.921-1.843-1.97-3.577-2.892-5.173-.064-.11-.128-.21-.192-.32-.63-1.076-1.186-2.08-1.596-3.01-.292-.658-.51-1.268-.63-1.842v-.01c-.848-4.233 11.021-14.68 11.021-14.68-5.72-18.119-8.85-39.723-10.492-55.169 0-.018 0-.027-.009-.046-1.278-11.98-1.651-20.226-1.651-20.226l-1.97-2.264L.304 59.128c.885-1.068 4.443-18.037 7.381-21.714.019-.018.028-.036.046-.054.164-.202.328-.356.483-.466 2.893-1.98 7.975-3.43 24.925-10.09.84-.329 1.688-.657 2.583-1.013 19.012-7.537 37.67-16.677 37.67-16.677L80.545.318h3.193L82.69 2.553l-.037.073a76.22 76.22 0 0 0 1.743 6.524.51.51 0 0 0 .055.164c9.844 31.038 35.162 41.046 35.162 41.046 17.598-12.982 17.252-33.611 17.252-33.611V13.92l3.294.977 2.253 5.373s3.823 5.93 18.94 12.58c2.61 1.15 5.41 2.601 8.303 4.253 13.84 7.855 29.231 20.017 30.409 22.59.117.274.254.684.4 1.286v.01c1.625 6.385 4.963 30.29 8.066 38.82 1.943 5.318 5 8.255 7.253 9.78.009.017.009.017.027.017 1.67 1.141 2.892 1.506 2.892 1.506.238 1.314.466 2.61.666 3.887 5.255 33.118-1.834 57.623-6.194 66.766z"/></svg></svg><svg width="15" height="16" xmlns="http://www.w3.org/2000/svg" xmlns:xlink="http://www.w3.org/1999/xlink" xmlns:svgjs="http://svgjs.com/svgjs" viewBox="0 0.068 15 15.863" fill="#ccf" opacity=".502" x="195" y="504"><svg xmlns="http://www.w3.org/2000/svg" xmlns:xlink="http://www.w3.org/1999/xlink" width="15" height="16" viewBox="0.215 0.452 14.255 15.076"><path paint-order="stroke fill markers" fill-rule="evenodd" d="M2.661.452s5.652 7.5 11.81 10.944L2.184 15.528.215 13.261 2.661.452"/></svg></svg><svg width="85" height="92" xmlns="http://www.w3.org/2000/svg" xmlns:xlink="http://www.w3.org/1999/xlink" xmlns:svgjs="http://svgjs.com/svgjs" viewBox="0.212 0 84.576 92" fill="#a999f1" x="357" y="501"><svg xmlns="http://www.w3.org/2000/svg" xmlns:xlink="http://www.w3.org/1999/xlink" width="85" height="92" viewBox="0.453 0.368 83.96 91.33"><path paint-order="stroke fill markers" fill-rule="evenodd" d="M83.823 30.665c-1.312 2.073-7.902 6.412-9.603 8.112-1.699 1.685 0 7.262 0 7.262-27.69 29.391-56.559 44.108-59.467 45.54-.164.074-.24.119-.24.119C-2.872 80.008-1.38 60.757 4.39 44.533c5.517-15.567 14.97-28.347 15.388-28.898l.015-.015.015-.015c.313-.12 5.279-2.177 8.828-2.446 1.178-.09 2.25.373 3.266 1.014 2.117 1.312 3.906 3.385 5.636 2.52 2.55-1.283 8.246-14.748 12.108-15.12 2.699-.254 6.442 2.49 8.932 4.057 1.089.685 1.938 1.147 2.356 1.028C62.35 6.285 67.152.53 67.54.38c.373-.164 2.565 1.446 2.565 1.446l-1.537 1.91C70.925 17.304 78.65 26.43 78.65 26.43l5.173-7.576s1.328 9.738 0 11.81z"/></svg></svg><svg width="48" height="53" xmlns="http://www.w3.org/2000/svg" xmlns:xlink="http://www.w3.org/1999/xlink" xmlns:svgjs="http://svgjs.com/svgjs" viewBox="0.349 0 47.303 53" fill="#cb4d7a" x="250" y="382"><svg xmlns="http://www.w3.org/2000/svg" xmlns:xlink="http://www.w3.org/1999/xlink" width="48" height="53" viewBox="0.702 0.148 47.075 52.745"><path paint-order="stroke fill markers" fill-rule="evenodd" d="M47.777 40.184c-.03.195-.06.389-.074.583-.075.402-.164.79-.283 1.192 0 0 0 .015-.016.03-1.774 6.576-8.946 13.302-17.997 10.065C19.52 48.521.702 8.662.702 8.662L2.596.148l44.66 36.384.491 3.444.03.208z"/></svg></svg><svg width="90" height="114" xmlns="http://www.w3.org/2000/svg" xmlns:xlink="http://www.w3.org/1999/xlink" xmlns:svgjs="http://svgjs.com/svgjs" viewBox="399 415 90 114" x="399" y="415"><svg width="88" height="114" xmlns="http://www.w3.org/2000/svg" xmlns:xlink="http://www.w3.org/1999/xlink" xmlns:svgjs="http://svgjs.com/svgjs" viewBox="0 0.433 88 113.134" fill="#ffc2a9" x="399" y="415"><svg xmlns="http://www.w3.org/2000/svg" xmlns:xlink="http://www.w3.org/1999/xlink" width="88" height="114" viewBox="0.358 0.98 87.572 112.584"><path paint-order="stroke fill markers" fill-rule="evenodd" d="M87.93 57.333S73.093 84.456 55.72 92.79h-5.934l-13.704 20.772s-8.856-5.56-9.514-23.828c0 0 3.102-3.236 3.863-6.889 0 0-4.891-3.848-6.218-6.665-1.313-2.833-1.79-11.304-2.729-14.793-.94-3.489-8.947-10.736-10.737-11.676-1.788-.94-9.886-1.416-9.886-1.416s-1.133-2.922 0-4.324c1.134-1.417 13.75-6.323 20.623-1.61 0 0 .477 3.578 1.223 5.472.76 1.878 6.784 8.559 7.724 8.559.94 0 4.995-3.385 6.785-6.024C38.93 47.834 48.04 28.195 50.248 21.56a.76.76 0 0 1 .06-.195c.03-.104.075-.208.09-.298.03-.074.044-.133.059-.193.016-.03.03-.045.03-.075 1.7-5.74 11.586-16.76 16.865-19.773 0 0 2.252-.566 3.474 2.253 0 0-4.235 12.063-8.664 19.22a97.17 97.17 0 0 0-2.386 4.145h-.014c-3.773 6.934-8.023 16.015-8.634 17.343l-.074.164 2.356 1.208 6.366-6.04 6.532-6.188 14.987 15.821-1.478 1.88-4.682 6.008 2.371.433 5.517-6.1 4.907 6.16z"/></svg></svg><svg width="55" height="57" xmlns="http://www.w3.org/2000/svg" xmlns:xlink="http://www.w3.org/1999/xlink" xmlns:svgjs="http://svgjs.com/svgjs" viewBox="0 0.03 55 56.941" fill="#ffeadb" opacity=".6" x="429" y="436"><svg xmlns="http://www.w3.org/2000/svg" xmlns:xlink="http://www.w3.org/1999/xlink" width="55" height="57" viewBox="0.431 0.56 54.026 55.932"><path paint-order="stroke fill markers" fill-rule="evenodd" d="M54.458 42.098l-4.74 6.968s-26.025-20.07-31.677-21.77c-5.651-1.7-7.723-.566-7.723-.566l-5.831 7.44s10.736 9.514 11.676 22.323c0 0-3.58-16.194-15.732-21.1.94 0 4.995-3.385 6.785-6.024C8.93 26.834 18.04 7.195 20.248.56c-.298 1.133-.685 3.34.24 5.084 1.282 2.371 8.826.135 9.274 0h.014l-8.648 17.343-.074.164 2.356 1.208 6.366-6.04-3.19 7.411 23.231 4.101-4.682 6.009 2.371.433 6.952 5.825z"/></svg></svg><svg width="27" height="26" xmlns="http://www.w3.org/2000/svg" xmlns:xlink="http://www.w3.org/1999/xlink" xmlns:svgjs="http://svgjs.com/svgjs" viewBox="0 0.255 27 25.491" fill="#ffb0b0" x="454" y="448"><svg xmlns="http://www.w3.org/2000/svg" xmlns:xlink="http://www.w3.org/1999/xlink" width="27" height="26" viewBox="0.2 0.113 26.558 25.074"><path paint-order="stroke fill markers" fill-rule="evenodd" d="M11.313.136s4.52-.66 7.44 5.18l-.659 1.883s4.406.863 8.664 8.005c0 0-3.767 6.876-13.091 9.983 0 0-4.332-1.225-5.085-4.897l.847-2.355-3.39 2.543s-4.05 1.224-5.84-4.803L11.314.135z"/></svg></svg><svg width="14" height="15" xmlns="http://www.w3.org/2000/svg" xmlns:xlink="http://www.w3.org/1999/xlink" xmlns:svgjs="http://svgjs.com/svgjs" viewBox="0.073 0 13.853 15" fill="#ffb0b0" x="475" y="463"><svg xmlns="http://www.w3.org/2000/svg" xmlns:xlink="http://www.w3.org/1999/xlink" width="14" height="15" viewBox="0.673 0.298 12.699 13.75"><path paint-order="stroke fill markers" fill-rule="evenodd" d="M13.292 7.456S14.234 3.124 9.62.298L.673 10.187s.27 3.17 4.144 3.862c0 0 6.12-2.072 8.475-6.593z"/></svg></svg><svg width="26" height="27" xmlns="http://www.w3.org/2000/svg" xmlns:xlink="http://www.w3.org/1999/xlink" xmlns:svgjs="http://svgjs.com/svgjs" viewBox="0 0.005 26 26.99" fill="#d1a1d6" opacity=".91" x="423" y="491"><svg xmlns="http://www.w3.org/2000/svg" xmlns:xlink="http://www.w3.org/1999/xlink" width="26" height="27" viewBox="0.213 0.181 25.573 26.546"><path paint-order="stroke fill markers" fill-rule="evenodd" d="M.213.181s10.365 11.567 25.573 16.61l-6.554 9.936L5.555 9.358l.877-2.512S.963 2.734.213.181z"/></svg></svg><svg width="13" height="14" xmlns="http://www.w3.org/2000/svg" xmlns:xlink="http://www.w3.org/1999/xlink" xmlns:svgjs="http://svgjs.com/svgjs" viewBox="0.349 0 12.301 14" fill="#e28183" x="462" y="455"><svg xmlns="http://www.w3.org/2000/svg" xmlns:xlink="http://www.w3.org/1999/xlink" width="13" height="14" viewBox="0.582 0.199 11.503 13.091"><path paint-order="stroke fill markers" fill-rule="evenodd" d="M10.094.199S5.761 7.357 1.429 10.935L.582 13.29S8.99 7.614 12.084 1.058c0 0-1.001-.718-1.99-.86z"/></svg></svg></svg><svg width="109" height="127" xmlns="http://www.w3.org/2000/svg" xmlns:xlink="http://www.w3.org/1999/xlink" xmlns:svgjs="http://svgjs.com/svgjs" viewBox="0.291 0 108.417 127" fill="#ccf" opacity=".502" x="333" y="466"><svg xmlns="http://www.w3.org/2000/svg" xmlns:xlink="http://www.w3.org/1999/xlink" width="109" height="127" viewBox="0.834 0.696 107.58 126.019"><path paint-order="stroke fill markers" fill-rule="evenodd" d="M107.823 65.665c-1.312 2.073-7.902 6.412-9.603 8.112-1.699 1.685 0 7.262 0 7.262-27.69 29.391-56.559 44.108-59.467 45.54-.164.074-.24.119-.24.119-2.265.283-13.285-2.818-24.304-24.857C4.219 81.874 1.355 68.544.893 66.217l-.06-.358 2.43-3.296 3.61-40.678 2.534 8.186C19.01 18.485 28.061.696 28.061.696l.404 1.282v.015c1.624 6.382 4.965 30.285 8.067 38.814 1.938 5.324 4.994 8.262 7.246 9.782l.015.03-.015.016C34.935 58.7 30.551 70.303 28.39 79.533c-1.984 8.47-2.117 14.956-2.117 14.956s2.444-11.482 10.17-25.29c2.802-5.025 6.888-9.513 10.929-13.196a87.747 87.747 0 0 1 8.53-6.83c2.117 1.312 3.906 3.385 5.636 2.52-11.631 17.461-11.348 52.026-.417 45.435 10.915-6.59 13.414-20.579 13.414-20.579-2.58-17.044-1.81-36.267.263-39.92 2.514.083 9.718 5.148 10.136 5.03-.656 20.055 8.768 33.445 8.768 33.445l6.219-9.618C90.869 50.232 91.54 35.38 91.54 35.38c.373-.164 2.565 1.446 2.565 1.446l-1.537 1.91C94.925 52.304 102.65 61.43 102.65 61.43l5.173-7.576s1.328 9.738 0 11.81z"/></svg></svg><svg width="42" height="19" xmlns="http://www.w3.org/2000/svg" xmlns:xlink="http://www.w3.org/1999/xlink" xmlns:svgjs="http://svgjs.com/svgjs" viewBox="0 0.067 42 18.866" fill="#ccedff" opacity=".502" x="295" y="523"><svg xmlns="http://www.w3.org/2000/svg" xmlns:xlink="http://www.w3.org/1999/xlink" width="42" height="19" viewBox="0.981 0.007 40.287 18.097"><path paint-order="stroke fill markers" fill-rule="evenodd" d="M.981.007s24.257 1.318 40.287 5.556l-8.267 12.54S20.57 7.166.98.008z"/></svg></svg><svg width="60" height="27" xmlns="http://www.w3.org/2000/svg" xmlns:xlink="http://www.w3.org/1999/xlink" xmlns:svgjs="http://svgjs.com/svgjs" viewBox="0 0.436 60 26.128" fill="#ccedff" opacity=".502" x="259" y="589"><svg xmlns="http://www.w3.org/2000/svg" xmlns:xlink="http://www.w3.org/1999/xlink" width="60" height="27" viewBox="0.439 0.869 59.208 25.783"><path paint-order="stroke fill markers" fill-rule="evenodd" d="M59.647.87S44.514 13.492 29.635 19.331C14.755 25.172.439 25.737.439 25.737s8.555 2.542 29.605-.849c21.048-3.39 28.25-14.79 28.25-14.79L59.647.87z"/></svg></svg><svg width="68" height="44" xmlns="http://www.w3.org/2000/svg" xmlns:xlink="http://www.w3.org/1999/xlink" xmlns:svgjs="http://svgjs.com/svgjs" viewBox="0.272 0 67.455 44" fill="#ccedff" opacity=".502" x="182" y="492"><svg xmlns="http://www.w3.org/2000/svg" xmlns:xlink="http://www.w3.org/1999/xlink" width="68" height="44" viewBox="0.779 0.493 66.595 43.439"><path paint-order="stroke fill markers" fill-rule="evenodd" d="M4.553 12.452L.779.492l14.882 11.96s5.83 8.768 20.549 16.074c13.882 6.905 29.45 6.353 31.164 6.278-23.918 2.431-30.36 9.097-30.36 9.097-6.725.85-21.83-16.373-21.83-16.373l-1.969-2.267-8.662-12.809"/></svg></svg><svg width="37" height="55" xmlns="http://www.w3.org/2000/svg" xmlns:xlink="http://www.w3.org/1999/xlink" xmlns:svgjs="http://svgjs.com/svgjs" viewBox="0 0.21 37 54.58" fill="#ccedff" opacity=".502" x="195" y="515"><svg xmlns="http://www.w3.org/2000/svg" xmlns:xlink="http://www.w3.org/1999/xlink" width="37" height="55" viewBox="0.215 0.4 36.483 53.817"><path paint-order="stroke fill markers" fill-rule="evenodd" d="M.215 2.261L14.465.4s5.697 3.773 17.129 8.427L22.06 22.883s3.781 20.04 14.637 31.333c0 0-28.81-16.002-32.86-29.458L.214 2.26z"/></svg></svg><svg width="12" height="77" xmlns="http://www.w3.org/2000/svg" xmlns:xlink="http://www.w3.org/1999/xlink" xmlns:svgjs="http://svgjs.com/svgjs" viewBox="0.337 0 11.327 77" fill="#ccf" opacity=".761" x="333" y="487"><svg xmlns="http://www.w3.org/2000/svg" xmlns:xlink="http://www.w3.org/1999/xlink" width="12" height="77" viewBox="0.893 0.885 11.086 75.362"><path paint-order="stroke fill markers" fill-rule="evenodd" d="M6.873.885l2.534 8.186 2.572 67.176S5.466 63.467.893 45.217l2.375-3.654S7.253 16.243 6.873.885z"/></svg></svg><svg width="15" height="41" xmlns="http://www.w3.org/2000/svg" xmlns:xlink="http://www.w3.org/1999/xlink" xmlns:svgjs="http://svgjs.com/svgjs" viewBox="0.154 0 14.693 41" fill="#ccf" opacity=".502" x="417" y="507"><svg xmlns="http://www.w3.org/2000/svg" xmlns:xlink="http://www.w3.org/1999/xlink" width="15" height="41" viewBox="0.108 0.658 14.112 39.38"><path paint-order="stroke fill markers" fill-rule="evenodd" d="M.934.658s-1.434 33 12.59 35.853l.696 3.528S-3.923 39.366.934.659z"/></svg></svg><svg width="31" height="31" xmlns="http://www.w3.org/2000/svg" xmlns:xlink="http://www.w3.org/1999/xlink" xmlns:svgjs="http://svgjs.com/svgjs" viewBox="0.016 0 30.967 31" fill="#ccf" opacity=".302" x="364" y="515"><svg xmlns="http://www.w3.org/2000/svg" xmlns:xlink="http://www.w3.org/1999/xlink" width="31" height="31" viewBox="0.463 0.173 30.075 30.106"><path paint-order="stroke fill markers" fill-rule="evenodd" d="M30.538 2.693S30 3.875 24.902.173c0 0-17.642 12.494-24.439 30.107 0 0 10.874-16.181 16.66-17.931 5.786-1.752 7.183 4.706 7.183 4.706s2.29-9.097 6.232-14.362z"/></svg></svg><svg width="34" height="47" xmlns="http://www.w3.org/2000/svg" xmlns:xlink="http://www.w3.org/1999/xlink" xmlns:svgjs="http://svgjs.com/svgjs" viewBox="0.385 0 33.231 47" fill="#ccedff" opacity=".502" x="290" y="448"><svg xmlns="http://www.w3.org/2000/svg" xmlns:xlink="http://www.w3.org/1999/xlink" width="34" height="47" viewBox="0.707 0.114 32.51 45.981"><path paint-order="stroke fill markers" fill-rule="evenodd" d="M31.83.114s-1.051 15.75-8.6 27.05C15.68 38.467.707 46.095.707 46.095s18.788-6.92 27.405-16.67C36.73 19.679 31.83.115 31.83.115z"/></svg></svg><svg width="49" height="64" xmlns="http://www.w3.org/2000/svg" xmlns:xlink="http://www.w3.org/1999/xlink" xmlns:svgjs="http://svgjs.com/svgjs" viewBox="0.031 0 48.938 64" fill="#ccedff" opacity=".502" x="222" y="424"><svg xmlns="http://www.w3.org/2000/svg" xmlns:xlink="http://www.w3.org/1999/xlink" width="49" height="64" viewBox="0.459 0.416 48.527 63.463"><path paint-order="stroke fill markers" fill-rule="evenodd" d="M3.724.416s0 13.17 4.238 26.591C12.2 40.43 48.986 63.88 48.986 63.88S11.07 48.128 3.724 33.966c-7.345-14.163 0-33.55 0-33.55z"/></svg></svg><svg width="70" height="63" xmlns="http://www.w3.org/2000/svg" xmlns:xlink="http://www.w3.org/1999/xlink" xmlns:svgjs="http://svgjs.com/svgjs" viewBox="0 0.041 70 62.918" fill="#ccf" opacity=".502" x="234" y="407"><svg xmlns="http://www.w3.org/2000/svg" xmlns:xlink="http://www.w3.org/1999/xlink" width="70" height="63" viewBox="0.433 0.318 68.981 62.002"><path paint-order="stroke fill markers" fill-rule="evenodd" d="M69.414 20.27C68.25 34.138 64.03 43.8 59.527 50.317 53.324 59.263 46.614 62.32 46.614 62.32a77.465 77.465 0 0 1-17.536-10.572C7.814 34.748.955 11.188.433 9.25 9.41 30.932 22.59 44.068 32.582 51.465c8.052 5.979 14.032 8.23 14.032 8.23v-6.933a45.892 45.892 0 0 1-4.623-2.028C24.396 41.86 15.151 23.37 10.827 11.412c-.016-.03-.016-.044-.03-.075C8.455 4.867 7.546.318 7.546.318h3.19L9.693 2.554l-.044.075a77.84 77.84 0 0 0 1.744 6.516c.015.06.03.12.06.164 9.841 31.047 35.161 41.052 35.161 41.052 17.595-12.988 17.252-33.61 17.252-33.61v-2.833l3.296.983 2.252 5.369z"/></svg></svg><svg width="13" height="41" xmlns="http://www.w3.org/2000/svg" xmlns:xlink="http://www.w3.org/1999/xlink" xmlns:svgjs="http://svgjs.com/svgjs" viewBox="0.162 0 12.677 41" fill="#ccf" opacity=".302" x="405" y="502"><svg xmlns="http://www.w3.org/2000/svg" xmlns:xlink="http://www.w3.org/1999/xlink" width="13" height="41" viewBox="0.591 0.628 12.343 39.921"><path paint-order="stroke fill markers" fill-rule="evenodd" d="M2.798.628s-4.784 15.623-.263 39.921c0 0 2.26-30.796 3.955-33.48 1.696-2.685 6.444-1.41 6.444-1.41S5.462 1.533 2.798.628z"/></svg></svg><svg width="44" height="122" xmlns="http://www.w3.org/2000/svg" xmlns:xlink="http://www.w3.org/1999/xlink" xmlns:svgjs="http://svgjs.com/svgjs" viewBox="0.36 0 43.281 122" fill="#ccf" opacity=".502" x="333" y="466"><svg xmlns="http://www.w3.org/2000/svg" xmlns:xlink="http://www.w3.org/1999/xlink" width="44" height="122" viewBox="0.893 0.696 42.886 120.887"><path paint-order="stroke fill markers" fill-rule="evenodd" d="M28.39 121.583c-4.176-3.652-9.186-9.751-14.181-19.742C4.219 81.874 1.355 68.544.893 66.217l2.37-3.654L6.44 31.846l2.967-1.775S20.009 18.366 28.061.696c.12.268.254.686.404 1.282v.015c1.624 6.382 4.965 30.285 8.067 38.814 1.938 5.324 4.994 8.262 7.246 9.782 0 0-18.356 27.23-19.25 46.658-.79 17.686 3.146 23.442 3.862 24.336z"/></svg></svg><svg width="2" height="3" xmlns="http://www.w3.org/2000/svg" xmlns:xlink="http://www.w3.org/1999/xlink" xmlns:svgjs="http://svgjs.com/svgjs" viewBox="0.176 0 1.648 3" fill="#ccf" opacity=".502" x="322" y="618"><svg xmlns="http://www.w3.org/2000/svg" xmlns:xlink="http://www.w3.org/1999/xlink" width="2" height="3" viewBox="0.068 0.016 1.123 2.044"><path paint-order="stroke fill markers" fill-rule="evenodd" d="M1.19.016c-.008.063-.026.126-.045.2-.018.054-.036.109-.064.173-.1.246-.264.538-.465.858-.146.237-.32.493-.502.757-.018.018-.027.037-.046.055l.028-.055L1.182.024 1.19.017z"/></svg></svg><svg width="137" height="79" xmlns="http://www.w3.org/2000/svg" xmlns:xlink="http://www.w3.org/1999/xlink" xmlns:svgjs="http://svgjs.com/svgjs" viewBox="0 0.428 137 78.144" fill="#7a4ac0" opacity=".502" x="194" y="380"><svg xmlns="http://www.w3.org/2000/svg" xmlns:xlink="http://www.w3.org/1999/xlink" width="137" height="79" viewBox="0.143 0.88 136.515 77.868"><path paint-order="stroke fill markers" fill-rule="evenodd" d="M136.657 64.105l-28.72 9.305-8.41 3.907-.045.015-5.471.014-7.397.015-4.623.373-2.445.179-6.964.552-3.504.283-34.445-12.466-6.16-2.222L.144 53.8c.834-.327 1.684-.655 2.579-1.013 19.012-7.53 37.667-16.671 37.667-16.671l7.157-8.798h3.191a106.203 106.203 0 0 0 5.965-16.656l1.894-8.514c.133-.82.193-1.268.193-1.268l10.14 5.353 34.192 27.347a55.9 55.9 0 0 0 .135 4.952l.491 3.444c.09-.67.12-1.058.12-1.058l3.295.983 2.252 5.369s3.817 5.935 18.937 12.585c2.61 1.148 5.413 2.595 8.306 4.25z"/></svg></svg><svg width="39" height="61" xmlns="http://www.w3.org/2000/svg" xmlns:xlink="http://www.w3.org/1999/xlink" xmlns:svgjs="http://svgjs.com/svgjs" viewBox="0.289 0 38.422 61" fill="#34c7ff" x="330" y="444"><svg xmlns="http://www.w3.org/2000/svg" xmlns:xlink="http://www.w3.org/1999/xlink" width="39" height="61" viewBox="0.657 0.105 38.214 60.669"><path paint-order="stroke fill markers" fill-rule="evenodd" d="M.657.105S26.343 18.867 29.678 25.32c3.336 6.453 4.683 26.697 9.193 35.454 0 0-3.081-14.327-5.244-25.562-2.162-11.234-1.644-11.394-2.844-14.148C29.582 18.31 10.395 4.997.657.104z"/></svg></svg><svg width="13" height="72" xmlns="http://www.w3.org/2000/svg" xmlns:xlink="http://www.w3.org/1999/xlink" xmlns:svgjs="http://svgjs.com/svgjs" viewBox="0.499 0 12.001 72" fill="#34c7ff" x="314" y="548"><svg xmlns="http://www.w3.org/2000/svg" xmlns:xlink="http://www.w3.org/1999/xlink" width="13" height="72" viewBox="0.211 0.631 11.826 70.948"><path paint-order="stroke fill markers" fill-rule="evenodd" d="M8.515 71.173c.01-.018-.12-.118-.112-.136h-.452l.384-.428c.766-1.103.783-.494.847-.584l.009-.01c-.12-.63-.995-1.78-2.154-3.184-1.267-1.524-2.873-3.34-4.214-5.082-.027-.027-.046-.063-.073-.09a69.592 69.592 0 0 1-.84-1.15C1.025 59.24.377 58.063.23 57.133c-.063-.392.028-1.36.247-2.782.365-2.464 1.094-6.269 2.008-10.758.21-.995.419-2.025.637-3.083 1.843-8.805 4.225-19.397 6.059-27.47 1.286-5.676 2.317-10.11 2.71-11.77.017-.091.036-.183.063-.274V.987.97c0-.009 0-.009.009 0 .02-.119.046-.21.055-.274.01-.027.01-.045.019-.064 0 .019 0 .037-.01.064-.009.063-.027.155-.045.265-.292 1.605-1.424 7.828-2.801 15.564a2919.469 2919.469 0 0 0-4.115 23.62c-.776 4.644-1.433 8.769-1.861 11.715-.036.246-.064.484-.1.712-.055.42-.11.803-.156 1.159-.164 1.258-.255 2.144-.246 2.554.01.52.137 1.067.365 1.643v.009c.31.83.821 1.706 1.423 2.6 0 0 .01 0 .01.009.255.365.529.739.802 1.114a.428.428 0 0 1 .083.108c1.377 1.807 2.964 3.595 3.968 5.064.648.94 1.049 1.751 1.004 2.354-.064.894-.115 1.4-1.009 2.395l-.835-.407"/></svg></svg><svg width="98" height="33" xmlns="http://www.w3.org/2000/svg" xmlns:xlink="http://www.w3.org/1999/xlink" xmlns:svgjs="http://svgjs.com/svgjs" viewBox="0 0.707 98 31.587" fill="#8642a0" x="230" y="498"><svg xmlns="http://www.w3.org/2000/svg" xmlns:xlink="http://www.w3.org/1999/xlink" width="98" height="33" viewBox="0.227 0.725 97.52 31.432"><path paint-order="stroke fill markers" fill-rule="evenodd" d="M.227 1.693l1.596 30.464a937.652 937.652 0 0 1 95.924-.371l-.283-27.48A572.733 572.733 0 0 0 .227 1.694z"/></svg></svg><svg width="227" height="0" xmlns="http://www.w3.org/2000/svg" xmlns:xlink="http://www.w3.org/1999/xlink" xmlns:svgjs="http://svgjs.com/svgjs" fill="none" x="178" y="614"><svg xmlns="http://www.w3.org/2000/svg" xmlns:xlink="http://www.w3.org/1999/xlink" width="227" height="0"><path paint-order="stroke fill markers" d="M.603.83h0"/></svg></svg><svg width="78" height="113" xmlns="http://www.w3.org/2000/svg" xmlns:xlink="http://www.w3.org/1999/xlink" xmlns:svgjs="http://svgjs.com/svgjs" viewBox="0.457 0 77.085 113" fill="#ffc2a9" x="239" y="303"><svg xmlns="http://www.w3.org/2000/svg" xmlns:xlink="http://www.w3.org/1999/xlink" width="78" height="113" viewBox="0.868 0.005 76.932 112.775"><path paint-order="stroke fill markers" fill-rule="evenodd" d="M57.904 111.763s-13.01 3.595-27.865-2.734C15.184 102.702 1.981 82.566.984 77.433 0 72.283 5.63 58.475 5.12 47.929 4.61 37.384-1.438 19.502 6.773 9.267 14.999-.952 54.884-4.365 68.455 7.59c0 0 4.5 9.883 4.777 15.58.065 1.377-.085 3.41-.34 5.757-.074.87-.19 1.8-.291 2.76-.824 6.954-2.012 15.454-1.087 19.108.326 1.276.793 2.442 1.331 3.547l.001.015c1.776 3.614 4.29 6.442 4.87 9.615.758 4.148-3.405 34.02-19.812 47.791z"/></svg></svg><svg width="20" height="34" xmlns="http://www.w3.org/2000/svg" xmlns:xlink="http://www.w3.org/1999/xlink" xmlns:svgjs="http://svgjs.com/svgjs" viewBox="0 0.421 20 33.158" fill="#ffc2a9" x="225" y="339"><svg xmlns="http://www.w3.org/2000/svg" xmlns:xlink="http://www.w3.org/1999/xlink" width="20" height="34" viewBox="0.008 0.417 19.909 33.007"><path paint-order="stroke fill markers" fill-rule="evenodd" d="M18.868 8.956S14.843.126 5.817.424c0 0-5.172 2.337-5.81 6.4 0 0 2.648 14.476 5.197 21.168 2.549 6.692 10.643 5.315 10.643 5.315s6.562-11.185 3.021-24.35z"/></svg></svg><svg width="32" height="9" xmlns="http://www.w3.org/2000/svg" xmlns:xlink="http://www.w3.org/1999/xlink" xmlns:svgjs="http://svgjs.com/svgjs" viewBox="0 0.182 32 8.637" fill="#e1616a" x="279" y="374"><svg xmlns="http://www.w3.org/2000/svg" xmlns:xlink="http://www.w3.org/1999/xlink" width="32" height="9" viewBox="0.969 0.6 30.426 8.212"><path paint-order="stroke fill markers" fill-rule="evenodd" d="M.969 1.945s2.991-.38 4.334.53c1.341.91 6.281 5.26 12.308 6.22s9.783-4.314 11.042-4.637c1.257-.323 2.741 1.408 2.741 1.408s-.648-2.05-3.8-2.844c0 0-1.027 4.847-9.754 3.627C9.114 5.03 5.248 1.364 5.248 1.364L4.771.6S2.358 1.224.97 1.945z"/></svg></svg><svg width="71" height="75" xmlns="http://www.w3.org/2000/svg" xmlns:xlink="http://www.w3.org/1999/xlink" xmlns:svgjs="http://svgjs.com/svgjs" viewBox="0.022 0 70.956 75" fill="#ffeadb" opacity=".6" x="244" y="304"><svg xmlns="http://www.w3.org/2000/svg" xmlns:xlink="http://www.w3.org/1999/xlink" width="71" height="75" viewBox="0.195 0.051 70.205 74.207"><path paint-order="stroke fill markers" fill-rule="evenodd" d="M21.038 27.755l.072-.93s7.894-15.557 24.942-16.798c17.048-1.243 21.42 9.266 21.42 9.266l2.928-4.951L62.49.052 12.306 1.644.57 12.087.195 36.28l6.968 31.577 13.55 6.4 3.57-3.487c-1.894-10.595-10.295-19.952-10.295-19.952l5.587-4.293s15.195 6.468 23.67 3.902c0 0 5.543-19.145 4.497-33.08 0 0-21.835 4.319-26.704 10.408z"/></svg></svg><svg width="29" height="14" xmlns="http://www.w3.org/2000/svg" xmlns:xlink="http://www.w3.org/1999/xlink" xmlns:svgjs="http://svgjs.com/svgjs" viewBox="0 0.014 29 13.971" fill="#38368e" x="264" y="319"><svg xmlns="http://www.w3.org/2000/svg" xmlns:xlink="http://www.w3.org/1999/xlink" width="29" height="14" viewBox="0.328 0.408 28.032 13.505"><path paint-order="stroke fill markers" fill-rule="evenodd" d="M.328 13.913s.568-5.494 9.67-8.122C20.13 2.866 28.36.408 28.36.408s-1.525 6.067-4.834 8.476c0 0-10.866.13-16.297 1.645-5.43 1.513-6.9 3.384-6.9 3.384z"/></svg></svg><svg width="10" height="15" xmlns="http://www.w3.org/2000/svg" xmlns:xlink="http://www.w3.org/1999/xlink" xmlns:svgjs="http://svgjs.com/svgjs" viewBox="0.183 0 9.635 15" fill="#38368e" x="303" y="323"><svg xmlns="http://www.w3.org/2000/svg" xmlns:xlink="http://www.w3.org/1999/xlink" width="10" height="15" viewBox="0.385 0.293 8.999 14.01"><path paint-order="stroke fill markers" fill-rule="evenodd" d="M8.473.293S3.46 4.56.385 14.303c0 0 3.186-4.604 6.311-4.685 2.142-.057 1.901 2.073 1.901 2.073S10.448 5.866 8.473.293z"/></svg></svg><svg width="15" height="7" xmlns="http://www.w3.org/2000/svg" xmlns:xlink="http://www.w3.org/1999/xlink" xmlns:svgjs="http://svgjs.com/svgjs" viewBox="0 0.416 15 6.167" fill="#c6659c" x="269" y="348"><svg xmlns="http://www.w3.org/2000/svg" xmlns:xlink="http://www.w3.org/1999/xlink" width="15" height="7" viewBox="0.231 0.809 14.129 5.809"><path paint-order="stroke fill markers" fill-rule="evenodd" d="M.231.81s5.535 4.97 14.06 5.808l.07-3.092-.711 1.338S5.49 4.777.23.809z"/></svg></svg><svg width="10" height="6" xmlns="http://www.w3.org/2000/svg" xmlns:xlink="http://www.w3.org/1999/xlink" xmlns:svgjs="http://svgjs.com/svgjs" viewBox="0 0.194 10 5.613" fill="#c6659c" x="300" y="352"><svg xmlns="http://www.w3.org/2000/svg" xmlns:xlink="http://www.w3.org/1999/xlink" width="10" height="6" viewBox="0.993 0.533 8.061 4.525"><path paint-order="stroke fill markers" fill-rule="evenodd" d="M.993.533s1.103 3.33 8.06 4.525l-.3-1.643-.358.608S3.473 3.635.993.533z"/></svg></svg><svg width="22" height="6" xmlns="http://www.w3.org/2000/svg" xmlns:xlink="http://www.w3.org/1999/xlink" xmlns:svgjs="http://svgjs.com/svgjs" viewBox="0 0.322 22 5.356" fill="#cb5f7d" x="287" y="365"><svg xmlns="http://www.w3.org/2000/svg" xmlns:xlink="http://www.w3.org/1999/xlink" width="22" height="6" viewBox="0.841 0.729 20.205 4.919"><path paint-order="stroke fill markers" fill-rule="evenodd" d="M.84 1.707s2.54-.68 7.285-.352c4.744.326 10.111 1.365 12.92-.626 0 0-3.664 4.041-6.97 4.788-3.306.748-8.53-1.936-8.53-1.936l-2.219.146S1.573 2.969.841 1.707z"/></svg></svg><svg width="5" height="2" xmlns="http://www.w3.org/2000/svg" xmlns:xlink="http://www.w3.org/1999/xlink" xmlns:svgjs="http://svgjs.com/svgjs" viewBox="0 0.081 5 1.837" fill="#9f4a8b" x="290" y="368"><svg xmlns="http://www.w3.org/2000/svg" xmlns:xlink="http://www.w3.org/1999/xlink" width="5" height="2" viewBox="0.65 0.03 4.137 1.52"><path paint-order="stroke fill markers" fill-rule="evenodd" d="M.65.706s1.12-.798 2.099-.66C3.73.183 4.787 1.55 4.787 1.55S2.684.564.65.706z"/></svg></svg><svg width="16" height="14" xmlns="http://www.w3.org/2000/svg" xmlns:xlink="http://www.w3.org/1999/xlink" xmlns:svgjs="http://svgjs.com/svgjs" viewBox="0.779 0 14.442 14" fill="#ffbcaf" x="293" y="353"><svg xmlns="http://www.w3.org/2000/svg" xmlns:xlink="http://www.w3.org/1999/xlink" width="16" height="14" viewBox="0.91 0.129 14.268 13.831"><path paint-order="stroke fill markers" fill-rule="evenodd" d="M15.046 12.73C16.22 11.467 9.288.406 6.214.133 3.141-.14.91 13.165.91 13.165s4.275.39 8.42.743c4.143.352 5.716-1.179 5.716-1.179z"/></svg></svg><svg width="12" height="29" xmlns="http://www.w3.org/2000/svg" xmlns:xlink="http://www.w3.org/1999/xlink" xmlns:svgjs="http://svgjs.com/svgjs" viewBox="0.343 0 11.314 29" fill="#ffeadb" opacity=".6" x="300" y="329"><svg xmlns="http://www.w3.org/2000/svg" xmlns:xlink="http://www.w3.org/1999/xlink" width="12" height="29" viewBox="0.684 0.153 11.038 28.292"><path paint-order="stroke fill markers" fill-rule="evenodd" d="M10.703.155C8.965.018 3.215 7.739 3.215 7.739S-.083 19.952.85 23.474c.935 3.538 10.458 4.971 10.458 4.971l.365-.65v-.014c-.538-1.104-1.006-2.271-1.33-3.547-.928-3.656.262-12.154 1.085-19.108 0 0 .312-1.44.293-2.76-.01-1.116-.222-2.162-1.018-2.211z"/></svg></svg><svg width="84" height="134" xmlns="http://www.w3.org/2000/svg" xmlns:xlink="http://www.w3.org/1999/xlink" xmlns:svgjs="http://svgjs.com/svgjs" viewBox="0 0.75 84 132.5" fill="#2e33a0" x="235" y="284"><svg xmlns="http://www.w3.org/2000/svg" xmlns:xlink="http://www.w3.org/1999/xlink" width="84" height="134" viewBox="0.005 0.797 83.881 132.312"><path paint-order="stroke fill markers" fill-rule="evenodd" d="M22.54 12.944L22 13.66c-.522.73-1.058 1.476-1.711 2.24-.027.046-.07.077-.084.093l-.042.046c-.61.735-1.337 1.49-2.223 2.295C12.876 22.88 1.414 26.312.243 30.92-.93 35.513 2.519 41.557 4.498 47.862c1.964 6.305 1.475 11.982 1.475 11.982s5.867 6.85 4.54 17.353C9.338 86.607 5.852 88.3 5.852 88.3c-2.256 5.262-.837 10.01-.837 10.01 6.112 20.14 27.908 31.256 27.908 31.256 19.205 6.117 31.464 2.456 31.464 2.456l.013-.016c13.29-9.613 16.56-39.455 16.698-40.842-.216.377-2.574 4.456-3.139 3.396-2.144-3.977-1.047-6.159-18.071-7.552-24.099-1.99-25.796 5.417-29.922 4.5a3.73 3.73 0 0 1-.491-.152c-4.492-1.5-15.37-11.207-16.3-24.947-.97-14.282 8.118-24.88 8.118-24.88-3.611-2.748-5.412-11.132-1.837-14.93 3.575-3.785 10.002-3.259 25.754-2.362 15.767.91 15.72-.057 15.72-.057 5.041 1.035 8.124 5.568 9.002 7.023.175.285.257.458.257.458l1.861-1.896c5.642 7.376 5.078 15.742 5.078 15.742s7.75-17.904 6.65-20.332c-2.008-4.484-7.296-10.908-7.624-11.317l-.015-.015S74.104.598 69.944.8c-4.16.2-21.731 5.074-21.731 5.074l-25.673 7.07M70.407 113.85c-3.35-.395-4.462-8.784-5.614-9.843-1.166-1.045-7.164-.3-7.164-.3s-5.246 6.567-7.45 6.85c-2.217.298-14.285-3.948-12.07-11.279 2.2-7.344 11.104-8.7 11.104-8.7s4.816 3.658 11.766 3.777c6.964.118 9.408-1.278 10.21-1.683.817-.422 5.382 1.399 5.57 7.702.139 4.383-2.985 13.871-6.352 13.476z"/></svg></svg><svg width="8" height="16" xmlns="http://www.w3.org/2000/svg" xmlns:xlink="http://www.w3.org/1999/xlink" xmlns:svgjs="http://svgjs.com/svgjs" viewBox="0.085 0 7.831 16" fill="#d2726c" x="301" y="355"><svg xmlns="http://www.w3.org/2000/svg" xmlns:xlink="http://www.w3.org/1999/xlink" width="8" height="16" viewBox="0.075 0.509 7.345 15.008"><path paint-order="stroke fill markers" fill-rule="evenodd" d="M1.495.509s6.34 7.137 5.904 9.956C6.922 13.551.075 15.517.075 15.517s5.462-2.184 6.465-5.01c0 0-1.699-5.557-5.045-9.998z"/></svg></svg><svg width="12" height="33" xmlns="http://www.w3.org/2000/svg" xmlns:xlink="http://www.w3.org/1999/xlink" xmlns:svgjs="http://svgjs.com/svgjs" viewBox="0 0.448 12 32.105" fill="#ffeadb" opacity=".6" x="307" y="297"><svg xmlns="http://www.w3.org/2000/svg" xmlns:xlink="http://www.w3.org/1999/xlink" width="12" height="33" viewBox="0.051 0.844 11.835 31.664"><path paint-order="stroke fill markers" fill-rule="evenodd" d="M5.129 32.508S5.693 24.142.05 16.766C3.918 9.003 4.14.844 4.14.844l.015.015c1.606 3.46 2.759 10.29 2.759 10.29l4.865 1.027c1.1 2.428-6.65 20.332-6.65 20.332z"/></svg></svg><svg width="70" height="130" xmlns="http://www.w3.org/2000/svg" xmlns:xlink="http://www.w3.org/1999/xlink" xmlns:svgjs="http://svgjs.com/svgjs" viewBox="0 0.574 70 128.853" fill="#ccc2db" opacity=".6" x="235" y="288"><svg xmlns="http://www.w3.org/2000/svg" xmlns:xlink="http://www.w3.org/1999/xlink" width="70" height="130" viewBox="0.005 0.39 69.927 128.719"><path paint-order="stroke fill markers" fill-rule="evenodd" d="M48.213 1.874C59.453-.064 63.309.454 63.309.454c5.493 7.03 6.624 26.75 6.624 26.75-.878-1.455-3.96-5.988-9.002-7.023 0 0 .047.968-15.72.057-15.752-.897-22.179-1.423-25.754 2.362-3.575 3.798-1.774 12.182 1.837 14.93 0 0-9.087 10.598-8.117 24.88.928 13.74 11.807 23.447 16.299 24.947l-.132 1.533s2.3 31.453 10.081 33.588c7.766 2.12 23.582.062 25.132 1.47 1.474 1.338-.02 3.833-.156 4.059l-.013.016s-12.259 3.661-31.464-2.456c0 0-21.796-11.116-27.908-31.256 0 0-1.419-4.748.837-10.01 0 0 3.486-1.695 4.66-11.104 1.327-10.502-4.54-17.353-4.54-17.353s.49-5.677-1.475-11.982C2.518 37.557-.93 31.513.243 26.921c8.944.962 14.55-3.95 14.55-3.95s1.447-2.226 8.263-3.672c6.815-1.445 34.558.001 34.558.001s-2.88-2.166-8.782-3.406c-5.577-1.184-24.302 1.41-26.315 1.668C24.65 17.077 45.8 12.384 48.266 13c2.615.637 12.047 4.423 12.047 4.423-1.04-4.192-9.794-13.986-9.794-13.986s-11.649.77-19.202 2.735C24.575 7.92 20.99 11.22 20.29 11.9L22 9.66l.539-.716.51-.67 2.644-.584 22.519-5.816"/></svg></svg><svg width="33" height="7" xmlns="http://www.w3.org/2000/svg" xmlns:xlink="http://www.w3.org/1999/xlink" xmlns:svgjs="http://svgjs.com/svgjs" viewBox="0 0.602 33 5.795" fill="#776d7e" opacity=".502" x="267" y="411"><svg xmlns="http://www.w3.org/2000/svg" xmlns:xlink="http://www.w3.org/1999/xlink" width="33" height="7" viewBox="0.924 0.47 31.976 5.615"><path paint-order="stroke fill markers" fill-rule="evenodd" d="M.924 2.567S7.777.587 18.258.502c10.48-.084 16.495-.332 14.13 4.52 0 0-12.996 3.603-31.464-2.455z"/></svg></svg><svg width="25" height="6" xmlns="http://www.w3.org/2000/svg" xmlns:xlink="http://www.w3.org/1999/xlink" xmlns:svgjs="http://svgjs.com/svgjs" viewBox="0 0.153 25 5.694" fill="#1f77d1" x="283" y="284"><svg xmlns="http://www.w3.org/2000/svg" xmlns:xlink="http://www.w3.org/1999/xlink" width="25" height="6" viewBox="0.213 0.438 23.866 5.435"><path paint-order="stroke fill markers" fill-rule="evenodd" d="M15.31 4.453s6.24-2.79 8.768-2.502c0 0-1.058-1.278-2.112-1.506C20.912.219.213 5.874.213 5.874s12.974-2.153 15.096-1.42z"/></svg></svg><svg width="37" height="15" xmlns="http://www.w3.org/2000/svg" xmlns:xlink="http://www.w3.org/1999/xlink" xmlns:svgjs="http://svgjs.com/svgjs" viewBox="0 0.144 37 14.713" fill="#1f77d1" x="249" y="291"><svg xmlns="http://www.w3.org/2000/svg" xmlns:xlink="http://www.w3.org/1999/xlink" width="37" height="15" viewBox="0.845 0.377 35.674 14.186"><path paint-order="stroke fill markers" fill-rule="evenodd" d="M36.52.436s-.165 6.948-2.254 9.563l-25.75 4.563-7.67-.972s2.881-1.399 5.933-5.33C9.83 4.33 26.545-.195 36.519.436z"/></svg></svg><svg width="8" height="13" xmlns="http://www.w3.org/2000/svg" xmlns:xlink="http://www.w3.org/1999/xlink" xmlns:svgjs="http://svgjs.com/svgjs" viewBox="0 0.567 8 11.866" fill="#1f77d1" x="311" y="297"><svg xmlns="http://www.w3.org/2000/svg" xmlns:xlink="http://www.w3.org/1999/xlink" width="8" height="13" viewBox="0.14 0.844 7.64 11.332"><path paint-order="stroke fill markers" fill-rule="evenodd" d="M.14.844s2.438 6.71 2.774 10.305l4.865 1.027S6.072 7.093.14.844z"/></svg></svg><svg width="18" height="26" xmlns="http://www.w3.org/2000/svg" xmlns:xlink="http://www.w3.org/1999/xlink" xmlns:svgjs="http://svgjs.com/svgjs" viewBox="0.417 0 17.167 26" fill="#ffeadb" opacity=".8" x="226" y="344"><svg xmlns="http://www.w3.org/2000/svg" xmlns:xlink="http://www.w3.org/1999/xlink" width="18" height="26" viewBox="0.775 0.677 16.616 25.166"><path paint-order="stroke fill markers" fill-rule="evenodd" d="M17.391 16.234s-2.244-8.652-6.92-12.761C5.796-.636.775.997.775.997s2.173 16.144 3.821 20.029c1.648 3.884 3.919 4.817 3.919 4.817s-3.255-2.584-3.93-7.925c-.677-5.343-1.18-12.899-.046-13.857 1.137-.96 6.074 2.327 6.074 2.327s-1.418 1.918-2.088 6.739c-.67 4.821 2.827 8.13 4.072 7.999 1.246-.13-.336-5.524-.204-7.107.132-1.582 2.924-1.37 4.998 2.215z"/></svg></svg><svg width="8" height="17" xmlns="http://www.w3.org/2000/svg" xmlns:xlink="http://www.w3.org/1999/xlink" xmlns:svgjs="http://svgjs.com/svgjs" viewBox="0 0.251 8 16.498" fill="#ffeadb" opacity=".8" x="234" y="349"><svg xmlns="http://www.w3.org/2000/svg" xmlns:xlink="http://www.w3.org/1999/xlink" width="8" height="17" viewBox="0.432 0.583 7.534 15.536"><path paint-order="stroke fill markers" fill-rule="evenodd" d="M4.41.583S-.312 4.023.532 10.57c.844 6.546 4.585 6.077 4.53 4.697-.053-1.38-.953-4.896-.669-6.924C4.68 6.316 7.965 7.07 7.965 7.07S5.578 1.955 4.41.583z"/></svg></svg><svg width="18" height="42" xmlns="http://www.w3.org/2000/svg" xmlns:xlink="http://www.w3.org/1999/xlink" xmlns:svgjs="http://svgjs.com/svgjs" viewBox="0.411 0 17.179 42" fill="#34c7ff" x="299" y="375"><svg xmlns="http://www.w3.org/2000/svg" xmlns:xlink="http://www.w3.org/1999/xlink" width="18" height="42" viewBox="0.388 0.165 16.712 40.858"><path paint-order="stroke fill markers" fill-rule="evenodd" d="M17.099.165S12.376 28.1.388 41.023c0 0 14.08-6.335 16.711-40.858z"/></svg></svg><svg width="8" height="30" xmlns="http://www.w3.org/2000/svg" xmlns:xlink="http://www.w3.org/1999/xlink" xmlns:svgjs="http://svgjs.com/svgjs" viewBox="0.61 0 6.779 30" fill="#34c7ff" x="304" y="284"><svg xmlns="http://www.w3.org/2000/svg" xmlns:xlink="http://www.w3.org/1999/xlink" width="8" height="30" viewBox="0.966 0.445 6.626 29.321"><path paint-order="stroke fill markers" fill-rule="evenodd" d="M.966.445s3.317 2.33 4.343 10.94c1.025 8.61-2.258 18.381-2.258 18.381s4.458-7.407 4.54-15.293C7.671 6.588 3.545 1.318.965.445z"/></svg></svg><svg width="26" height="5" xmlns="http://www.w3.org/2000/svg" xmlns:xlink="http://www.w3.org/1999/xlink" xmlns:svgjs="http://svgjs.com/svgjs" viewBox="0 0.57 26 3.86" fill="#1f77d1" x="267" y="303"><svg xmlns="http://www.w3.org/2000/svg" xmlns:xlink="http://www.w3.org/1999/xlink" width="26" height="5" viewBox="0.126 0.516 25.489 3.784"><path paint-order="stroke fill markers" fill-rule="evenodd" d="M.126 1.408S7.642 3.573 15.79 3.896c8.149.322 9.824.404 9.824.404S22.201 1.293 15.21.677C8.218.061.126 1.408.126 1.408z"/></svg></svg><svg width="9" height="14" xmlns="http://www.w3.org/2000/svg" xmlns:xlink="http://www.w3.org/1999/xlink" xmlns:svgjs="http://svgjs.com/svgjs" viewBox="0.42 0 8.16 14" fill="#1f77d1" x="306" y="373"><svg xmlns="http://www.w3.org/2000/svg" xmlns:xlink="http://www.w3.org/1999/xlink" width="9" height="14" viewBox="0.203 0.03 8.121 13.933"><path paint-order="stroke fill markers" fill-rule="evenodd" d="M.425 3.239s3.538-.171 5.146 4.202c1.282 3.486 1.736 6.522 1.736 6.522l1.017-4.927s-1.933-6.086-3.7-7.39C3.352.705 1.194-.208.203.085L.425 3.24z"/></svg></svg><svg width="10" height="6" xmlns="http://www.w3.org/2000/svg" xmlns:xlink="http://www.w3.org/1999/xlink" xmlns:svgjs="http://svgjs.com/svgjs" viewBox="0.274 0 9.451 6" fill="#1f77d1" x="296" y="372"><svg xmlns="http://www.w3.org/2000/svg" xmlns:xlink="http://www.w3.org/1999/xlink" width="10" height="6" viewBox="0.67 0.217 8.334 5.291"><path paint-order="stroke fill markers" fill-rule="evenodd" d="M.67.26l.854 5.244s4.329.139 7.123-1.18l.357-3.215S3.438-.013.67.26z"/></svg></svg><svg width="15" height="12" xmlns="http://www.w3.org/2000/svg" xmlns:xlink="http://www.w3.org/1999/xlink" xmlns:svgjs="http://svgjs.com/svgjs" viewBox="0.265 0 14.471 12" fill="#ffebed" x="269" y="341"><svg xmlns="http://www.w3.org/2000/svg" xmlns:xlink="http://www.w3.org/1999/xlink" width="15" height="12" viewBox="0.358 0.008 14.347 11.898"><path paint-order="stroke fill markers" fill-rule="evenodd" d="M12.902.008s3.513 5.691.733 11.69c0 0-8.486 1.808-13.277-5.25 0 0 3.264-6.009 12.544-6.44z"/></svg></svg><svg width="13" height="13" xmlns="http://www.w3.org/2000/svg" xmlns:xlink="http://www.w3.org/1999/xlink" xmlns:svgjs="http://svgjs.com/svgjs" viewBox="0 0.4 13 12.201" fill="#cf6074" x="269" y="335"><svg xmlns="http://www.w3.org/2000/svg" xmlns:xlink="http://www.w3.org/1999/xlink" width="13" height="13" viewBox="0.358 0.912 12.291 11.536"><path paint-order="stroke fill markers" fill-rule="evenodd" d="M12.65 4.764S10.767 1.403 10.228.912c0 0-8.034 3.43-9.87 11.536l.441-.022s3.086-5.063 11.85-7.662z"/></svg></svg><svg width="10" height="14" xmlns="http://www.w3.org/2000/svg" xmlns:xlink="http://www.w3.org/1999/xlink" xmlns:svgjs="http://svgjs.com/svgjs" viewBox="0 0.045 10 13.909" fill="#ffebed" x="301" y="343"><svg xmlns="http://www.w3.org/2000/svg" xmlns:xlink="http://www.w3.org/1999/xlink" width="10" height="14" viewBox="0.401 0.754 8.945 12.442"><path paint-order="stroke fill markers" fill-rule="evenodd" d="M.4 9.336S2.625 1.543 7.887.754c0 0 1.839 4.567 1.388 8.46 0 0-.289 3.877-2.945 3.98C3.672 13.293.4 9.335.4 9.335z"/></svg></svg><svg width="8" height="13" xmlns="http://www.w3.org/2000/svg" xmlns:xlink="http://www.w3.org/1999/xlink" xmlns:svgjs="http://svgjs.com/svgjs" viewBox="0.34 0 7.32 13" fill="#cf6074" x="301" y="339"><svg xmlns="http://www.w3.org/2000/svg" xmlns:xlink="http://www.w3.org/1999/xlink" width="8" height="13" viewBox="0.569 0.043 7.163 12.721"><path paint-order="stroke fill markers" fill-rule="evenodd" d="M7.732 3.08S5.863-.115 4.471.05C3.577.152.364 5.606.58 12.763c0 0 1.123-6.182 7.152-9.684z"/></svg></svg><svg width="10" height="11" xmlns="http://www.w3.org/2000/svg" xmlns:xlink="http://www.w3.org/1999/xlink" xmlns:svgjs="http://svgjs.com/svgjs" viewBox="0.195 0 9.611 11" fill="#7f9ec9" x="269" y="342"><svg xmlns="http://www.w3.org/2000/svg" xmlns:xlink="http://www.w3.org/1999/xlink" width="10" height="11" viewBox="0.358 0.036 8.814 10.088"><path paint-order="stroke fill markers" fill-rule="evenodd" d="M8.997.036s1.18 8.548-2.587 10.088c0 0-4.496-1.403-6.052-4.676 0 0 2.445-4.438 8.64-5.412z"/></svg></svg><svg width="7" height="11" xmlns="http://www.w3.org/2000/svg" xmlns:xlink="http://www.w3.org/1999/xlink" xmlns:svgjs="http://svgjs.com/svgjs" viewBox="0.48 0 6.041 11" fill="#7f9ec9" x="301" y="345"><svg xmlns="http://www.w3.org/2000/svg" xmlns:xlink="http://www.w3.org/1999/xlink" width="7" height="11" viewBox="0.401 0.04 5.889 10.724"><path paint-order="stroke fill markers" fill-rule="evenodd" d="M5.491.04s2.314 8.426-.935 10.724c0 0-3.407-1.754-4.155-3.428 0 0 1.487-5.442 5.09-7.296z"/></svg></svg><svg width="17" height="9" xmlns="http://www.w3.org/2000/svg" xmlns:xlink="http://www.w3.org/1999/xlink" xmlns:svgjs="http://svgjs.com/svgjs" viewBox="0 0.025 17 8.95" fill="#131163" x="269" y="339"><svg xmlns="http://www.w3.org/2000/svg" xmlns:xlink="http://www.w3.org/1999/xlink" width="17" height="9" viewBox="0.358 0.128 15.803 8.32"><path paint-order="stroke fill markers" fill-rule="evenodd" d="M.358 8.448s4.233-4.946 12.544-6.44l.687 1.401s3.259-2.367 2.44-3.084C15.105-.48 5.177.99.359 8.448z"/></svg></svg><svg width="12" height="12" xmlns="http://www.w3.org/2000/svg" xmlns:xlink="http://www.w3.org/1999/xlink" xmlns:svgjs="http://svgjs.com/svgjs" viewBox="0.126 0 11.747 12" fill="#131163" x="301" y="341"><svg xmlns="http://www.w3.org/2000/svg" xmlns:xlink="http://www.w3.org/1999/xlink" width="12" height="12" viewBox="0.401 0.328 10.776 11.008"><path paint-order="stroke fill markers" fill-rule="evenodd" d="M.4 11.336s1.622-6.32 7.486-8.582l.516 1.51S11.575.99 11.134.503C10.39-.323 2.326 1.56.401 11.336z"/></svg></svg><svg width="8" height="9" xmlns="http://www.w3.org/2000/svg" xmlns:xlink="http://www.w3.org/1999/xlink" xmlns:svgjs="http://svgjs.com/svgjs" viewBox="0 0.208 8 8.584" fill="#38368e" x="269" y="342"><svg xmlns="http://www.w3.org/2000/svg" xmlns:xlink="http://www.w3.org/1999/xlink" width="8" height="9" viewBox="0.358 0.699 7.059 7.574"><path paint-order="stroke fill markers" fill-rule="evenodd" d="M.358 5.448s2.3 3.338 4.592 2.757C7.24 7.625 7.656 1.89 7.31.7c0 0-3.828 1.262-6.952 4.749z"/></svg></svg><svg width="5" height="9" xmlns="http://www.w3.org/2000/svg" xmlns:xlink="http://www.w3.org/1999/xlink" xmlns:svgjs="http://svgjs.com/svgjs" viewBox="0.525 0 3.95 9" fill="#38368e" x="301" y="346"><svg xmlns="http://www.w3.org/2000/svg" xmlns:xlink="http://www.w3.org/1999/xlink" width="5" height="9" viewBox="0.813 0.379 3.782 8.618"><path paint-order="stroke fill markers" fill-rule="evenodd" d="M1.34 7.553l1.904 1.444S4.418 7.893 4.575 5.39C4.733 2.888 3.908.38 3.908.38S1.225 2.842.813 4.865c0 0 .181 2.191.527 2.688z"/></svg></svg><svg width="5" height="2" xmlns="http://www.w3.org/2000/svg" xmlns:xlink="http://www.w3.org/1999/xlink" xmlns:svgjs="http://svgjs.com/svgjs" viewBox="0 0.555 5 0.889" fill="#fff" x="275" y="346"><svg xmlns="http://www.w3.org/2000/svg" xmlns:xlink="http://www.w3.org/1999/xlink" width="5" height="2" viewBox="0.244 0.636 4.578 0.814"><path paint-order="stroke fill markers" fill-rule="evenodd" d="M.244 1.123S2.895.188 4.822.908c0 0-2.86 1.06-4.578.215z"/></svg></svg><svg width="5" height="2" xmlns="http://www.w3.org/2000/svg" xmlns:xlink="http://www.w3.org/1999/xlink" xmlns:svgjs="http://svgjs.com/svgjs" viewBox="0 0.516 5 0.968" fill="#fff" x="305" y="349"><svg xmlns="http://www.w3.org/2000/svg" xmlns:xlink="http://www.w3.org/1999/xlink" width="5" height="2" viewBox="0.011 0.612 4.563 0.883"><path paint-order="stroke fill markers" fill-rule="evenodd" d="M.01 1.24S2.616.183 4.575.812c0 0-2.807 1.192-4.563.428z"/></svg></svg><svg width="12" height="18" xmlns="http://www.w3.org/2000/svg" xmlns:xlink="http://www.w3.org/1999/xlink" xmlns:svgjs="http://svgjs.com/svgjs" viewBox="0.428 0 11.143 18" fill="#fa8fa4" x="229" y="349"><svg xmlns="http://www.w3.org/2000/svg" xmlns:xlink="http://www.w3.org/1999/xlink" width="12" height="18" viewBox="0.293 0.034 11.044 17.84"><path paint-order="stroke fill markers" fill-rule="evenodd" d="M11.337 17.839s-6.938.77-9.752-4.921C-3.442 2.752 7.583-3.36 11.042 2.047l.295 15.792z"/></svg></svg><svg width="32" height="61" xmlns="http://www.w3.org/2000/svg" xmlns:xlink="http://www.w3.org/1999/xlink" xmlns:svgjs="http://svgjs.com/svgjs" viewBox="0.11 0 31.779 61" fill="#6970fb" x="234" y="294"><svg xmlns="http://www.w3.org/2000/svg" xmlns:xlink="http://www.w3.org/1999/xlink" width="32" height="61" viewBox="0.185 0.356 31.364 60.203"><path paint-order="stroke fill markers" fill-rule="evenodd" d="M10.596 57.532S9.227 13.596 31.55.356c0 0-15.244 4.41-22.342 11.206 0 0-13.328 12.14-7.587 48.998l8.975-3.028z"/></svg></svg><svg width="33" height="34" xmlns="http://www.w3.org/2000/svg" xmlns:xlink="http://www.w3.org/1999/xlink" xmlns:svgjs="http://svgjs.com/svgjs" viewBox="243 361 33 34" x="243" y="361"><svg width="29" height="33" xmlns="http://www.w3.org/2000/svg" xmlns:xlink="http://www.w3.org/1999/xlink" xmlns:svgjs="http://svgjs.com/svgjs" viewBox="0 0.004 29 32.991" fill="#d5cdf8" x="243" y="361"><svg xmlns="http://www.w3.org/2000/svg" xmlns:xlink="http://www.w3.org/1999/xlink" width="29" height="33" viewBox="0.208 0.14 28.735 32.69"><path paint-order="stroke fill markers" fill-rule="evenodd" d="M26.664 32.403c-2.887-1.035-10.451-4.468-17.329-11.174C.466 12.58.231.81.208.297L3.824.14c.005.112.6 11.254 8.417 18.877 8.03 7.832 16.613 10.308 16.702 10.33l-.977 3.484c-.08-.023-.543-.156-1.302-.428z"/></svg></svg><svg width="8" height="8" xmlns="http://www.w3.org/2000/svg" xmlns:xlink="http://www.w3.org/1999/xlink" xmlns:svgjs="http://svgjs.com/svgjs" viewBox="0 0.16 8 7.681" fill="#d5cdf8" x="268" y="387"><svg xmlns="http://www.w3.org/2000/svg" xmlns:xlink="http://www.w3.org/1999/xlink" width="8" height="8" viewBox="0.182 0.124 7.181 6.894"><path paint-order="stroke fill markers" fill-rule="evenodd" d="M.347 2.066c-.638 1.777.666 4.114 2.442 4.751A3.42 3.42 0 0 0 5.097.38C3.319-.256.983.288.347 2.066z"/></svg></svg></svg><svg width="33" height="37" xmlns="http://www.w3.org/2000/svg" xmlns:xlink="http://www.w3.org/1999/xlink" xmlns:svgjs="http://svgjs.com/svgjs" viewBox="0 0.355 33 36.289" fill="#172e68" x="222" y="339"><svg xmlns="http://www.w3.org/2000/svg" xmlns:xlink="http://www.w3.org/1999/xlink" width="33" height="37" viewBox="0.132 0.476 32.344 35.568"><path paint-order="stroke fill markers" fill-rule="evenodd" d="M20.886 35.557C12.313 37.83 3.336 31.932.8 22.367-1.733 12.8 3.15 3.234 11.721.963c8.574-2.271 17.551 3.625 20.085 13.19 2.534 9.566-2.347 19.134-10.92 21.404z"/></svg></svg><svg width="30" height="33" xmlns="http://www.w3.org/2000/svg" xmlns:xlink="http://www.w3.org/1999/xlink" xmlns:svgjs="http://svgjs.com/svgjs" viewBox="0 0.005 30 32.99" fill="#8385fc" x="218" y="342"><svg xmlns="http://www.w3.org/2000/svg" xmlns:xlink="http://www.w3.org/1999/xlink" width="30" height="33" viewBox="0.912 0.749 28.798 31.668"><path paint-order="stroke fill markers" fill-rule="evenodd" d="M19.39 31.984c-7.633 2.022-15.626-3.228-17.883-11.745-2.256-8.516 2.09-17.035 9.724-19.057C18.864-.84 26.857 4.41 29.113 12.927c2.256 8.516-2.09 17.035-9.723 19.057z"/></svg></svg><svg width="63" height="21" xmlns="http://www.w3.org/2000/svg" xmlns:xlink="http://www.w3.org/1999/xlink" xmlns:svgjs="http://svgjs.com/svgjs" viewBox="0 0.483 63 20.034" fill="#36295c" x="315" y="589"><svg xmlns="http://www.w3.org/2000/svg" xmlns:xlink="http://www.w3.org/1999/xlink" width="63" height="21" viewBox="0.483 0.828 62.353 19.828"><path paint-order="stroke fill markers" fill-rule="evenodd" d="M.483 20.656h62.352S44.113 2.353 25.78.9C7.444-.554.483 20.656.483 20.656z"/></svg></svg><svg width="85" height="27" xmlns="http://www.w3.org/2000/svg" xmlns:xlink="http://www.w3.org/1999/xlink" xmlns:svgjs="http://svgjs.com/svgjs" viewBox="0 0.151 85 26.699" fill="#ffc2a9" x="283" y="583"><svg xmlns="http://www.w3.org/2000/svg" xmlns:xlink="http://www.w3.org/1999/xlink" width="85" height="27" viewBox="0.995 0.497 83.675 26.282"><path paint-order="stroke fill markers" fill-rule="evenodd" d="M84.634 4.234c.54 2.224-5.296 3.527-6.42 2.951 0 0 5.33 6.343 5.33 7.788 0 .6-.576.83-1.33.844-1.036.013-2.405-.396-2.994-.819.077.065.231.18.384.358.358.372.755.96.46 1.561-.217.434-1.265.41-2.48.192-1.51-.281-3.274-.857-4.054-1.24-2.71-1.33-6.65-4.605-6.65-4.605s-7.507.602-12.711 2.353l1.5-2.065c1.304.142 6.236-.169 8.947.51 1.547.396 9.963 6.53 9.963 7.131 0 1.215-4.523 2.493-13.328-3.77 0 0-14.172 10.556-22.65 11.233-10.742.857-17.733-3.03-17.733-3.03L.995 21.763s7.058-9.348 12.941-12.302c0 0 49.018-10.077 54.824-8.862 5.82 1.215 15.533 2.23 15.874 3.635z"/></svg></svg><svg width="19" height="15" xmlns="http://www.w3.org/2000/svg" xmlns:xlink="http://www.w3.org/1999/xlink" xmlns:svgjs="http://svgjs.com/svgjs" viewBox="0.072 0 18.855 15" fill="#ff7c7c" x="285" y="592"><svg xmlns="http://www.w3.org/2000/svg" xmlns:xlink="http://www.w3.org/1999/xlink" width="19" height="15" viewBox="0.685 0.161 18.183 14.465"><path paint-order="stroke fill markers" fill-rule="evenodd" d="M12.891.16s-.485 7.439 5.977 14.466L.685 12.686S4.43 4.11 12.133.339l.758-.178z"/></svg></svg><svg width="33" height="47" xmlns="http://www.w3.org/2000/svg" xmlns:xlink="http://www.w3.org/1999/xlink" xmlns:svgjs="http://svgjs.com/svgjs" viewBox="0.135 0 32.73 47" fill="#b9acf4" x="327" y="469"><svg xmlns="http://www.w3.org/2000/svg" xmlns:xlink="http://www.w3.org/1999/xlink" width="33" height="47" viewBox="0.747 0.32 31.931 45.853"><path paint-order="stroke fill markers" fill-rule="evenodd" d="M32.678.32L.747 46.173 32.678.32"/></svg></svg><svg width="158" height="169" xmlns="http://www.w3.org/2000/svg" xmlns:xlink="http://www.w3.org/1999/xlink" xmlns:svgjs="http://svgjs.com/svgjs" viewBox="0.018 0 157.964 169" fill="#9e8cef" x="142" y="443"><svg xmlns="http://www.w3.org/2000/svg" xmlns:xlink="http://www.w3.org/1999/xlink" width="158" height="169" viewBox="0.534 0.841 156.731 167.68"><path paint-order="stroke fill markers" fill-rule="evenodd" d="M147.276 147.185h-.013c-27.982-3.44-70.163-20.776-78.373-24.232l.438-.603c-6.277 1.43-8.985-36.787-8.985-36.787L41.041 51.176C34.47 45.845 26.588.841 26.588.841 1.966 21.064-4.199 51.745 3.88 82.567c13.274 50.645 15.428 84.09 15.428 84.09 26.497 4.194 127.737 0 127.737 0 4.028-9.847 10.22-18.461 10.22-18.461-3.018-.218-6.381-.563-9.988-1.01z"/></svg></svg><svg width="80" height="48" xmlns="http://www.w3.org/2000/svg" xmlns:xlink="http://www.w3.org/1999/xlink" xmlns:svgjs="http://svgjs.com/svgjs" viewBox="0 0.434 80 47.133" fill="#a999f1" x="221" y="570"><svg xmlns="http://www.w3.org/2000/svg" xmlns:xlink="http://www.w3.org/1999/xlink" width="80" height="48" viewBox="0.319 0.484 79.047 46.571"><path paint-order="stroke fill markers" fill-rule="evenodd" d="M73.206 41.35c-1.816.584-7.914-.103-9.775.066-1.855.16-3.616 4.338-3.616 4.338C28.64 49.528 4.067 43.95 1.618 43.357c-.136-.036-.203-.048-.203-.048-4.568-15.638 5.906-26.398 17.43-33.218C29.893 3.538 41.902.61 42.426.487h.017l.017-.003c.245.085 4.236 1.328 6.49 2.934.748.532 1.16 1.344 1.446 2.232.613 1.837.65 3.967 2.114 4.311 2.162.503 12.267-4.706 14.76-3.006 1.739 1.193 2.61 4.694 3.318 6.87.31.952.587 1.651.895 1.787 1.032.482 6.766-.566 7.072-.461.304.087.812 2.14.812 2.14l-1.868.376c-5.347 9.28-5.275 18.577-5.275 18.577l6.861-1.95s-4.054 6.478-5.878 7.056z"/></svg></svg><svg width="161" height="175" xmlns="http://www.w3.org/2000/svg" xmlns:xlink="http://www.w3.org/1999/xlink" xmlns:svgjs="http://svgjs.com/svgjs" viewBox="0 0.275 161 174.451" fill="#ccf" opacity=".502" x="140" y="443"><svg xmlns="http://www.w3.org/2000/svg" xmlns:xlink="http://www.w3.org/1999/xlink" width="161" height="175" viewBox="0.508 0.841 159.859 173.214"><path paint-order="stroke fill markers" fill-rule="evenodd" d="M76.077 116.002c-1.492 4.146 46.782 9.43 47.371 11.458l-.006.026-.016.001c-9.3.418-17.694 5.166-23.58 9.604-5.402 4.073-8.71 7.882-8.71 7.882s7.176-5.642 18.665-10.046c4.176-1.607 8.85-2.255 13.099-2.444a68.258 68.258 0 0 1 8.495.167c.613 1.837.65 3.967 2.114 4.311-15.64 4.641-32.679 25.434-22.868 26.937 9.802 1.496 18.259-5.618 18.259-5.618 6.943-11.466 16.973-22.567 20.03-23.718 1.46 1.301 3.244 7.914 3.552 8.05-10.376 11.656-11.411 24.347-11.411 24.347l8.502-2.65c2.186-13.62 9.981-22.158 9.981-22.158.304.087.812 2.14.812 2.14l-1.868.376c-5.347 9.28-5.275 18.577-5.275 18.577l6.861-1.95s-4.054 6.478-5.878 7.056c-1.816.584-7.914-.103-9.775.066-1.855.16-3.616 4.338-3.616 4.338-31.174 3.774-55.748-1.804-58.197-2.397-.136-.036-.203-.048-.203-.048-1.495-.958-66.125 8.176-61.738-10.476 0 0-10.42-71.777-18.143-90.843C-5.19 49.924 10.393 15.763 28.588.84l14.453 50.336 19.302 34.387 13.734 30.439z"/></svg></svg><svg width="15" height="31" xmlns="http://www.w3.org/2000/svg" xmlns:xlink="http://www.w3.org/1999/xlink" xmlns:svgjs="http://svgjs.com/svgjs" viewBox="0.222 0 14.556 31" fill="#ccf" opacity=".502" x="278" y="585"><svg xmlns="http://www.w3.org/2000/svg" xmlns:xlink="http://www.w3.org/1999/xlink" width="15" height="31" viewBox="0.328 0.612 14.153 30.142"><path paint-order="stroke fill markers" fill-rule="evenodd" d="M14.482.612S-2.802 19.614 4.155 28.3l-1.34 2.454S-7.69 21.32 14.482.612z"/></svg></svg><svg width="25" height="25" xmlns="http://www.w3.org/2000/svg" xmlns:xlink="http://www.w3.org/1999/xlink" xmlns:svgjs="http://svgjs.com/svgjs" viewBox="0.072 0 24.857 25" fill="#ccf" opacity=".302" x="268" y="577"><svg xmlns="http://www.w3.org/2000/svg" xmlns:xlink="http://www.w3.org/1999/xlink" width="25" height="25" viewBox="0.9 0.562 23.582 23.718"><path paint-order="stroke fill markers" fill-rule="evenodd" d="M20.93.562S10.294 7.514.9 24.28c0 0 16.68-17.273 19.03-18.032 2.348-.76 4.552 2.364 4.552 2.364S22.07 2.429 20.929.562z"/></svg></svg><svg width="137" height="26" xmlns="http://www.w3.org/2000/svg" xmlns:xlink="http://www.w3.org/1999/xlink" xmlns:svgjs="http://svgjs.com/svgjs" viewBox="0 0.354 137 25.291" fill="#8885f7" x="500" y="584"><svg xmlns="http://www.w3.org/2000/svg" xmlns:xlink="http://www.w3.org/1999/xlink" width="137" height="26" viewBox="0.717 0.538 136.061 25.118"><path paint-order="stroke fill markers" fill-rule="evenodd" d="M.717.538h136.061v25.118H.717V.538z"/></svg></svg><svg width="258" height="223" xmlns="http://www.w3.org/2000/svg" xmlns:xlink="http://www.w3.org/1999/xlink" xmlns:svgjs="http://svgjs.com/svgjs" viewBox="356 387 258 223" x="356" y="387"><svg width="252" height="159" xmlns="http://www.w3.org/2000/svg" xmlns:xlink="http://www.w3.org/1999/xlink" xmlns:svgjs="http://svgjs.com/svgjs" viewBox="0.538 0 250.924 159" fill="#8385fc" x="356" y="387"><svg xmlns="http://www.w3.org/2000/svg" xmlns:xlink="http://www.w3.org/1999/xlink" width="252" height="159" viewBox="0.919 0.046 250.75 158.89"><path paint-order="stroke fill markers" fill-rule="evenodd" d="M200.137 158.936H4.925c-2.639 0-4.556-2.508-3.864-5.054L40.358 9.29A12.53 12.53 0 0 1 52.45.046h195.212c2.64 0 4.557 2.508 3.865 5.055l-39.298 144.591a12.53 12.53 0 0 1-12.092 9.244z"/></svg></svg><svg width="251" height="159" xmlns="http://www.w3.org/2000/svg" xmlns:xlink="http://www.w3.org/1999/xlink" xmlns:svgjs="http://svgjs.com/svgjs" viewBox="0.038 0 250.924 159" fill="#919dff" x="363" y="387"><svg xmlns="http://www.w3.org/2000/svg" xmlns:xlink="http://www.w3.org/1999/xlink" width="251" height="159" viewBox="0.207 0.046 250.75 158.89"><path paint-order="stroke fill markers" fill-rule="evenodd" d="M199.426 158.936H4.214c-2.64 0-4.556-2.508-3.864-5.054L39.647 9.29A12.53 12.53 0 0 1 51.739.046H246.95c2.64 0 4.558 2.508 3.865 5.055l-39.298 144.591a12.53 12.53 0 0 1-12.09 9.244z"/></svg></svg><svg width="114" height="144" xmlns="http://www.w3.org/2000/svg" xmlns:xlink="http://www.w3.org/1999/xlink" xmlns:svgjs="http://svgjs.com/svgjs" viewBox="0.135 0 113.73 144" fill="#919dff" x="395" y="466"><svg xmlns="http://www.w3.org/2000/svg" xmlns:xlink="http://www.w3.org/1999/xlink" width="114" height="144" viewBox="0.186 0.491 113.071 143.166"><path paint-order="stroke fill markers" fill-rule="evenodd" d="M75.364 3.763L46.37 121.037a18.697 18.697 0 0 1-18.152 14.212H4.39a4.203 4.203 0 1 0 0 8.408h62.718a16.442 16.442 0 0 0 15.989-12.608l30.04-125.25c.649-2.706-1.403-5.308-4.186-5.308H79.543a4.304 4.304 0 0 0-4.179 3.272z"/></svg></svg></svg><svg width="547" height="172" xmlns="http://www.w3.org/2000/svg" xmlns:xlink="http://www.w3.org/1999/xlink" xmlns:svgjs="http://svgjs.com/svgjs" viewBox="0 0.321 547 171.358" fill="#1c3391" x="136" y="596"><svg xmlns="http://www.w3.org/2000/svg" xmlns:xlink="http://www.w3.org/1999/xlink" width="547" height="172" viewBox="0.347 0.496 546.653 171.249"><path paint-order="stroke fill markers" fill-rule="evenodd" d="M547 92.584c0 21.774-.603 41.613-1.589 55.997-.984 14.368-2.343 23.163-3.844 23.163H4.507S-7.84 42.454 10.01 13.406c17.851-29.049 531.557 0 531.557 0 3.003 0 5.433 35.463 5.433 79.178z"/></svg></svg><svg width="41" height="47" xmlns="http://www.w3.org/2000/svg" xmlns:xlink="http://www.w3.org/1999/xlink" xmlns:svgjs="http://svgjs.com/svgjs" viewBox="0.567 0 39.866 47" fill="#fff" x="604" y="562"><svg xmlns="http://www.w3.org/2000/svg" xmlns:xlink="http://www.w3.org/1999/xlink" width="41" height="47" viewBox="0.576 0.304 39.535 46.609"><path paint-order="stroke fill markers" fill-rule="evenodd" d="M36.5.304H4.185a3.61 3.61 0 0 0-3.61 3.61v21.135a23.47 23.47 0 0 0 4.126 13.29l3.952 5.754a6.498 6.498 0 0 0 5.357 2.82h12.632c2.16 0 4.18-1.073 5.387-2.863l4.643-6.877a20.093 20.093 0 0 0 3.439-11.24V3.913A3.61 3.61 0 0 0 36.5.304z"/></svg></svg><svg width="13" height="34" xmlns="http://www.w3.org/2000/svg" xmlns:xlink="http://www.w3.org/1999/xlink" xmlns:svgjs="http://svgjs.com/svgjs" viewBox="0.575 0 11.85 34" fill="#919dff" x="620" y="515"><svg xmlns="http://www.w3.org/2000/svg" xmlns:xlink="http://www.w3.org/1999/xlink" width="13" height="34" viewBox="0.813 0.4 11.583 33.234"><path paint-order="stroke fill markers" fill-rule="evenodd" d="M5.507 33.634s-6.65-5.296-4.12-13.59C3.917 11.747 9.327 6.276 5.507.4c0 0 9.602 1.42 6.133 11.146-3.468 9.726-9.082 15.793-6.133 22.088z"/></svg></svg><svg width="15" height="29" xmlns="http://www.w3.org/2000/svg" xmlns:xlink="http://www.w3.org/1999/xlink" xmlns:svgjs="http://svgjs.com/svgjs" viewBox="0.149 0 14.702 29" fill="#919dff" x="609" y="532"><svg xmlns="http://www.w3.org/2000/svg" xmlns:xlink="http://www.w3.org/1999/xlink" width="15" height="29" viewBox="0.27 0.017 14.675 28.946"><path paint-order="stroke fill markers" fill-rule="evenodd" d="M9.891.017s-6.51 9.484 0 16.617c7.713 8.45 4.304 12.33 4.304 12.33s-2.382-3.757-8.741-7.917C-.107 17.41-4.286 5.5 9.891.017z"/></svg></svg><svg width="78" height="26" xmlns="http://www.w3.org/2000/svg" xmlns:xlink="http://www.w3.org/1999/xlink" xmlns:svgjs="http://svgjs.com/svgjs" viewBox="0 0.74 78 24.52" fill="#744ca2" x="453" y="433"><svg xmlns="http://www.w3.org/2000/svg" xmlns:xlink="http://www.w3.org/1999/xlink" width="78" height="26" viewBox="0.153 0.813 77.698 24.425"><path paint-order="stroke fill markers" fill-rule="evenodd" d="M4.946 17.638l-4.793-.024.206-2.825 3.427-8.955 3.754-.007-3.814 8.575 1.454.005.266-3.582 3.405.004-.263 3.59.935.002-.236 3.238-.937-.003-.147 2.02-3.41-.023.153-2.015zm11.408-12.08c1.642-.004 2.86.155 3.654.477.794.322 1.338.971 1.632 1.949.293.978.367 2.483.224 4.513-.127 1.835-.365 3.252-.717 4.254-.351 1.001-.972 1.75-1.864 2.247-.892.495-2.207.738-3.942.726l-4.172-.028 1.025-14.13 4.16-.009zm-.8 10.891c.732.003 1.282-.154 1.652-.467.369-.314.627-.769.772-1.362.145-.591.256-1.43.333-2.514.064-.872.052-1.536-.031-1.993-.084-.457-.293-.787-.625-.99-.332-.202-.85-.304-1.555-.304l-.728-.002-.548 7.628.73.004zm27.894-7.264l-.71 10.73-9.349-.063a20.732 20.732 0 0 1-1.554-.07 11.486 11.486 0 0 1-1.319-.186c-.8-.162-1.486-.574-2.061-1.239-.575-.663-.815-1.69-.719-3.079a12.1 12.1 0 0 1 .324-2.008c.175-.715.358-1.335.552-1.858l2.728.175c.023-.156-.052.277-.227 1.299-.149.836-.23 1.355-.243 1.553-.034.497.1.962.404 1.397.304.435.914.654 1.832.659l6.438.03.49-7.34h3.414zM33.47 21.559l3.058.024-.233 3.454-3.06-.03.235-3.448zm17.672-4.986l-.22 3.39-5.474-.037.971-14.774 3.436-.008-.74 11.423 2.027.006zm9.55.044l-.214 3.411-9.55-.064.22-3.391 3 .014.476-7.405H58.1l-.47 7.42 3.063.015zm-6.731 5.1l3.136.024-.22 3.497-3.14-.03.224-3.491zM77.616 9.141c.184 2.729.26 4.362.228 4.901l-.361 6.093-4.537-.03a4.346 4.346 0 0 1-.723-.071 3.279 3.279 0 0 1-.35-.086 4.48 4.48 0 0 1-.341-.117c-.45-.178-.76-.333-.931-.466a3.426 3.426 0 0 1-2.143.707l-7.975-.053.215-3.41 2.996.014.394-6.366 3.515.003-.4 6.39.226.001c.45.001.823-.172 1.119-.519.295-.347.46-.818.496-1.415l.269-4.443 3.536.004-.268 4.456a9.615 9.615 0 0 1-.27 1.747c.184.133.407.2.669.2l1.135.004.11-1.839.095-1.18c.027-.22.053-.554.081-1.006.047-.771.058-1.893.037-3.366l3.178-.153zM70.612.824L72.87.813l-.176 2.868-2.26.008.177-2.865zm-2.06 3.216l2.48-.006-.19 3.13-2.482.002.191-3.126zm3.487-.01l2.491-.006-.19 3.136-2.493.003.192-3.133z"/></svg></svg><svg width="79" height="25" xmlns="http://www.w3.org/2000/svg" xmlns:xlink="http://www.w3.org/1999/xlink" xmlns:svgjs="http://svgjs.com/svgjs" viewBox="0 0.083 79 24.834" fill="#d5cdf8" x="240" y="500"><svg xmlns="http://www.w3.org/2000/svg" xmlns:xlink="http://www.w3.org/1999/xlink" width="79" height="25" viewBox="0.873 0.532 77.699 24.425"><path paint-order="stroke fill markers" fill-rule="evenodd" d="M5.666 17.357l-4.793-.023.207-2.827 3.426-8.954 3.754-.006-3.814 8.575 1.456.004.264-3.582 3.405.004-.263 3.59.936.002-.237 3.238-.936-.003-.147 2.02-3.41-.023.152-2.015zm11.409-12.08c1.642-.004 2.86.155 3.653.477.794.321 1.338.972 1.633 1.95.292.978.367 2.483.223 4.511-.126 1.835-.365 3.254-.716 4.255-.351 1.002-.973 1.75-1.863 2.247-.893.496-2.207.738-3.944.726l-4.171-.029 1.024-14.13 4.161-.007zm-.801 10.89c.732.003 1.282-.152 1.653-.466.37-.314.626-.768.771-1.363.146-.591.258-1.428.335-2.512.062-.873.052-1.538-.032-1.994-.085-.456-.293-.786-.624-.99-.333-.203-.851-.305-1.557-.305l-.727-.002-.548 7.628.729.005zm27.895-7.263l-.711 10.73-9.348-.063a18.322 18.322 0 0 1-1.555-.07 11.851 11.851 0 0 1-1.318-.185c-.8-.162-1.487-.575-2.061-1.24-.576-.663-.815-1.69-.72-3.08.044-.623.152-1.292.326-2.007.173-.716.357-1.334.55-1.858l2.728.175c.024-.155-.052.277-.227 1.298-.148.837-.23 1.355-.243 1.554-.034.498.1.963.404 1.397.305.435.916.653 1.832.66l6.438.03.492-7.34h3.413zM34.19 21.277l3.06.025-.233 3.455-3.062-.03.235-3.45zm17.672-4.985l-.219 3.39-5.474-.036.97-14.775 3.436-.008-.74 11.424 2.027.005zm9.55.044l-.214 3.41-9.549-.064.219-3.39 3.002.014.475-7.405h3.474l-.47 7.421 3.063.014zm-6.73 5.1l3.137.024-.222 3.497-3.138-.031.223-3.49zM78.338 8.859c.183 2.729.26 4.363.226 4.902l-.361 6.093-4.536-.03a3.885 3.885 0 0 1-1.415-.275c-.45-.176-.76-.332-.931-.464a3.439 3.439 0 0 1-2.141.707l-7.977-.055.215-3.41 2.996.014.395-6.365 3.516.003-.402 6.39h.226a1.4 1.4 0 0 0 1.12-.517c.295-.347.46-.818.497-1.416l.267-4.442 3.536.003-.268 4.456a9.618 9.618 0 0 1-.27 1.748c.184.131.407.198.669.2l1.136.002.11-1.837.094-1.181c.027-.22.054-.555.081-1.005.047-.773.06-1.895.037-3.366l3.18-.155zM71.332.544l2.26-.012-.175 2.869-2.26.007.175-2.864zm-2.06 3.216l2.48-.007-.19 3.13-2.482.003.192-3.126zm3.487-.01l2.492-.007-.19 3.137-2.494.001.192-3.131z"/></svg></svg><svg width="19" height="13" xmlns="http://www.w3.org/2000/svg" xmlns:xlink="http://www.w3.org/1999/xlink" xmlns:svgjs="http://svgjs.com/svgjs" viewBox="0 0.322 19 12.356" fill="#d5cdf8" x="225" y="350"><svg xmlns="http://www.w3.org/2000/svg" xmlns:xlink="http://www.w3.org/1999/xlink" width="19" height="13" viewBox="0.484 0.949 17.9 11.641"><path paint-order="stroke fill markers" fill-rule="evenodd" d="M4.423 10.876l-3.94-.019.17-2.322 2.817-7.36 3.085-.005L3.42 8.218l1.196.003.218-2.943 2.798.003-.217 2.95.77.001-.195 2.661-.77-.002-.12 1.66-2.802-.019.125-1.656zM13.798.95c1.349-.003 2.35.128 3.003.392s1.099.799 1.341 1.602c.24.804.302 2.04.184 3.71-.105 1.507-.3 2.673-.59 3.495-.288.823-.798 1.439-1.53 1.847-.734.407-1.815.605-3.24.595l-3.429-.022L10.38.956 13.798.95zM13.14 9.9c.601.001 1.054-.127 1.358-.384.303-.258.515-.63.634-1.12.12-.485.211-1.174.275-2.064.052-.718.042-1.264-.027-1.64-.069-.375-.24-.646-.513-.812-.273-.167-.699-.251-1.279-.251l-.597-.002-.45 6.269.599.004z"/></svg></svg><svg width="329" height="236" xmlns="http://www.w3.org/2000/svg" xmlns:xlink="http://www.w3.org/1999/xlink" xmlns:svgjs="http://svgjs.com/svgjs" viewBox="0 0.039 329 235.922" fill="none" stroke-miterlimit="100" stroke="#707070" stroke-width="2" x="216" y="374"><svg xmlns="http://www.w3.org/2000/svg" xmlns:xlink="http://www.w3.org/1999/xlink" width="329" height="236" viewBox="0.645 0.6 328.225 235.366"><path paint-order="stroke fill markers" d="M19.083.6s-1.703 71.194 14.29 102.667c29.814 58.663-16.188 54.788-28.936 78.698-15.015 28.165 4.823 57.333 241.603 53.691 0 0 82.83.31 82.83-61.585L19.083.6"/></svg></svg><svg width="7" height="7" xmlns="http://www.w3.org/2000/svg" xmlns:xlink="http://www.w3.org/1999/xlink" xmlns:svgjs="http://svgjs.com/svgjs" viewBox="0.494 0 6.012 7" fill="#d5cdf8" x="231" y="374"><svg xmlns="http://www.w3.org/2000/svg" xmlns:xlink="http://www.w3.org/1999/xlink" width="7" height="7" viewBox="0.852 0.037 5.925 6.898"><path paint-order="stroke fill markers" fill-rule="evenodd" d="M.852.037s2.66.54 5.925.764l-.83 4.358A2.184 2.184 0 0 1 3.8 6.934h-.16A2.185 2.185 0 0 1 1.471 5.02L.852.037z"/></svg></svg><svg width="11" height="13" xmlns="http://www.w3.org/2000/svg" xmlns:xlink="http://www.w3.org/1999/xlink" xmlns:svgjs="http://svgjs.com/svgjs" viewBox="0 0.348 11 12.303" fill="#d5cdf8" x="538" y="545"><svg xmlns="http://www.w3.org/2000/svg" width="11" height="13" viewBox="0.142 0.76 10.479 11.72"><path paint-order="stroke fill markers" fill-rule="evenodd" d="M.142.936S4.844.54 10.62.936L9.152 9.34a3.864 3.864 0 0 1-3.796 3.14h-.283a3.864 3.864 0 0 1-3.835-3.387L.142.936z"/></svg></svg></svg></svg>