<svg width="631" height="246" xmlns="http://www.w3.org/2000/svg" xmlns:xlink="http://www.w3.org/1999/xlink" xmlns:svgjs="http://svgjs.com/svgjs" viewBox="0 0.675 631 244.649" fill="#05aefb" opacity=".188"><svg xmlns="http://www.w3.org/2000/svg" width="631" height="246" viewBox="0.054 0.189 633.994 245.81"><path paint-order="stroke fill markers" fill-rule="evenodd" d="M631.344 201.652h-1.75c1.05-3.08 1.617-6.493 1.617-10.239 0-17.313-12.082-36.069-28.34-41.202v-3.478h-1.258v-5.48c1.718-.357 3.019-1.973 3.019-3.92 0-.642-.156-1.24-.406-1.778-.57-4.705-4.103-9.427-8.615-10.36l-.123-2.458c.814-.537 1.36-1.491 1.36-2.589 0-1.215-.667-2.255-1.624-2.744l-.053-1.058a2.549 2.549 0 0 0 1.188-2.18c0-1.034-.582-1.92-1.412-2.31l-.943-18.965-.943 18.965c-.83.39-1.412 1.276-1.412 2.31a2.55 2.55 0 0 0 1.188 2.18l-.052 1.058c-.958.49-1.625 1.529-1.625 2.744 0 1.098.546 2.052 1.36 2.59l-.124 2.457c-4.926 1.024-8.697 6.565-8.697 11.663v.06h.039c-.015.138-.039.273-.039.414 0 1.681.97 3.114 2.34 3.705h-.348v5.696h-1.26v3.823c-8.719 3.093-16.161 10.092-21.064 18.61v-27.723a5.952 5.952 0 0 0 5.666-5.942v-1.738h-5.666v-8.543h1.095a2.252 2.252 0 0 0 2.246-2.246v-.272a2.251 2.251 0 0 0-2.246-2.246h-.32v-2.876l1.769-3.428h-1.77v-2.317c1.562-.248 2.763-1.625 2.763-3.3-.07-6.923-5.153-14.438-11.63-15.292l-.174-3.67c.574-.398.962-1.107.962-1.924 0-.777-.349-1.463-.88-1.87l1.49-3.273h-1.906l-.298-6.282c.717-.2 1.25-.891 1.25-1.721 0-.893-.616-1.627-1.415-1.759l-.252-5.343-.254 5.343c-.799.132-1.414.866-1.414 1.759 0 .83.532 1.52 1.25 1.721l-.297 6.282h-1.907l1.49 3.273c-.532.407-.88 1.093-.88 1.87 0 .817.387 1.526.961 1.925l-.174 3.67c-6.308.835-11.27 7.97-11.6 14.73-.03.183-.054.368-.054.56 0 1.676 1.199 3.053 2.763 3.301v2.317h-1.772l1.638 3.684h.134v2.62h-.74a2.253 2.253 0 0 0-2.245 2.246v.272a2.253 2.253 0 0 0 2.245 2.246h1.096v8.543h-5.224v1.738a5.954 5.954 0 0 0 5.224 5.906v12.003c-4.383-5.563-9.99-9.994-16.313-12.32-.022-.051-.054-.1-.078-.15-.549-4.53-3.975-9.074-8.347-9.975l-.118-2.365a2.97 2.97 0 0 0 1.318-2.492c0-1.17-.645-2.17-1.576-2.643l-.05-1.019a2.447 2.447 0 0 0 1.151-2.097c0-.996-.563-1.848-1.367-2.224l-.914-18.259-.915 18.259c-.805.376-1.368 1.228-1.368 2.224 0 .902.467 1.679 1.15 2.097l-.05 1.02c-.928.472-1.575 1.473-1.575 2.642a2.97 2.97 0 0 0 1.318 2.492l-.119 2.367c-4.449.92-7.925 5.613-8.377 10.222-7.304 2.763-13.64 8.337-18.205 15.2-1.868-18.667-15.127-37.656-32.524-43.147v-4.021h-1.455v-6.332c1.987-.412 3.49-2.282 3.49-4.531 0-.742-.18-1.433-.47-2.055-.655-5.438-4.742-10.891-9.954-11.973l-.143-2.84c.94-.618 1.573-1.72 1.573-2.99 0-1.405-.77-2.606-1.879-3.173l-.06-1.223c.816-.502 1.372-1.436 1.372-2.518 0-1.194-.67-2.218-1.63-2.669l-1.027-20.638c.146.008.293.025.44.025 4.006 0 7.465-2.495 9.103-6.11-1.612 2.007-3.998 3.28-6.665 3.28-4.855 0-8.792-4.218-8.792-9.42 0-4.775 3.316-8.717 7.613-9.334a9.678 9.678 0 0 0-1.258-.087c-5.585 0-10.113 4.852-10.113 10.835 0 5.778 4.226 10.487 9.544 10.804l-1.027 20.645c-.96.45-1.63 1.475-1.63 2.669 0 1.082.556 2.016 1.373 2.518l-.061 1.223c-1.109.567-1.88 1.768-1.88 3.173 0 1.27.633 2.372 1.574 2.993l-.141 2.838c-5.695 1.185-10.053 7.589-10.053 13.478v.069h.046c-.016.161-.046.317-.046.48 0 1.942 1.121 3.597 2.706 4.28h-.405v6.583h-1.456v4.417c-15.266 5.415-27.133 21.21-30.552 37.73v-9.629h.528a2.162 2.162 0 0 0 2.155-2.157v-.717c0-1.186-.971-2.157-2.155-2.157h-.528v-34.605h.66a1.873 1.873 0 0 0 1.865-1.868v-.623a1.87 1.87 0 0 0-1.85-1.864v-9.017h1.104a2.376 2.376 0 0 0 2.37-2.368v-.79a2.376 2.376 0 0 0-2.37-2.368h-.173c.573-1.353.901-2.937.901-4.768 0-6.367-3.862-13.32-8.795-14.108l-.131-3.354c.433-.365.726-1.013.726-1.759 0-.824-.356-1.53-.869-1.864l-.169-4.32c.456-.257.777-.869.777-1.582 0-.776-.382-1.425-.903-1.635l-.355-9.107-.358 9.107c-.521.21-.903.859-.903 1.635 0 .713.321 1.325.777 1.582l-.169 4.32c-.513.334-.869 1.04-.869 1.864 0 .746.291 1.394.727 1.759l-.132 3.354c-4.933.788-8.795 7.74-8.795 14.108 0 1.83.328 3.415.9 4.768h-.174a2.375 2.375 0 0 0-2.368 2.368v.79a2.375 2.375 0 0 0 2.368 2.368h1.107v9.017a1.87 1.87 0 0 0-1.852 1.864v.623c0 1.026.84 1.868 1.867 1.868h.66v34.605h-.212c-1.186 0-2.157.97-2.157 2.157v.717c0 1.188.971 2.157 2.157 2.157h.211v14.43a31.197 31.197 0 0 0-2.07-.845c-.022-.052-.053-.098-.077-.15-.549-4.529-3.975-9.073-8.347-9.973l-.118-2.367a2.967 2.967 0 0 0 1.317-2.492c0-1.17-.647-2.17-1.575-2.64l-.05-1.02a2.45 2.45 0 0 0 1.15-2.098c0-.995-.563-1.85-1.367-2.224l-.915-18.258-.914 18.258c-.804.375-1.367 1.23-1.367 2.224 0 .9.466 1.68 1.15 2.098l-.05 1.02c-.928.47-1.575 1.47-1.575 2.64 0 1.058.53 1.975 1.318 2.492l-.119 2.367c-4.45.919-7.926 5.613-8.378 10.221-8.013 3.034-14.864 9.447-19.489 17.236v-5.774c2.459-.317 4.364-2.394 4.364-4.939v-2.042h-4.364v-7.824h.688a1.892 1.892 0 0 0 1.886-1.886v-.593a1.891 1.891 0 0 0-1.886-1.885h-.093v-2.635l1.364-3.139h-1.364v-2.12c1.204-.228 2.13-1.488 2.13-3.024-.055-6.34-3.97-13.22-8.96-14.004l-.134-3.36c.443-.365.741-1.014.741-1.762 0-.712-.269-1.34-.678-1.712l1.147-2.997h-1.468l-.23-5.754c.553-.183.962-.815.962-1.577 0-.817-.472-1.49-1.09-1.61l-.194-4.892-.194 4.892c-.616.12-1.09.793-1.09 1.61 0 .762.411 1.394.964 1.577l-.23 5.754h-1.468l1.147 2.997c-.41.372-.678 1-.678 1.712 0 .748.298 1.397.741 1.762l-.133 3.362c-4.861.763-8.686 7.297-8.938 13.488a3.599 3.599 0 0 0-.043.514c0 1.534.925 2.796 2.13 3.024v2.12h-1.364l1.262 3.374h.102v2.4h-.413a1.891 1.891 0 0 0-1.887 1.885v.593c0 1.038.849 1.886 1.887 1.886h.687v7.824h-4.025v.477h-2.17V127.05a5.019 5.019 0 0 0 4.023-4.918v-2.068h-4.023v-7.868h.682c1.04 0 1.89-.851 1.89-1.892v-.606c0-1.04-.85-1.892-1.89-1.892h-.408v-2.413h.102l1.262-3.393h-1.364v-2.133c1.205-.23 2.13-1.497 2.13-3.041 0-.176-.02-.346-.043-.515-.254-6.226-4.077-12.798-8.938-13.568l-.133-3.379c.443-.369.74-1.02.74-1.773 0-.716-.27-1.347-.677-1.723l1.147-3.014h-1.468l-.23-5.785c.553-.184.962-.821.962-1.586 0-.823-.472-1.498-1.09-1.62l-.194-4.92-.194 4.92c-.616.122-1.09.797-1.09 1.62 0 .765.41 1.402.962 1.586l-.228 5.785h-1.468l1.147 3.014c-.41.376-.678 1.007-.678 1.723 0 .752.298 1.404.741 1.773l-.135 3.379c-4.99.787-8.904 7.709-8.96 14.083 0 1.544.925 2.813 2.13 3.043v2.131h-1.364l1.363 3.158v2.648h-.085a1.898 1.898 0 0 0-1.892 1.892v.606c0 1.041.85 1.892 1.892 1.892h.68v7.868h-4.364v2.068c0 2.548 1.905 4.63 4.364 4.953v5.806c-4.623-7.833-11.474-14.283-19.489-17.332-.45-4.635-3.927-9.356-8.378-10.28l-.119-2.38c.79-.52 1.32-1.444 1.32-2.508 0-1.175-.647-2.18-1.575-2.657l-.052-1.023a2.466 2.466 0 0 0 1.15-2.11c0-1.001-.563-1.86-1.367-2.237l-.913-18.363-.914 18.363c-.804.378-1.368 1.236-1.368 2.236 0 .907.465 1.689 1.151 2.111l-.05 1.023c-.93.477-1.577 1.482-1.577 2.657a2.99 2.99 0 0 0 1.32 2.508l-.12 2.38c-4.37.903-7.797 5.475-8.347 10.03-.024.052-.054.098-.076.152-.699.257-1.39.54-2.07.849v-14.512h.204a2.17 2.17 0 0 0 2.162-2.164V98.9c0-1.19-.973-2.163-2.162-2.163h-.204V61.935h.652a1.88 1.88 0 0 0 1.873-1.874v-.635a1.877 1.877 0 0 0-1.853-1.87v-9.069h1.1a2.383 2.383 0 0 0 2.377-2.376v-.806a2.384 2.384 0 0 0-2.378-2.378h-.166c.572-1.358.9-2.951.9-4.793 0-6.405-3.86-13.395-8.795-14.188l-.131-3.374c.435-.367.728-1.02.728-1.768 0-.83-.358-1.54-.869-1.875l-.17-4.344c.455-.26.778-.875.778-1.592 0-.78-.384-1.433-.905-1.644l-.355-9.16-.358 9.16c-.519.211-.9.864-.9 1.644 0 .717.32 1.332.776 1.592l-.17 4.344c-.512.335-.87 1.045-.87 1.875 0 .748.293 1.4.729 1.768l-.132 3.374c-4.935.793-8.795 7.783-8.795 14.188 0 1.842.328 3.435.9 4.793h-.166a2.385 2.385 0 0 0-2.378 2.378v.806a2.384 2.384 0 0 0 2.378 2.376h1.099v9.069a1.877 1.877 0 0 0-1.853 1.87v.635a1.88 1.88 0 0 0 1.873 1.874h.653v34.803h-.521a2.17 2.17 0 0 0-2.163 2.163v.734c0 1.19.975 2.164 2.163 2.164h.52v9.683c-3.417-16.615-15.286-32.5-30.552-37.947v-4.442h-1.456v-6.62h-.402c1.584-.686 2.703-2.352 2.703-4.304 0-.165-.03-.322-.044-.481h.044v-.073c0-5.922-4.356-12.362-10.051-13.551l-.14-2.858c.939-.625 1.57-1.733 1.57-3.01 0-1.41-.77-2.618-1.878-3.189l-.062-1.23c.818-.506 1.374-1.443 1.374-2.531 0-1.203-.671-2.232-1.631-2.686l-.92-18.571c-.112-.006-.227-.008-.34-.015l-.92 18.586c-.96.454-1.63 1.483-1.63 2.686 0 1.088.556 2.025 1.371 2.531l-.06 1.23c-1.107.571-1.878 1.78-1.878 3.19 0 1.276.632 2.384 1.571 3.009l-.14 2.856c-5.215 1.086-9.3 6.573-9.956 12.04a4.887 4.887 0 0 0-.468 2.067c0 2.263 1.5 4.142 3.49 4.555v6.37h-1.457v4.043c-17.398 5.524-30.657 24.62-32.523 43.396-4.568-6.903-10.903-12.51-18.206-15.29-.452-4.633-3.927-9.357-8.378-10.28l-.119-2.379a2.988 2.988 0 0 0 1.32-2.507c0-1.175-.647-2.183-1.576-2.657l-.051-1.025a2.464 2.464 0 0 0 1.15-2.109c0-1.003-.563-1.858-1.367-2.236l-.914-18.363-.915 18.363c-.805.378-1.368 1.233-1.368 2.236 0 .906.467 1.688 1.153 2.109l-.052 1.025c-.929.474-1.575 1.482-1.575 2.657 0 1.064.53 1.987 1.319 2.507l-.119 2.378c-4.373.906-7.797 5.476-8.348 10.033-.024.05-.055.098-.078.15-6.32 2.34-11.93 6.795-16.312 12.39v-12.071a5.973 5.973 0 0 0 5.223-5.923v-1.764h-5.223v-8.593h1.09a2.257 2.257 0 0 0 2.25-2.252v-.287a2.259 2.259 0 0 0-2.25-2.253h-.733v-2.633h.132l1.638-3.707h-1.77v-2.329c1.562-.25 2.763-1.634 2.763-3.321 0-.193-.026-.378-.055-.561-.329-6.801-5.291-13.976-11.6-14.816l-.175-3.691c.576-.4.964-1.114.964-1.935 0-.782-.35-1.471-.88-1.88l1.487-3.292h-1.905l-.298-6.317c.717-.202 1.249-.897 1.249-1.733 0-.899-.613-1.636-1.414-1.768l-.252-5.372-.254 5.372c-.798.132-1.412.87-1.412 1.768 0 .836.532 1.53 1.249 1.733l-.298 6.317h-1.905l1.488 3.291c-.53.41-.88 1.099-.88 1.881 0 .821.387 1.534.963 1.935l-.174 3.69c-6.479.86-11.56 8.418-11.63 15.38 0 1.685 1.199 3.069 2.763 3.32v2.328H97.63l1.772 3.447v2.893h-.315a2.258 2.258 0 0 0-2.252 2.253v.287a2.256 2.256 0 0 0 2.252 2.252h1.088v8.593H94.51v1.764a5.97 5.97 0 0 0 5.665 5.958v27.884c-4.902-8.567-12.344-15.607-21.063-18.719v-3.843h-1.26v-5.73h-.349c1.37-.595 2.341-2.035 2.341-3.725 0-.142-.026-.278-.039-.417h.04v-.06c0-5.126-3.772-10.699-8.7-11.73l-.122-2.471c.814-.54 1.36-1.5 1.36-2.606 0-1.22-.667-2.266-1.625-2.759l-.053-1.064a2.566 2.566 0 0 0 1.19-2.192c0-1.04-.583-1.93-1.413-2.324L69.54 52.67l-.945 19.074c-.828.393-1.41 1.285-1.41 2.324 0 .942.481 1.753 1.188 2.192l-.052 1.064c-.96.493-1.628 1.538-1.628 2.76 0 1.105.547 2.065 1.36 2.605l-.122 2.47c-4.51.941-8.046 5.69-8.613 10.42a4.215 4.215 0 0 0-.406 1.788c0 1.957 1.3 3.584 3.02 3.944v5.511H60.67v3.499c-16.257 5.16-28.34 24.023-28.34 41.437 0 3.766.57 7.197 1.62 10.296h-1.744a2.708 2.708 0 0 0-2.507 1.708 4.479 4.479 0 0 0-.34-1.213c-.562-4.693-4.104-9.407-8.616-10.354l-.111-2.459c.811-.539 1.352-1.488 1.352-2.592 0-1.218-.676-2.256-1.625-2.73l-.066-1.06a2.536 2.536 0 0 0 1.195-2.188c0-1.036-.586-1.916-1.4-2.3l-.946-18.968-.947 18.968c-.834.384-1.421 1.264-1.421 2.3a2.59 2.59 0 0 0 1.195 2.188l-.045 1.06c-.969.474-1.623 1.512-1.623 2.73 0 1.104.541 2.053 1.353 2.592l-.136 2.46c-4.916 1.037-8.683 6.563-8.683 11.661v.066h.044c-.022.136-.044.271-.044.407 0 1.691.969 3.112 2.346 3.698h-.361v5.708H9.556v3.834c-8.706 3.089-12.974 8.737-6.065 68.306l625.704.125v-38.752h2.15a2.711 2.711 0 0 0 2.703-2.703v-.19a2.711 2.711 0 0 0-2.704-2.703zM18.082 173.735H16.82v2.233a26.724 26.724 0 0 0-3.317.472v-2.705H12.24V168.3c.113 0 .202.022.315.022 1.488 0 2.774-.947 3.384-2.302a3.8 3.8 0 0 0 2.142 2.076v5.639zm7.24 0H24.06v2.526a27.114 27.114 0 0 0-3.317-.362v-2.164h-1.24v-5.413c1.4-.09 2.595-.993 3.158-2.302.496 1.151 1.488 1.985 2.66 2.233v5.482zm1.421 0v-5.482c1.379-.29 2.46-1.399 2.843-2.839.22 1.273 1.286 2.267 2.62 2.267h2.14v12.341c-2.025-1.156-4.14-2.118-6.339-2.815v-3.472h-1.264zm42.436-66.914h-1.258v2.168a27.99 27.99 0 0 0-3.31.373v-2.54h-1.26v-5.512c1.183-.247 2.16-1.1 2.658-2.243.569 1.305 1.764 2.217 3.17 2.299v5.455zm7.252 0h-1.26v2.724a28.995 28.995 0 0 0-3.31-.482v-2.242h-1.26v-5.674c.95-.358 1.721-1.107 2.144-2.08.597 1.366 1.875 2.319 3.369 2.319.107 0 .211-.024.317-.034v5.47zm31.436-32.769h-1.77l1.77 3.447v2.893h-5.19v-2.633h.133l1.636-3.707h-1.77v-3.897c.247-.415.4-.89.454-1.397.173 1.694 1.544 3.019 3.228 3.019.547 0 1.055-.154 1.509-.4v2.675zm8.465 0h-1.77l1.77 3.447v2.893h-5.19v-2.633h.133l1.638-3.707h-1.772v-2.74a3.164 3.164 0 0 0 1.627.465c1.546 0 2.832-1.114 3.171-2.604.08.352.215.682.393.982v3.897zm99.712-4.959h-1.457V71.6c-1.29.068-2.564.215-3.823.431v-2.937h-1.456v-6.369c1.368-.283 2.494-1.267 3.07-2.589.658 1.507 2.039 2.562 3.666 2.654v6.304zm8.378 0h-1.457v3.15a32.899 32.899 0 0 0-3.823-.559v-2.59h-1.456v-6.557c1.097-.413 1.986-1.278 2.477-2.402.688 1.58 2.167 2.678 3.892 2.678.126 0 .245-.028.367-.039v6.32zm35.142-11.539h-1.491v-9.067h.45l1.041 1.814v7.253zm8.032 0h-4.687v-7.016h.135l1.012-2.05h2.363l1.177 2.05v7.016zm3.345-7.016l1.013-2.05h.547v9.066h-1.56v-7.016zm48.96 51.463h-1.362l1.362 3.158v2.648h-3.997v-2.413h.102l1.262-3.393h-1.364v-3.567c.19-.382.308-.816.349-1.28.133 1.55 1.19 2.762 2.487 2.762.422 0 .813-.139 1.161-.365v2.45zm6.523 0h-1.363l1.363 3.158v2.648h-3.999v-2.413h.102l1.262-3.393h-1.364v-2.51c.371.264.795.425 1.253.425 1.192 0 2.183-1.019 2.442-2.383.063.323.167.625.304.899V102zm14.692 39.94h-1.364l1.262 3.374h.102v2.4h-4v-2.635l1.365-3.139h-1.364v-3.549c.137-.274.243-.572.304-.893.26 1.356 1.252 2.37 2.442 2.37.46 0 .882-.163 1.253-.424v2.496zm6.523 0h-1.364l1.262 3.374h.102v2.4h-4v-2.635l1.364-3.139h-1.363v-2.435c.348.224.741.363 1.162.363 1.299 0 2.353-1.206 2.487-2.748.04.463.159.893.35 1.273v3.547zM392.6 97.746h-1.559v-9.015h.547l1.012 2.038v6.977zm8.031 0h-4.685V90.77l1.175-2.038h2.363l1.012 2.038h.135v6.977zm3.347-7.21l1.041-1.805h.449v9.015h-1.49v-7.21zm41.876 18.685h-1.454v2.577a32.774 32.774 0 0 0-3.825.555v-3.132h-1.455v-6.284c.123.01.24.039.365.039 1.727 0 3.204-1.093 3.894-2.663.489 1.116 1.38 1.977 2.475 2.389v6.519zm8.378 0h-1.454v2.92a32.743 32.743 0 0 0-3.825-.428v-2.492h-1.455v-6.27c1.625-.092 3.008-1.14 3.664-2.638.576 1.313 1.705 2.292 3.07 2.576v6.332zm98.167 4.93h-1.77l1.638 3.685h.132v2.62h-5.19v-2.876l1.769-3.428h-1.77v-3.875c.178-.3.314-.626.395-.977.337 1.481 1.625 2.587 3.169 2.587.597 0 1.147-.176 1.627-.461v2.726zm8.465 0h-1.77l1.638 3.685h.132v2.62h-5.189v-2.876l1.77-3.428h-1.77v-2.661c.452.244.96.396 1.509.396 1.684 0 3.054-1.317 3.228-3 .052.506.206.977.452 1.39v3.875zm32.075 32.582h-1.26v2.23c-1.117.1-2.222.255-3.307.48v-2.71h-1.26v-5.437c.105.01.207.034.316.034 1.492 0 2.773-.947 3.367-2.306.425.966 1.196 1.713 2.144 2.067v5.642zm7.25 0h-1.258v2.526a28.814 28.814 0 0 0-3.31-.37v-2.156h-1.26v-5.424c1.408-.081 2.601-.988 3.17-2.285.499 1.138 1.475 1.983 2.658 2.23v5.479z"/></svg></svg>