<svg width="47" height="44" xmlns="http://www.w3.org/2000/svg" xmlns:xlink="http://www.w3.org/1999/xlink" xmlns:svgjs="http://svgjs.com/svgjs" viewBox="469 351 47 44"><svg width="47" height="44" xmlns="http://www.w3.org/2000/svg" xmlns:xlink="http://www.w3.org/1999/xlink" xmlns:svgjs="http://svgjs.com/svgjs" viewBox="0.432 0 46.136 44" fill="#fff" x="469" y="351"><svg xmlns="http://www.w3.org/2000/svg" xmlns:xlink="http://www.w3.org/1999/xlink" width="47" height="44" viewBox="0.669 0.656 45.448 43.344"><path paint-order="stroke fill markers" fill-rule="evenodd" d="M43 22c-1.354-2.475-2.515-4.46-3-5v-4l6-5c.15-.123-.004.194 0 0s.144-.871 0-1l-5-4c-.273-.245-.755-.273-1 0s-.273.755 0 1l5 4-5 4V9c0-.367-.633-1-1-1s-1 .633-1 1v8c-4.744.767-9.256.768-14 0V9c0-.367-.633-1-1-1s0 .633 0 1v3l-5-4 5-5c.76-.683 2.054-1.113 3-1 .195.836.313 3.252 1 5 1.128 2.872 2.533 4.486 4 5 .071.025-.074 0 0 0s-.071.025 0 0c1.467-.514 2.871-2.128 4-5 .685-1.745 1.804-4.162 2-5 .585-.07.438.76 1 1 .338.144.856-.663 1-1 .145-.338.337-.856 0-1-1.707-.73-3.627-.25-5 1l-1 1c-1.17 1.065-2.83 1.065-4 0V2C27.19.35 23.822.365 22 2l-6 5c-.145.129-.004.806 0 1 .004.194-.15-.123 0 0l7 5v4c-.436.484-1.807 1.97-3 4-1.01-.539-1.918-1.462-3-2-.946-.47-2.085-.52-3-1 .894-1.12 1.698-2.515 2-4 .462-2.27-.36-4.735-2-6-1.554-1.2-3.369-.802-5 0-.875.43-3 1.36-3 4 0 1.67 1.816 3.42 4 5 .683.493 1.183.533 2 1-1.013.997-1.901 2.162-3 3-2.365 1.804-4.942 3.692-5 6-1.447.347-2.806 1.48-3 3-.442 3.46-.442 6.54 0 10 .223 1.745 2.24 2.908 4 3 3.528.184 6.447 1 10 1s7.472-.816 11-1c1.76-.093 2.778-1.256 3-3 .132-1.035.947-1.96 1-3 .54.016.457 0 1 0 8.674 0 14.763-1.914 15-2 .262-.096 0-.721 0-1 0-5.493-1.473-9.209-3-12zM28 4c1.679 1.53 4.32 1.53 6 0l1-1c.125-.114-.138.092 0 0-.23.88-.527 1.796-1 3-1.108 2.818-2.258 3.632-3 4-.742-.368-1.893-1.182-3-4a25.917 25.917 0 0 1-1-3c.137.092.874-.114 1 0v1zM8 12c0-1.444-.046-2.486 1-3 .437-.215 1.486 0 2 0 .86 0 1.284.447 2 1 .719.555 2.488 1.598 2 4-.268 1.316-1.145 1.973-2 3-2.872-1.61-5-3.05-5-5zM5 28c1.184-.062 1.848.04 3 0 .367-.013 1.013-.634 1-1-.013-.367-.631-.012-1 0-.94.032-2.035-.047-3 0 .171-1.617 1.891-3.392 4-5 1.239-.945 2.87-1.839 4-3 1.018.542 1.953 1.48 3 2 1.048.52 1.998.465 3 1-.658 1.25-.464 2.36-1 4-2.235-.025-4.785-.049-7 0-.367.008-1.008.633-1 1 .008.367.632 1.011 1 1 4.953-.109 10.022-.26 15 0 1.118.058 1.859.892 2 2 .093.729-.053 1.267 0 2-.054.735.091 1.293 0 2-.14 1.106-.881 1.942-2 2-1.504.078-3.51.955-5 1 .032-.939.075-2.068 0-3-.102-1.262-.744-2.931-2-3a69.395 69.395 0 0 0-7 0c-1.256.069-1.898 1.738-2 3-.076.94-.033 2.054 0 3-1.75-.047-3.258-.909-5-1-1.118-.058-1.86-.893-2-2-.09-.698-.944-1.262-1-2 .053-.736.906-1.268 1-2 .141-1.108.882-1.942 2-2zm16-5c2.152 1.231 3.415 2.599 4 4-2.026-.097-3.967-.964-6-1 .479-1.387 1.427-1.913 2-3zm-1 15c-.049.602-.405.967-1 1a70.996 70.996 0 0 1-7 0c-.595-.033-.952-.398-1-1-.1-1.24-.1-2.761 0-4 .048-.603.405-.968 1-1 1.05-.058 2.942 0 4 0 1.058 0 1.95-.058 3 0 .595.032.951.397 1 1 .1 1.239.1 2.76 0 4zm6 4c-7.01.365-13.99.365-21 0-1.118-.06-1.859-.893-2-2-.147-1.148-.954-1.846-1-3 .619.62 2.069.952 3 1 1.795.094 3.198-.047 5 0 .195 1.157.818 1.935 2 2 1.075.059 2.918 0 4 0 1.082 0 1.925.059 3 0 1.19-.066 1.814-.832 2-2 1.541-.045 3.443.081 5 0 .932-.048 1.381-.38 2-1-.046 1.155.147 1.852 0 3-.14 1.107-.882 1.94-2 2zm17-7c-.137-1.998-.636-4.06-1-6-.068-.361-.64-1.068-1-1-.36.067-.068.639 0 1 .367 1.953-.13 3.987 0 6-.512.105-.358-.106-1 0-.08-2.672-.515-5.413-1-8-.068-.361-.64-.068-1 0-.36.067-.068.64 0 1 .482 2.571-.072 4.343 0 7-1.981.272-4.274 1-7 1-.527 0-.475.015-1 0 .038-2-.746-4.014-1-6-.2-1.565-1.49-2.696-3-3-.488-2.03-2.313-3.467-5-5 1.062-1.798 2.566-3.503 3-4 2.51.417 4.474 1 7 1 2.525 0 5.49-.583 8-1 .499.57 1.78 1.76 3 4 1.398 2.566 2.9 7.025 3 12-.432.136-.997.76-2 1z"/></svg></svg><svg width="9" height="6" xmlns="http://www.w3.org/2000/svg" xmlns:xlink="http://www.w3.org/1999/xlink" xmlns:svgjs="http://svgjs.com/svgjs" viewBox="0 0.353 9 5.294" fill="#fff" x="480" y="384"><svg xmlns="http://www.w3.org/2000/svg" width="9" height="6" viewBox="0.959 0.853 7.082 4.166"><path paint-order="stroke fill markers" fill-rule="evenodd" d="M7 1C6.112.959 5.882 1 5 1 4.118 1 2.887.959 2 1c-.34.016-.98-.339-1 0a27.588 27.588 0 0 0 0 3c.02.339.66.984 1 1 .886.041 2.117 0 3 0 .882 0 1.113.042 2 0 .339-.016.98-.661 1-1 .054-.896.054-2.104 0-3-.02-.339-.661.016-1 0zm0 2a55.734 55.734 0 0 1-4 0 11.8 11.8 0 0 1 0-1 55.296 55.296 0 0 1 4 0c.014.447.014.553 0 1z"/></svg></svg></svg>