<svg width="37" height="36" xmlns="http://www.w3.org/2000/svg" xmlns:xlink="http://www.w3.org/1999/xlink" xmlns:svgjs="http://svgjs.com/svgjs" viewBox="659 359 37 36"><svg width="37" height="20" xmlns="http://www.w3.org/2000/svg" xmlns:xlink="http://www.w3.org/1999/xlink" xmlns:svgjs="http://svgjs.com/svgjs" viewBox="0 0.408 37 19.183" fill="#fff" x="659" y="375"><svg xmlns="http://www.w3.org/2000/svg" xmlns:xlink="http://www.w3.org/1999/xlink" width="37" height="20" viewBox="1 0.889 35.145 18.222"><path paint-order="stroke fill markers" fill-rule="evenodd" d="M36 1h-5c-.325 0-1 .675-1 1v5h-4c-.325 0 0-.325 0 0v5h-5c-.325 0 0-.326 0 0v5h-1v-5c0-.331-.927-1.572-2-2-.623-.25-1.14 0-2 0-.859 0-1.376-.25-2 0-.018.007.019-.008 0 0V9c0-.331.073-1.571-1-2-.623-.25-2.14 0-3 0-.859 0-1.376-.25-2 0-.018.007.019-.008 0 0V3c0-.331.073-1.572-1-2-.623-.25-2.14 0-3 0-.859 0-1.375-.25-2 0-1.072.428-1 1.669-1 2v14c0 .33-.072 1.57 1 2 .625.25 1.141 0 2 0 .86 0 2.377.25 3 0 .23-.089-.198-.857 0-1 .2.143.772.911 1 1 .624.25 1.141 0 2 0 .86 0 2.377.25 3 0 .23-.089-.198-.857 0-1 .2.143.772.911 1 1 .624.25 1.141 0 2 0 .86 0 1.377.25 2 0 .145-.057.866.077 1 0h17c.326 0 0-.675 0-1V2c0-.325.326-1 0-1zM2 13c.019.007-.018-.008 0 0 .625.25 1.141 0 2 0 .86 0 2.377.25 3 0 .02-.008-.018.007 0 0v1c-.102.182-1.561 1-3 1-1.438 0-1.897-.818-2-1v-1zm0-3c.019.007-.018-.008 0 0 .625.25 1.141 0 2 0 .86 0 2.377.25 3 0 .02-.008-.018.007 0 0v2c-.102.182-1.561 0-3 0-1.438 0-1.897.182-2 0v-2zm0-3c.019.007-.018-.008 0 0 .625.25 1.141 0 2 0 .86 0 2.377.25 3 0 .02-.008-.018.007 0 0v2c-.102.182-1.561 0-3 0-1.438 0-1.897.182-2 0V7zm0-3c.019.007-.018-.008 0 0 .625.25 1.141 0 2 0 .86 0 2.377.25 3 0 .02-.008-.018.007 0 0v2c-.102.182-1.561 0-3 0-1.438 0-1.897.182-2 0V4zm8 8c-1.437 0-1.897.182-2 0v-2c.019.007-.018-.008 0 0 .624.25 1.141 0 2 0 .86 0 2.377.25 3 0 .02-.008-.018.007 0 0v2c-.102.182-1.561 0-3 0zm-2 1c.019.007-.018-.008 0 0 .624.25 1.141 0 2 0 .86 0 2.377.25 3 0 .02-.008-.018.007 0 0v1c-.102.182-1.561 1-3 1-1.437 0-1.897-.818-2-1v-1zm6 0c.019.007-.018-.008 0 0 .624.25 1.141 0 2 0 .86 0 1.377.25 2 0 .02-.008-.018.007 0 0v1c-.102.182-.561 1-2 1-1.438 0-1.897-.818-2-1v-1zm2-2c1.386 0 1.852.807 2 1-.152.192-.62 0-2 0s-1.846.192-2 0c.15-.193.615-1 2-1zm-6-3c1.386 0 2.852.808 3 1-.153.193-1.62 0-3 0-1.382 0-1.848.192-2 0 .152-.193.618-1 2-1zM4 2c1.386 0 2.852.808 3 1-.153.192-1.62 0-3 0s-1.846.192-2 0c.15-.193.615-1 2-1zm0 16c-1.435 0-1.895-.818-2-1v-1c.019.007-.018-.008 0 0 .625.25 1.141 0 2 0 .86 0 2.377.25 3 0 .02-.008-.018.007 0 0v1c-.104.182-1.564 1-3 1zm6 0c-1.437 0-1.897-.818-2-1v-1c.019.007-.018-.008 0 0 .624.25 1.141 0 2 0 .86 0 2.377.25 3 0 .02-.008-.018.007 0 0v1c-.104.182-1.564 1-3 1zm6 0c-1.435 0-1.895-.818-2-1v-1c.019.007-.018-.008 0 0 .624.25 1.141 0 2 0 .86 0 1.377.25 2 0 .02-.008-.018.007 0 0v1c-.104.182-.564 1-2 1zm6-5h4v4h-4v-4zm5-5h3v9h-3V8zm4 9V2h4v15h-4z"/></svg></svg><svg width="2" height="3" xmlns="http://www.w3.org/2000/svg" xmlns:xlink="http://www.w3.org/1999/xlink" xmlns:svgjs="http://svgjs.com/svgjs" viewBox="0.25 0 1.5 3" fill="#fff" x="675" y="381"><svg xmlns="http://www.w3.org/2000/svg" xmlns:xlink="http://www.w3.org/1999/xlink" width="2" height="3" viewBox="0.001 1 1 2"><path paint-order="stroke fill markers" fill-rule="evenodd" d="M0 1h1v2H0V1z"/></svg></svg><svg width="18" height="16" xmlns="http://www.w3.org/2000/svg" xmlns:xlink="http://www.w3.org/1999/xlink" xmlns:svgjs="http://svgjs.com/svgjs" viewBox="0 0.059 18 15.882" fill="#fff" x="677" y="368"><svg xmlns="http://www.w3.org/2000/svg" xmlns:xlink="http://www.w3.org/1999/xlink" width="18" height="16" viewBox="0.001 0.999 17 15"><path paint-order="stroke fill markers" fill-rule="evenodd" d="M0 14v2h3c.157 0 .89-.89 1-1L16 3v1h1V2c0-.326-.674-1-1-1h-2v2h1L3 14H0z"/></svg></svg><svg width="30" height="22" xmlns="http://www.w3.org/2000/svg" xmlns:xlink="http://www.w3.org/1999/xlink" xmlns:svgjs="http://svgjs.com/svgjs" viewBox="0.982 0 28.035 22" fill="#fff" x="661" y="359"><svg xmlns="http://www.w3.org/2000/svg" width="30" height="22" viewBox="0.965 0 28.035 22"><path paint-order="stroke fill markers" fill-rule="evenodd" d="M24 4c-2.607-2.409-5.45-4.004-9-4C7.21 0 1 6.208 1 14c0 .615-.08 1.389 0 2h1c-.073-.56 0-1.435 0-2 0-.197-.009-.805 0-1h2l2 3c.111.148-.185 0 0 0h5l1 2-2 1c-.148.111 0 .815 0 1v2h1v-2l2-1c.242-.181.155-.742 0-1l-1-3c-.106-.177-.793 0-1 0H7l-2-3c-.111-.148.185 0 0 0H2c.308-2.246.608-4.21 2-6l2 1v2c0 .325.675 1 1 1h3l2 2c.199.198.767.156 1 0l3-2c.164-.11 0-.803 0-1V6l4-4c.915.43 2.21 1.37 3 2l-3 3c-.196.163-1.095-.237-1 0l2 3-2 2h-3c-.127 0 .102-.077 0 0l-2 2c-.25.187-.173-.26 0 0l2 4c.11.164-.197 0 0 0h2v4h1v-4c0-.325.325-1 0-1h-2l-2-3 2-1h2c.186 0 .889.148 1 0l2-3c.123-.165.076.19 0 0l-1-3 3-2c2.271 2.17 3.731 4.87 4 8h1c-.302-3.51-2.407-6.616-5-9zm-9 1c-.11.11 0 .844 0 1v3l-3 2-2-2c-.11-.11.156 0 0 0H8V7c0-.207-.822-.894-1-1L5 5C8.512 1.234 14.144.286 19 2l-4 3z"/></svg></svg></svg>