<svg width="59" height="60" xmlns="http://www.w3.org/2000/svg" xmlns:xlink="http://www.w3.org/1999/xlink" xmlns:svgjs="http://svgjs.com/svgjs" viewBox="369 461 59 60"><svg width="12" height="3" xmlns="http://www.w3.org/2000/svg" xmlns:xlink="http://www.w3.org/1999/xlink" xmlns:svgjs="http://svgjs.com/svgjs" viewBox="0 0.409 12 2.182" fill="#fff" x="382" y="464"><svg xmlns="http://www.w3.org/2000/svg" xmlns:xlink="http://www.w3.org/1999/xlink" width="12" height="3" viewBox="0 1 11 2"><path paint-order="stroke fill markers" fill-rule="evenodd" d="M10 1H1c-.48 0-1 .519-1 1 0 .48.52 1 1 1h9c.48 0 1-.52 1-1 0-.481-.52-1-1-1z"/></svg></svg><svg width="6" height="3" xmlns="http://www.w3.org/2000/svg" xmlns:xlink="http://www.w3.org/1999/xlink" xmlns:svgjs="http://svgjs.com/svgjs" viewBox="0 0.3 6 2.4" fill="#fff" x="375" y="464"><svg xmlns="http://www.w3.org/2000/svg" xmlns:xlink="http://www.w3.org/1999/xlink" width="6" height="3" viewBox="0 1 5 2"><path paint-order="stroke fill markers" fill-rule="evenodd" d="M1 3h3c.481 0 1-.52 1-1 0-.481-.519-1-1-1H1c-.48 0-1 .519-1 1 0 .48.52 1 1 1z"/></svg></svg><svg width="12" height="3" xmlns="http://www.w3.org/2000/svg" xmlns:xlink="http://www.w3.org/1999/xlink" xmlns:svgjs="http://svgjs.com/svgjs" viewBox="0 0.409 12 2.182" fill="#fff" x="375" y="469"><svg xmlns="http://www.w3.org/2000/svg" xmlns:xlink="http://www.w3.org/1999/xlink" width="12" height="3" viewBox="0 0 11 2"><path paint-order="stroke fill markers" fill-rule="evenodd" d="M1 2h9c.48 0 1-.52 1-1s-.52-1-1-1H1C.52 0 0 .52 0 1s.52 1 1 1z"/></svg></svg><svg width="5" height="3" xmlns="http://www.w3.org/2000/svg" xmlns:xlink="http://www.w3.org/1999/xlink" xmlns:svgjs="http://svgjs.com/svgjs" viewBox="0 0.25 5 2.5" fill="#fff" x="388" y="469"><svg xmlns="http://www.w3.org/2000/svg" xmlns:xlink="http://www.w3.org/1999/xlink" width="5" height="3" viewBox="1 0 4 2"><path paint-order="stroke fill markers" fill-rule="evenodd" d="M4 0H2c-.481 0-1 .52-1 1s.519 1 1 1h2c.48 0 1-.52 1-1s-.52-1-1-1z"/></svg></svg><svg width="59" height="60" xmlns="http://www.w3.org/2000/svg" xmlns:xlink="http://www.w3.org/1999/xlink" xmlns:svgjs="http://svgjs.com/svgjs" viewBox="0 0.182 59 59.636" fill="#fff" x="369" y="461"><svg xmlns="http://www.w3.org/2000/svg" xmlns:xlink="http://www.w3.org/1999/xlink" width="59" height="60" viewBox="0.629 0 58.37 59"><path paint-order="stroke fill markers" fill-rule="evenodd" d="M54 19c-1.98 0-3.6 1.137-4 3h-5c-.048-.483.128-1.52 0-2-.335-1.254-1.2-2.027-2-3l6-6c1.098 1.08 2.458 2 4 2 1.562 0 2.897-.895 4-2 1.105-1.104 2-2.437 2-4 0-1.563-.896-2.896-2-4s-2.439-2-4-2c-1.562 0-2.897.896-4 2-1.105 1.104-2 2.437-2 4 0 .985.545 2.158 1 3-.006.005.005-.005 0 0l-6 6c-.377-.308-.57-.752-1-1-2.068-1.193-4.697-1.619-7-1-1.273.34-2.045 1.212-3 2l-3-3c.3-.46 0-1.41 0-2V3c0-1.618-1.383-3-3-3H6C4.382 0 3 1.382 3 3v8c0 1.618 1.382 3 3 3h7c.48 0 0-.52 0-1s.48 0 0 0H6c-.658 0-1-1.341-1-2V3c0-.658.342-2 1-2h19c.657 0 2 1.342 2 2v8c0 .659-1.343 2-2 2h-8c-.481 0-1-.48-1 0s.519 1 1 1h8c.393 0 1.657.141 2 0l2 3c-1.63 1.991-1.505 4.325-1 7l-11 6c-.001 0 0 0 0 0-1.228-1.479-3.106-2.492-5-3-2.418-.648-4.833-.253-7 1-4.476 2.588-5.584 8.523-3 13 1.25 2.172 3.581 3.351 6 4 .807.217 1.186 1 2 1 1.624 0 3.555-1.165 5-2 4.437-2.563 5.49-7.538 3-12l10-6c.931 2.301 2.665 4.112 5 5v9c0 .439.031-.232 0 0-1.771-2.565-2.866-3.545-6-3-1.028.182-2.672.148-3 1-.335.869.33 2.125 1 3l7 11c1.4 2.06 2 2.967 2 5 0 1.112.887 2 2 2h14c1.113 0 2-.888 2-2v-4c0-1.291-.373-1.274 0-2 .397-.774.788-2.036 1-4 .003-.03 0 .031 0 0v-3c0-.48.48-1 0-1-.481 0-1 .52-1 1v3c-.18 1.611-.638 2.294-1 3-.41.8-1 1.288-1 3v4c0 .15.15 0 0 0H36c-.151 0 0 .15 0 0 0-2.305-.362-3.59-2-6l-8-11c-.01-.015.01.014 0 0-.301-.387-.113-.707 0-1 .103-.269.59-.927 1-1 2.009-.35 3.2 1.381 5 4 .012.018-.014-.017 0 0 .656.818 1.36 1.225 2 1 .799-.281 1-1.175 1-3v-1-16c0-1.166.333-2 1-2 .666 0 2 .834 2 2v15c0 .48.519 1 1 1 .48 0 1-.52 1-1v-7c0-1.166.333-2 1-2 .16 0-.161-.053 0 0 .026.011.973-.009 1 0 .473.186 0 1.161 0 2v8c0 .48.519 1 1 1 .48 0 1-.52 1-1v-6c0-1.166 1.333-2 2-2 .666 0 1 .834 1 2v7c0 .48.519 1 1 1 .48 0 1-.52 1-1v-5c0-1.167.335-2 1-2 .377 0 .746.761 1 1 .298.281 1 .482 1 1v5c0 .48.519 1 1 1 .48 0 0-.52 0-1v-5c0-2.18-1.418-3-3-3-.538 0-.522-.26-1 0-.393-1.555-1.668-2-3-2-.539 0-1.521-.26-2 0-.159-.628-.595-1.62-1-2 1.187-1.403 1.826-2.208 2-4h5c.4 1.861 2.02 3 4 3 2.275 0 4-1.722 4-4 0-2.28-1.725-4-4-4zM50 4c.774-.775 1.903-1 3-1 1.096 0 2.225.224 3 1 .776.775 1 1.902 1 3s-.223 2.224-1 3c-.775.776-1.904 1-3 1s-2.225-.222-3-1c-.776-.775-1-1.902-1-3s.224-2.225 1-3zM14 43c-1.766 1.021-4.032 1.528-6 1-1.97-.528-3.982-2.231-5-4-2.105-3.647-.646-7.892 3-10 1.175-.68 2.677-1 4-1 .662 0 1.343-.176 2 0 1.97.528 3.98 2.232 5 4 2.105 3.65.646 7.895-3 10zm30-20a7.281 7.281 0 0 1-2 5c-.19-.033-.808 0-1 0-.496 0-.55-.221-1 0v-5c0-2.18-2.418-3-4-3-1.583 0-3 .82-3 3v6c-1.85-.907-3.453-1.961-4-4-1.027-3.84 1.165-7.973 5-9 1.854-.498 4.335-.96 6 0 1.667.962 2.502 3.139 3 5 .164.611.997 1.386 1 2 0 .007 0-.007 0 0 0 .005 0-.005 0 0zm10 2c-1.318 0-2-.682-2-2 0-1.32.682-3 2-3 1.316 0 2 1.68 2 3 0 1.318-.684 2-2 2z"/></svg></svg><svg width="10" height="11" xmlns="http://www.w3.org/2000/svg" xmlns:xlink="http://www.w3.org/1999/xlink" xmlns:svgjs="http://svgjs.com/svgjs" viewBox="0 0.438 10 10.124" fill="#fff" x="374" y="492"><svg xmlns="http://www.w3.org/2000/svg" width="10" height="11" viewBox="0.497 0.927 9.006 9.118"><path paint-order="stroke fill markers" fill-rule="evenodd" d="M6 1c-1.137-.305-1.978.41-3 1C.896 3.217-.216 5.894 1 8c.589 1.02 1.863 1.695 3 2 .38.101.617 0 1 0 .764 0 1.32-.607 2-1 2.103-1.217 3.215-3.896 2-6-.589-1.022-1.863-1.695-3-2zm0 7c-.618.356-1.312.184-2 0s-.644-.383-1-1c-.736-1.275-.273-3.264 1-4 .412-.238.538 0 1 0 .231 0 .77-.062 1 0 .688.184.643.38 1 1 .735 1.274.273 3.264-1 4z"/></svg></svg></svg>