<svg width="154" height="90" xmlns="http://www.w3.org/2000/svg" xmlns:xlink="http://www.w3.org/1999/xlink" xmlns:svgjs="http://svgjs.com/svgjs" viewBox="79 54 154 90"><svg width="90" height="88" xmlns="http://www.w3.org/2000/svg" xmlns:xlink="http://www.w3.org/1999/xlink" xmlns:svgjs="http://svgjs.com/svgjs" viewBox="0 0.284 90 87.432" fill="#fff" x="143" y="54"><svg xmlns="http://www.w3.org/2000/svg" xmlns:xlink="http://www.w3.org/1999/xlink" width="90" height="88" viewBox="0.067 0.735 89.002 86.463"><path paint-order="stroke fill markers" fill-rule="evenodd" d="M87.434 42.89c-3.589 14.78-10.408 26.233-20.522 34.39-5.775 4.6-11.779 7.537-17.978 8.678-4.176.849-8.712 1.24-13.671 1.24H.067l3.954-15.987h33.134c4.927 0 8.81-.522 11.714-1.533 5.057-1.828 9.43-5.483 13.083-10.996 2.773-4.144 4.862-9.169 6.297-15.107 2.447-10.05 1.403-17.326-3.132-21.828-3.328-3.328-8.483-4.959-15.466-4.959H35.785s-2.382 9.755-4.242 17.39L16.6 20.083l4.144-17.782.293-1.273.065-.293h34.619c7.373 0 13.148.881 17.422 2.643 7.342 3.165 12.236 8.81 14.618 16.934 1.827 6.492 1.762 13.997-.327 22.578z"/></svg></svg><svg width="64" height="24" xmlns="http://www.w3.org/2000/svg" xmlns:xlink="http://www.w3.org/1999/xlink" xmlns:svgjs="http://svgjs.com/svgjs" viewBox="79 120 64 24" x="79" y="120"><svg width="64" height="24" xmlns="http://www.w3.org/2000/svg" xmlns:xlink="http://www.w3.org/1999/xlink" xmlns:svgjs="http://svgjs.com/svgjs" viewBox="79 120 64 24" x="79" y="120"><svg width="6" height="5" xmlns="http://www.w3.org/2000/svg" xmlns:xlink="http://www.w3.org/1999/xlink" xmlns:svgjs="http://svgjs.com/svgjs" viewBox="0.43 0 5.141 5" fill="#fff" x="86" y="139"><svg xmlns="http://www.w3.org/2000/svg" xmlns:xlink="http://www.w3.org/1999/xlink" width="6" height="5" viewBox="0.842 0.559 4.16 4.046"><path paint-order="stroke fill markers" fill-rule="evenodd" d="M4.958 2.484v.065C4.664 3.69 3.522 4.605 2.413 4.605c-1.142 0-1.794-.882-1.5-2.056 0-.033 0-.033.032-.065C1.206 1.407 2.315.559 3.392.559c1.109 0 1.794.848 1.566 1.925z"/></svg></svg><svg width="5" height="5" xmlns="http://www.w3.org/2000/svg" xmlns:xlink="http://www.w3.org/1999/xlink" xmlns:svgjs="http://svgjs.com/svgjs" viewBox="0 0.012 5 4.976" fill="#fff" x="133" y="120"><svg xmlns="http://www.w3.org/2000/svg" xmlns:xlink="http://www.w3.org/1999/xlink" width="5" height="5" viewBox="0.184 0.569 3.935 3.916"><path paint-order="stroke fill markers" fill-rule="evenodd" d="M4.059 2.527c-.26 1.044-1.306 1.958-2.35 1.958-1.076 0-1.729-.881-1.468-1.958C.502 1.417 1.58.569 2.656.569c1.044 0 1.664.849 1.403 1.958z"/></svg></svg><svg width="20" height="11" xmlns="http://www.w3.org/2000/svg" xmlns:xlink="http://www.w3.org/1999/xlink" xmlns:svgjs="http://svgjs.com/svgjs" viewBox="0 0.255 20 10.49" fill="#fff" x="79" y="129"><svg xmlns="http://www.w3.org/2000/svg" xmlns:xlink="http://www.w3.org/1999/xlink" width="20" height="11" viewBox="0.572 0.313 18.662 9.789"><path paint-order="stroke fill markers" fill-rule="evenodd" d="M19.234.313l-2.316 9.789H8.956C2.105 10.102-.44 7.394.93 1.587c.066-.295.131-.523.229-.784l.13-.49H4.91l-.228.62c-.033.131-.065.23-.098.36-.848 3.62-.261 5.71 5.416 5.71h4.079l1.599-6.69h3.556z"/></svg></svg><svg width="44" height="17" xmlns="http://www.w3.org/2000/svg" xmlns:xlink="http://www.w3.org/1999/xlink" xmlns:svgjs="http://svgjs.com/svgjs" viewBox="0 0.434 44 16.131" fill="#fff" x="99" y="123"><svg xmlns="http://www.w3.org/2000/svg" xmlns:xlink="http://www.w3.org/1999/xlink" width="44" height="17" viewBox="0.473 0.636 42.808 15.694"><path paint-order="stroke fill markers" fill-rule="evenodd" d="M43.281 6.313l-.098.523c-.163.945-.326 1.86-.521 2.708-.49 2.023-1.24 4.372-1.958 6.1l-.164.458h-4.47c-1.5 0-3.426-.196-4.176-1.632a5.821 5.821 0 0 1-4.274 1.86c-1.762 0-2.97-.62-3.459-1.762-.946 1.012-2.316 1.534-4.013 1.534H.473L4.193.636H7.75L4.748 13.002h9.592l2.023-7.863h3.556l-1.99 7.863h3.002c1.501 0 2.414-.522 3.067-3.295l.816-3.394h3.556l-.848 3.59c-.652 2.74-.033 3.295 1.24 3.295 1.011 0 2.088-.391 2.773-3.295l.848-3.59h3.492l-.816 3.492c-.652 2.642-.26 3.197 2.251 3.197h.75c.392-1.109.784-2.447.98-3.262.228-.98.423-1.926.555-2.84l.064-.587h3.622z"/></svg></svg><svg width="5" height="5" xmlns="http://www.w3.org/2000/svg" xmlns:xlink="http://www.w3.org/1999/xlink" xmlns:svgjs="http://svgjs.com/svgjs" viewBox="0 0.038 5 4.924" fill="#fff" x="129" y="124"><svg xmlns="http://www.w3.org/2000/svg" xmlns:xlink="http://www.w3.org/1999/xlink" width="5" height="5" viewBox="0.54 0.485 4.075 4.013"><path paint-order="stroke fill markers" fill-rule="evenodd" d="M4.558 2.475c-.294 1.142-1.338 2.023-2.48 2.023C.97 4.498.317 3.618.61 2.475.87 1.398 1.948.485 3.057.485c1.11 0 1.762.88 1.501 1.99z"/></svg></svg><svg width="5" height="5" xmlns="http://www.w3.org/2000/svg" xmlns:xlink="http://www.w3.org/1999/xlink" xmlns:svgjs="http://svgjs.com/svgjs" viewBox="0 0.048 5 4.904" fill="#fff" x="107" y="139"><svg xmlns="http://www.w3.org/2000/svg" xmlns:xlink="http://www.w3.org/1999/xlink" width="5" height="5" viewBox="0.463 0.787 4.125 4.046"><path paint-order="stroke fill markers" fill-rule="evenodd" d="M4.578 2.516c0 .066 0 .163-.032.261-.261 1.142-1.403 2.056-2.512 2.056-1.142 0-1.795-.881-1.501-2.056.032-.098.065-.195.097-.26.36-.98 1.338-1.73 2.382-1.73 1.012 0 1.664.75 1.566 1.73z"/></svg></svg><svg width="6" height="5" xmlns="http://www.w3.org/2000/svg" xmlns:xlink="http://www.w3.org/1999/xlink" xmlns:svgjs="http://svgjs.com/svgjs" viewBox="0.469 0 5.062 5" fill="#fff" x="134" y="124"><svg xmlns="http://www.w3.org/2000/svg" xmlns:xlink="http://www.w3.org/1999/xlink" width="6" height="5" viewBox="0.991 0.485 4.063 4.013"><path paint-order="stroke fill markers" fill-rule="evenodd" d="M4.997 2.475c-.261 1.11-1.338 2.023-2.448 2.023-1.109 0-1.762-.88-1.5-2.023.26-1.077 1.37-1.99 2.446-1.99 1.11 0 1.762.913 1.502 1.99z"/></svg></svg></svg></svg><svg width="67" height="71" xmlns="http://www.w3.org/2000/svg" xmlns:xlink="http://www.w3.org/1999/xlink" xmlns:svgjs="http://svgjs.com/svgjs" viewBox="0.051 0 66.899 71" fill="#fff" x="83" y="54"><svg xmlns="http://www.w3.org/2000/svg" xmlns:xlink="http://www.w3.org/1999/xlink" width="67" height="71" viewBox="0.704 0.774 65.51 69.526"><path paint-order="stroke fill markers" fill-rule="evenodd" d="M66.214 43.252L62.65 58.006H49.846L46.875 70.3H30.564l2.971-12.294H.705L4.27 43.252 40.805.774h19.18L23.409 43.252H37.1l2.746-11.331h16.311l-2.745 11.331h12.802z"/></svg></svg><svg width="48" height="52" xmlns="http://www.w3.org/2000/svg" xmlns:xlink="http://www.w3.org/1999/xlink" xmlns:svgjs="http://svgjs.com/svgjs" viewBox="146 72 48 52" x="146" y="72"><svg width="42" height="44" xmlns="http://www.w3.org/2000/svg" xmlns:xlink="http://www.w3.org/1999/xlink" xmlns:svgjs="http://svgjs.com/svgjs" viewBox="0 0.657 42 42.686" fill="#dd2e41" x="149" y="76"><svg xmlns="http://www.w3.org/2000/svg" xmlns:xlink="http://www.w3.org/1999/xlink" width="42" height="44" viewBox="0.113 0.774 41.617 42.297"><path paint-order="stroke fill markers" fill-rule="evenodd" d="M41.73 30.56L10.087.774.113 43.071 41.73 30.56z"/></svg></svg><svg width="27" height="27" xmlns="http://www.w3.org/2000/svg" xmlns:xlink="http://www.w3.org/1999/xlink" xmlns:svgjs="http://svgjs.com/svgjs" viewBox="0.217 0 26.566 27" fill="#dd2e41" opacity=".749" x="154" y="97"><svg xmlns="http://www.w3.org/2000/svg" xmlns:xlink="http://www.w3.org/1999/xlink" width="27" height="27" viewBox="0.825 0.606 25.825 26.247"><path paint-order="stroke fill markers" fill-rule="evenodd" d="M26.65 19.09L7.014.605.824 26.853l25.826-7.764z"/></svg></svg><svg width="16" height="17" xmlns="http://www.w3.org/2000/svg" xmlns:xlink="http://www.w3.org/1999/xlink" xmlns:svgjs="http://svgjs.com/svgjs" viewBox="0 0.369 16 16.261" fill="#dd2e41" opacity=".749" x="178" y="72"><svg xmlns="http://www.w3.org/2000/svg" xmlns:xlink="http://www.w3.org/1999/xlink" width="16" height="17" viewBox="0.213 0.971 15.625 15.88"><path paint-order="stroke fill markers" fill-rule="evenodd" d="M15.838 12.154L3.958.971.213 16.851l15.625-4.697z"/></svg></svg><svg width="30" height="30" xmlns="http://www.w3.org/2000/svg" xmlns:xlink="http://www.w3.org/1999/xlink" xmlns:svgjs="http://svgjs.com/svgjs" viewBox="0.241 0 29.518 30" fill="#dd2e41" opacity=".749" x="146" y="87"><svg xmlns="http://www.w3.org/2000/svg" xmlns:xlink="http://www.w3.org/1999/xlink" width="30" height="30" viewBox="0.809 0.529 28.725 29.194"><path paint-order="stroke fill markers" fill-rule="evenodd" d="M29.534 21.088L7.694.529.808 29.723l28.725-8.635z"/></svg></svg></svg><svg width="8" height="8" xmlns="http://www.w3.org/2000/svg" xmlns:xlink="http://www.w3.org/1999/xlink" xmlns:svgjs="http://svgjs.com/svgjs" viewBox="102 54 8 8" x="102" y="54"><svg width="8" height="8" xmlns="http://www.w3.org/2000/svg" xmlns:xlink="http://www.w3.org/1999/xlink" xmlns:svgjs="http://svgjs.com/svgjs" viewBox="0 0.043 8 7.915" fill="#fff" x="102" y="54"><svg xmlns="http://www.w3.org/2000/svg" width="8" height="8" viewBox="0.318 0.774 7.207 7.131"><path paint-order="stroke fill markers" fill-rule="evenodd" d="M7.525 4.365c0 .494-.092.96-.283 1.39a3.557 3.557 0 0 1-.768 1.124 3.583 3.583 0 0 1-1.138.75 3.558 3.558 0 0 1-1.398.276c-.498 0-.966-.092-1.41-.277a3.651 3.651 0 0 1-1.152-.749 3.563 3.563 0 0 1-.774-1.125 3.44 3.44 0 0 1-.284-1.389c0-.497.096-.962.284-1.399.19-.44.45-.818.774-1.14.328-.319.71-.578 1.153-.765A3.51 3.51 0 0 1 3.938.774c.493 0 .962.096 1.398.287a3.65 3.65 0 0 1 1.138.765c.322.322.58.7.768 1.14.191.437.283.902.283 1.4zm-.567 0c0-.42-.08-.82-.238-1.185a3.119 3.119 0 0 0-.647-.975 2.998 2.998 0 0 0-.956-.653 2.909 2.909 0 0 0-1.18-.24c-.42 0-.815.08-1.185.24A3.036 3.036 0 0 0 1.124 3.18c-.16.366-.239.765-.239 1.185 0 .41.08.8.239 1.17.156.369.376.69.656.965.278.274.603.488.972.647.37.16.765.239 1.186.239.42 0 .815-.08 1.179-.24A3.014 3.014 0 0 0 6.72 5.534c.159-.368.238-.757.238-1.168zM4.696 6.34l-.79-1.516h-.46V6.34h-1.12V2.23h1.771c.197 0 .398.022.599.064.2.042.382.111.545.213.166.1.296.233.395.402.102.169.153.376.153.618 0 .274-.077.507-.23.704-.152.195-.35.335-.592.418L6.009 6.34H4.696zM4.6 3.543a.32.32 0 0 0-.181-.303.822.822 0 0 0-.37-.092h-.602v.854h.602a.623.623 0 0 0 .386-.128.393.393 0 0 0 .165-.33z"/></svg></svg></svg></svg>