<svg width="423" height="585" xmlns="http://www.w3.org/2000/svg" xmlns:xlink="http://www.w3.org/1999/xlink" xmlns:svgjs="http://svgjs.com/svgjs" viewBox="216 192 423 585"><svg width="216" height="168" xmlns="http://www.w3.org/2000/svg" xmlns:xlink="http://www.w3.org/1999/xlink" xmlns:svgjs="http://svgjs.com/svgjs" viewBox="288 609 216 168" x="288" y="609"><svg width="216" height="147" xmlns="http://www.w3.org/2000/svg" xmlns:xlink="http://www.w3.org/1999/xlink" xmlns:svgjs="http://svgjs.com/svgjs" viewBox="0 0.435 216 146.13" fill="#6456c0" x="288" y="609"><svg xmlns="http://www.w3.org/2000/svg" xmlns:xlink="http://www.w3.org/1999/xlink" width="216" height="147" viewBox="0.456 0.95 214.706 145.255"><path paint-order="stroke fill markers" fill-rule="evenodd" d="M215.162 146.205h-76.53c-8.011-44.484-26.638-102.367-26.638-102.367-4.527-2.687-13.368.618-13.368.618L70.653 146.205H.737C-2.976 83.42 31.38 12.152 31.38 12.152l-.017-.016c-.114-.244-1.205-2.426-.911-3.892.114-.634 1.286-1.84 2.605-3.028 1.888-1.726 4.136-3.452 4.136-3.452L167.63.95s1.319.668 2.996 1.677h.016c2.85 1.726 6.709 4.396 6.709 6.35 0 2.687-1.059 4.429-1.32 4.82l-.064.081c27.968 52.783 39.195 132.327 39.195 132.327z"/></svg></svg><svg width="68" height="148" xmlns="http://www.w3.org/2000/svg" xmlns:xlink="http://www.w3.org/1999/xlink" xmlns:svgjs="http://svgjs.com/svgjs" viewBox="0.775 0 66.449 148" fill="#4b474b" opacity=".502" x="291" y="629"><svg xmlns="http://www.w3.org/2000/svg" xmlns:xlink="http://www.w3.org/1999/xlink" width="68" height="148" viewBox="0.955 0.193 66.245 147.544"><path paint-order="stroke fill markers" fill-rule="evenodd" d="M62.516 80.526c-9.375 40.631-29.664 70.54-45.39 66.913C1.4 143.81-3.734 108.035 5.64 67.404 15.014 26.773 35.303-3.137 51.03.49 66.755 4.12 71.89 39.895 62.515 80.526z"/></svg></svg><svg width="71" height="147" xmlns="http://www.w3.org/2000/svg" xmlns:xlink="http://www.w3.org/1999/xlink" xmlns:svgjs="http://svgjs.com/svgjs" viewBox="0.572 0 69.855 147" fill="#4b474b" opacity=".502" x="425" y="629"><svg xmlns="http://www.w3.org/2000/svg" xmlns:xlink="http://www.w3.org/1999/xlink" width="71" height="147" viewBox="0.838 0.193 69.419 146.081"><path paint-order="stroke fill markers" fill-rule="evenodd" d="M55.894 145.84c-15.541 4.355-37.198-24.58-48.45-64.732C-3.805 40.956-.34 4.981 15.202.626c15.54-4.355 37.198 24.58 48.45 64.732 11.25 40.152 7.783 76.127-7.757 80.482z"/></svg></svg><svg width="39" height="103" xmlns="http://www.w3.org/2000/svg" xmlns:xlink="http://www.w3.org/1999/xlink" xmlns:svgjs="http://svgjs.com/svgjs" viewBox="348 653 39 103" x="348" y="653"><svg width="39" height="103" xmlns="http://www.w3.org/2000/svg" xmlns:xlink="http://www.w3.org/1999/xlink" xmlns:svgjs="http://svgjs.com/svgjs" viewBox="0.288 0 38.424 103" fill="#9e8cef" x="348" y="653"><svg xmlns="http://www.w3.org/2000/svg" xmlns:xlink="http://www.w3.org/1999/xlink" width="39" height="103" viewBox="0.797 0.149 38.097 102.124"><path paint-order="stroke fill markers" fill-rule="evenodd" d="M1.6 102.273l-.803-.137C9.697 49.71 32.284 5.738 32.51 5.3l.094-.12L38.36.15l.535.614L33.2 5.742c-1.015 1.985-22.885 45.194-31.6 96.531z"/></svg></svg></svg><svg width="39" height="103" xmlns="http://www.w3.org/2000/svg" xmlns:xlink="http://www.w3.org/1999/xlink" xmlns:svgjs="http://svgjs.com/svgjs" viewBox="399 653 39 103" x="399" y="653"><svg width="39" height="103" xmlns="http://www.w3.org/2000/svg" xmlns:xlink="http://www.w3.org/1999/xlink" xmlns:svgjs="http://svgjs.com/svgjs" viewBox="0.287 0 38.427 103" fill="#9e8cef" x="399" y="653"><svg xmlns="http://www.w3.org/2000/svg" xmlns:xlink="http://www.w3.org/1999/xlink" width="39" height="103" viewBox="0.722 0.152 38.099 102.121"><path paint-order="stroke fill markers" fill-rule="evenodd" d="M38.02 102.273C29.298 50.899 6.825 7.27 5.814 5.331L.722.76l.543-.607 5.237 4.735c.233.443 23.42 44.82 32.319 97.25l-.802.136z"/></svg></svg></svg><svg width="150" height="147" xmlns="http://www.w3.org/2000/svg" xmlns:xlink="http://www.w3.org/1999/xlink" xmlns:svgjs="http://svgjs.com/svgjs" viewBox="0 0.536 150 145.927" fill="#ccf" opacity=".761" x="316" y="609"><svg xmlns="http://www.w3.org/2000/svg" xmlns:xlink="http://www.w3.org/1999/xlink" width="150" height="147" viewBox="0.042 0.95 149.309 145.255"><path paint-order="stroke fill markers" fill-rule="evenodd" d="M149.35 8.977c0 2.687-1.058 4.429-1.318 4.82l-.065.081c-27.16 6.139-47.821 31.49-47.821 31.49 14.8 28.397 39.484 100.837 39.484 100.837h-28.999c-8.01-44.484-26.637-102.367-26.637-102.367-4.527-2.687-13.368.618-13.368.618L42.653 146.205H24.547c6.48-42.628 25.612-94.666 25.612-94.666-18.806-21.9-46.78-39.387-46.78-39.387l-.016-.016-3.321-2.084 2.41-1.808c12.098 11.61 51.11 26.769 52.315 27.24L5.057 5.217C6.945 3.49 9.193 1.764 9.193 1.764L139.63.95s1.32.668 2.996 1.677L107 22.23l42.35-13.254z"/></svg></svg><svg width="17" height="41" xmlns="http://www.w3.org/2000/svg" xmlns:xlink="http://www.w3.org/1999/xlink" xmlns:svgjs="http://svgjs.com/svgjs" viewBox="0.622 0 15.757 41" fill="#ccf" opacity=".761" x="399" y="642"><svg xmlns="http://www.w3.org/2000/svg" xmlns:xlink="http://www.w3.org/1999/xlink" width="17" height="41" viewBox="0.994 0.959 15.226 39.618"><path paint-order="stroke fill markers" fill-rule="evenodd" d="M.994 10.838L16.219.959l-3.616 9.879-2.651 29.74-8.958-29.74z"/></svg></svg><svg width="51" height="40" xmlns="http://www.w3.org/2000/svg" xmlns:xlink="http://www.w3.org/1999/xlink" xmlns:svgjs="http://svgjs.com/svgjs" viewBox="0 0.131 51 39.739" fill="#ccf" opacity=".761" x="336" y="629"><svg xmlns="http://www.w3.org/2000/svg" xmlns:xlink="http://www.w3.org/1999/xlink" width="51" height="40" viewBox="0.812 0.194 49.814 38.815"><path paint-order="stroke fill markers" fill-rule="evenodd" d="M50.626 24.456l-15.86-8.971L.813.195 44.05 28.767l2.576 10.24 4-14.552z"/></svg></svg></svg><svg width="61" height="82" xmlns="http://www.w3.org/2000/svg" xmlns:xlink="http://www.w3.org/1999/xlink" xmlns:svgjs="http://svgjs.com/svgjs" viewBox="0.362 0 60.275 82" fill="#fe9083" x="370" y="301"><svg xmlns="http://www.w3.org/2000/svg" xmlns:xlink="http://www.w3.org/1999/xlink" width="61" height="82" viewBox="0.946 0.839 59.495 80.939"><path paint-order="stroke fill markers" fill-rule="evenodd" d="M60.262 46.576c.098.7.18 1.075.18 1.075a93.14 93.14 0 0 1-2.703 9.216c-3.192 9.167-7.165 15.68-10.144 19.734-2.59 3.5-4.429 5.178-4.429 5.178C19.41 74.322 7.703 51.087 3.21 39.526c-.032-.048-.049-.114-.065-.179a72.823 72.823 0 0 1-1.791-5.08v-.016c-.277-.912-.407-1.417-.407-1.417.098-.195.195-.407.293-.602l.049-.082c.39-.814.781-1.644 1.14-2.442A115.873 115.873 0 0 0 8.94 11.521c1.157-4.266 1.775-7.555 2.068-9.297.147-.896.212-1.385.212-1.385l11.072 5.846 38.15 20.19c-.57 3.5-.798 6.79-.815 9.672a60.681 60.681 0 0 0 .147 5.405c.114 1.89.31 3.387.456 4.364v.016c0 .098.016.163.032.244z"/></svg></svg><svg width="60" height="59" xmlns="http://www.w3.org/2000/svg" xmlns:xlink="http://www.w3.org/1999/xlink" xmlns:svgjs="http://svgjs.com/svgjs" viewBox="0 0.362 60 58.275" fill="#d5cdf8" x="371" y="333"><svg xmlns="http://www.w3.org/2000/svg" xmlns:xlink="http://www.w3.org/1999/xlink" width="60" height="59" viewBox="0.239 0.232 59.698 57.981"><path paint-order="stroke fill markers" fill-rule="evenodd" d="M48.679 52.335a32.733 32.733 0 0 1-7.88 5.764 1.23 1.23 0 0 1-.196.114s-.082-.049-.228-.13l-.016-.016c-.83-.505-3.664-2.247-7.474-5.113C22.92 45.448 6.28 30.273 1.525 9.822c-.016-.033-.016-.049-.032-.081a50.735 50.735 0 0 1-1.14-7.474v-.016A40.67 40.67 0 0 1 .239.23s3.305 7.767 9.037 16.153c6.74 9.867 16.852 20.63 28.933 20.695 10.454.065 15.81-7.083 18.53-13.677a37.312 37.312 0 0 0 2.198-7.49c.016-.017.016-.033.016-.033.114-.586.196-1.107.277-1.547v-.016c.032-.228.065-.423.081-.602.098-.733.13-1.157.13-1.157s4.006 25.01-10.762 39.778z"/></svg></svg><svg width="60" height="59" xmlns="http://www.w3.org/2000/svg" xmlns:xlink="http://www.w3.org/1999/xlink" xmlns:svgjs="http://svgjs.com/svgjs" viewBox="0 0.42 60 58.16" fill="#ccf" opacity=".502" x="371" y="333"><svg xmlns="http://www.w3.org/2000/svg" xmlns:xlink="http://www.w3.org/1999/xlink" width="60" height="59" viewBox="0.239 0.232 59.698 57.868"><path paint-order="stroke fill markers" fill-rule="evenodd" d="M48.679 52.335a32.733 32.733 0 0 1-7.88 5.764h-.196l-.228-.016-.016-.016c-.83-.505-3.664-2.247-7.474-5.113C22.92 45.448 6.28 30.273 1.525 9.822c-.016-.033-.016-.049-.032-.081a50.735 50.735 0 0 1-1.14-7.474v-.016A40.67 40.67 0 0 1 .239.23s3.305 7.767 9.037 16.153c0 0 6.578 18.073 20.809 27.028 7.131 4.478 12.537 3.827 16.51 1.189 3.973-2.621 6.545-7.196 8.06-10.649a25.04 25.04 0 0 0 2.084-9.085c.016-.537.016-1.026 0-1.465a37.312 37.312 0 0 0 2.198-7.49c.016-.017.016-.033.016-.033.114-.586.196-1.107.277-1.547v-.016c.032-.228.065-.423.081-.602.098-.733.13-1.157.13-1.157s4.006 25.01-10.762 39.778z"/></svg></svg><svg width="278" height="293" xmlns="http://www.w3.org/2000/svg" xmlns:xlink="http://www.w3.org/1999/xlink" xmlns:svgjs="http://svgjs.com/svgjs" viewBox="0.059 0 277.881 293" fill="#9e8cef" x="245" y="330"><svg xmlns="http://www.w3.org/2000/svg" xmlns:xlink="http://www.w3.org/1999/xlink" width="278" height="293" viewBox="0.471 0.708 277.093 292.169"><path paint-order="stroke fill markers" fill-rule="evenodd" d="M266.12 203c-.179.081-.26.13-.26.13-1.335.163-5.487-.75-10.926-5.455l-.016-.016c0-.016-.016-.033-.049-.049-.016-.016-.032-.048-.065-.065-4.559-3.99-10.03-10.648-15.484-21.558-10.91-21.802-14.036-36.358-14.54-38.898l-.066-.391-6.366 10.095c-4.315 12.977-12.488 66.676-12.342 68.988.147 2.312 7.246 13.58 7.1 14.964 0 0 0 .016-.017.032-.195 1.4-3.387 4.478-4.299 7.832-.618 2.23 3.713 9.265 6.758 14.524v.016c1.579 2.736 2.8 4.983 2.8 5.83 0 2.458-7.717 14.49-7.717 14.49v6.48l-.115.115-.358.326-.293.244c-2.93 2.312-15.354 9.883-54.171 11.967-45.998 2.459-76.641-12.342-76.641-12.342l2.312-6.333s-2.15-1.84-2.312-2.768c-.147-.928 1.693-3.094 1.693-3.094s-4.624-2.459-4.624-5.552c0-3.078 9.265-12.635 8.955-20.826-.309-8.173-7.408-15.419-8.336-20.043-.928-4.624 12.032-16.038 12.032-16.038-11.104-35.17-13.27-82.372-13.27-82.372l-2.149-2.475s-13.27 30.236-25.303 45.037a103.637 103.637 0 0 1-4.51 5.177 131.907 131.907 0 0 1-10.355 10.014c-8.337 7.262-15.908 12.033-17.83 11.658-3.093-.619-15.435-24.993-14.865-49.987.26-11.886 7.424-25.188 14.865-35.853.798-1.14 1.596-2.263 2.41-3.354 5.276-7.18 10.34-12.815 12.766-15.387.944-1.01 1.481-1.547 1.481-1.547s-1.693-5.455-2.85-10.193c-.015-.114-.048-.228-.08-.342a.572.572 0 0 0-.033-.162c-.016-.082-.033-.114-.033-.114-.684-2.915-1.107-5.439-.716-6.058 1.026-1.644 7.001-3.5 8.027-4.721 1.026-1.238 5.34-22.014 8.63-24.277 3.158-2.166 8.71-3.745 27.224-11.023.912-.359 1.84-.717 2.817-1.108 20.76-8.222 41.129-18.203 41.129-18.203l7.815-9.607h3.485l-1.14 2.442-.049.082a85.253 85.253 0 0 0 1.905 7.115c.016.065.033.13.065.18 10.747 33.9 38.394 44.825 38.394 44.825 19.213-14.182 18.839-36.7 18.839-36.7v-3.095l3.598 1.075 2.459 5.862s4.168 6.48 20.678 13.742c2.85 1.254 5.91 2.833 9.07 4.64 15.11 8.581 31.913 21.851 33.2 24.668.13.293.276.75.439 1.4v.017c1.774 6.969 5.422 33.07 8.808 42.383 2.117 5.813 5.455 9.02 7.914 10.68.016.017.016.017.032.017 1.824 1.254 3.159 1.645 3.159 1.645.26 1.433.505 2.85.733 4.25 7.083 44.646-6.383 74.947-9.412 77.064z"/></svg></svg><svg width="72" height="141" xmlns="http://www.w3.org/2000/svg" xmlns:xlink="http://www.w3.org/1999/xlink" xmlns:svgjs="http://svgjs.com/svgjs" viewBox="0.255 0 71.49 141" fill="#ccf" opacity=".502" x="262" y="370"><svg xmlns="http://www.w3.org/2000/svg" xmlns:xlink="http://www.w3.org/1999/xlink" width="72" height="141" viewBox="0.766 0.649 71.154 140.337"><path paint-order="stroke fill markers" fill-rule="evenodd" d="M71.92 78.722l-13.417 4.51-2.149-2.474s-13.27 30.236-25.303 45.037a103.756 103.756 0 0 1-4.51 5.177 131.907 131.907 0 0 1-10.355 10.014L5.96 96.91.766 63.45c5.276-7.18 10.34-12.815 12.765-15.387.945-1.01 1.482-1.547 1.482-1.547s-1.693-5.455-2.85-10.193c-.015-.114-.048-.228-.08-.342a.58.58 0 0 0-.033-.162c-.016-.082-.033-.114-.033-.114-.684-2.915-1.107-5.439-.716-6.058 1.026-1.644 7.001-3.5 8.027-4.721 1.026-1.238 5.34-22.014 8.63-24.277 0 0-2.15 19.945 9.264 45.248l5.553 7.816 16.25 13.058s6.17 8.19 12.895 11.951z"/></svg></svg><svg width="71" height="137" xmlns="http://www.w3.org/2000/svg" xmlns:xlink="http://www.w3.org/1999/xlink" xmlns:svgjs="http://svgjs.com/svgjs" viewBox="0.312 0 70.376 137" fill="#9e8cef" x="225" y="386"><svg xmlns="http://www.w3.org/2000/svg" xmlns:xlink="http://www.w3.org/1999/xlink" width="71" height="137" viewBox="0.474 0.019 70.183 136.625"><path paint-order="stroke fill markers" fill-rule="evenodd" d="M70.103 98.804c-2.882 21.379-34.747 37.84-34.747 37.84-7.099 0-15.028-12.342-22.225-27.566C5.934 93.854 5.495 50.12 5.12 47.417 4.73 44.714.724 39.308.48 36.997c-.228-2.313 6.48-7.1 6.48-7.1l-.049-.114-.049-.114c-.7-1.498-4.64-9.948-4.364-11.495.31-1.693 7.849-5.39 7.849-5.39l.472 8.32s17.552-3.32 23.495-16.917L35.356.02l2.931 1.954v17.894s.603 2.785 1.53 2.785c.929 0 7.767-3.42 9.2-2.947 1.45.472 2.866 10.046 4.787 11.267 1.905 1.237 7.002 4.787 7.767 6.48.342.765.374 3.517.407 6.757.049 3.973.081 8.663.667 11.3 1.092 4.771 10.34 21.9 7.458 43.295z"/></svg></svg><svg width="93" height="101" xmlns="http://www.w3.org/2000/svg" xmlns:xlink="http://www.w3.org/1999/xlink" xmlns:svgjs="http://svgjs.com/svgjs" viewBox="0.075 0 92.85 101" fill="#a999f1" x="495" y="433"><svg xmlns="http://www.w3.org/2000/svg" xmlns:xlink="http://www.w3.org/1999/xlink" width="93" height="101" viewBox="0.506 0.404 91.678 99.726"><path paint-order="stroke fill markers" fill-rule="evenodd" d="M91.54 33.486c-1.433 2.264-8.63 7.002-10.486 8.858-1.856 1.84 0 7.93 0 7.93C50.818 82.366 19.295 98.436 16.12 100c-.179.081-.26.13-.26.13C-3.125 87.365-1.497 66.344 4.804 48.629 10.83 31.63 21.152 17.676 21.608 17.074l.016-.017.016-.016c.342-.13 5.764-2.377 9.64-2.67 1.286-.098 2.458.407 3.565 1.107 2.312 1.433 4.266 3.696 6.155 2.752 2.784-1.4 9.004-16.103 13.221-16.51 2.947-.277 7.034 2.719 9.753 4.428 1.189.75 2.117 1.254 2.573 1.124C68.094 6.865 73.337.58 73.76.417c.407-.179 2.8 1.58 2.8 1.58L74.883 4.08C77.456 18.898 85.89 28.862 85.89 28.862l5.65-8.271s1.45 10.632 0 12.895z"/></svg></svg><svg width="53" height="58" xmlns="http://www.w3.org/2000/svg" xmlns:xlink="http://www.w3.org/1999/xlink" xmlns:svgjs="http://svgjs.com/svgjs" viewBox="0.617 0 51.766 58" fill="#cb4d7a" x="378" y="303"><svg xmlns="http://www.w3.org/2000/svg" xmlns:xlink="http://www.w3.org/1999/xlink" width="53" height="58" viewBox="0.94 0.224 51.403 57.594"><path paint-order="stroke fill markers" fill-rule="evenodd" d="M52.344 43.942c-.033.211-.065.423-.082.634-.081.44-.179.863-.309 1.303 0 0 0 .016-.016.033-1.938 7.18-9.77 14.524-19.653 10.99C21.489 53.044.94 9.521.94 9.521L3.01.224l48.765 39.728.537 3.762.033.228z"/></svg></svg><svg width="63" height="125" xmlns="http://www.w3.org/2000/svg" xmlns:xlink="http://www.w3.org/1999/xlink" xmlns:svgjs="http://svgjs.com/svgjs" viewBox="216 283 63 125" x="216" y="283"><svg width="47" height="90" xmlns="http://www.w3.org/2000/svg" xmlns:xlink="http://www.w3.org/1999/xlink" xmlns:svgjs="http://svgjs.com/svgjs" viewBox="0.057 0 46.886 90" fill="#ee8183" x="221" y="283"><svg xmlns="http://www.w3.org/2000/svg" xmlns:xlink="http://www.w3.org/1999/xlink" width="47" height="90" viewBox="0.627 0.926 46.331 88.936"><path paint-order="stroke fill markers" fill-rule="evenodd" d="M46.958 55.976s-2.982-16.453-1.645-28.588c1.336-12.134-.344-25.914-.344-25.914s-2.947-1.234-5.106 0c-2.16 1.235-7.199 13.78-4.937 23.857 2.263 10.079.515 34.245.515 34.245h-3.394l-7.403-10.181-3.6-1.028S.323 67.907.63 79.527l2.708 10.334 25.521-.874 16.66-19.024 1.44-13.987z"/></svg></svg><svg width="30" height="37" xmlns="http://www.w3.org/2000/svg" xmlns:xlink="http://www.w3.org/1999/xlink" xmlns:svgjs="http://svgjs.com/svgjs" viewBox="0 0.175 30 36.65" fill="#ffc2a9" x="216" y="331"><svg xmlns="http://www.w3.org/2000/svg" xmlns:xlink="http://www.w3.org/1999/xlink" width="30" height="37" viewBox="0 0.366 29.487 36.024"><path paint-order="stroke fill markers" fill-rule="evenodd" d="M26.044.367s.535 12.958 3.443 24.064c0 0-.486 4.55-5.81 4.859l-1.31-1.466s-.925 5.168-5.63 5.553l-4.473-4.473 1.156 3.703S11.8 36.54 7.558 36.386c0 0-7.094-5.554-7.558-12.803l7.016-5.94v-4.55l8.333-5.86.153-3.318S20.387.29 26.044.367z"/></svg></svg><svg width="28" height="61" xmlns="http://www.w3.org/2000/svg" xmlns:xlink="http://www.w3.org/1999/xlink" xmlns:svgjs="http://svgjs.com/svgjs" viewBox="0.25 0 27.499 61" fill="#ffeadb" opacity=".6" x="239" y="306"><svg xmlns="http://www.w3.org/2000/svg" xmlns:xlink="http://www.w3.org/1999/xlink" width="28" height="61" viewBox="0.987 0.907 26.882 59.63"><path paint-order="stroke fill markers" fill-rule="evenodd" d="M27.61.907s-1.248 3.173-3.022 4.407c-1.774 1.234-6.913 2.179-6.913 2.179l-.234 29.083h-3.394L6.644 26.395s3.753 5.811 3.984 10.181l-2.93 1.44L5.151 29.3l-1.206 6.273 1.2 7.804s4.39-3.777 12.333-3.932l1.196 2.17S4.304 53.519.987 60.538c0 0 7.096-9.023 23.292-18.973l1.544-4.783 2.046-11.415S25.93 8.914 27.61.906z"/></svg></svg><svg width="55" height="96" xmlns="http://www.w3.org/2000/svg" xmlns:xlink="http://www.w3.org/1999/xlink" xmlns:svgjs="http://svgjs.com/svgjs" viewBox="0 0.373 55 95.254" fill="#ffc2a9" x="224" y="312"><svg xmlns="http://www.w3.org/2000/svg" xmlns:xlink="http://www.w3.org/1999/xlink" width="55" height="96" viewBox="0.184 0.51 54.619 94.594"><path paint-order="stroke fill markers" fill-rule="evenodd" d="M54.658 45.59c-1.336 4.006-15.322 20.662-16.869 24.277-1.547 3.599-2.475 8.32-2.475 8.32C28.443 93.053 11.82 95.105 11.82 95.105l-.766-13.417S2.115 76.543.6 73.726l-.016-.049-.179-.472C-.051 70.584.34 60.863.34 60.863l15.647-6.334c6.79-8.792 23.3-18.969 23.3-18.969l.765-4.608C28.2 25.123 35.786 12.474 37.79 10.31 39.792 8.159 44.986.51 44.986.51s-2.768 16.847 0 23.49c2.784 6.627 11.007 17.585 9.672 21.59z"/></svg></svg><svg width="8" height="25" xmlns="http://www.w3.org/2000/svg" xmlns:xlink="http://www.w3.org/1999/xlink" xmlns:svgjs="http://svgjs.com/svgjs" viewBox="0.331 0 7.338 25" fill="#e28183" x="231" y="334"><svg xmlns="http://www.w3.org/2000/svg" xmlns:xlink="http://www.w3.org/1999/xlink" width="8" height="25" viewBox="0.349 0.915 7.018 23.909"><path paint-order="stroke fill markers" fill-rule="evenodd" d="M.502.915s1.749 16.196 6.865 23.91c0 0-6.505-8.073-7.018-20.593L.502.915z"/></svg></svg><svg width="10" height="21" xmlns="http://www.w3.org/2000/svg" xmlns:xlink="http://www.w3.org/1999/xlink" xmlns:svgjs="http://svgjs.com/svgjs" viewBox="0 0.067 10 20.866" fill="#e28183" x="223" y="344"><svg xmlns="http://www.w3.org/2000/svg" xmlns:xlink="http://www.w3.org/1999/xlink" width="10" height="21" viewBox="0.016 0.094 9.721 20.283"><path paint-order="stroke fill markers" fill-rule="evenodd" d="M.016.094s1.7 13.034 9.72 20.283c0 0-7.102-3.548-9.72-15.734V.093z"/></svg></svg><svg width="29" height="30" xmlns="http://www.w3.org/2000/svg" xmlns:xlink="http://www.w3.org/1999/xlink" xmlns:svgjs="http://svgjs.com/svgjs" viewBox="0 0.607 29 28.786" fill="#d1a1d6" opacity=".91" x="235" y="378"><svg xmlns="http://www.w3.org/2000/svg" xmlns:xlink="http://www.w3.org/1999/xlink" width="29" height="30" viewBox="0.054 0.414 28.904 28.691"><path paint-order="stroke fill markers" fill-rule="evenodd" d="M28.958.414S11.316 17.54.054 15.688l.765 13.417s18.513-1.619 24.53-21.092c0 0 2.165-5.598 3.609-7.6z"/></svg></svg></svg><svg width="98" height="124" xmlns="http://www.w3.org/2000/svg" xmlns:xlink="http://www.w3.org/1999/xlink" xmlns:svgjs="http://svgjs.com/svgjs" viewBox="541 340 98 124" x="541" y="340"><svg width="96" height="124" xmlns="http://www.w3.org/2000/svg" xmlns:xlink="http://www.w3.org/1999/xlink" xmlns:svgjs="http://svgjs.com/svgjs" viewBox="0 0.291 96 123.419" fill="#ffc2a9" x="541" y="340"><svg xmlns="http://www.w3.org/2000/svg" xmlns:xlink="http://www.w3.org/1999/xlink" width="96" height="124" viewBox="0.263 0.166 95.623 122.933"><path paint-order="stroke fill markers" fill-rule="evenodd" d="M95.885 61.699s-16.2 29.618-35.17 38.72h-6.48l-14.964 22.68s-9.671-6.073-10.387-26.018c0 0 3.386-3.534 4.217-7.523 0 0-5.341-4.201-6.79-7.278-1.433-3.094-1.954-12.342-2.98-16.152-1.026-3.81-9.77-11.724-11.723-12.75C9.654 52.354.813 51.833.813 51.833s-1.238-3.192 0-4.722c1.237-1.547 15.012-6.904 22.518-1.758 0 0 .521 3.907 1.335 5.975.83 2.052 7.409 9.346 8.435 9.346 1.025 0 5.454-3.696 7.408-6.578 1.872-2.768 11.82-24.212 14.23-31.457a.812.812 0 0 1 .066-.212c.032-.114.081-.228.098-.326.032-.08.048-.146.065-.211.016-.033.032-.05.032-.082C56.856 15.54 67.651 3.506 73.416.217c0 0 2.458-.619 3.793 2.458 0 0-4.624 13.173-9.46 20.989-.814 1.318-1.693 2.865-2.605 4.526h-.016c-4.12 7.571-8.76 17.487-9.428 18.936l-.081.18 2.573 1.318 6.952-6.594 7.132-6.757L88.64 52.548 87.028 54.6l-5.113 6.562 2.589.472 6.024-6.66 5.357 6.725z"/></svg></svg><svg width="60" height="62" xmlns="http://www.w3.org/2000/svg" xmlns:xlink="http://www.w3.org/1999/xlink" xmlns:svgjs="http://svgjs.com/svgjs" viewBox="0.056 0 59.888 62" fill="#ffeadb" opacity=".6" x="574" y="362"><svg xmlns="http://www.w3.org/2000/svg" xmlns:xlink="http://www.w3.org/1999/xlink" width="60" height="62" viewBox="0.101 0.638 58.994 61.075"><path paint-order="stroke fill markers" fill-rule="evenodd" d="M59.095 45.996l-5.177 7.607S25.501 31.688 19.33 29.833c-6.171-1.857-8.434-.62-8.434-.62l-6.367 8.125s11.724 10.388 12.75 24.375c0 0-3.908-17.683-17.178-23.04 1.025 0 5.454-3.696 7.408-6.578C9.38 29.327 19.329 7.883 21.739.638c-.325 1.237-.748 3.647.261 5.552 1.4 2.589 9.64.147 10.128 0h.016L22.7 25.126l-.081.18 2.573 1.318 6.952-6.594-3.484 8.092L54.028 32.6l-5.113 6.562 2.589.472 7.59 6.362z"/></svg></svg><svg width="30" height="28" xmlns="http://www.w3.org/2000/svg" xmlns:xlink="http://www.w3.org/1999/xlink" xmlns:svgjs="http://svgjs.com/svgjs" viewBox="0.171 0 29.659 28" fill="#ffb0b0" x="601" y="375"><svg xmlns="http://www.w3.org/2000/svg" xmlns:xlink="http://www.w3.org/1999/xlink" width="30" height="28" viewBox="0.145 0.253 29 27.378"><path paint-order="stroke fill markers" fill-rule="evenodd" d="M12.28.278s4.937-.72 8.126 5.656l-.722 2.056s4.812.943 9.462 8.741c0 0-4.113 7.508-14.294 10.9 0 0-4.73-1.336-5.553-5.346l.925-2.571-3.702 2.776S2.099 23.827.145 17.245L12.281.278z"/></svg></svg><svg width="15" height="16" xmlns="http://www.w3.org/2000/svg" xmlns:xlink="http://www.w3.org/1999/xlink" xmlns:svgjs="http://svgjs.com/svgjs" viewBox="0.111 0 14.778 16" fill="#ffb0b0" x="624" y="391"><svg xmlns="http://www.w3.org/2000/svg" xmlns:xlink="http://www.w3.org/1999/xlink" width="15" height="16" viewBox="0.592 0.835 13.868 15.014"><path paint-order="stroke fill markers" fill-rule="evenodd" d="M14.373 8.65s1.028-4.73-4.012-7.815L.591 11.632s.297 3.462 4.526 4.217c0 0 6.685-2.263 9.256-7.198z"/></svg></svg><svg width="29" height="30" xmlns="http://www.w3.org/2000/svg" xmlns:xlink="http://www.w3.org/1999/xlink" xmlns:svgjs="http://svgjs.com/svgjs" viewBox="0.049 0 28.901 30" fill="#d1a1d6" opacity=".91" x="567" y="422"><svg xmlns="http://www.w3.org/2000/svg" xmlns:xlink="http://www.w3.org/1999/xlink" width="29" height="30" viewBox="0.311 0.28 27.924 28.986"><path paint-order="stroke fill markers" fill-rule="evenodd" d="M.31.28S11.63 12.91 28.236 18.419l-7.156 10.847L6.143 10.302l.958-2.744S1.13 3.068.31.28z"/></svg></svg><svg width="13" height="16" xmlns="http://www.w3.org/2000/svg" xmlns:xlink="http://www.w3.org/1999/xlink" xmlns:svgjs="http://svgjs.com/svgjs" viewBox="0 0.603 13 14.795" fill="#e28183" x="610" y="382"><svg xmlns="http://www.w3.org/2000/svg" xmlns:xlink="http://www.w3.org/1999/xlink" width="13" height="16" viewBox="0.299 0.99 12.56 14.294"><path paint-order="stroke fill markers" fill-rule="evenodd" d="M10.684.99s-4.73 7.816-9.46 11.724L.3 15.285S9.481 9.088 12.86 1.928c0 0-1.094-.783-2.175-.938z"/></svg></svg></svg><svg width="119" height="139" xmlns="http://www.w3.org/2000/svg" xmlns:xlink="http://www.w3.org/1999/xlink" xmlns:svgjs="http://svgjs.com/svgjs" viewBox="0.169 0 118.661 139" fill="#ccf" opacity=".502" x="469" y="395"><svg xmlns="http://www.w3.org/2000/svg" xmlns:xlink="http://www.w3.org/1999/xlink" width="119" height="139" viewBox="0.714 0.544 117.47 137.604"><path paint-order="stroke fill markers" fill-rule="evenodd" d="M117.54 71.486c-1.433 2.264-8.63 7.002-10.486 8.858-1.856 1.84 0 7.93 0 7.93C76.818 120.366 45.295 136.436 42.12 138c-.179.081-.26.13-.26.13-2.475.31-14.508-3.077-26.54-27.143C4.41 89.185 1.284 74.63.78 72.09l-.066-.391L3.368 68.1l3.94-44.419 2.769 8.94C20.563 19.969 30.447.544 30.447.544l.439 1.4v.017c1.774 6.969 5.422 33.07 8.808 42.383 2.117 5.813 5.455 9.02 7.914 10.68l.016.033-.016.017c-9.656 8.808-14.443 21.476-16.804 31.555-2.165 9.248-2.312 16.331-2.312 16.331s2.67-12.537 11.105-27.615c3.06-5.487 7.522-10.388 11.935-14.41a95.849 95.849 0 0 1 9.313-7.457c2.312 1.433 4.266 3.696 6.155 2.752-12.7 19.066-12.391 56.809-.456 49.612 11.919-7.197 14.648-22.471 14.648-22.471-2.817-18.61-1.977-39.602.286-43.591 2.747.091 10.613 5.622 11.069 5.492-.716 21.9 9.574 36.521 9.574 36.521l6.79-10.502c-9.884-16.657-9.151-32.874-9.151-32.874.407-.179 2.8 1.58 2.8 1.58l-1.676 2.084c2.572 14.817 11.006 24.781 11.006 24.781l5.65-8.271s1.45 10.632 0 12.895z"/></svg></svg><svg width="231" height="236" xmlns="http://www.w3.org/2000/svg" xmlns:xlink="http://www.w3.org/1999/xlink" xmlns:svgjs="http://svgjs.com/svgjs" viewBox="0 0.115 231 235.77" fill="#ccf" opacity=".502" x="225" y="387"><svg xmlns="http://www.w3.org/2000/svg" xmlns:xlink="http://www.w3.org/1999/xlink" width="231" height="236" viewBox="0.479 0.973 230.151 234.904"><path paint-order="stroke fill markers" fill-rule="evenodd" d="M230.63 216.47v6.48l-.114.114-.358.326-.293.244c-2.931 2.312-15.354 9.883-54.171 11.967-45.998 2.459-76.641-12.342-76.641-12.342l2.312-6.333s-2.15-1.84-2.312-2.768c-.147-.928 1.693-3.094 1.693-3.094s-4.624-2.459-4.624-5.552c0-2.785 7.555-10.844 8.776-18.416.147-.814.212-1.612.18-2.41-.31-8.14-7.344-15.354-8.321-19.978-.016-.049-.016-.065-.016-.065-.928-4.624 12.032-16.038 12.032-16.038-11.104-35.17-13.27-82.372-13.27-82.372l-2.15-2.475s-13.27 30.236-25.302 45.037c-12.033 14.816-29.617 27.468-32.695 26.85-7.099 0-15.028-12.343-22.225-27.567C5.934 92.854 5.495 49.12 5.12 46.417 4.73 43.714.724 38.308.48 35.997c7.717 13.27 20.01 9.362 20.01 9.362-8.906.195-13.53-16.462-13.53-16.462l-.049-.114-.049-.114L2.515 17.19c.488.554 10.665 11.935 20.5 4.917C33.092 14.911 38.286.973 38.286.973v17.894s.603 2.785 1.53 2.785c-.602 8.238-2.344 18.268-4.46 28.152-4.576 21.378-10.845 42.024-10.845 42.024s16.999-9.248 22.975-32.694c2.849-11.219 3.321-20.972 3.044-28.071-.244-6.074-1.042-10.226-1.367-11.74-.016-.114-.05-.228-.082-.342a.58.58 0 0 0-.032-.162c0-.033-.017-.066-.017-.082l1.645 3.484 3.126 7.751c3.631 30.09-3.859 75.436-3.859 75.436 10.91-13.58 13.173-43.604 12.7-50.899-.211-3.484-.488-7.782-.667-11.3-.244-3.842-.407-6.757-.407-6.757l22.323 13.32-4.12-13.06 16.25 13.06s14.606 17.584 29.618 19.636c15.012 2.068 70.128.83 70.128.83s-47.919 3.077-61.906 7.197c-13.986 4.12-16.657 8.841-16.657 8.841 10.112 51.436 66.074 68.777 67.817 69.298-50.769-7.62-74.394-50.785-74.394-50.785s-.831 24.277 3.077 33.525c3.908 9.249 26.947 31.881 56.565 36.603 2.49.39 4.95.635 7.375.749 24.978 1.173 45.656-11.593 47.773-12.96.114-.082.18-.114.18-.114s-.017.032-.05.08c-.798 1.222-11.04 15.615-52.396 17.195-2.508.098-4.95.081-7.327-.017h-.033c-38.329-1.611-57.851-27.142-57.851-27.142s-14.182 7.62-5.129 18.92c.098.114.195.244.293.358 2.67 3.077 8.548 6.839 15.5 10.714.196.114.392.228.57.326 8.402 4.64 18.253 9.427 25.873 13.384a.784.784 0 0 1 .114.049c4.657 2.426 8.483 4.51 10.616 6.073.017 0 .017.016.017.016 2.149 1.563 2.589 2.573.488 2.817-10.697 1.238-51.208-7.604-52.852-5.145-1.645 2.475 2.002 8.841 2.002 8.841 37.19 18.432 116.761 9.346 119.268 9.07-66.594 17.047-121.075-4.543-121.075-4.543l1.807 6.382s29.667 10.274 64.625 11.105c34.974.814 56.777-8.125 56.777-8.125l3.793-6.48z"/></svg></svg><svg width="45" height="20" xmlns="http://www.w3.org/2000/svg" xmlns:xlink="http://www.w3.org/1999/xlink" xmlns:svgjs="http://svgjs.com/svgjs" viewBox="0.236 0 44.529 20" fill="#ccedff" opacity=".502" x="428" y="457"><svg xmlns="http://www.w3.org/2000/svg" xmlns:xlink="http://www.w3.org/1999/xlink" width="45" height="20" viewBox="0.382 0.033 43.992 19.759"><path paint-order="stroke fill markers" fill-rule="evenodd" d="M.382.033S26.87 1.473 44.374 6.1l-9.028 13.692S21.772 7.848.382.032z"/></svg></svg><svg width="66" height="29" xmlns="http://www.w3.org/2000/svg" xmlns:xlink="http://www.w3.org/1999/xlink" xmlns:svgjs="http://svgjs.com/svgjs" viewBox="0 0.13 66 28.74" fill="#ccedff" opacity=".502" x="388" y="530"><svg xmlns="http://www.w3.org/2000/svg" xmlns:xlink="http://www.w3.org/1999/xlink" width="66" height="29" viewBox="0.482 0.041 64.651 28.152"><path paint-order="stroke fill markers" fill-rule="evenodd" d="M65.133.041S48.609 13.826 32.36 20.202C16.113 26.578.481 27.194.481 27.194s9.342 2.777 32.326-.925c22.984-3.703 30.849-16.15 30.849-16.15L65.133.04z"/></svg></svg><svg width="70" height="26" xmlns="http://www.w3.org/2000/svg" xmlns:xlink="http://www.w3.org/1999/xlink" xmlns:svgjs="http://svgjs.com/svgjs" viewBox="0 0.258 70 25.484" fill="#ccedff" opacity=".502" x="391" y="560"><svg xmlns="http://www.w3.org/2000/svg" xmlns:xlink="http://www.w3.org/1999/xlink" width="70" height="26" viewBox="0.476 0.777 69.072 25.146"><path paint-order="stroke fill markers" fill-rule="evenodd" d="M69.548 23.133v.016C38.969 31.046.152 19.714.478 18.33c.326-1.383 10.632.62 34.535-4.168C58.183 9.521 66.584 1.282 67.089.777c-.195 1.4-3.387 4.478-4.299 7.832-.618 2.23 3.713 9.265 6.758 14.524z"/></svg></svg><svg width="92" height="78" xmlns="http://www.w3.org/2000/svg" xmlns:xlink="http://www.w3.org/1999/xlink" xmlns:svgjs="http://svgjs.com/svgjs" viewBox="0.259 0 91.483 78" fill="#ccedff" opacity=".502" x="286" y="423"><svg xmlns="http://www.w3.org/2000/svg" xmlns:xlink="http://www.w3.org/1999/xlink" width="92" height="78" viewBox="0.571 0.452 90.92 77.52"><path paint-order="stroke fill markers" fill-rule="evenodd" d="M91.491 38.178c-26.116 2.654-33.15 9.932-33.15 9.932-7.344.929-23.838-17.877-23.838-17.877l-2.149-2.475S19.084 57.994 7.051 72.795a103.756 103.756 0 0 1-4.51 5.177l1.71-3.842s2.8-1.335 3.614-16.038c.83-14.687-6.17-36.603-6.22-39.583C1.597 15.53.571.452.571.452l22.323 13.32-4.12-13.06 16.25 13.06s6.367 9.573 22.437 17.552c15.16 7.538 32.158 6.936 34.03 6.854z"/></svg></svg><svg width="41" height="60" xmlns="http://www.w3.org/2000/svg" xmlns:xlink="http://www.w3.org/1999/xlink" xmlns:svgjs="http://svgjs.com/svgjs" viewBox="0.163 0 40.675 60" fill="#ccedff" opacity=".502" x="318" y="448"><svg xmlns="http://www.w3.org/2000/svg" xmlns:xlink="http://www.w3.org/1999/xlink" width="41" height="60" viewBox="0.354 0.726 39.836 58.763"><path paint-order="stroke fill markers" fill-rule="evenodd" d="M.354 2.758L15.914.726s6.22 4.12 18.703 9.2l-10.41 15.35s4.13 21.882 15.983 34.213c0 0-31.459-17.473-35.881-32.166L.354 2.758z"/></svg></svg><svg width="37" height="46" xmlns="http://www.w3.org/2000/svg" xmlns:xlink="http://www.w3.org/1999/xlink" xmlns:svgjs="http://svgjs.com/svgjs" viewBox="0 0.039 37 45.921" fill="#ccedff" opacity=".502" x="227" y="387"><svg xmlns="http://www.w3.org/2000/svg" xmlns:xlink="http://www.w3.org/1999/xlink" width="37" height="46" viewBox="0.515 0.973 35.772 44.397"><path paint-order="stroke fill markers" fill-rule="evenodd" d="M.515 17.19L4.96 28.897s4.535 15.8 13.53 16.462c8.997.66 17.797-26.492 17.797-26.492V.973s-9.57 20.52-19.907 22.834C6.046 26.121.515 17.19.515 17.19z"/></svg></svg><svg width="19" height="46" xmlns="http://www.w3.org/2000/svg" xmlns:xlink="http://www.w3.org/1999/xlink" xmlns:svgjs="http://svgjs.com/svgjs" viewBox="0.405 0 18.19 46" fill="#ccedff" opacity=".502" x="281" y="370"><svg xmlns="http://www.w3.org/2000/svg" xmlns:xlink="http://www.w3.org/1999/xlink" width="19" height="46" viewBox="0.328 0.649 17.893 45.249"><path paint-order="stroke fill markers" fill-rule="evenodd" d="M.328 24.926s8.02 16.036 17.893 20.971c0 0-11.74-28.487-9.263-45.248 0 0-4.315 2.686-8.63 24.277z"/></svg></svg><svg width="13" height="83" xmlns="http://www.w3.org/2000/svg" xmlns:xlink="http://www.w3.org/1999/xlink" xmlns:svgjs="http://svgjs.com/svgjs" viewBox="0.395 0 12.21 83" fill="#ccf" opacity=".761" x="469" y="418"><svg xmlns="http://www.w3.org/2000/svg" xmlns:xlink="http://www.w3.org/1999/xlink" width="13" height="83" viewBox="0.78 0.681 12.106 82.291"><path paint-order="stroke fill markers" fill-rule="evenodd" d="M7.309.681l2.768 8.94 2.808 73.351S5.773 69.017.78 49.09l2.593-3.99S7.726 17.452 7.31.682z"/></svg></svg><svg width="17" height="44" xmlns="http://www.w3.org/2000/svg" xmlns:xlink="http://www.w3.org/1999/xlink" xmlns:svgjs="http://svgjs.com/svgjs" viewBox="0.616 0 15.767 44" fill="#ccf" opacity=".502" x="560" y="440"><svg xmlns="http://www.w3.org/2000/svg" xmlns:xlink="http://www.w3.org/1999/xlink" width="17" height="44" viewBox="0.645 0.272 15.409 43.002"><path paint-order="stroke fill markers" fill-rule="evenodd" d="M1.547.272S-.02 36.305 15.294 39.422l.76 3.852S-3.756 42.539 1.547.272z"/></svg></svg><svg width="33" height="34" xmlns="http://www.w3.org/2000/svg" xmlns:xlink="http://www.w3.org/1999/xlink" xmlns:svgjs="http://svgjs.com/svgjs" viewBox="0 0.482 33 33.036" fill="#ccf" opacity=".302" x="503" y="448"><svg xmlns="http://www.w3.org/2000/svg" xmlns:xlink="http://www.w3.org/1999/xlink" width="33" height="34" viewBox="0.162 0.478 32.838 32.874"><path paint-order="stroke fill markers" fill-rule="evenodd" d="M33 3.23s-.586 1.29-6.155-2.752c0 0-19.264 13.643-26.683 32.874 0 0 11.873-17.668 18.19-19.58 6.318-1.91 7.843 5.141 7.843 5.141S28.695 8.979 33 3.23z"/></svg></svg><svg width="22" height="14" xmlns="http://www.w3.org/2000/svg" xmlns:xlink="http://www.w3.org/1999/xlink" xmlns:svgjs="http://svgjs.com/svgjs" viewBox="0 0.705 22 12.591" fill="#ccedff" opacity=".502" x="225" y="422"><svg xmlns="http://www.w3.org/2000/svg" xmlns:xlink="http://www.w3.org/1999/xlink" width="22" height="14" viewBox="0.441 0.996 21.333 12.209"><path paint-order="stroke fill markers" fill-rule="evenodd" d="M.48.996S7.89 14.657 21.774 10.37c0 0-8.32 5.61-16.654 1.047 0 0-5.175-8.879-4.64-10.42z"/></svg></svg><svg width="23" height="68" xmlns="http://www.w3.org/2000/svg" xmlns:xlink="http://www.w3.org/1999/xlink" xmlns:svgjs="http://svgjs.com/svgjs" viewBox="0.192 0 22.616 68" fill="#ccf" opacity=".502" x="257" y="405"><svg xmlns="http://www.w3.org/2000/svg" xmlns:xlink="http://www.w3.org/1999/xlink" width="23" height="68" viewBox="0.624 0.705 22.19 66.72"><path paint-order="stroke fill markers" fill-rule="evenodd" d="M17.017.705S27.207 38.803.624 67.425c0 0 17.266-8.863 21.179-29.379C25.715 17.53 17.017.705 17.017.705z"/></svg></svg><svg width="37" height="51" xmlns="http://www.w3.org/2000/svg" xmlns:xlink="http://www.w3.org/1999/xlink" xmlns:svgjs="http://svgjs.com/svgjs" viewBox="0.47 0 36.059 51" fill="#ccedff" opacity=".502" x="422" y="375"><svg xmlns="http://www.w3.org/2000/svg" xmlns:xlink="http://www.w3.org/1999/xlink" width="37" height="51" viewBox="0.623 0.253 35.499 50.208"><path paint-order="stroke fill markers" fill-rule="evenodd" d="M34.607.253s-1.148 17.2-9.39 29.538C16.973 42.131.623 50.461.623 50.461s20.516-7.558 29.925-18.202c9.41-10.643 4.06-32.006 4.06-32.006z"/></svg></svg><svg width="54" height="70" xmlns="http://www.w3.org/2000/svg" xmlns:xlink="http://www.w3.org/1999/xlink" xmlns:svgjs="http://svgjs.com/svgjs" viewBox="0.237 0 53.525 70" fill="#ccedff" opacity=".502" x="348" y="349"><svg xmlns="http://www.w3.org/2000/svg" xmlns:xlink="http://www.w3.org/1999/xlink" width="54" height="70" viewBox="0.101 0.377 52.988 69.298"><path paint-order="stroke fill markers" fill-rule="evenodd" d="M3.666.377s0 14.381 4.63 29.037c4.626 14.655 44.793 40.26 44.793 40.26S11.69 52.477 3.666 37.014c-8.02-15.465 0-36.636 0-36.636z"/></svg></svg><svg width="117" height="39" xmlns="http://www.w3.org/2000/svg" xmlns:xlink="http://www.w3.org/1999/xlink" xmlns:svgjs="http://svgjs.com/svgjs" viewBox="0 0.651 117 37.697" fill="#8642a0" x="350" y="419"><svg xmlns="http://www.w3.org/2000/svg" xmlns:xlink="http://www.w3.org/1999/xlink" width="117" height="39" viewBox="0.179 0.781 116.401 37.504"><path paint-order="stroke fill markers" fill-rule="evenodd" d="M.179 1.923l1.906 36.363s53.8-3.5 114.495-.444l-.338-32.8S63.255-1.882.18 1.923z"/></svg></svg><svg width="76" height="69" xmlns="http://www.w3.org/2000/svg" xmlns:xlink="http://www.w3.org/1999/xlink" xmlns:svgjs="http://svgjs.com/svgjs" viewBox="0 0.344 76 68.312" fill="#ccf" opacity=".502" x="361" y="330"><svg xmlns="http://www.w3.org/2000/svg" xmlns:xlink="http://www.w3.org/1999/xlink" width="76" height="69" viewBox="0.176 0.708 75.322 67.702"><path paint-order="stroke fill markers" fill-rule="evenodd" d="M75.498 22.494c-1.27 15.142-5.878 25.693-10.795 32.809-6.773 9.77-14.1 13.107-14.1 13.107a84.619 84.619 0 0 1-19.148-11.544C8.236 38.304.746 12.578.176 10.46c9.802 23.675 24.196 38.02 35.105 46.096 8.793 6.529 15.322 8.987 15.322 8.987v-7.57a50.352 50.352 0 0 1-5.048-2.216c-19.213-9.687-29.308-29.877-34.03-42.936-.016-.033-.016-.049-.032-.081C8.936 5.674 7.943.708 7.943.708h3.484l-1.14 2.442-.048.082a85.343 85.343 0 0 0 1.905 7.115c.016.065.033.13.065.18 10.746 33.9 38.394 44.825 38.394 44.825 19.213-14.182 18.838-36.7 18.838-36.7v-3.095l3.599 1.075 2.458 5.862z"/></svg></svg><svg width="14" height="45" xmlns="http://www.w3.org/2000/svg" xmlns:xlink="http://www.w3.org/1999/xlink" xmlns:svgjs="http://svgjs.com/svgjs" viewBox="0.043 0 13.913 45" fill="#ccf" opacity=".302" x="548" y="434"><svg xmlns="http://www.w3.org/2000/svg" xmlns:xlink="http://www.w3.org/1999/xlink" width="14" height="45" viewBox="0.069 0.78 13.477 43.591"><path paint-order="stroke fill markers" fill-rule="evenodd" d="M2.478.78s-5.223 17.059-.286 43.59c0 0 2.468-33.627 4.318-36.558 1.85-2.93 7.037-1.54 7.037-1.54S5.387 1.77 2.478.78z"/></svg></svg><svg width="48" height="133" xmlns="http://www.w3.org/2000/svg" xmlns:xlink="http://www.w3.org/1999/xlink" xmlns:svgjs="http://svgjs.com/svgjs" viewBox="0.409 0 47.182 133" fill="#ccf" opacity=".502" x="469" y="395"><svg xmlns="http://www.w3.org/2000/svg" xmlns:xlink="http://www.w3.org/1999/xlink" width="48" height="133" viewBox="0.78 0.544 46.828 132.001"><path paint-order="stroke fill markers" fill-rule="evenodd" d="M30.804 132.545c-4.559-3.99-10.03-10.648-15.484-21.558C4.41 89.185 1.284 74.63.78 72.09l2.588-3.99 3.469-33.541 3.24-1.937S21.653 19.839 30.446.544c.13.293.277.75.44 1.4v.017c1.774 6.969 5.422 33.07 8.808 42.383 2.117 5.813 5.455 9.02 7.914 10.68 0 0-20.044 29.732-21.02 50.948-.864 19.311 3.435 25.596 4.216 26.573z"/></svg></svg><svg width="60" height="39" xmlns="http://www.w3.org/2000/svg" xmlns:xlink="http://www.w3.org/1999/xlink" xmlns:svgjs="http://svgjs.com/svgjs" viewBox="0 0.272 60 38.456" fill="#ccf" opacity=".502" x="321" y="551"><svg xmlns="http://www.w3.org/2000/svg" xmlns:xlink="http://www.w3.org/1999/xlink" width="60" height="39" viewBox="0.757 0.708 59.04 37.84"><path paint-order="stroke fill markers" fill-rule="evenodd" d="M59.797 38.548s-36.13-5.927-50.883-15.435c0 0-.016 0-.016-.017.147-.814.212-1.612.18-2.41C8.767 12.546 1.733 5.332.756.708c.163.44 1.221 2.882 6.35 7.278 3.24 2.785 8.141 6.367 15.5 10.714.196.114.392.228.57.326C33.599 25.18 42.57 29.349 49.05 32.41a.784.784 0 0 1 .114.049c5.83 2.735 9.607 4.542 10.616 6.073.017 0 .017.016.017.016z"/></svg></svg><svg width="68" height="20" xmlns="http://www.w3.org/2000/svg" xmlns:xlink="http://www.w3.org/1999/xlink" xmlns:svgjs="http://svgjs.com/svgjs" viewBox="0 0.62 68 18.76" fill="#ccf" opacity=".502" x="391" y="560"><svg xmlns="http://www.w3.org/2000/svg" xmlns:xlink="http://www.w3.org/1999/xlink" width="68" height="20" viewBox="0.478 0.777 66.611 18.377"><path paint-order="stroke fill markers" fill-rule="evenodd" d="M67.089.777c-.195 1.4-3.387 4.478-4.299 7.832 0 0-13.253 14.036-62.312 9.72.326-1.383 10.632.62 34.535-4.168C58.183 9.521 66.584 1.282 67.089.777z"/></svg></svg><svg width="150" height="86" xmlns="http://www.w3.org/2000/svg" xmlns:xlink="http://www.w3.org/1999/xlink" xmlns:svgjs="http://svgjs.com/svgjs" viewBox="0 0.22 150 85.56" fill="#7a4ac0" opacity=".502" x="317" y="301"><svg xmlns="http://www.w3.org/2000/svg" xmlns:xlink="http://www.w3.org/1999/xlink" width="150" height="86" viewBox="0.182 0.839 149.065 85.026"><path paint-order="stroke fill markers" fill-rule="evenodd" d="M149.246 69.877l-31.36 10.16-9.183 4.266-.048.016-5.976.016-8.076.017-5.048.406-2.67.196-7.604.603-3.826.309-37.612-13.612-6.725-2.426L.182 58.626c.912-.359 1.84-.717 2.816-1.108 20.76-8.222 41.13-18.203 41.13-18.203l7.815-9.607h3.485a115.873 115.873 0 0 0 6.512-18.187l2.068-9.297c.147-.896.212-1.385.212-1.385l11.072 5.846 37.335 29.862a60.769 60.769 0 0 0 .147 5.405l.537 3.762c.098-.733.13-1.157.13-1.157l3.599 1.075 2.459 5.862s4.168 6.48 20.678 13.742c2.85 1.254 5.91 2.833 9.07 4.64z"/></svg></svg><svg width="107" height="153" xmlns="http://www.w3.org/2000/svg" xmlns:xlink="http://www.w3.org/1999/xlink" xmlns:svgjs="http://svgjs.com/svgjs" viewBox="366 192 107 153" x="366" y="192"><svg width="86" height="126" xmlns="http://www.w3.org/2000/svg" xmlns:xlink="http://www.w3.org/1999/xlink" xmlns:svgjs="http://svgjs.com/svgjs" viewBox="0 0.095 86 125.811" fill="#ffc2a9" x="381" y="217"><svg xmlns="http://www.w3.org/2000/svg" xmlns:xlink="http://www.w3.org/1999/xlink" width="86" height="126" viewBox="0.007 0.244 85.932 125.711"><path paint-order="stroke fill markers" fill-rule="evenodd" d="M61.36 125.269s-14.621 3.288-30.757-4.527C14.467 112.927.904 89.887.073 84.139c-.814-5.764 6.172-20.776 6.172-32.5 0-11.722-5.748-31.88 3.907-42.79 9.672-10.892 54.09-12.536 68.5 1.45 0 0 4.461 11.202 4.461 17.536 0 1.53-.276 3.778-.683 6.366-.13.961-.31 1.987-.473 3.045-1.286 7.67-3.06 17.032-2.23 21.135.293 1.432.749 2.751 1.286 4.005v.017c1.775 4.103 4.413 7.375 4.885 10.925.618 4.64-5.601 37.547-24.538 51.94z"/></svg></svg><svg width="22" height="38" xmlns="http://www.w3.org/2000/svg" xmlns:xlink="http://www.w3.org/1999/xlink" xmlns:svgjs="http://svgjs.com/svgjs" viewBox="0 0.107 22 37.786" fill="#ffc2a9" x="366" y="255"><svg xmlns="http://www.w3.org/2000/svg" xmlns:xlink="http://www.w3.org/1999/xlink" width="22" height="38" viewBox="0.32 0.166 21.578 37.062"><path paint-order="stroke fill markers" fill-rule="evenodd" d="M21.126 10.33S17.135.32 7.108.165c0 0-5.862 2.314-6.788 6.786 0 0 2.16 16.198 4.63 23.757 2.466 7.558 11.517 6.464 11.517 6.464s7.878-12.053 4.659-26.844z"/></svg></svg><svg width="35" height="10" xmlns="http://www.w3.org/2000/svg" xmlns:xlink="http://www.w3.org/1999/xlink" xmlns:svgjs="http://svgjs.com/svgjs" viewBox="0.529 0 33.943 10" fill="#e1616a" x="425" y="297"><svg xmlns="http://www.w3.org/2000/svg" xmlns:xlink="http://www.w3.org/1999/xlink" width="35" height="10" viewBox="0.661 0.02 33.556 9.886"><path paint-order="stroke fill markers" fill-rule="evenodd" d="M.661 1.308s3.338-.259 4.777.82c1.441 1.08 6.686 6.17 13.317 7.559 6.634 1.389 11.082-4.26 12.496-4.55 1.413-.29 2.966 1.708 2.966 1.708s-.61-2.307-4.064-3.357c0 0-1.398 5.32-11.012 3.5C9.528 5.166 5.438.893 5.438.893L4.95.02S2.24.583.66 1.308z"/></svg></svg><svg width="80" height="82" xmlns="http://www.w3.org/2000/svg" xmlns:xlink="http://www.w3.org/1999/xlink" xmlns:svgjs="http://svgjs.com/svgjs" viewBox="0 0.017 80 81.966" fill="#ffeadb" opacity=".6" x="387" y="219"><svg xmlns="http://www.w3.org/2000/svg" xmlns:xlink="http://www.w3.org/1999/xlink" width="80" height="82" viewBox="0.898 0.07 79.041 80.983"><path paint-order="stroke fill markers" fill-rule="evenodd" d="M24.473 29.497l.13-1.029s9.59-16.828 28.564-17.292c18.974-.462 23.26 11.429 23.26 11.429l3.511-5.336L71.932.997 16.188.07 2.614 11.023.898 37.833l6.034 35.395 14.685 7.825 4.145-3.676c-1.53-11.85-10.346-22.68-10.346-22.68l6.427-4.463s16.505 7.99 26.044 5.6c0 0 7.172-20.936 6.762-36.448 0 0-24.45 3.618-30.176 10.111z"/></svg></svg><svg width="33" height="14" xmlns="http://www.w3.org/2000/svg" xmlns:xlink="http://www.w3.org/1999/xlink" xmlns:svgjs="http://svgjs.com/svgjs" viewBox="0 0.012 33 13.976" fill="#38368e" x="410" y="236"><svg xmlns="http://www.w3.org/2000/svg" xmlns:xlink="http://www.w3.org/1999/xlink" width="33" height="14" viewBox="0.624 0.269 31.814 13.474"><path paint-order="stroke fill markers" fill-rule="evenodd" d="M.624 13.743s.923-6.062 11.159-8.488C23.179 2.553 32.438.269 32.438.269s-2.017 6.648-5.816 9.141c0 0-12.06-.438-18.163.95C2.355 11.745.624 13.742.624 13.742z"/></svg></svg><svg width="12" height="16" xmlns="http://www.w3.org/2000/svg" xmlns:xlink="http://www.w3.org/1999/xlink" xmlns:svgjs="http://svgjs.com/svgjs" viewBox="0.463 0 11.074 16" fill="#38368e" x="453" y="241"><svg xmlns="http://www.w3.org/2000/svg" xmlns:xlink="http://www.w3.org/1999/xlink" width="12" height="16" viewBox="0.706 0.605 10.454 15.104"><path paint-order="stroke fill markers" fill-rule="evenodd" d="M10.426.605S4.64 5.065.706 15.708c0 0 3.779-4.935 7.248-4.859 2.381.053 1.998 2.402 1.998 2.402s2.366-6.361.474-12.646z"/></svg></svg><svg width="19" height="17" xmlns="http://www.w3.org/2000/svg" xmlns:xlink="http://www.w3.org/1999/xlink" xmlns:svgjs="http://svgjs.com/svgjs" viewBox="0 0.056 19 16.888" fill="#cf6074" x="414" y="250"><svg xmlns="http://www.w3.org/2000/svg" xmlns:xlink="http://www.w3.org/1999/xlink" width="19" height="17" viewBox="0.447 0.847 18.049 16.043"><path paint-order="stroke fill markers" fill-rule="evenodd" d="M.447 16.89S1.064 4.087 13.56.847c0 0 4.472 5.785 4.936 12.34 0 0-6.633-1.235-18.049 3.703z"/></svg></svg><svg width="11" height="14" xmlns="http://www.w3.org/2000/svg" xmlns:xlink="http://www.w3.org/1999/xlink" xmlns:svgjs="http://svgjs.com/svgjs" viewBox="0.25 0 10.5 14" fill="#cf6074" x="450" y="258"><svg xmlns="http://www.w3.org/2000/svg" xmlns:xlink="http://www.w3.org/1999/xlink" width="11" height="14" viewBox="0.234 0.019 10.47 13.96"><path paint-order="stroke fill markers" fill-rule="evenodd" d="M.234 13.98S1.245 3.785 7.1.018c0 0 3.989 2.991 3.575 11.521 0 0-3.499-1.263-10.44 2.44z"/></svg></svg><svg width="18" height="10" xmlns="http://www.w3.org/2000/svg" xmlns:xlink="http://www.w3.org/1999/xlink" xmlns:svgjs="http://svgjs.com/svgjs" viewBox="0.154 0 17.692 10" fill="#ffebed" x="414" y="263"><svg xmlns="http://www.w3.org/2000/svg" xmlns:xlink="http://www.w3.org/1999/xlink" width="18" height="10" viewBox="0.447 0.02 17.397 9.833"><path paint-order="stroke fill markers" fill-rule="evenodd" d="M.447 3.89S4.51 8.877 15.873 9.854c0 0 2.166-3.296 1.957-9.747 0 0-10.442-1-17.383 3.783z"/></svg></svg><svg width="11" height="9" xmlns="http://www.w3.org/2000/svg" xmlns:xlink="http://www.w3.org/1999/xlink" xmlns:svgjs="http://svgjs.com/svgjs" viewBox="0.022 0 10.957 9" fill="#ffebed" x="450" y="269"><svg xmlns="http://www.w3.org/2000/svg" xmlns:xlink="http://www.w3.org/1999/xlink" width="11" height="9" viewBox="0.234 0.348 10.214 8.39"><path paint-order="stroke fill markers" fill-rule="evenodd" d="M.234 2.98v1.49s1.749 3.651 8.023 4.268c0 0 2.022-3.15 2.191-8.258 0 0-3.992-.997-10.214 2.5z"/></svg></svg><svg width="9" height="11" xmlns="http://www.w3.org/2000/svg" xmlns:xlink="http://www.w3.org/1999/xlink" xmlns:svgjs="http://svgjs.com/svgjs" viewBox="0.196 0 8.607 11" fill="#7f9ec9" x="423" y="262"><svg xmlns="http://www.w3.org/2000/svg" xmlns:xlink="http://www.w3.org/1999/xlink" width="9" height="11" viewBox="0.956 0.696 7.948 10.158"><path paint-order="stroke fill markers" fill-rule="evenodd" d="M3.596.843S.714 4.35.972 9.875c0 0 3.78.89 5.901.979 0 0 2.486-3.462 1.957-9.747 0 0-3.303-.71-5.234-.264z"/></svg></svg><svg width="7" height="9" xmlns="http://www.w3.org/2000/svg" xmlns:xlink="http://www.w3.org/1999/xlink" xmlns:svgjs="http://svgjs.com/svgjs" viewBox="0.208 0 6.584 9" fill="#7f9ec9" x="454" y="269"><svg xmlns="http://www.w3.org/2000/svg" xmlns:xlink="http://www.w3.org/1999/xlink" width="7" height="9" viewBox="0.245 0.255 6.206 8.483"><path paint-order="stroke fill markers" fill-rule="evenodd" d="M2.189.654S.554 2.401.245 7.761c0 0 2.237.977 4.012.977 0 0 2.284-3.243 2.191-8.258 0 0-1.596-.607-4.26.174z"/></svg></svg><svg width="8" height="11" xmlns="http://www.w3.org/2000/svg" xmlns:xlink="http://www.w3.org/1999/xlink" xmlns:svgjs="http://svgjs.com/svgjs" viewBox="0.493 0 7.013 11" fill="#38368e" x="425" y="262"><svg xmlns="http://www.w3.org/2000/svg" xmlns:xlink="http://www.w3.org/1999/xlink" width="8" height="11" viewBox="0.54 0.697 6.476 10.157"><path paint-order="stroke fill markers" fill-rule="evenodd" d="M.661 10.26S-.371 3.34 3.589.696l3.241.41s1.077 5.479-1.957 9.747c0 0-3.22-.366-4.212-.595z"/></svg></svg><svg width="6" height="9" xmlns="http://www.w3.org/2000/svg" xmlns:xlink="http://www.w3.org/1999/xlink" xmlns:svgjs="http://svgjs.com/svgjs" viewBox="0.366 0 5.268 9" fill="#38368e" x="455" y="269"><svg xmlns="http://www.w3.org/2000/svg" xmlns:xlink="http://www.w3.org/1999/xlink" width="6" height="9" viewBox="0.471 0.235 4.978 8.504"><path paint-order="stroke fill markers" fill-rule="evenodd" d="M2.62.348S1.155 3.421.47 8.213c0 0 1.128.46 2.787.525 0 0 2.219-2.714 2.191-8.258 0 0-1.688-.45-2.828-.132z"/></svg></svg><svg width="21" height="5" xmlns="http://www.w3.org/2000/svg" xmlns:xlink="http://www.w3.org/1999/xlink" xmlns:svgjs="http://svgjs.com/svgjs" viewBox="0 0.28 21 4.439" fill="#131163" x="414" y="262"><svg xmlns="http://www.w3.org/2000/svg" xmlns:xlink="http://www.w3.org/1999/xlink" width="21" height="5" viewBox="0.447 0.569 20.439 4.321"><path paint-order="stroke fill markers" fill-rule="evenodd" d="M.447 4.89S8.006.493 20.887 2.999l-2.39-1.812S9.316-1.667.446 4.89z"/></svg></svg><svg width="14" height="4" xmlns="http://www.w3.org/2000/svg" xmlns:xlink="http://www.w3.org/1999/xlink" xmlns:svgjs="http://svgjs.com/svgjs" viewBox="0 0.018 14 3.963" fill="#131163" x="450" y="268"><svg xmlns="http://www.w3.org/2000/svg" xmlns:xlink="http://www.w3.org/1999/xlink" width="14" height="4" viewBox="0.234 0.263 13.128 3.716"><path paint-order="stroke fill markers" fill-rule="evenodd" d="M.234 3.98S6.294.761 13.363 2.464L10.45.308S5.71-.417.234 3.979z"/></svg></svg><svg width="5" height="3" xmlns="http://www.w3.org/2000/svg" xmlns:xlink="http://www.w3.org/1999/xlink" xmlns:svgjs="http://svgjs.com/svgjs" viewBox="0 0.483 5 2.035" fill="#fff" x="422" y="266"><svg xmlns="http://www.w3.org/2000/svg" xmlns:xlink="http://www.w3.org/1999/xlink" width="5" height="3" viewBox="0.623 0.841 3.908 1.59"><path paint-order="stroke fill markers" fill-rule="evenodd" d="M.623.89S2.68.437 4.53 2.308c0 0-2.534.746-3.908-1.418z"/></svg></svg><svg width="5" height="3" xmlns="http://www.w3.org/2000/svg" xmlns:xlink="http://www.w3.org/1999/xlink" xmlns:svgjs="http://svgjs.com/svgjs" viewBox="0 0.739 5 1.523" fill="#fff" x="453" y="272"><svg xmlns="http://www.w3.org/2000/svg" xmlns:xlink="http://www.w3.org/1999/xlink" width="5" height="3" viewBox="0.012 0.721 4.336 1.32"><path paint-order="stroke fill markers" fill-rule="evenodd" d="M.012.854s3.222-.627 4.336.843c0 0-1.724 1.186-4.336-.843z"/></svg></svg><svg width="16" height="8" xmlns="http://www.w3.org/2000/svg" xmlns:xlink="http://www.w3.org/1999/xlink" xmlns:svgjs="http://svgjs.com/svgjs" viewBox="0 0.292 16 7.417" fill="#c6659c" x="415" y="267"><svg xmlns="http://www.w3.org/2000/svg" xmlns:xlink="http://www.w3.org/1999/xlink" width="16" height="8" viewBox="0.208 0.637 15.525 7.197"><path paint-order="stroke fill markers" fill-rule="evenodd" d="M.208.637S6.08 6.445 15.49 7.834l.243-3.428-.86 1.448S5.827 5.318.208.637z"/></svg></svg><svg width="9" height="6" xmlns="http://www.w3.org/2000/svg" xmlns:xlink="http://www.w3.org/1999/xlink" xmlns:svgjs="http://svgjs.com/svgjs" viewBox="0 0.181 9 5.639" fill="#c6659c" x="450" y="273"><svg xmlns="http://www.w3.org/2000/svg" xmlns:xlink="http://www.w3.org/1999/xlink" width="9" height="6" viewBox="0.234 0.471 8.698 5.449"><path paint-order="stroke fill markers" fill-rule="evenodd" d="M.234.471s1.046 3.753 8.698 5.45l-.246-1.837-.43.654S2.819 4.045.235.471z"/></svg></svg><svg width="24" height="6" xmlns="http://www.w3.org/2000/svg" xmlns:xlink="http://www.w3.org/1999/xlink" xmlns:svgjs="http://svgjs.com/svgjs" viewBox="0 0.17 24 5.66" fill="#cb5f7d" x="434" y="288"><svg xmlns="http://www.w3.org/2000/svg" xmlns:xlink="http://www.w3.org/1999/xlink" width="24" height="6" viewBox="0.887 0.21 22.462 5.297"><path paint-order="stroke fill markers" fill-rule="evenodd" d="M.887.485s2.854-.617 8.098 0c5.245.617 11.14 2.056 14.363 0 0 0-4.28 4.285-7.988 4.937-3.706.65-9.358-2.606-9.358-2.606l-2.468.043S1.632 1.924.887.485z"/></svg></svg><svg width="6" height="3" xmlns="http://www.w3.org/2000/svg" xmlns:xlink="http://www.w3.org/1999/xlink" xmlns:svgjs="http://svgjs.com/svgjs" viewBox="0 0.304 6 2.392" fill="#9f4a8b" x="437" y="290"><svg xmlns="http://www.w3.org/2000/svg" xmlns:xlink="http://www.w3.org/1999/xlink" width="6" height="3" viewBox="0.895 0.2 4.543 1.811"><path paint-order="stroke fill markers" fill-rule="evenodd" d="M.895.852S2.18.027 3.26.233C4.34.44 5.438 2.012 5.438 2.012S3.158.803.895.852z"/></svg></svg><svg width="17" height="16" xmlns="http://www.w3.org/2000/svg" xmlns:xlink="http://www.w3.org/1999/xlink" xmlns:svgjs="http://svgjs.com/svgjs" viewBox="0.357 0 16.286 16" fill="#ffbcaf" x="441" y="274"><svg xmlns="http://www.w3.org/2000/svg" xmlns:xlink="http://www.w3.org/1999/xlink" width="17" height="16" viewBox="0.649 0.03 15.873 15.594"><path paint-order="stroke fill markers" fill-rule="evenodd" d="M16.348 14.485C17.719 13.148 10.623.51 7.23.04 3.835-.427.649 14.21.649 14.21s4.718.661 9.297 1.273c4.577.614 6.402-1 6.402-1z"/></svg></svg><svg width="14" height="33" xmlns="http://www.w3.org/2000/svg" xmlns:xlink="http://www.w3.org/1999/xlink" xmlns:svgjs="http://svgjs.com/svgjs" viewBox="0.011 0 13.978 33" fill="#ffeadb" opacity=".6" x="450" y="248"><svg xmlns="http://www.w3.org/2000/svg" xmlns:xlink="http://www.w3.org/1999/xlink" width="14" height="33" viewBox="0.131 0.689 13.306 31.414"><path paint-order="stroke fill markers" fill-rule="evenodd" d="M12.42.694c-1.921-.244-8.711 8.01-8.711 8.01S-.606 22.074.24 26.03c.846 3.973 11.332 6.074 11.332 6.074l.44-.7v-.017c-.537-1.254-.993-2.573-1.286-4.005-.83-4.103.944-13.466 2.23-21.135 0 0 .423-1.58.473-3.045.048-1.237-.13-2.41-1.01-2.507z"/></svg></svg><svg width="95" height="153" xmlns="http://www.w3.org/2000/svg" xmlns:xlink="http://www.w3.org/1999/xlink" xmlns:svgjs="http://svgjs.com/svgjs" viewBox="0.62 0 93.76 153" fill="#2e33a0" x="378" y="192"><svg xmlns="http://www.w3.org/2000/svg" xmlns:xlink="http://www.w3.org/1999/xlink" width="95" height="153" viewBox="0.947 0.08 93.427 152.456"><path paint-order="stroke fill markers" fill-rule="evenodd" d="M84.11 110.98c-2.165-4.527-.83-6.888-19.636-9.347-26.622-3.5-28.901 4.624-33.428 3.387a4.346 4.346 0 0 1-.537-.196c-4.9-1.905-16.445-13.253-16.738-28.542-.31-15.892 10.339-27.16 10.339-27.16-3.859-3.24-5.406-12.634-1.237-16.656 4.168-4.006 11.267-3.078 28.69-1.238C69 33.085 69 32.01 69 32.01c5.536 1.417 8.71 6.61 9.606 8.271.18.326.26.521.26.521l2.166-2.002c5.862 8.483 4.787 17.731 4.787 17.731s9.558-19.441 8.467-22.193c-1.986-5.08-7.506-12.488-7.848-12.96l-.016-.016S84.876 6.56 80.252 6.56c-4.625 0-24.375 4.461-24.375 4.461C58.043 5.942 57.733.08 57.733.08l-.081.082c-6.448 5.78-12.75 6.415-21.672 10.55-4.494 2.101-6.61 4.039-8.353 6.058l-.602.716-.635.765c-.619.782-1.254 1.58-2.02 2.394-.032.049-.08.081-.097.098l-.049.048a25.51 25.51 0 0 1-2.589 2.427c-5.862 4.77-18.757 7.961-20.304 13.009-1.547 5.031 1.954 11.919 3.81 19.018 1.84 7.099.993 13.368.993 13.368s6.139 7.913 4.104 19.49c-1.808 10.371-5.764 12.065-5.764 12.065-2.785 5.715-1.466 11.056-1.466 11.056 5.7 22.664 29.276 36.163 29.276 36.163 20.972 7.815 34.763 4.412 34.763 4.412l.016-.016c15.256-9.949 20.483-42.872 20.711-44.402-.26.407-3.094 4.803-3.663 3.598zm-9.41 20.987c-3.697-.618-4.478-9.98-5.7-11.218-1.237-1.222-7.929-.717-7.929-.717s-6.171 7.002-8.63 7.197c-2.475.212-15.63-5.145-12.781-13.156 2.833-8.027 12.781-9.053 12.781-9.053s5.146 4.315 12.847 4.82c7.718.504 10.502-.912 11.414-1.32.928-.423 5.894 1.84 5.764 8.842-.081 4.868-4.054 15.224-7.767 14.605z"/></svg></svg><svg width="9" height="18" xmlns="http://www.w3.org/2000/svg" xmlns:xlink="http://www.w3.org/1999/xlink" xmlns:svgjs="http://svgjs.com/svgjs" viewBox="0 0.163 9 17.673" fill="#d2726c" x="449" y="276"><svg xmlns="http://www.w3.org/2000/svg" xmlns:xlink="http://www.w3.org/1999/xlink" width="9" height="18" viewBox="0.36 0.853 8.438 16.569"><path paint-order="stroke fill markers" fill-rule="evenodd" d="M2.74.853S9.388 9.106 8.755 12.21C8.06 15.608.36 17.421.36 17.421s6.174-2.13 7.44-5.21c0 0-1.587-6.255-5.06-11.358z"/></svg></svg><svg width="14" height="36" xmlns="http://www.w3.org/2000/svg" xmlns:xlink="http://www.w3.org/1999/xlink" xmlns:svgjs="http://svgjs.com/svgjs" viewBox="0.172 0 13.656 36" fill="#ffeadb" opacity=".6" x="459" y="213"><svg xmlns="http://www.w3.org/2000/svg" xmlns:xlink="http://www.w3.org/1999/xlink" width="14" height="36" viewBox="0.033 0.362 13.341 35.17"><path paint-order="stroke fill markers" fill-rule="evenodd" d="M4.82 35.531S5.895 26.283.033 17.8C4.74 9.398 5.423.362 5.423.362l.016.015c1.596 3.925 2.508 11.561 2.508 11.561l5.34 1.4C14.378 16.09 4.82 35.531 4.82 35.531z"/></svg></svg><svg width="79" height="153" xmlns="http://www.w3.org/2000/svg" xmlns:xlink="http://www.w3.org/1999/xlink" xmlns:svgjs="http://svgjs.com/svgjs" viewBox="0.531 0 77.937 153" fill="#ccc2db" opacity=".322" x="378" y="192"><svg xmlns="http://www.w3.org/2000/svg" xmlns:xlink="http://www.w3.org/1999/xlink" width="79" height="153" viewBox="0.947 0.08 77.66 152.456"><path paint-order="stroke fill markers" fill-rule="evenodd" d="M78.607 40.281c-.895-1.66-4.07-6.854-9.606-8.271 0 0 0 1.075-17.439-.782-17.422-1.84-24.521-2.768-28.69 1.238-4.168 4.022-2.62 13.417 1.238 16.657 0 0-10.648 11.267-10.34 27.159.294 15.289 11.838 26.637 16.74 28.542l-.229 1.694s.863 35.007 9.379 37.791c8.5 2.768 26.15 1.335 27.794 2.98 1.563 1.563-.228 4.25-.391 4.494l-.016.016s-13.791 3.403-34.763-4.412c0 0-23.577-13.499-29.276-36.163 0 0-1.319-5.341 1.466-11.056 0 0 3.956-1.694 5.764-12.065 2.035-11.577-4.104-19.49-4.104-19.49s.847-6.27-.993-13.368c-1.856-7.1-5.357-13.987-3.81-19.018 9.867 1.547 16.348-3.598 16.348-3.598s1.726-2.394 9.362-3.631c7.636-1.238 38.329 1.856 38.329 1.856s-3.078-2.557-9.558-4.25c-6.122-1.612-27.029.26-29.276.44 2.394-.423 26.1-4.494 28.804-3.68 2.865.847 13.123 5.552 13.123 5.552-.928-4.705-10.111-16.038-10.111-16.038s-12.96.228-21.444 2.003c-7.571 1.58-11.723 5.047-12.537 5.764l2.019-2.394.635-.765.602-.716 2.964-.505 14.882-6.008C50.47 7.587 56.87.976 57.652.162l.081-.082s.31 5.862-1.856 10.942c12.57-1.547 16.82-.765 16.82-.765 5.715 8.092 5.91 30.024 5.91 30.024z"/></svg></svg><svg width="36" height="8" xmlns="http://www.w3.org/2000/svg" xmlns:xlink="http://www.w3.org/1999/xlink" xmlns:svgjs="http://svgjs.com/svgjs" viewBox="0 0.672 36 6.655" fill="#776d7e" opacity=".502" x="410" y="337"><svg xmlns="http://www.w3.org/2000/svg" xmlns:xlink="http://www.w3.org/1999/xlink" width="36" height="8" viewBox="0.284 0.95 35.431 6.55"><path paint-order="stroke fill markers" fill-rule="evenodd" d="M.284 2.387S7.989.558 19.619 1.027c11.63.469 18.311.516 15.428 5.772 0 0-14.607 3.299-34.763-4.412z"/></svg></svg><svg width="28" height="6" xmlns="http://www.w3.org/2000/svg" xmlns:xlink="http://www.w3.org/1999/xlink" xmlns:svgjs="http://svgjs.com/svgjs" viewBox="0 0.447 28 5.106" fill="#1f77d1" x="433" y="198"><svg xmlns="http://www.w3.org/2000/svg" xmlns:xlink="http://www.w3.org/1999/xlink" width="28" height="6" viewBox="0.877 0.156 26.68 4.866"><path paint-order="stroke fill markers" fill-rule="evenodd" d="M17.697 4.257s7.07-2.758 9.86-2.304c0 0-1.105-1.476-2.263-1.783C24.138-.14.877 5.022.877 5.022s14.504-1.69 16.82-.765z"/></svg></svg><svg width="41" height="16" xmlns="http://www.w3.org/2000/svg" xmlns:xlink="http://www.w3.org/1999/xlink" xmlns:svgjs="http://svgjs.com/svgjs" viewBox="0 0.676 41 14.648" fill="#1f77d1" x="396" y="204"><svg xmlns="http://www.w3.org/2000/svg" xmlns:xlink="http://www.w3.org/1999/xlink" width="41" height="16" viewBox="0.081 0.656 40.271 14.388"><path paint-order="stroke fill markers" fill-rule="evenodd" d="M40.352.878s-.555 7.699-3.012 10.486l-28.804 3.68-8.455-1.49s3.271-1.397 6.866-5.593C10.544 3.765 29.322-.356 40.352.878z"/></svg></svg><svg width="9" height="14" xmlns="http://www.w3.org/2000/svg" xmlns:xlink="http://www.w3.org/1999/xlink" xmlns:svgjs="http://svgjs.com/svgjs" viewBox="0.258 0 8.484 14" fill="#1f77d1" x="464" y="213"><svg xmlns="http://www.w3.org/2000/svg" xmlns:xlink="http://www.w3.org/1999/xlink" width="9" height="14" viewBox="0.423 0.362 7.864 12.977"><path paint-order="stroke fill markers" fill-rule="evenodd" d="M.423.362s2.344 7.57 2.524 11.576l5.34 1.4S6.667 7.61.423.362z"/></svg></svg><svg width="18" height="30" xmlns="http://www.w3.org/2000/svg" xmlns:xlink="http://www.w3.org/1999/xlink" xmlns:svgjs="http://svgjs.com/svgjs" viewBox="0 0.585 18 28.83" fill="#ffeadb" opacity=".8" x="368" y="260"><svg xmlns="http://www.w3.org/2000/svg" xmlns:xlink="http://www.w3.org/1999/xlink" width="18" height="30" viewBox="0.326 0.895 17.611 28.207"><path paint-order="stroke fill markers" fill-rule="evenodd" d="M17.937 18.92s-2.026-9.717-6.99-14.525C5.983-.411.326 1.13.326 1.13s1.542 18.022 3.162 22.418c1.62 4.396 4.088 5.554 4.088 5.554s-3.47-3.042-3.933-9.003c-.463-5.96-.617-14.367.693-15.37 1.311-1.001 6.611 2.908 6.611 2.908s-1.674 2.05-2.677 7.361c-1.003 5.311 2.7 9.167 4.087 9.09 1.389-.076-.077-6.145.155-7.892.23-1.748 3.316-1.362 5.425 2.724z"/></svg></svg><svg width="9" height="19" xmlns="http://www.w3.org/2000/svg" xmlns:xlink="http://www.w3.org/1999/xlink" xmlns:svgjs="http://svgjs.com/svgjs" viewBox="0 0.36 9 18.28" fill="#ffeadb" opacity=".8" x="376" y="266"><svg xmlns="http://www.w3.org/2000/svg" xmlns:xlink="http://www.w3.org/1999/xlink" width="9" height="19" viewBox="0.104 0.841 8.474 17.212"><path paint-order="stroke fill markers" fill-rule="evenodd" d="M4.982.84S-.438 4.404.148 11.71c.584 7.303 4.76 6.984 4.774 5.45.013-1.533-.796-5.48-.371-7.714.423-2.233 4.027-1.223 4.027-1.223S6.205 2.425 4.982.841z"/></svg></svg><svg width="21" height="45" xmlns="http://www.w3.org/2000/svg" xmlns:xlink="http://www.w3.org/1999/xlink" xmlns:svgjs="http://svgjs.com/svgjs" viewBox="0.001 0 20.999 45" fill="#34c7ff" x="445" y="299"><svg xmlns="http://www.w3.org/2000/svg" xmlns:xlink="http://www.w3.org/1999/xlink" width="21" height="45" viewBox="0.047 0.381 20.727 44.418"><path paint-order="stroke fill markers" fill-rule="evenodd" d="M20.774.38S14.038 31.11.047 44.8c0 0 15.956-6.271 20.727-44.42z"/></svg></svg><svg width="7" height="33" xmlns="http://www.w3.org/2000/svg" xmlns:xlink="http://www.w3.org/1999/xlink" xmlns:svgjs="http://svgjs.com/svgjs" viewBox="0.144 0 6.712 33" fill="#34c7ff" x="458" y="198"><svg xmlns="http://www.w3.org/2000/svg" xmlns:xlink="http://www.w3.org/1999/xlink" width="7" height="33" viewBox="0.294 0.17 6.637 32.63"><path paint-order="stroke fill markers" fill-rule="evenodd" d="M.294.17s3.554 2.761 4.23 12.365C5.198 22.14 1.034 32.8 1.034 32.8s5.34-7.975 5.854-16.718C7.403 7.342 3.11 1.274.294.17z"/></svg></svg></svg><svg width="29" height="6" xmlns="http://www.w3.org/2000/svg" xmlns:xlink="http://www.w3.org/1999/xlink" xmlns:svgjs="http://svgjs.com/svgjs" viewBox="0 0.398 29 5.205" fill="#1f77d1" x="415" y="217"><svg xmlns="http://www.w3.org/2000/svg" xmlns:xlink="http://www.w3.org/1999/xlink" width="29" height="6" viewBox="0.255 0.808 28.115 5.046"><path paint-order="stroke fill markers" fill-rule="evenodd" d="M.255 1.278s8.221 2.805 17.241 3.6c9.02.795 10.874.976 10.874.976s-3.625-3.517-11.346-4.576C9.304.22.255 1.278.255 1.278z"/></svg></svg><svg width="10" height="17" xmlns="http://www.w3.org/2000/svg" xmlns:xlink="http://www.w3.org/1999/xlink" xmlns:svgjs="http://svgjs.com/svgjs" viewBox="0.417 0 9.167 17" fill="#1f77d1" x="454" y="296"><svg xmlns="http://www.w3.org/2000/svg" xmlns:xlink="http://www.w3.org/1999/xlink" width="10" height="17" viewBox="0.909 0.503 8.527 15.814"><path paint-order="stroke fill markers" fill-rule="evenodd" d="M.987 4.053s3.932 0 5.482 4.937c1.235 3.936 1.575 7.327 1.575 7.327l1.392-5.41S7.62 4.053 5.73 2.51C4.37 1.401 2.026.272.91.544l.078 3.51z"/></svg></svg><svg width="10" height="7" xmlns="http://www.w3.org/2000/svg" xmlns:xlink="http://www.w3.org/1999/xlink" xmlns:svgjs="http://svgjs.com/svgjs" viewBox="0 0.279 10 6.443" fill="#1f77d1" x="444" y="295"><svg xmlns="http://www.w3.org/2000/svg" xmlns:xlink="http://www.w3.org/1999/xlink" width="10" height="7" viewBox="0.383 0.107 9.196 5.925"><path paint-order="stroke fill markers" fill-rule="evenodd" d="M.383.118l.664 5.862s4.793.384 7.965-.927l.567-3.548S3.466-.036.383.118z"/></svg></svg><svg width="42" height="68" xmlns="http://www.w3.org/2000/svg" xmlns:xlink="http://www.w3.org/1999/xlink" xmlns:svgjs="http://svgjs.com/svgjs" viewBox="0 0.66 42 66.68" fill="#34c7ff" x="466" y="370"><svg xmlns="http://www.w3.org/2000/svg" xmlns:xlink="http://www.w3.org/1999/xlink" width="42" height="68" viewBox="0.246 0.877 41.727 66.246"><path paint-order="stroke fill markers" fill-rule="evenodd" d="M.246.877S28.293 21.363 31.935 28.41c3.642 7.047 5.114 29.15 10.038 38.713 0 0-3.364-15.644-5.726-27.911-2.361-12.267-1.795-12.442-3.105-15.45C31.83 20.755 10.879 6.22.246.878z"/></svg></svg><svg width="17" height="120" xmlns="http://www.w3.org/2000/svg" xmlns:xlink="http://www.w3.org/1999/xlink" xmlns:svgjs="http://svgjs.com/svgjs" viewBox="0.338 0 16.325 120" fill="#34c7ff" x="448" y="484"><svg xmlns="http://www.w3.org/2000/svg" xmlns:xlink="http://www.w3.org/1999/xlink" width="17" height="120" viewBox="0.294 0.923 16.127 118.547"><path paint-order="stroke fill markers" fill-rule="evenodd" d="M13.222.923S-.3 58.793.314 62.705C.93 66.617 9.682 74.59 10.09 76.777c0 0-6.689 8.96-6.38 10.94.308 1.982 11.72 14.533 11.414 18.41-.09 1.128-7.493 13.343-7.493 13.343s8.368-12.007 8.78-13.922c.41-1.915-10.252-17.953-10.566-19.583-.81-4.218 5.32-7.32 5.526-10.096.205-2.778-8.296-9.561-8.364-14.088C2.938 57.255 13.222.923 13.222.923z"/></svg></svg><svg width="41" height="134" xmlns="http://www.w3.org/2000/svg" xmlns:xlink="http://www.w3.org/1999/xlink" xmlns:svgjs="http://svgjs.com/svgjs" viewBox="0.655 0 39.69 134" fill="#34c7ff" x="463" y="622"><svg xmlns="http://www.w3.org/2000/svg" xmlns:xlink="http://www.w3.org/1999/xlink" width="41" height="134" viewBox="0.967 0.878 39.195 132.327"><path paint-order="stroke fill markers" fill-rule="evenodd" d="M.967.878s29.226 66.163 39.195 132.327c0 0-1.664-64.57-39.195-132.327z"/></svg></svg><svg width="13" height="25" xmlns="http://www.w3.org/2000/svg" xmlns:xlink="http://www.w3.org/1999/xlink" xmlns:svgjs="http://svgjs.com/svgjs" viewBox="0 0.082 13 24.836" fill="#ffbcaf" x="266" y="333"><svg xmlns="http://www.w3.org/2000/svg" width="13" height="25" viewBox="0.213 0.232 12.75 24.358"><path paint-order="stroke fill markers" fill-rule="evenodd" d="M12.658 24.59s-7.563-1.617-10.7-8.213C-1.177 9.781.87.232.87.232s5.92 11.357 8.87 15.235c2.948 3.879 3.74 8.3 2.919 9.123z"/></svg></svg></svg>