<svg width="52" height="51" xmlns="http://www.w3.org/2000/svg" xmlns:xlink="http://www.w3.org/1999/xlink" xmlns:svgjs="http://svgjs.com/svgjs" viewBox="286 359 52 51"><svg width="52" height="51" xmlns="http://www.w3.org/2000/svg" xmlns:xlink="http://www.w3.org/1999/xlink" xmlns:svgjs="http://svgjs.com/svgjs" viewBox="0.449 0 51.102 51" fill="#fff" x="286" y="359"><svg xmlns="http://www.w3.org/2000/svg" width="52" height="51" viewBox="0.884 0.856 50.244 50.144"><path paint-order="stroke fill markers" fill-rule="evenodd" d="M51 12c-.006-.263.291-.885 0-1L27 1c-.44-.192-1.562-.192-2 0L1 11c-.255.108-.01.683 0 1v2c0 1.5 1.5 3 3 3-.215.398 0 .517 0 1 0 1.554 1.445 3 3 3 .22 0-.208.048 0 0v21c-.965-.135-2 1.005-2 2v1H4c-1.5 0-3 1.5-3 3v2c0 .681.318 1 1 1h48c.681 0 1-.319 1-1v-2c0-1.5-.5-3-2-3h-2v-1c-.001-1.041-1.04-2.104-2-2V21c.207.048.78 0 1 0 1.554 0 2-1.446 2-3 0-.483.214-.602 0-1h1c1.5 0 2-1.5 2-3v-2c0-.007 0 .017 0 0zm-1 2c0 .682-.319 2-1 2H4c-.682 0-2-1.318-2-2v-1h35c.41 0 1-.59 1-1 0-.41-.59-1-1-1H5l21-9c.062-.028-.064-.028 0 0l21 9h-7c-.41 0 0 .59 0 1 0 .41-.41 1 0 1h10v1zM26 4c-1.637 0-3 1.363-3 3 0 1.636 1.363 3 3 3 1.636 0 3-1.364 3-3 0-1.637-1.364-3-3-3zM7 20c-.737 0-2-1.264-2-2S6.264 17 7 17h8c.735.001 1 .264 1 1s-.264 2-1 2c-.636 0-1.878-.38-2-1-.08-.402-.598-1.08-1-1-.402.08-.08.598 0 1 .097.494-.315.639 0 1v13c0 .41.59 1 1 1 .41 0 1-.59 1-1V21c.207.048.779 0 1 0 1.554 0 2-1.446 2-3 0-.483.214-.602 0-1h3c-.215.398-1 .517-1 1 0 1.554 1.445 3 3 3 .22 0 .792.048 1 0v21c-.965-.136-2 1.005-2 2v1h-5v-1c-.001-1.041-1.04-2.104-2-2v-6c0-.41-.59 0-1 0-.41 0-1-.41-1 0v6H9V20c.314-.361-.098-.506 0-1 .079-.402.402-.92 0-1-.403-.08-.921.598-1 1-.123.621-.365 1-1 1zm26-3h2c-.215.398 0 .517 0 1 0 1.554 1.445 3 3 3 .22 0-.208.048 0 0v21c-.965-.136-2 1.006-2 2v1h-5v-1c-.001-1.041-1.04-2.104-2-2V21c.207.048.779 0 1 0 1.554 0 3-1.446 3-3 0-.483.214-.603 0-1zm-3 27v1h-8v-1c0-.028-.028 0 0 0h8c.027 0 0-.028 0 0zm0-24c-.636 0-.878-.38-1-1-.08-.402-.599-1.08-1-1-.403.08-1.08.598-1 1 .097.494.685.639 1 1v22h-4V20c.314-.361.902-.506 1-1 .079-.402-.598-.92-1-1-.402-.08-.921.598-1 1-.123.62-.365 1-1 1-.737 0-1-1.264-1-2s.264-.999 1-1h8c.735.001 1 .264 1 1s-.264 2-1 2zM7 44c0-.028-.028 0 0 0h7c.027 0 0-.028 0 0v1H7v-1zm42 3c.681 0 1 .318 1 1v2H2v-2c0-.682 1.318-1 2-1h45zm-4-3c.027 0 0-.028 0 0v1h-7v-1c0-.028-.028 0 0 0h7zm1-24c-.636 0-1.878-.38-2-1-.08-.402-.598-1.08-1-1-.403.08-.08.598 0 1 .097.494.685.639 1 1v22h-4V20c.314-.361-.098-.506 0-1 .079-.402.402-.92 0-1-.402-.08-.921.598-1 1-.123.62-.365 1-1 1-.737 0-2-1.264-2-2s1.265-.999 2-1h8c.735.001 1 .264 1 1s-.264 2-1 2zM26 8c-.819 0-1-.182-1-1 0-.819.181-2 1-2 .818 0 2 1.181 2 2 0 .818-1.182 1-2 1z"/></svg></svg></svg>