<svg width="445" height="427" xmlns="http://www.w3.org/2000/svg" xmlns:xlink="http://www.w3.org/1999/xlink" xmlns:svgjs="http://svgjs.com/svgjs" viewBox="0 263 445 427"><svg width="445" height="427" xmlns="http://www.w3.org/2000/svg" xmlns:xlink="http://www.w3.org/1999/xlink" xmlns:svgjs="http://svgjs.com/svgjs" viewBox="0 263 445 427" y="263"><svg width="445" height="427" xmlns="http://www.w3.org/2000/svg" xmlns:xlink="http://www.w3.org/1999/xlink" xmlns:svgjs="http://svgjs.com/svgjs" viewBox="0 263 445 427" y="263"><svg width="89" height="82" xmlns="http://www.w3.org/2000/svg" xmlns:xlink="http://www.w3.org/1999/xlink" xmlns:svgjs="http://svgjs.com/svgjs" viewBox="0 9.598 89 62.804" fill="#11203f" y="393"><svg xmlns="http://www.w3.org/2000/svg" xmlns:xlink="http://www.w3.org/1999/xlink" width="89" height="82" viewBox="0.052 0.257 115.028 81.172"><path paint-order="stroke fill markers" fill-rule="evenodd" d="M73.164 75.672c.934-3.615 1.575-6.748 3.454-9.787-5.389-4.775-10.633-9.53-16.12-14.392-3.056 1.294-6.122 1.92-9.21 0-2.853-1.774-4.62-4.347-5.757-7.484-.583.307-.694.296-1.151.576-4.028 2.465-8.092 4.97-12.09 7.484-3.705 2.33-7.295 4.911-10.362 8.06-4.12 4.232-7.055 9.277-8.635 14.967-.67 2.41-2.353 3.83-4.606 4.606-1.68.579-3.246 1.04-5.181 1.727-1.15-4.44-2.263-8.637-3.454-13.24 1.826-.244 3.595-.312 5.181-.577 2.182-.366 4.231-.505 6.333-1.151 5.83-1.795 8.79-7.273 7.483-13.24-.535-2.446-1.285-4.45-1.727-6.909-.712-3.975-.246-7.946 2.879-10.938.557-.534 1.091-.647 1.727-1.151.567.403 1.276.23 1.727.575 5.467 4.17 11.624 6.472 18.422 6.909 10.978.706 21.088-2.14 31.087-6.333 7.153-3 13.835-7.005 20.149-11.514 1.84-1.315 2.314-.947 4.03.576 1.38 1.224 2.49 2.535 4.03 4.03.575-1.366 1.349-2.844 1.727-4.03 1.195-3.746 2.143-7.233 3.454-10.938 1.02-2.885 2.077-5.9 3.454-8.636.927-1.843 2.684-3.396 4.605-4.605.802 2.682.411 5.623 0 8.06-.294 1.753-1.101 3.517-1.727 5.18a79.995 79.995 0 0 0-4.605 18.998c-.414 3.512-1.917 6.322-4.03 9.212-.793 1.084-1.714 2.064-2.879 3.454-1.294-3.853-2.037-7.04-2.878-10.938-8.54 6.276-18.355 9.496-28.209 13.24 4.334 2.904 8.917 5.31 13.241 7.484 4.262 2.144 8.081 4.482 12.665 6.908-7.365 5.436-15.663 8.25-23.027 13.817z"/></svg></svg><svg width="82" height="85" xmlns="http://www.w3.org/2000/svg" xmlns:xlink="http://www.w3.org/1999/xlink" xmlns:svgjs="http://svgjs.com/svgjs" viewBox="0 0.094 82 84.812" fill="#11203f" x="275" y="435"><svg xmlns="http://www.w3.org/2000/svg" xmlns:xlink="http://www.w3.org/1999/xlink" width="82" height="85" viewBox="0.215 0.282 81.264 84.05"><path paint-order="stroke fill markers" fill-rule="evenodd" d="M76.278 76.273c-3.58 3.229-7.579 4.947-12.09 5.757-2.458.44-4.999.855-7.484 1.15-4.037.482-7.957.666-12.09 1.152.298-.267.217-.356.576-.575 3.177-1.937 6.66-3.743 9.787-5.757 2.943-1.896 5.905-4.151 8.635-6.333 7.412-5.92 10.09-13.83 8.636-23.027-.357-2.254-1.204-4.107-1.728-6.332a109.04 109.04 0 0 0-.575-2.303c1.026.113 2.054.483 2.879.575 2.47.276 2.835-.653 4.03-2.878 1.3-2.428 2.024-4.757 2.302-7.484.093-.912.233-2.004 0-2.879-1.208-4.516-3.337-8.408-6.908-11.513-3.574-3.107-6.918-3.624-10.938-1.152 1.509 2.393 2.863 4.723 4.605 7.484-1.735-.094-3.219.008-4.605 0-1.995-.01-3.772-.158-5.757 0-2.344.186-4.4 1.552-5.757 3.454-1.159 1.627-2.294 3.495-3.454 5.182-.691-2.21-.397-3.377 2.878-13.817-2.483-.301-5.028-.876-7.484-1.151-1.635-.184-3.548-.375-5.18-.576-1.853-.228-3.332.455-4.606 1.727-1.263 1.261-2.26 2.7-3.454 4.03-1.865 2.074-3.785 4.367-5.757 6.332-1.842 1.834-3.937 3.189-6.908 3.455v-8.06c-.824.186-1.188-.117-1.728 0-1.325.288-2.69.993-4.03 1.151-5.136.604-9.256-2.37-9.786-7.484-.117-1.13-.074-2.314 0-3.454.04-.635.41-1.681.576-2.302.697-2.62 1.546-4.691 2.302-7.484.546.434.752.204 1.152.575C9.73 8.76 16.174 10.642 23.315 8.917c3.055-.737 6.186-1.44 9.21-2.302 3.103-.886 5.95-1.82 9.211-1.728.798.023 1.75-.623 2.303-1.15 1.485-1.42 2.706-2.303 4.606-3.455-.555 2.32-1.162 4.59-1.727 6.909-.735 3.008.936 4.627 4.03 4.605 2.73-.019 5.29-.794 7.483-2.303 2.637-1.815 4.65-4.22 6.333-6.908.402-.642.575-1.412 1.151-2.303.185 1.722.378 3.224.576 4.605.464 3.244 1.88 5.723 4.605 7.484 1.14.737 2.85 1.056 4.03 1.728 1.056.601 1.874 1.048 2.878 1.727 2.093 1.417 3.371 3.759 3.455 6.332.184 5.706-.962 11.182-2.303 16.695-1.268 5.21-2.367 10.296-3.454 15.544-1.428 6.893-1.264 13.892.576 20.724.092.342-.118.672 0 1.152z"/></svg></svg><svg width="92" height="65" xmlns="http://www.w3.org/2000/svg" xmlns:xlink="http://www.w3.org/1999/xlink" xmlns:svgjs="http://svgjs.com/svgjs" viewBox="0 0.001 92 64.997" fill="#11203f" x="125" y="446"><svg xmlns="http://www.w3.org/2000/svg" xmlns:xlink="http://www.w3.org/1999/xlink" width="92" height="65" viewBox="0.608 0.22 90.448 63.901"><path paint-order="stroke fill markers" fill-rule="evenodd" d="M25.363 64.121c-.306-2.236.046-4.235 1.151-5.757.712-.979 1.547-1.352 2.303-2.302.797-1.002 1.76-2.317 2.303-3.454 1.69-3.539 4.155-5.599 8.06-6.333.27-.05.731-.404 1.15-.576-.225-.538-.34-1.246-.575-1.727-2.284-4.656-4.129-9.172-4.605-14.392-.088-.96-.335-1.998-.576-2.878-.654.78-1.045 1.865-1.727 2.302-5.477 3.516-9.862 7.731-13.24 13.241-.328.536-.61 1.465-1.152 2.303-1.24-4.666-.542-8.833.575-13.24-4.54 3.385-9.023 6.789-13.816 10.362-1.562-3.068-3.17-6.39-4.606-9.212.175-.254.467.054.576 0 4.495-2.215 8.91-4.593 13.816-5.756.692-.164 1.017.037 1.728 0 1.556-.08 3.083-.469 3.454 1.727 3.205-4.24 6.226-8.14 9.21-12.09 1.431 1.301 3.156 2.712 4.606 4.03l-.575 1.727c.502.05.763.039 1.15 0 2.55-.25 4.598.548 6.333 2.303 1.256 1.268 2.823 2.71 4.03 4.03 1.206 1.318 2.108 2.867 3.454 4.03 2.348 2.028 4.963 2.899 8.06 2.302 2.85-.548 4.17-1.739 4.606-4.605.106-.704.569-1.588.575-2.303.01-1.074-.029-2.38 0-3.454.079-3.013 1.095-4.117 4.03-3.454 2.376.538 3.976.12 5.757-1.151 3.899-2.783 7.682-5.763 11.514-8.636 1.755-1.316 3.36-3.054 4.03-5.18.549-1.746.961-3.728 1.727-5.758 1.23 1.485 1.999 3.052 2.302 4.606.294 1.502-.417 2.668-1.727 3.454-.913.549-1.711 1.087-2.878 1.727.861 1.892 2.022 3.879 2.878 5.757-.325.19-.973-.013-1.151 0-3.92.266-7.249 2.348-10.363 4.605-1.908 1.383-3.411 2.47-5.18 4.03-4.546 4.008-9.036 8.598-14.969 11.514 3.227 1.155 6.73 1.701 8.636 4.605.621-.884.656-1.615 1.151-2.303 1.473-2.044 3.047-3.79 5.181-5.18 3.33-2.172 6.566-1.762 9.787.575 2.635 1.913 4.689 4.063 4.03 7.484-.199 1.031-.491 2.314-.576 3.454-.926-.1-.997-1.147-1.151-1.727-.44-1.657-.703-2.95-1.152-4.606-.278-1.03-.67-2.512-1.151-3.454-.5-.981-1.48-.742-2.303 0-.786.709-1.216 1.385-1.727 2.303-1.496 2.685-3.337 5.264-4.605 8.06-1.832 4.038-3.434 8.013-5.182 12.09-.618 1.442-.951 3.242-1.726 4.605-.56.983-1.547 1.937-2.879 1.727-1.295-.204-1.459-1.205-1.727-2.303-.405-1.66-1.04-3.48-1.151-5.181-.183-2.81.55-5.453 1.727-8.06.288-.639.256-1.467.575-2.303-.601-.132-1.275-.565-1.727-.575-4.375-.091-8.234.871-12.09 2.878-3.478 1.811-7.089 4.164-10.362 6.333-4.114 2.727-8.045 5.802-12.089 8.635-.623.437-.921.686-1.727 1.151zm15.543-18.997v.575c2.035-.282 4.326-.163 6.333-.575 1.162-.24 2.427-1.13 3.454-1.727 2.366-1.38 3.612-4.269 3.454-6.333-2.144-.252-4.25-.228-6.332-.576-1.66-.276-1.982-.332-2.879 1.152-1.538 2.546-2.57 4.89-4.03 7.484z"/></svg></svg><svg width="125" height="37" xmlns="http://www.w3.org/2000/svg" xmlns:xlink="http://www.w3.org/1999/xlink" xmlns:svgjs="http://svgjs.com/svgjs" viewBox="0.283 0 124.434 37" fill="#11203f" x="178" y="263"><svg xmlns="http://www.w3.org/2000/svg" xmlns:xlink="http://www.w3.org/1999/xlink" width="125" height="37" viewBox="0.572 0 123.772 36.803"><path paint-order="stroke fill markers" fill-rule="evenodd" d="M.572 36.42c.224-.498.367-.81.575-1.151 3.47-5.687 7.024-11.177 11.514-16.12 2.11-2.322 4.482-4.925 6.908-6.908 5.644-4.611 12.213-6.35 19.574-5.18 4.228.67 8.386.867 12.665 1.15 5.567.37 11.133.731 16.695 1.152 3.773.284 7.792.477 11.513 1.151 3.777.685 7.4.744 10.939-.576 4.616-1.721 9.232-3.945 13.816-5.756 2.987-1.181 5.598-2.41 8.635-3.454 2.54-.874 5.402-.813 8.06-.576.768.068 1.65.33 2.878.576-.73.263-1.437.546-1.727.575-3.496.365-6.287 1.622-9.21 3.455-3.513 2.2-6.928 4.584-10.363 6.908-2.903 1.963-5.73 3.796-8.635 5.756-4.362 2.944-9.097 4.322-14.393 4.03-6.524-.359-13.168-1.723-19.573-2.878-7.954-1.435-16.035-2.506-24.179-2.303-4.896.122-9.158.767-13.816 2.303-2.498.823-4.912 2.45-6.333 4.605-1.376 2.088-2.631 4.26-4.03 6.333-1.233 1.83-2.516 3.59-4.03 5.181-2.01 2.114-4.451 2.535-7.483 1.727z"/></svg></svg><svg width="82" height="57" xmlns="http://www.w3.org/2000/svg" xmlns:xlink="http://www.w3.org/1999/xlink" xmlns:svgjs="http://svgjs.com/svgjs" viewBox="0 0.213 82 56.574" fill="#11203f" x="231" y="449"><svg xmlns="http://www.w3.org/2000/svg" xmlns:xlink="http://www.w3.org/1999/xlink" width="82" height="57" viewBox="0.439 0.016 81.267 56.069"><path paint-order="stroke fill markers" fill-rule="evenodd" d="M7.443 54.213c1.734-6.52.032-12.76-.576-18.998-.104-1.067-.037-2.391 0-3.454.054-1.52-.636-2.54-1.727-3.454-.932-.782-1.892-1.595-2.878-2.303C.847 24.988.175 23.612.535 21.974c.777-3.538 2.22-6.683 4.03-9.786.756-1.296 1.62-2.579.575-4.03-.376-.524-.58-1.03-.575-1.727.015-1.85.504-3.545.575-5.181C8.405.892 11.25.402 14.351.098c.847-.082 1.466-.133 2.303 0 1.686.268 3.06 1.264 3.454 2.879.139.567.141 1.47.576 1.727 1.857 1.098 2.881 2.663 3.454 4.606.707 2.392 1.174 5.045 1.727 7.484.062.277-.05.293 0 .575.705 4.059 1.11 4.45 5.181 5.181 4.977.893 9.993.596 14.968 0 8.165-.977 16.028-1.768 24.179-2.878 3.675-.502 7.381-1.266 11.513-1.727-.454.808-.253 1.465-.575 1.727a21.351 21.351 0 0 1-3.454 2.302c-3.595 1.916-7.174 4.234-10.938 5.757-2.196.89-4.505.988-6.908 1.152-7.712.526-15.89.66-23.604 1.151-4.783.305-9.616 1.325-14.392 1.727-.479.04-.715-.045-1.727 0a252.624 252.624 0 0 0 2.878-2.878c3.856-3.941 4-4.03 1.727-9.787-1.423-3.611-3.41-6.545-5.756-9.786-3.639 3.563-7.62 4.081-12.09 1.726-.866 3.809-1.45 7.39 0 10.938 1.84 4.503 3.87 8.758 5.757 13.241 1.47 3.492 3.45 7.339 4.606 10.938.64 1.996.675 4.237.575 6.333-.143 3.032-1.649 4-4.605 3.454-1.956-.362-3.557-1.158-5.757-1.727z"/></svg></svg><svg width="74" height="49" xmlns="http://www.w3.org/2000/svg" xmlns:xlink="http://www.w3.org/1999/xlink" xmlns:svgjs="http://svgjs.com/svgjs" viewBox="0 0.267 74 48.467" fill="#11203f" x="330" y="543"><svg xmlns="http://www.w3.org/2000/svg" xmlns:xlink="http://www.w3.org/1999/xlink" width="74" height="49" viewBox="0.818 0.959 72.271 47.334"><path paint-order="stroke fill markers" fill-rule="evenodd" d="M73.089 1.087c-.617.765-1.272 1.78-1.727 2.303a7734.472 7734.472 0 0 0-29.36 33.965c-1.866 2.17-4.376 2.49-6.908 1.727-1.636-.492-3.009-1.102-4.605-1.727-.865-.337-2.005-.839-2.88-1.151-1.051-.377-1.545-.28-2.302.575-.379.43-.746 1.323-1.151 1.727-3.677 3.681-8.139 5.725-13.241 6.909-3.19.738-6.33 1.977-9.787 2.878-.214-2.527-.575-5.153 0-7.484.255-1.036 1.33-2.333 2.303-2.878 1.261-.706 2.578-1.028 4.03-1.152 1.838-.155 3.91.386 5.757.576 3.347.344 6.584-.61 9.21-2.878 3.356-2.899 6.65-5.52 9.788-8.636 4.67-4.638 9.282-9.615 13.816-14.392 2.709-2.854 5.27-5.284 8.06-8.06.803-.799 1.91-1.7 2.878-2.302.435-.27.622-.034 1.151 0 2.06.132 4.273-.073 6.333 0 2.642.092 5.603 0 8.635 0z"/></svg></svg><svg width="32" height="39" xmlns="http://www.w3.org/2000/svg" xmlns:xlink="http://www.w3.org/1999/xlink" xmlns:svgjs="http://svgjs.com/svgjs" viewBox="0 11.674 32 15.651" fill="#11203f" y="344"><svg xmlns="http://www.w3.org/2000/svg" xmlns:xlink="http://www.w3.org/1999/xlink" width="32" height="39" viewBox="0.205 0.9 76.033 37.188"><path paint-order="stroke fill markers" fill-rule="evenodd" d="M.205 14.14C5.78 9.742 11.433 5.214 16.9.9c1.68.857 2.346 2.563 2.879 4.03.803 2.21 1.72 4.052 2.302 6.332 1.385 5.41 2.453 6.525 8.06 6.908 2.84.195 5.778.074 8.635 0a61.967 61.967 0 0 1 3.455 0c3.063.106 5.091 1.227 6.332 4.03.804 1.816 1.313 3.816 1.727 5.757.595 2.788 1.259 5.616 1.727 8.635.662.118 1.035.509 1.727.576 2.388.228 3.272-.027 4.03-2.303.812-2.437 1.538-5.03 2.303-7.484.572-1.834 1.38-4.093 2.302-5.757 2.06-3.715 4.986-4.44 8.636-2.303 1.843 1.08 3.361 2.256 5.18 3.454-.116.237.14.448 0 .576-3.057 2.804-6.093 5.897-9.21 8.636-1.823 1.6-3.768 3.22-5.757 4.605-2.208 1.537-4.79 1.828-7.484 1.151-4.92-1.236-10.02-2.321-14.968-3.454-.85-.195-1.06-.533-1.727-1.151-1.186-1.099-2.564-2.2-4.03-2.879-6.223-2.888-12.759-5.78-18.997-8.635-3.573-1.635-6.85-3.418-10.362-5.181-1.125-.564-2.665-.947-3.455-2.303z"/></svg></svg><svg width="81" height="47" xmlns="http://www.w3.org/2000/svg" xmlns:xlink="http://www.w3.org/1999/xlink" xmlns:svgjs="http://svgjs.com/svgjs" viewBox="0 0.52 81 45.961" fill="#11203f" x="231" y="308"><svg xmlns="http://www.w3.org/2000/svg" xmlns:xlink="http://www.w3.org/1999/xlink" width="81" height="47" viewBox="0.485 0.63 80.188 45.5"><path paint-order="stroke fill markers" fill-rule="evenodd" d="M8.595 32.87c2.421.594 4.503 1.074 6.908 1.727 1.76.478 2.287.293 3.454-1.152.135-.167-.1-.387 0-.575 1.994-3.76 5.626-5.962 9.21-8.06C39.346 18.27 50.449 12 62.134 6.388c3.666-1.76 7.119-3.78 10.938-5.18 1.645-.605 3.422-.53 5.181-.577 1.88-.05 2.756 1.185 2.303 2.879-.135.507-.156.834-.576 1.151a1894.177 1894.177 0 0 1-13.816 10.362c-.335.25-.765.56-1.151.576-2.57.111-4.322 1.534-6.333 2.878-2.794 1.869-5.915 3.779-8.635 5.758-3.298 2.4-6.464 5.118-9.787 7.483-1.277.909-2.652 1.547-4.03 2.303-1.534.842-2.784.868-4.605.576-1.375-.22-3.187.463-4.606.575-.415.035-.916-.275-1.151 0-2.052 2.405-5.49 3.12-7.484 5.758-2.365 3.125-5.624 5.435-9.786 5.18-3.417-.208-7.48-4.164-8.06-7.483-.278-1.593.623-3.575 2.302-4.606 1.58-.97 3.883-.906 5.758-1.151z"/></svg></svg><svg width="40" height="73" xmlns="http://www.w3.org/2000/svg" xmlns:xlink="http://www.w3.org/1999/xlink" xmlns:svgjs="http://svgjs.com/svgjs" viewBox="0.359 0 39.282 73" fill="#11203f" x="85" y="420"><svg xmlns="http://www.w3.org/2000/svg" xmlns:xlink="http://www.w3.org/1999/xlink" width="40" height="73" viewBox="0.311 0.101 39.147 72.75"><path paint-order="stroke fill markers" fill-rule="evenodd" d="M.31 72.851c2.827-5.978 5.028-12.12 8.636-17.27 1.108-1.583 1.739-3.049 2.878-4.606 1.194-1.633 1.379-3.372.576-5.181-1.44-3.241-3.34-6.044-5.757-8.636-.472-.506-.943-1.423-1.727-2.303 1 .244 1.773.478 2.303.576 1.291.241 2.28.708 3.454 0 1.395-.84 2.78-2.172 4.605-1.727a107.33 107.33 0 0 1-1.727-1.727c-1.748-1.791-3.558-3.859-5.18-5.757-2.65-3.098-4.149-8-3.455-12.089 2.768 1.272 5.609 2.308 8.06 4.03.702.493 1.556 1.311 2.302 1.727 2.725 1.514 4.413 1.27 6.333-1.152 1.762-2.22 3.197-4.818 4.03-7.484.215-.692-.418-2.121-.576-2.878-.158-.764-.307-.987-.576-1.727-.96-2.645-1.042-3.415 1.152-5.181C27.858-.317 30.509-.181 33.125.89c2.27.93 4.276 1.866 6.332 3.454-.553.52-1.27 1.31-1.727 1.727-2.956 2.708-5.749 5.28-8.635 8.06-2.588 2.491-4.583 5.481-6.332 8.635-2.02 3.638-3.445 7.339-3.455 11.514-.003 1.328.519 2.213 1.727 2.878 2.519 1.387 2.889 3.667 2.879 6.333-.013 3.738-.66 7.627-2.303 10.938-2.486 5.003-6.391 8.808-10.363 12.665-.696.678-1.409 1.29-2.302 1.727-2.627 1.285-5.527 2.56-8.635 4.03z"/></svg></svg><svg width="80" height="27" xmlns="http://www.w3.org/2000/svg" xmlns:xlink="http://www.w3.org/1999/xlink" xmlns:svgjs="http://svgjs.com/svgjs" viewBox="0 0.171 80 26.659" fill="#11203f" x="130" y="345"><svg xmlns="http://www.w3.org/2000/svg" xmlns:xlink="http://www.w3.org/1999/xlink" width="80" height="27" viewBox="0.778 0.475 78.592 26.19"><path paint-order="stroke fill markers" fill-rule="evenodd" d="M.79 26.38C.532 19.31 4.555 13.739 11.152 11.414c2.596-.915 5.322-1.228 8.06-1.151 1.96.053 2.402-.243 2.878 1.727.37 1.528.243 3.068.576 4.605.137.628.381 1.116.576 1.727.774 2.45 2.342 3.628 4.606 2.303 1.326-.777 2.51-2.245 3.454-3.454 1.753-2.25 3.64-4.502 5.18-6.908 1.542-2.41 2.505-5.065 4.03-7.484.596-.945 1.627-1.98 2.879-2.303 1.303 1.083 1.033 2.634 1.151 4.03.218 2.561.341 5.5.576 8.06.019.211-.054.368 0 .575 1.838 7.12 7.208 8.541 13.24 6.909 1.426-.386 2.998-1.197 4.03-2.304 1.6-1.713 2.699-3.813 4.03-5.756 1.577-2.3 3.049-4.594 4.606-6.909.965-1.433 2.006-1.496 3.454-.575.88.56 1.71.87 2.302 1.727 2.351 3.402 3.053 7.493 2.303 11.513-1.138 6.104-7.213 10.038-13.24 8.636-2.557-.594-5.03-1.337-7.484-2.303-3.52-1.385-7.154-3.368-10.938-4.03-3.472-.607-6.76-.028-9.787 1.727-1.855 1.076-3.841 2.5-5.757 3.454-2.466 1.229-2.694 1.273-4.605-.575-.72-.696-1.507-1.7-2.303-2.303-3.607-2.732-7.214-3.86-11.514-2.302-2.805 1.014-5.948 2.71-8.635 4.03-1.398.687-2.429 1.375-4.03 2.302z"/></svg></svg><svg width="34" height="37" xmlns="http://www.w3.org/2000/svg" xmlns:xlink="http://www.w3.org/1999/xlink" xmlns:svgjs="http://svgjs.com/svgjs" viewBox="0 8.865 34 19.27" fill="#11203f" y="523"><svg xmlns="http://www.w3.org/2000/svg" xmlns:xlink="http://www.w3.org/1999/xlink" width="34" height="37" viewBox="0.598 0.414 63.901 36.217"><path paint-order="stroke fill markers" fill-rule="evenodd" d="M48.38 14.755c-4.092-.74-6.899 1.422-8.06 5.18-.631 2.046-1.111 4.282-1.727 6.333-.533 1.773-.886 3.55-1.727 5.182-1.835 3.56-4.955 4.917-9.211 5.18.81-1.053 1.12-2.1 1.727-2.878 2.378-3.043 5.21-6.093 7.484-9.211 1.913-2.623 3.176-5.324 3.454-8.635.27-3.21-.834-6.15-2.879-8.635-.87-1.06-1.858-1.98-3.454-2.303-.406 1.336-.587 2.77-1.15 4.03-.58 1.29-1.449 2.899-2.304 4.03-.852 1.125-1.758 1.686-2.878 2.878l-6.908-6.333c-3.05 2.3-4.807 5.27-6.909 8.636-.733-1.079-1.137-2.01-1.727-2.879-.602-.888-1.673-1.434-2.302-2.303-1.753-2.418-1.26-2.698-4.03-1.727-.674.237-1.607.428-2.303.576-.901.192-1.652.383-2.878.576.363-.382.383-.474.575-.576 8.372-4.42 17.14-8.467 26.482-10.362 7.046-1.43 13.8-1.69 20.725.575 6.53 2.136 11.833 6.591 16.119 12.09-2.184 2.935-4.638 5.584-6.908 8.635-2.427-3.681-4.804-6.997-9.211-8.06zM24.2 7.27c3.378-.5 6.274-1.34 7.485-2.303-2.87-.137-5.335.784-7.484 2.303z"/></svg></svg><svg width="61" height="51" xmlns="http://www.w3.org/2000/svg" xmlns:xlink="http://www.w3.org/1999/xlink" xmlns:svgjs="http://svgjs.com/svgjs" viewBox="0.401 0 60.199 51" fill="#11203f" x="312" y="351"><svg xmlns="http://www.w3.org/2000/svg" xmlns:xlink="http://www.w3.org/1999/xlink" width="61" height="51" viewBox="0.707 0.563 59.407 50.329"><path paint-order="stroke fill markers" fill-rule="evenodd" d="M.707 47.438c.093-.107.458.061.575 0 8.128-4.214 16.045-8.463 24.179-12.665 1.08-.558 2.317-1.317 3.454-1.727 1.797-.65 3.08-1.69 3.454-3.454.683-3.211 1.237-6.54 1.727-9.787.641-4.242.999-8.439 1.728-12.665.297-1.725.94-3.597 1.727-5.18C38.194.661 39.237.245 41.005.807c1.929 6.262 3.778 12.575 5.757 18.997 1.04.12 2.474-.107 3.454 0 3.09.339 4.776 1.997 6.332 4.606 1.832 3.069 2.847 6.322 3.454 9.786.132.75.164 2.006 0 2.879-.41-.549-.74-1.178-1.151-1.727-1.5-2.005-3.07-4.355-4.605-6.333-.523-.673-1.091-1.152-1.728-1.727-3.085-2.787-6.53-3.115-10.362-1.151-3.13 1.604-5.505 3.452-7.484 6.332-1.699 2.474-3.569 4.949-5.181 7.484-1.88 2.956-3.739 6.35-5.757 9.211-1.518 2.153-1.614 1.838-4.03.576-1.014-.53-1.863-1.198-2.878-1.727-1.402-.73-2.762-.464-4.03.576-.995.814-2.324 1.436-3.454 2.302-2.42-2.105-5.205-3.68-8.635-3.454z"/></svg></svg><svg width="61" height="39" xmlns="http://www.w3.org/2000/svg" xmlns:xlink="http://www.w3.org/1999/xlink" xmlns:svgjs="http://svgjs.com/svgjs" viewBox="0 0.489 61 38.023" fill="#11203f" x="361" y="476"><svg xmlns="http://www.w3.org/2000/svg" xmlns:xlink="http://www.w3.org/1999/xlink" width="61" height="39" viewBox="0.042 0.732 60.477 37.697"><path paint-order="stroke fill markers" fill-rule="evenodd" d="M2.943 15.124c.447.92.787 1.711 1.15 2.303 1.082 1.763 2.156 3.59 3.455 5.18 2.796 3.424 6.67 4.876 10.938 4.03 4.34-.859 8.134-2.961 12.09-5.18-4.025-4.336-4.35-10.12-5.182-15.544.301.423.257.743.576 1.151 1.362 1.743 2.456 3.655 4.03 5.181 4.312 4.185 9.378 4.489 14.392 1.152 2.416-1.61 4.748-3.346 6.332-5.757 1.49-2.266 2.642-4.587 4.03-6.908 2.121 1.605 5.962 8.608 5.757 10.938-.115.08-.468.008-.575 0-1.633-.136-2.381 1.07-3.455 2.302-2.062 2.371-5.147 3.542-8.06 4.606-3.288 1.2-6.398 2.598-9.786 3.454-2.17.548-4.773.324-7.484.576-.48.677-.977 1.759-1.727 2.878-2.742 4.097-6.114 7.82-10.363 10.363-1.755 1.05-3.806 1.66-5.756 2.302-2.032.669-4.03.068-5.757-1.151-1.284-.906-2.678-2.085-4.03-2.879C.73 32.487-.112 30.303.064 27.213c.228-4.036 1.291-8.041 2.879-12.09z"/></svg></svg><svg width="61" height="42" xmlns="http://www.w3.org/2000/svg" xmlns:xlink="http://www.w3.org/1999/xlink" xmlns:svgjs="http://svgjs.com/svgjs" viewBox="0 0.226 61 41.548" fill="#11203f" x="150" y="424"><svg xmlns="http://www.w3.org/2000/svg" xmlns:xlink="http://www.w3.org/1999/xlink" width="61" height="42" viewBox="0.363 0.92 60.026 40.885"><path paint-order="stroke fill markers" fill-rule="evenodd" d="M33.753 30.855c-.78 1.365-1.562 2.647-2.303 4.03-1.239 2.312-3.154 3.306-5.757 2.879-2.113-.346-4.198-.367-6.332-.576-.487-.048-.834-.041-1.728 0 .917 1.164 1.306 2.188 2.303 3.454-1.816 0-3.186.237-4.605 0-1.143-.19-1.906-.107-2.879.576-.688.484-1.876.632-2.878.575.544-.64 1.203-1.686 1.727-2.302C7.62 36.825 4.077 34.697.363 32.007c2.697-2.383 6.105-2.931 9.211-1.152a39.486 39.486 0 0 1 5.757 4.03c.633.538 1.006 1.364 1.727 2.303 1.02-1.52 1.717-2.336 2.303-3.454 1.717-3.29 4.35-5.291 8.059-5.757.398-.05.697-.414 1.151-.576-1.368-2.152-2.588-4.067-4.03-6.332 1.82-.428 3.58-.694 5.182-1.152 3.43-.98 6.454-2.204 9.787-3.454 3.806-1.427 7.439-3.48 9.786-6.908 1.434-2.095 2.377-4.424 2.879-6.908.11-.549-.117-1.229 0-1.727 2.109 4.887 4.323 9.49 6.332 14.392 1.81 4.413 2.553 9.152 1.152 13.816-.082.273-.469.312-.576.576-.054.13.16.301 0 .576-.397-.435-.843-.718-1.152-1.152-1.945-2.735-3.805-5.327-5.756-8.06-.662-.926-1.484-2.1-2.303-2.878-1.67-1.583-3.316-1.883-5.181-.575-1.908 1.337-3.536 2.934-5.181 4.605-.43.436-.541 1.616-.576 2.303a38.288 38.288 0 0 0 0 4.03c.06 1.126-.642 1.537-1.727 1.727-1.05.183-2.172.377-3.454.575z"/></svg></svg><svg width="48" height="45" xmlns="http://www.w3.org/2000/svg" xmlns:xlink="http://www.w3.org/1999/xlink" xmlns:svgjs="http://svgjs.com/svgjs" viewBox="0.222 0 47.555 45" fill="#11203f" x="261" y="499"><svg xmlns="http://www.w3.org/2000/svg" xmlns:xlink="http://www.w3.org/1999/xlink" width="48" height="45" viewBox="0.43 0.348 46.671 44.163"><path paint-order="stroke fill markers" fill-rule="evenodd" d="M3.925 35.876c0-2.409-.09-4.627 0-6.908.23-5.917-.05-11.703-2.303-17.27C1.014 10.194.632 8.13.47 6.515c-.275-2.737.855-4.218 3.454-5.181C7.23.11 10.277.159 13.71.759c3.41.596 6.716 1.904 9.787 3.454 2.934 1.483 5.727 3.072 8.635 4.606 4.7 2.479 9.326 4.609 14.968 5.181-2.994 6.288-1.928 12.6 0 18.998-.698-.038-1.244-.536-1.727-.576-2.587-.215-4.935 1.35-6.908 2.878-2.645 2.048-4.595 4.668-6.333 7.484-.363.589-.543.758-1.151 1.727-.327-3.13.216-5.424.576-8.06.675-4.956 1.18-9.997 1.727-14.967.239-2.174.32-4.735 0-6.908-.737-5.005-4.127-8.105-9.211-8.636-4.31-.45-8.98.075-13.241.576-1.42.167-2.628.303-4.03.576-2.37.462-3.572 1.615-3.454 4.03.08 1.624.792 3.584 1.151 5.18.799 3.553 1.633 6.79 2.303 10.363.543 2.903.087 5.622-1.727 8.06-.17.228-.366.384-.576.575-.09.083-.301.492-.575.576z"/></svg></svg><svg width="45" height="40" xmlns="http://www.w3.org/2000/svg" xmlns:xlink="http://www.w3.org/1999/xlink" xmlns:svgjs="http://svgjs.com/svgjs" viewBox="0 0.55 45 38.899" fill="#11203f" x="102" y="287"><svg xmlns="http://www.w3.org/2000/svg" xmlns:xlink="http://www.w3.org/1999/xlink" width="45" height="40" viewBox="0.006 0.906 44.328 38.318"><path paint-order="stroke fill markers" fill-rule="evenodd" d="M44.333 1.482c-4.288 1.082-7.307 3.533-9.786 6.908-2.115 2.88-3.852 6.186-5.757 9.211-2.669 4.24-5.3 8.49-8.06 12.666-1.649 2.496-3.307 4.56-5.18 6.908-1.65 2.065-3.963 2.42-6.333 1.727-1.504-.44-3.14-1.162-4.606-1.727-1.453-.562-2.974-1.095-4.605-1.727C10.492 23.734 21.266 12.526 31.668.906c4.379.998 8.379.318 12.665.576z"/></svg></svg><svg width="37" height="37" xmlns="http://www.w3.org/2000/svg" xmlns:xlink="http://www.w3.org/1999/xlink" xmlns:svgjs="http://svgjs.com/svgjs" viewBox="0 0.296 37 36.408" fill="#11203f" x="219" y="403"><svg xmlns="http://www.w3.org/2000/svg" xmlns:xlink="http://www.w3.org/1999/xlink" width="37" height="37" viewBox="0.257 0.189 36.71 36.123"><path paint-order="stroke fill markers" fill-rule="evenodd" d="M24.048 29.404c-1.004-.61-2.027-1.03-2.878-1.727-1.715-1.405-3.493-3.167-5.18-4.606-1.197-1.018-2.185-1.955-3.455-2.878-1.205-.877-2.88-.29-4.03.575-1.552 1.168-2.375 2.793-2.879 4.606-.687 2.474-1.179 4.972-1.727 7.484-.227 1.042-.32 1.967-.575 3.454-.341-.793-.45-1.292-.576-1.727-.658-2.266-1.675-4.633-2.303-6.908-.466-1.694-.062-3.166 1.152-4.606 4.103-4.87 8.035-9.48 12.089-14.392 1.636-1.982 3.394-3.905 5.181-5.757.589-.61 1.578-1.276 2.303-1.727 2.747-1.71 5.276-1.184 7.484 1.151 1.118 1.185 2.193 2.573 2.878 4.03 1.884 4.006 3.46 8.009 5.182 12.09.611 1.449-.005 2.733-.576 4.03-.396.898-.967 1.218-1.727.575-.755-.638-1.739-1.489-2.303-2.303-1.467-2.116-2.543-4.231-4.03-6.332-.694-.981-1.941-2.138-2.878-2.878-1.168-.923-1.766-.336-1.727 1.151.053 2.065.32 3.702.575 5.757.285 2.27.33 4.634.576 6.908.136 1.244.747 2.597-.576 4.03z"/></svg></svg><svg width="37" height="37" xmlns="http://www.w3.org/2000/svg" xmlns:xlink="http://www.w3.org/1999/xlink" xmlns:svgjs="http://svgjs.com/svgjs" viewBox="0 0.327 37 36.347" fill="#11203f" x="408" y="502"><svg xmlns="http://www.w3.org/2000/svg" xmlns:xlink="http://www.w3.org/1999/xlink" width="37" height="37" viewBox="0.799 0.943 36.023 35.387"><path paint-order="stroke fill markers" fill-rule="evenodd" d="M3.725 36.33c-.88-3.13-2.42-5.96-2.879-9.21-.128-.913-.011-1.584.576-2.303 4.435-5.437 9.351-10.709 13.816-16.12 1.454-1.76 2.98-3.571 4.606-5.181.651-.645 1.5-1.27 2.303-1.727 2.563-1.46 4.288-1 6.332 1.151 1.268 1.333 2.656 2.39 3.455 4.03 1.75 3.595 3.215 7.767 4.605 11.514.46 1.24.284 2.684 0 4.03-.382 1.816-1.014 1.887-2.303.575-.796-.81-1.66-1.935-2.302-2.878-1.251-1.832-2.185-3.362-3.455-5.181-.61-.873-1.5-1.611-2.303-2.303-.427-.369-1.281-.755-1.727-.576-.394.16-.607 1.188-.575 1.728.122 2.066.32 3.7.575 5.756.298 2.415.899 5.067 1.152 7.484.108 1.036-.02 2.493-1.152 2.879-.685.234-1.575-.577-2.302-1.151-1.906-1.508-3.906-3.026-5.757-4.606-1.142-.974-2.248-1.986-3.454-2.878-1.268-.939-2.803-.946-4.03 0-1.418 1.09-2.396 2.37-2.878 4.03-.718 2.466-1.168 4.973-1.727 7.483-.248 1.114-.389 2.327-.576 3.454z"/></svg></svg><svg width="10" height="32" xmlns="http://www.w3.org/2000/svg" xmlns:xlink="http://www.w3.org/1999/xlink" xmlns:svgjs="http://svgjs.com/svgjs" viewBox="0 12.159 10 7.682" fill="#11203f" y="375"><svg xmlns="http://www.w3.org/2000/svg" xmlns:xlink="http://www.w3.org/1999/xlink" width="10" height="32" viewBox="0.177 0.987 39.719 30.511"><path paint-order="stroke fill markers" fill-rule="evenodd" d="M39.896 15.379c-3.153 4.35-5.072 9.176-4.606 14.967-.795-.572-1.75-.774-2.303-1.15-2.42-1.65-4.39-3.7-6.908-5.182-2.528-1.489-5.703-1.55-8.635-1.151-2.59.352-4.82 1.214-6.332 3.454-1.197 1.773-2.138 3.237-3.455 5.18-.403-.424-.87-.217-1.151-.575-1.328-1.688-2.799-3.424-4.03-5.18-.855-1.224-1.134-2.663-1.727-4.03-1.044-2.409-.66-4.457 1.151-6.333.938-.972 1.79-2.074 2.879-2.879a43.915 43.915 0 0 1 3.454-2.303c3.82-2.26 6.972-4.722 8.635-9.21.143.61.38 1.135.576 1.726.946 2.843 1.778 5.854 2.879 8.636.487 1.235 1.43 2.43 2.302 3.454 2.773 3.248 6.28 4.516 10.362 3.454 2.184-.568 4.594-1.959 6.909-2.878z"/></svg></svg><svg width="17" height="42" xmlns="http://www.w3.org/2000/svg" xmlns:xlink="http://www.w3.org/1999/xlink" xmlns:svgjs="http://svgjs.com/svgjs" viewBox="0.004 0 16.992 42" fill="#11203f" x="275" y="362"><svg xmlns="http://www.w3.org/2000/svg" xmlns:xlink="http://www.w3.org/1999/xlink" width="17" height="42" viewBox="0.446 0.745 16.537 40.875"><path paint-order="stroke fill markers" fill-rule="evenodd" d="M9.498 2.473c-.982 4.164.026 7.849 1.727 11.514 1.293 2.784 2.72 5.283 4.03 8.06.949 2.012 1.697 4.058 1.727 6.332.023 1.84-.844 3.58-1.727 5.18-.882 1.599-1.723 2.97-3.454 3.455-.824.23-2.042.387-2.879.576-2.731.616-5.244 1.402-7.484 4.03-.197-1.29-.474-2.59-.575-3.455-.682-5.856-.415-11.427 0-17.27.38-5.367.795-10.81 0-16.12C.499 2.356 1.76.702 4.317.746c1.96.035 3.325.655 5.181 1.728z"/></svg></svg><svg width="45" height="41" xmlns="http://www.w3.org/2000/svg" xmlns:xlink="http://www.w3.org/1999/xlink" xmlns:svgjs="http://svgjs.com/svgjs" viewBox="0 5.044 45 30.911" fill="#11203f" y="477"><svg xmlns="http://www.w3.org/2000/svg" xmlns:xlink="http://www.w3.org/1999/xlink" width="45" height="41" viewBox="0.762 0.74 58.035 39.865"><path paint-order="stroke fill markers" fill-rule="evenodd" d="M4.322 40.605C1.93 38.706 1.2 36.379.868 33.697.598 31.51.796 29.21 2.02 27.365c1.216-1.835 2.465-3.652 4.03-5.182 1.97-1.927 3.26-4.245 3.454-6.908.15-2.07-.094-4.26 0-6.333.082-1.798.555-1.955 2.302-2.302.695-.138 1.592-.59 2.303-.576 1.932.04 3.825.532 5.757.576 2.893.065 5.446-.218 8.06-1.727 4.106-2.374 8.61-2.96 13.24-2.879 3 .053 6.218.183 9.211 0 1.48-.09 2.566-.831 4.03-1.151 1.474-.322 2.183-.166 2.878 1.151 1.362 2.58 1.948 5.293 1.152 8.06-.853 2.97-3.943 4.25-6.333 2.303-1.044-.852-1.927-1.908-2.878-2.879-1.15-1.174-2.194-2.412-3.454-3.454-2.264-1.869-4.85-2.436-7.484-1.151-2.497 1.217-4.498 3.16-6.333 5.18-2 2.204-1.991 2.57-4.605 1.152-5.163-2.8-5.217-2.946-10.363 0-6.34 3.63-9.157 9.753-10.362 16.695-.624 3.595-1.134 7.339-1.727 10.939-.079.474-.391.96-.576 1.726z"/></svg></svg><svg width="58" height="40" xmlns="http://www.w3.org/2000/svg" xmlns:xlink="http://www.w3.org/1999/xlink" xmlns:svgjs="http://svgjs.com/svgjs" viewBox="0 0.273 58 39.453" fill="#11203f" x="76" y="494"><svg xmlns="http://www.w3.org/2000/svg" xmlns:xlink="http://www.w3.org/1999/xlink" width="58" height="40" viewBox="0.124 0.369 57.856 39.355"><path paint-order="stroke fill markers" fill-rule="evenodd" d="M4.13 39.724C.256 36.704-1.028 31.318 1.25 27.06c1.063-1.987 2.407-3.626 4.03-5.18 2.23-2.138 3.319-4.496 3.454-7.485.088-1.93-.091-4.402 0-6.332.08-1.687.61-2.07 2.303-2.303 1.476-.203 3.108-.007 4.605 0 1.716.008 3.466.025 5.181 0 2.167-.031 3.83-.605 5.757-1.727 3.024-1.76 6.862-2.263 10.363-2.303a277.69 277.69 0 0 1 7.483 0c3.095.045 6.225-.274 9.211-1.151 1.84-.54 2.637-.056 3.455 1.727 1.052 2.293 1.063 4.49.575 6.908-.664 3.29-3.756 4.451-6.333 2.303-.873-.728-2.09-1.472-2.878-2.303-.983-1.04-1.828-1.912-2.878-2.878-3.02-2.778-5.79-3.444-9.211-1.152-1.88 1.26-3.578 2.988-5.181 4.606-2.128 2.146-2.024 1.974-4.606.575-5.24-2.84-4.618-2.39-9.786.576-5.703 3.274-9.12 8.03-10.363 14.392A560.065 560.065 0 0 0 4.13 37.998c-.07.405.135 1.08 0 1.726z"/></svg></svg><svg width="28" height="45" xmlns="http://www.w3.org/2000/svg" xmlns:xlink="http://www.w3.org/1999/xlink" xmlns:svgjs="http://svgjs.com/svgjs" viewBox="0.611 0 26.779 45" fill="#11203f" x="72" y="554"><svg xmlns="http://www.w3.org/2000/svg" xmlns:xlink="http://www.w3.org/1999/xlink" width="28" height="45" viewBox="0.748 0.45 26.379 44.327"><path paint-order="stroke fill markers" fill-rule="evenodd" d="M25.4.45c.435 3.032 1.286 6.126 1.727 9.21-.847-.083-2.059-.453-2.878-.575-1.958-.292-3.396.65-4.606 2.302-3.886 5.31-5.807 10.834-6.908 17.271-.738 4.316-1.233 8.872-1.151 13.24.014.774 0 1.567 0 2.879a19.318 19.318 0 0 1-1.152-2.303c-.516-1.218-.987-1.343-2.302-1.151-3.31.482-3.954.119-5.757-4.03-.453-1.042-.81-1.788-1.152-2.878-.872-2.791-.564-5.46 1.152-8.06 1.962-2.972 3.42-6.102 5.18-9.211 1.66-2.931 3.323-5.697 5.758-8.06 2.4-2.329 5.367-4.4 8.635-5.18 1.79-.428 3.144-.983 3.454-2.879.029-.179-.15-.363 0-.575z"/></svg></svg><svg width="36" height="39" xmlns="http://www.w3.org/2000/svg" xmlns:xlink="http://www.w3.org/1999/xlink" xmlns:svgjs="http://svgjs.com/svgjs" viewBox="0.241 0 35.519 39" fill="#11203f" x="89" y="587"><svg xmlns="http://www.w3.org/2000/svg" xmlns:xlink="http://www.w3.org/1999/xlink" width="36" height="39" viewBox="0.872 0.283 34.586 37.975"><path paint-order="stroke fill markers" fill-rule="evenodd" d="M35.457 4.869c-2.119 1.862-4.32 3.963-6.332 5.757-3.265 2.91-6.099 5.62-8.636 9.21-2.605 3.688-4.824 7.548-5.18 12.09-.156 1.98 0 4.303 0 6.333-.217-.236-.28-.834-.577-1.152-1.559-1.671-3.015-2.963-4.605-4.605-1.691-1.747-3.595-3.348-5.181-5.182C1.858 23.75.61 19.557.916 14.656c.551.178.758-.225 1.151 0 2.545 1.446 5.525 3.143 8.06 4.605.741.426.94.829 1.727 1.151 1.836.752 3.787.254 5.181-1.151 2.395-2.412 3.667-5.473 4.606-8.635.168-.568-.43-1.11-.576-1.727-.164-.692-.33-1.056-.576-1.727-1.071-2.937-.844-3.943 1.727-5.757C24.178.03 26.31.013 28.55.839c2.501.922 4.787 2.252 6.908 4.03z"/></svg></svg><svg width="37" height="31" xmlns="http://www.w3.org/2000/svg" xmlns:xlink="http://www.w3.org/1999/xlink" xmlns:svgjs="http://svgjs.com/svgjs" viewBox="0.017 0 36.966 31" fill="#11203f" x="206" y="576"><svg xmlns="http://www.w3.org/2000/svg" xmlns:xlink="http://www.w3.org/1999/xlink" width="37" height="31" viewBox="0.205 0.325 35.811 30.031"><path paint-order="stroke fill markers" fill-rule="evenodd" d="M.205 20.474c1.943-.459 4-1.199 5.757-1.727 3.616-1.088 6.865-2.054 10.362-3.454 3.716-1.488 7.252-3.916 9.21-7.484 1.05-1.911 1.546-4.265 2.303-6.333.192-.522.478-.745.576-1.151 1.843 4.241 3.321 8.384 5.181 12.665 1.144 2.633 1.97 5.188 2.303 8.06a17.715 17.715 0 0 1-1.151 8.635c-.37-.352-.898-.218-1.152-.575-1.985-2.793-3.91-5.753-5.757-8.636-3.155-4.925-6.137-5.138-10.362-1.151-.312.294-.243.308-.576.575-1.83 1.478-2.622 3.44-2.302 5.758.058.423-.016.722 0 1.15.088 2.54-.404 3.032-2.879 3.455-2.485.425-4.61-.613-6.332-2.303-2.22-2.179-3.555-4.602-5.181-7.484z"/></svg></svg><svg width="21" height="32" xmlns="http://www.w3.org/2000/svg" xmlns:xlink="http://www.w3.org/1999/xlink" xmlns:svgjs="http://svgjs.com/svgjs" viewBox="0 0.018 21 31.965" fill="#11203f" x="153" y="402"><svg xmlns="http://www.w3.org/2000/svg" xmlns:xlink="http://www.w3.org/1999/xlink" width="21" height="32" viewBox="0.173 0.227 20.793 31.651"><path paint-order="stroke fill markers" fill-rule="evenodd" d="M20.966 19.466c-4.38-1.668-6.123-1.324-8.635 2.302-1.097 1.584-1.823 3.567-2.879 5.181-.78 1.194-1.335 2.422-2.302 3.454C4.747 32.967 1.86 32.06.817 28.677c-.805-2.606-.912-5.517 0-8.06C2.505 15.913 4.66 11.415 6.574 6.8c.753-1.816 1.689-3.598 2.878-5.18.907-1.207 2.476-1.741 4.03-1.152.638.24 1.125.932 1.152 1.727.216 6.367 2.433 11.85 6.332 17.27z"/></svg></svg><svg width="27" height="41" xmlns="http://www.w3.org/2000/svg" xmlns:xlink="http://www.w3.org/1999/xlink" xmlns:svgjs="http://svgjs.com/svgjs" viewBox="0.28 0 26.44 41" fill="#11203f" x="205" y="359"><svg xmlns="http://www.w3.org/2000/svg" xmlns:xlink="http://www.w3.org/1999/xlink" width="27" height="41" viewBox="0.045 0.292 26 40.318"><path paint-order="stroke fill markers" fill-rule="evenodd" d="M.629 31.379c1.311.677 1.877 1.224 2.878 1.727 1.212.608 2.805 1.145 4.03 1.727 1.187.563 2.004.484 2.879-.576 7.971-9.656 11.378-20.412 7.483-32.814-.104-.335.177-.509 0-1.151.568.342.833.293 1.152.575 6.335 5.592 8.133 12.581 6.332 20.725-1.347 6.09-4.213 11.2-9.21 14.968-3.68 2.775-8.18 3.671-12.666 4.03-2.15.172-3.365-.743-3.454-2.879-.085-2.04.52-3.946.576-6.332z"/></svg></svg><svg width="26" height="33" xmlns="http://www.w3.org/2000/svg" xmlns:xlink="http://www.w3.org/1999/xlink" xmlns:svgjs="http://svgjs.com/svgjs" viewBox="0.025 0 25.95 33" fill="#11203f" x="127" y="313"><svg xmlns="http://www.w3.org/2000/svg" xmlns:xlink="http://www.w3.org/1999/xlink" width="26" height="33" viewBox="0.734 0.073 25.193 32.037"><path paint-order="stroke fill markers" fill-rule="evenodd" d="M25.666 12.902c-1.204-.74-1.46-1.897-1.727-2.879-.45-1.652-.71-3.526-1.152-5.18-.252-.944-.604-2.04-1.727-2.304-1.255-.295-1.731.863-2.302 1.727a37.279 37.279 0 0 0-2.879 5.182 2033.62 2033.62 0 0 0-7.484 16.694c-.692 1.562-1.332 3.216-2.303 4.606-1.421 2.038-3.077 1.743-4.03-.576-.456-1.11-1.017-2.261-1.15-3.454-.451-4.035-.103-7.757 1.726-11.514a51.427 51.427 0 0 1 5.757-9.21c1.424-1.81 2.574-3.464 4.606-4.606 2.89-1.624 5.912-1.877 8.635 0 1.164.802 2.483 1.84 3.454 2.878.46.493.51 1.07.576 1.727.22 2.194.456 4.571 0 6.909z"/></svg></svg><svg width="30" height="38" xmlns="http://www.w3.org/2000/svg" xmlns:xlink="http://www.w3.org/1999/xlink" xmlns:svgjs="http://svgjs.com/svgjs" viewBox="0 0.166 30 37.668" fill="#11203f" x="225" y="299"><svg xmlns="http://www.w3.org/2000/svg" xmlns:xlink="http://www.w3.org/1999/xlink" width="30" height="38" viewBox="0.175 0.977 28.926 36.32"><path paint-order="stroke fill markers" fill-rule="evenodd" d="M20.351.996c3.108-.038 5.422 1.176 7.484 3.454.376.416.927.64 1.152 1.151.26.594.078 1.522-.576 1.728-.807.253-2.038-.043-2.878 0-3.287.165-6.5.403-9.787.575-1.35.072-2.695.338-4.03.576-2.64.47-4.476 2.013-5.18 4.605-.468 1.72-.412 3.416-.577 5.182-.38 4.057-.838 8.024-1.151 12.089-.103 1.35-.278 2.711-.576 4.03-.167.74-.605 1.852-1.151 2.302-.518.427-1.054.708-1.727.576-.844-.167-1.3-1.01-1.152-1.727.519-2.52 1.307-5.524 1.728-8.06.167-1.011.264-1.88 0-2.878C.784 20.282.117 15.825.202 11.359c.037-1.937.39-3.069 2.303-4.03C7.24 4.948 12.171 2.483 17.473 1.57c.424-.072.725-.534 1.151-.575.498-.05 1.336.018 1.727 0z"/></svg></svg><svg width="33" height="23" xmlns="http://www.w3.org/2000/svg" xmlns:xlink="http://www.w3.org/1999/xlink" xmlns:svgjs="http://svgjs.com/svgjs" viewBox="0 0.252 33 22.496" fill="#11203f" x="338" y="399"><svg xmlns="http://www.w3.org/2000/svg" xmlns:xlink="http://www.w3.org/1999/xlink" width="33" height="23" viewBox="0.037 0.014 32.936 22.452"><path paint-order="stroke fill markers" fill-rule="evenodd" d="M.612 5.77c.578.894 1.03 2.093 1.727 2.88 1.51 1.7 2.812 3.827 4.606 5.18 3.365 2.543 7.137 2.362 10.938.576 2.298-1.08 4.243-2.598 5.757-4.606 1.84-2.442 3.505-4.919 5.18-7.484.382-.582.584-1.223 1.152-2.302.959 3.606 2.076 6.624 2.879 9.786.365 1.437-.112 2.384-1.152 3.455-2.085 2.145-4.72 4.15-7.484 5.18-3.473 1.297-6.796 2.449-10.362 3.455-1.693.477-3.402.529-5.181.575-.717.019-1.673-.745-2.303-1.15-1.608-1.038-2.688-2.31-3.454-4.03C1.33 13.722.702 9.548.037 5.77h.575z"/></svg></svg><svg width="34" height="23" xmlns="http://www.w3.org/2000/svg" xmlns:xlink="http://www.w3.org/1999/xlink" xmlns:svgjs="http://svgjs.com/svgjs" viewBox="0 0.039 34 22.921" fill="#11203f" x="144" y="529"><svg xmlns="http://www.w3.org/2000/svg" xmlns:xlink="http://www.w3.org/1999/xlink" width="34" height="23" viewBox="0.606 0.695 32.487 21.901"><path paint-order="stroke fill markers" fill-rule="evenodd" d="M23.058 19.692c-.456 0-.73-.124-1.151 0-1.986.587-3.832.977-5.757 1.727-2.248.876-4.583.905-6.908 1.152-.884.093-2.086-.067-2.879-.576-1.605-1.03-2.694-2.875-3.454-4.606C1.397 13.945.981 10.264.606 6.452c.268.324.313.823.576 1.151 1.426 1.78 2.962 3.634 4.605 5.181 4.168 3.92 8.978 4.214 13.817 1.151 3.15-1.994 5.544-4.356 7.484-7.483 1.048-1.692 1.75-3.748 2.878-5.757.229.57.458.734.576 1.151.685 2.404 1.574 5.093 2.303 7.484.638 2.094.042 3.908-1.727 5.181-1.903 1.37-3.8 2.735-5.757 4.03-.701.463-1.605.683-2.303 1.151z"/></svg></svg><svg width="44" height="22" xmlns="http://www.w3.org/2000/svg" xmlns:xlink="http://www.w3.org/1999/xlink" xmlns:svgjs="http://svgjs.com/svgjs" viewBox="0 0.058 44 21.883" fill="#11203f" x="32" y="551"><svg xmlns="http://www.w3.org/2000/svg" xmlns:xlink="http://www.w3.org/1999/xlink" width="44" height="22" viewBox="0.347 0.397 43.176 21.474"><path paint-order="stroke fill markers" fill-rule="evenodd" d="M43.524 1.146c-6.228.487-10.86 3.724-15.544 6.909-3.904 2.652-7.575 5.46-11.513 8.06-2.437 1.608-5.445 2.721-8.06 4.029-1.303.652-2.96 1.231-4.606 1.727-1.195-3.63-2.275-6.783-3.454-10.362 6.433.567 12.372-2.28 17.847-4.606 4.011-1.704 8.02-3.05 12.09-4.605C33.774.963 37.42-.015 41.22.57c.493.076.672-.131 1.151 0 .256.069.567.287 1.152.575z"/></svg></svg><svg width="26" height="22" xmlns="http://www.w3.org/2000/svg" xmlns:xlink="http://www.w3.org/1999/xlink" xmlns:svgjs="http://svgjs.com/svgjs" viewBox="0.234 0 25.532 22" fill="#11203f" x="167" y="540"><svg xmlns="http://www.w3.org/2000/svg" xmlns:xlink="http://www.w3.org/1999/xlink" width="26" height="22" viewBox="0.058 0.107 25.33 21.826"><path paint-order="stroke fill markers" fill-rule="evenodd" d="M.058 8.692c3.165-.19 5.875-1.82 8.06-4.03.201-.203.373-.374.575-.575C12.723.071 17.217-.939 22.51 1.208c.695.282 1.954.38 2.878.576-2.876 6.46-6.172 13.327-9.21 20.15-2.929-3.92-4.97-8.281-9.212-10.363-2.227-1.093-4.6-1.948-6.908-2.879z"/></svg></svg><svg width="15" height="30" xmlns="http://www.w3.org/2000/svg" xmlns:xlink="http://www.w3.org/1999/xlink" xmlns:svgjs="http://svgjs.com/svgjs" viewBox="0.644 0 13.711 30" fill="#11203f" x="397" y="416"><svg xmlns="http://www.w3.org/2000/svg" xmlns:xlink="http://www.w3.org/1999/xlink" width="15" height="30" viewBox="0.843 0.284 13.229 28.943"><path paint-order="stroke fill markers" fill-rule="evenodd" d="M7.24 29.069c-1.814.268-3.135.27-4.605-.576-1.213-.698-2.034-1.526-1.727-2.878 1.118-4.915 1.1-9.967 1.151-14.968.036-3.494.3-6.825 1.152-10.363 1.261 1.08 2.802 1.996 4.03 2.879 1.211.871 2.218 1.46 3.454 2.303 2.806 1.913 4.19 6.033 2.878 9.21-.43 1.045-1.105 1.926-1.727 2.879-.741 1.134-1.554 2.324-2.303 3.454-1.74 2.625-2.125 3.387-2.302 8.06z"/></svg></svg><svg width="17" height="28" xmlns="http://www.w3.org/2000/svg" xmlns:xlink="http://www.w3.org/1999/xlink" xmlns:svgjs="http://svgjs.com/svgjs" viewBox="0.33 0 16.34 28" fill="#11203f" x="269" y="567"><svg xmlns="http://www.w3.org/2000/svg" xmlns:xlink="http://www.w3.org/1999/xlink" width="17" height="28" viewBox="0.286 0.694 15.787 27.053"><path paint-order="stroke fill markers" fill-rule="evenodd" d="M15.498 27.747c-2.055-1.35-3.737-2.631-5.757-4.03-1.88-1.3-3.984-2.59-5.757-4.03C.368 16.75-.606 13.072 1.106 8.75c.856-2.161 2.043-4.48 3.454-6.332C6.858-.602 11.28.581 12.62 4.144c.581 1.548.46 3.071 0 4.605a49.184 49.184 0 0 1-1.152 3.455c-1.392 3.675-.845 7.632 1.151 10.938.982 1.626 2.378 3.038 3.454 4.605h-.575z"/></svg></svg><svg width="16" height="31" xmlns="http://www.w3.org/2000/svg" xmlns:xlink="http://www.w3.org/1999/xlink" xmlns:svgjs="http://svgjs.com/svgjs" viewBox="0.404 0 15.193 31" fill="#11203f" x="47" y="485"><svg xmlns="http://www.w3.org/2000/svg" xmlns:xlink="http://www.w3.org/1999/xlink" width="16" height="31" viewBox="0.485 0.367 14.528 29.643"><path paint-order="stroke fill markers" fill-rule="evenodd" d="M8.95.367c-.424 2.324-.297 4.503-.575 6.332-.665 4.382-.191 8.03 3.454 10.938.445.355.761.735 1.151 1.152 3.686 3.932 1.783 8.458-1.15 10.362-1.218.79-2.675 1.152-4.03.576a19.759 19.759 0 0 1-2.303-1.152C1.336 26.181-.367 22.301.89 17.637c.295-1.099.66-1.854 1.151-2.878 2.1-4.378 4.19-8.884 6.333-13.241.122-.247.17-.583.576-1.151z"/></svg></svg><svg width="24" height="17" xmlns="http://www.w3.org/2000/svg" xmlns:xlink="http://www.w3.org/1999/xlink" xmlns:svgjs="http://svgjs.com/svgjs" viewBox="0 0.178 24 16.643" fill="#11203f" x="188" y="308"><svg xmlns="http://www.w3.org/2000/svg" xmlns:xlink="http://www.w3.org/1999/xlink" width="24" height="17" viewBox="0.934 0.445 23.028 15.969"><path paint-order="stroke fill markers" fill-rule="evenodd" d="M23.962 9.842c-2.631 1.799-4.97 3.572-7.484 5.181-2.572 1.647-5.255 1.823-8.06.576-2.526-1.123-5.035-2.239-7.484-3.454C4.032 8.589 6.644 5.128 9.57 1.783c1.388-1.587 1.735-1.739 3.454-.576 1.415.957 2.691 2.389 4.03 3.454 2.17 1.727 4.454 3.198 6.908 5.181z"/></svg></svg><svg width="26" height="42" xmlns="http://www.w3.org/2000/svg" xmlns:xlink="http://www.w3.org/1999/xlink" xmlns:svgjs="http://svgjs.com/svgjs" viewBox="0.155 0 25.69 42" fill="#11203f" x="289" y="543"><svg xmlns="http://www.w3.org/2000/svg" xmlns:xlink="http://www.w3.org/1999/xlink" width="26" height="42" viewBox="0.103 0.511 25.355 41.453"><path paint-order="stroke fill markers" fill-rule="evenodd" d="M22.555.511c1.987 4.693 3.086 9.376 2.879 14.392-.076 1.851-1.116 3.365-2.303 4.606-2.936 3.07-4.72 6.54-6.333 10.362-.522 1.236-.366 2.701-.575 4.03-.41 2.61.017 4.877 1.727 6.908.272.324.338.8.575 1.151.024.034.053-.183 0 0H12.77c.05-1.077.57-1.907.575-2.878.007-1.643.17-2.98 0-4.606-.299-2.859-1.807-4.515-4.605-5.18-1.042-.248-2.411-.334-3.454-.576C3 28.188 1.14 27.137.103 24.69c1.028.574 1.855 1.148 2.879 1.727 4.282 2.422 4.87 2.08 8.635-1.152 7.268-6.238 11.247-13.926 10.938-23.603-.016-.498 0-.653 0-1.15z"/></svg></svg><svg width="11" height="31" xmlns="http://www.w3.org/2000/svg" xmlns:xlink="http://www.w3.org/1999/xlink" xmlns:svgjs="http://svgjs.com/svgjs" viewBox="0.38 0 10.24 31" fill="#11203f" x="89" y="514"><svg xmlns="http://www.w3.org/2000/svg" xmlns:xlink="http://www.w3.org/1999/xlink" width="11" height="31" viewBox="0.34 0.151 10.079 30.512"><path paint-order="stroke fill markers" fill-rule="evenodd" d="M6.673.151c2.18 3.123 3.022 6.801 3.454 10.363.695 5.73.005 11.593-.576 17.27-.099.972-.414 1.628-.575 2.879-3.022-1.351-5.587-2.668-8.636-4.03C2.53 17.779 4.504 8.916 6.673.15z"/></svg></svg><svg width="16" height="18" xmlns="http://www.w3.org/2000/svg" xmlns:xlink="http://www.w3.org/1999/xlink" xmlns:svgjs="http://svgjs.com/svgjs" viewBox="0 0.438 16 17.125" fill="#11203f" x="12" y="407"><svg xmlns="http://www.w3.org/2000/svg" xmlns:xlink="http://www.w3.org/1999/xlink" width="16" height="18" viewBox="0.199 0.914 15.554 16.648"><path paint-order="stroke fill markers" fill-rule="evenodd" d="M.199 4.104C2.373 3.329 4.075 2.462 5.956 1.8c.537-.19 1.176-.432 1.727-.576 4.514-1.183 7.86 1.067 8.06 5.757.124 2.966-.871 6.013-2.304 8.635-1.043 1.91-1.902 2.242-4.03 1.727-2.373-.576-4.25-1.586-5.756-3.454-.535-.661-1.051-2.004-1.151-2.878-.138-1.195-.095-2.248 0-3.454.1-1.27.12-2.356-1.152-2.879C.981 4.527.72 4.497.2 4.104z"/></svg></svg><svg width="26" height="28" xmlns="http://www.w3.org/2000/svg" xmlns:xlink="http://www.w3.org/1999/xlink" xmlns:svgjs="http://svgjs.com/svgjs" viewBox="0 0.012 26 27.976" fill="#11203f" x="105" y="512"><svg xmlns="http://www.w3.org/2000/svg" xmlns:xlink="http://www.w3.org/1999/xlink" width="26" height="28" viewBox="0.46 1 24.774 26.657"><path paint-order="stroke fill markers" fill-rule="evenodd" d="M.46 5.03C3.71 3.578 6.844 2.519 10.246 1v2.878c.003 4.797 2.1 8.08 6.333 10.362 1.758.948 3.496 2.388 5.18 3.454 2.65 1.678 3.629 3.798 3.455 6.909-.14 2.528-1.583 3.48-4.03 2.878-1.984-.488-3.85-1.342-5.18-2.878-.603-.697-.94-1.37-1.152-2.303-.521-2.29-.531-4.65-1.152-6.908-.781-2.847-2.73-4.713-5.756-5.181-1.055-.164-2.44-.25-3.455-.576C2.43 8.975 1.45 7.187.46 5.03z"/></svg></svg><svg width="17" height="13" xmlns="http://www.w3.org/2000/svg" xmlns:xlink="http://www.w3.org/1999/xlink" xmlns:svgjs="http://svgjs.com/svgjs" viewBox="0.549 0 15.903 13" fill="#11203f" x="104" y="354"><svg xmlns="http://www.w3.org/2000/svg" xmlns:xlink="http://www.w3.org/1999/xlink" width="17" height="13" viewBox="0.308 0.108 15.738 12.865"><path paint-order="stroke fill markers" fill-rule="evenodd" d="M.884.686c2.852.705 5.021.328 7.484 0 1.267-.168 2.757-.61 4.03-.576 1.93.053 3.022.993 3.454 2.879.996 4.349-1.952 8.892-6.333 9.787-1.363.278-2.657.249-4.03 0C2.386 12.214.303 9.615.31 6.443.311 4.676.796 2.717.883.686z"/></svg></svg><svg width="19" height="17" xmlns="http://www.w3.org/2000/svg" xmlns:xlink="http://www.w3.org/1999/xlink" xmlns:svgjs="http://svgjs.com/svgjs" viewBox="0 0.402 19 16.196" fill="#11203f" x="39" y="354"><svg xmlns="http://www.w3.org/2000/svg" xmlns:xlink="http://www.w3.org/1999/xlink" width="19" height="17" viewBox="0.255 0.785 18.422 15.703"><path paint-order="stroke fill markers" fill-rule="evenodd" d="M.255 9.321C1.386 7.823 2.43 6.243 3.71 4.716c2.918-3.48 7.15-4.702 11.514-3.454 1.158.331 2.033.653 3.454 1.151-2.983 4.064-5.57 8.383-8.636 12.09-2.41 2.913-3.108 2.536-5.18-.576-.596-.892-1.017-2.088-1.728-2.878C2.498 10.34 1.23 10.11.255 9.32z"/></svg></svg><svg width="18" height="14" xmlns="http://www.w3.org/2000/svg" xmlns:xlink="http://www.w3.org/1999/xlink" xmlns:svgjs="http://svgjs.com/svgjs" viewBox="0.259 0 17.482 14" fill="#11203f" x="105" y="387"><svg xmlns="http://www.w3.org/2000/svg" xmlns:xlink="http://www.w3.org/1999/xlink" width="18" height="14" viewBox="0.46 0.548 16.695 13.37"><path paint-order="stroke fill markers" fill-rule="evenodd" d="M.46 5.106c5.274-3.847 12.83-5.492 16.694-4.03-.666 3.443-.988 7.03-2.302 10.362-.766 1.942-1.788 2.901-3.454 2.303C7.045 12.177 2.688 9.459.46 5.106z"/></svg></svg><svg width="17" height="22" xmlns="http://www.w3.org/2000/svg" xmlns:xlink="http://www.w3.org/1999/xlink" xmlns:svgjs="http://svgjs.com/svgjs" viewBox="0.426 0 16.147 22" fill="#11203f" x="242" y="611"><svg xmlns="http://www.w3.org/2000/svg" xmlns:xlink="http://www.w3.org/1999/xlink" width="17" height="22" viewBox="0.425 0.442 15.634 21.301"><path paint-order="stroke fill markers" fill-rule="evenodd" d="M.473 21.743c0-2.334-.012-4.845 0-6.909.004-.826-.301-1.325.575-1.727C6.838 10.45 11.631 6.641 15.44 1.593c.123-.163.18-.805.576-1.151-.125.686.142 1.321 0 1.727-1.177 3.371-2.213 7.015-3.454 10.363-1.547 4.172-4.845 6.932-9.21 8.06-1.018.262-1.54.707-2.88 1.15z"/></svg></svg><svg width="25" height="12" xmlns="http://www.w3.org/2000/svg" xmlns:xlink="http://www.w3.org/1999/xlink" xmlns:svgjs="http://svgjs.com/svgjs" viewBox="0 0.101 25 11.797" fill="#11203f" x="288" y="398"><svg xmlns="http://www.w3.org/2000/svg" xmlns:xlink="http://www.w3.org/1999/xlink" width="25" height="12" viewBox="0.528 0.438 24.179 11.41"><path paint-order="stroke fill markers" fill-rule="evenodd" d="M24.706.438c-1.923 2.115-3.667 4.396-5.756 6.333-1.711 1.585-3.705 2.93-5.757 4.03-3.233 1.735-6.457 1.289-9.211-1.152C2.479 8.32 1.649 7.012.528 5.044c.752 0 1.264-.035 1.727 0 7.14.544 13.536-1.475 20.149-4.03.725-.281 1.554-.349 2.302-.576z"/></svg></svg><svg width="13" height="31" xmlns="http://www.w3.org/2000/svg" xmlns:xlink="http://www.w3.org/1999/xlink" xmlns:svgjs="http://svgjs.com/svgjs" viewBox="0.523 0 11.954 31" fill="#11203f" x="128" y="372"><svg xmlns="http://www.w3.org/2000/svg" xmlns:xlink="http://www.w3.org/1999/xlink" width="13" height="31" viewBox="0.457 0.533 11.544 29.936"><path paint-order="stroke fill markers" fill-rule="evenodd" d="M12 30.468c-2.78-.441-5.69-.937-8.059-2.303-1.399-.805-2.214-1.971-2.878-3.454-.884-1.972-.89-4 .575-5.757.915-1.097 1.93-1.813 2.879-2.878.908-1.019 1.05-2.135.576-3.454C3.858 9.185 2.95 5.357 2.79 1.684c-.018-.426-.263-.626 0-1.151.21.46.466.667.575 1.15.852 3.757 2.078 7.747 2.879 11.514.52 2.444.58 5.054 1.151 7.484.857 3.638 2.437 6.631 4.606 9.787z"/></svg></svg><svg width="17" height="11" xmlns="http://www.w3.org/2000/svg" xmlns:xlink="http://www.w3.org/1999/xlink" xmlns:svgjs="http://svgjs.com/svgjs" viewBox="0 0.202 17 10.596" fill="#11203f" x="271" y="608"><svg xmlns="http://www.w3.org/2000/svg" xmlns:xlink="http://www.w3.org/1999/xlink" width="17" height="11" viewBox="0.055 0.43 16.897 10.532"><path paint-order="stroke fill markers" fill-rule="evenodd" d="M16.952 5.745c-3.55 1.58-7.472 3.113-10.938 4.605-.776.335-1.461.486-2.303.576-1.876.202-3.197-.448-3.454-2.302-.251-1.814-.286-3.953 0-5.757C.587.786 2.21.11 4.287.564c1.452.316 2.665.547 4.03 1.151 2.679 1.185 5.824 2.702 8.635 4.03z"/></svg></svg><svg width="21" height="12" xmlns="http://www.w3.org/2000/svg" xmlns:xlink="http://www.w3.org/1999/xlink" xmlns:svgjs="http://svgjs.com/svgjs" viewBox="0.081 0 20.839 12" fill="#11203f" x="39" y="384"><svg xmlns="http://www.w3.org/2000/svg" xmlns:xlink="http://www.w3.org/1999/xlink" width="21" height="12" viewBox="0.831 0.486 19.573 11.271"><path paint-order="stroke fill markers" fill-rule="evenodd" d="M.831 2.35C4.241.135 7.346-.17 10.618 1.772c1.276.758 2.397 1.84 3.454 2.879 2.128 2.09 4.098 3.97 6.333 6.332-1.99.725-3.508.992-5.182.576-1.506-.375-3.227-1.01-4.605-1.727C6.991 7.948 4.22 5.053.831 2.349z"/></svg></svg><svg width="20" height="12" xmlns="http://www.w3.org/2000/svg" xmlns:xlink="http://www.w3.org/1999/xlink" xmlns:svgjs="http://svgjs.com/svgjs" viewBox="0 0.206 20 11.587" fill="#11203f" x="243" y="380"><svg xmlns="http://www.w3.org/2000/svg" xmlns:xlink="http://www.w3.org/1999/xlink" width="20" height="12" viewBox="0.048 0.571 19.574 11.34"><path paint-order="stroke fill markers" fill-rule="evenodd" d="M.048 2.32C3.336.178 6.641.023 9.835 1.742c1.06.572 1.96.945 2.879 1.728 2.603 2.216 4.432 5.356 6.908 8.06-1.935.61-3.614.393-5.181 0-1.512-.38-2.644-1.024-4.03-1.728C6.69 7.917 3.495 5.079.048 2.319z"/></svg></svg><svg width="11" height="19" xmlns="http://www.w3.org/2000/svg" xmlns:xlink="http://www.w3.org/1999/xlink" xmlns:svgjs="http://svgjs.com/svgjs" viewBox="0.241 0 10.518 19" fill="#11203f" x="11" y="537"><svg xmlns="http://www.w3.org/2000/svg" xmlns:xlink="http://www.w3.org/1999/xlink" width="11" height="19" viewBox="0.623 0.754 9.879 17.846"><path paint-order="stroke fill markers" fill-rule="evenodd" d="M6.38.754c.378.498.745 1.253 1.151 1.728 2.157 2.523 3.32 5.308 2.878 8.635-.349 2.637-2.259 4.638-4.605 5.757-1.722.82-3.158 1.286-5.181 1.727.234-.37.319-.799.575-1.152 1.891-2.596 2.758-5.557 3.455-8.635.597-2.641 1.213-5.4 1.727-8.06z"/></svg></svg><svg width="11" height="18" xmlns="http://www.w3.org/2000/svg" xmlns:xlink="http://www.w3.org/1999/xlink" xmlns:svgjs="http://svgjs.com/svgjs" viewBox="0.294 0 10.412 18" fill="#11203f" x="331" y="546"><svg xmlns="http://www.w3.org/2000/svg" xmlns:xlink="http://www.w3.org/1999/xlink" width="11" height="18" viewBox="0.704 0.39 9.657 16.695"><path paint-order="stroke fill markers" fill-rule="evenodd" d="M6.461.39c3.777 2.841 4.967 8.34 2.878 12.09-.87 1.562-1.859 2.771-3.454 3.453-1.553.665-3.436.685-5.18 1.152C4.608 12.07 5.16 6.47 6.46.39z"/></svg></svg><svg width="11" height="18" xmlns="http://www.w3.org/2000/svg" xmlns:xlink="http://www.w3.org/1999/xlink" xmlns:svgjs="http://svgjs.com/svgjs" viewBox="0.505 0 9.99 18" fill="#11203f" x="116" y="445"><svg xmlns="http://www.w3.org/2000/svg" xmlns:xlink="http://www.w3.org/1999/xlink" width="11" height="18" viewBox="0.973 0.644 9.586 17.271"><path paint-order="stroke fill markers" fill-rule="evenodd" d="M6.73.644c3.724 2.87 4.833 8.311 2.878 12.09-.789 1.528-1.94 2.77-3.454 3.454-1.611.728-3.333 1.23-5.18 1.727C4.745 12.851 5.431 6.675 6.73.645z"/></svg></svg><svg width="11" height="18" xmlns="http://www.w3.org/2000/svg" xmlns:xlink="http://www.w3.org/1999/xlink" xmlns:svgjs="http://svgjs.com/svgjs" viewBox="0.506 0 9.989 18" fill="#11203f" x="293" y="361"><svg xmlns="http://www.w3.org/2000/svg" xmlns:xlink="http://www.w3.org/1999/xlink" width="11" height="18" viewBox="0.709 0.019 9.903 17.846"><path paint-order="stroke fill markers" fill-rule="evenodd" d="M.709 17.29C4.759 12.433 5.01 6.197 6.466.018c.798.876 1.25 1.634 1.727 2.302 1.754 2.456 2.779 5.123 2.303 8.06-.368 2.266-1.997 4.183-4.03 5.181-1.833.9-3.858 1.537-5.757 2.303v-.576z"/></svg></svg><svg width="14" height="12" xmlns="http://www.w3.org/2000/svg" xmlns:xlink="http://www.w3.org/1999/xlink" xmlns:svgjs="http://svgjs.com/svgjs" viewBox="0 0.322 14 11.356" fill="#11203f" x="365" y="458"><svg xmlns="http://www.w3.org/2000/svg" xmlns:xlink="http://www.w3.org/1999/xlink" width="14" height="12" viewBox="0.094 0.04 13.816 11.208"><path paint-order="stroke fill markers" fill-rule="evenodd" d="M.094 11.248C.695 9.349 1.179 7.376 1.82 5.49c.275-.806.78-1.531 1.151-2.303 2.364-4.924 7.08-3.403 9.211 0 .67 1.068 1.117 2.238 1.727 3.454-2.626.539-5.138.572-7.484 1.152-2.408.594-4.356 2.071-6.332 3.454z"/></svg></svg><svg width="15" height="11" xmlns="http://www.w3.org/2000/svg" xmlns:xlink="http://www.w3.org/1999/xlink" xmlns:svgjs="http://svgjs.com/svgjs" viewBox="0.15 0 14.7 11" fill="#11203f" x="142" y="570"><svg xmlns="http://www.w3.org/2000/svg" xmlns:xlink="http://www.w3.org/1999/xlink" width="15" height="11" viewBox="0.879 0.076 13.816 10.339"><path paint-order="stroke fill markers" fill-rule="evenodd" d="M14.696 6.325c-.277.782-.456.901-.576 1.152-1.59 3.303-3.325 3.735-6.332 1.727-.654-.437-1.096-.681-1.728-1.152C4.51 6.896 3.063 5.503.88 5.75c.092-1.94.188-3.18 1.15-4.605.806-1.19 2.26-1.39 3.455-.575.817.557 1.03 1.014 1.727 1.726.95.97 1.917 1.92 2.878 2.879 1.09 1.088 2.577 2.201 4.606 1.151z"/></svg></svg><svg width="13" height="18" xmlns="http://www.w3.org/2000/svg" xmlns:xlink="http://www.w3.org/1999/xlink" xmlns:svgjs="http://svgjs.com/svgjs" viewBox="0 0.024 13 17.952" fill="#11203f" x="274" y="287"><svg xmlns="http://www.w3.org/2000/svg" xmlns:xlink="http://www.w3.org/1999/xlink" width="13" height="18" viewBox="0.136 0.331 12.09 16.695"><path paint-order="stroke fill markers" fill-rule="evenodd" d="M11.65 17.026C7.87 14.48 4.076 11.62.135 8.966 2.303 6.054 4.705 3.473 7.044.331c1.33 5.95 1.772 11.372 5.181 16.119l-.576.576z"/></svg></svg><svg width="14" height="11" xmlns="http://www.w3.org/2000/svg" xmlns:xlink="http://www.w3.org/1999/xlink" xmlns:svgjs="http://svgjs.com/svgjs" viewBox="0.165 0 13.67 11" fill="#11203f" x="249" y="558"><svg xmlns="http://www.w3.org/2000/svg" xmlns:xlink="http://www.w3.org/1999/xlink" width="14" height="11" viewBox="0.381 0.764 12.665 10.191"><path paint-order="stroke fill markers" fill-rule="evenodd" d="M.381 1.63C2.845.334 4.721.464 6.714 2.206c.956.837 2.114 1.858 2.878 2.879 1.31 1.751 2.097 3.224 3.454 5.18-3.114 1.206-5.237.837-7.483-1.15C3.224 7.046 1.787 4.445.38 1.63z"/></svg></svg><svg width="14" height="12" xmlns="http://www.w3.org/2000/svg" xmlns:xlink="http://www.w3.org/1999/xlink" xmlns:svgjs="http://svgjs.com/svgjs" viewBox="0 0.411 14 11.178" fill="#11203f" x="183" y="373"><svg xmlns="http://www.w3.org/2000/svg" xmlns:xlink="http://www.w3.org/1999/xlink" width="14" height="12" viewBox="0.177 0.95 13.241 10.571"><path paint-order="stroke fill markers" fill-rule="evenodd" d="M13.418 11.046c-3.098 1.096-5.249.207-7.484-1.727C3.57 7.275 1.644 4.667.177 1.835 2.134.58 4.102.733 5.934 1.835c.955.575 2.194 1.424 2.878 2.303 1.656 2.123 2.85 4.46 4.606 6.908z"/></svg></svg><svg width="14" height="11" xmlns="http://www.w3.org/2000/svg" xmlns:xlink="http://www.w3.org/1999/xlink" xmlns:svgjs="http://svgjs.com/svgjs" viewBox="0 0.003 14 10.994" fill="#11203f" x="195" y="631"><svg xmlns="http://www.w3.org/2000/svg" xmlns:xlink="http://www.w3.org/1999/xlink" width="14" height="11" viewBox="0.266 0.506 13.241 10.397"><path paint-order="stroke fill markers" fill-rule="evenodd" d="M13.507 10.378c-3.231 1.178-5.82.277-8.06-1.727-2.27-2.033-3.776-4.166-5.18-6.908C2.186.454 4.178.026 6.023 1.167c.95.587 2.193 1.425 2.878 2.302 1.659 2.128 2.853 4.467 4.605 6.909z"/></svg></svg><svg width="12" height="15" xmlns="http://www.w3.org/2000/svg" xmlns:xlink="http://www.w3.org/1999/xlink" xmlns:svgjs="http://svgjs.com/svgjs" viewBox="0 0.3 12 14.4" fill="#11203f" x="107" y="573"><svg xmlns="http://www.w3.org/2000/svg" xmlns:xlink="http://www.w3.org/1999/xlink" width="12" height="15" viewBox="0.187 0.447 11.514 13.816"><path paint-order="stroke fill markers" fill-rule="evenodd" d="M.187 14.263C1.597 9.338 4.569 5.401 6.519.447c1.638 1.144 3.537 1.73 5.181 2.878C7.822 6.87 4.702 11.552.187 14.263z"/></svg></svg><svg width="12" height="15" xmlns="http://www.w3.org/2000/svg" xmlns:xlink="http://www.w3.org/1999/xlink" xmlns:svgjs="http://svgjs.com/svgjs" viewBox="0 0.3 12 14.399" fill="#11203f" x="396" y="456"><svg xmlns="http://www.w3.org/2000/svg" xmlns:xlink="http://www.w3.org/1999/xlink" width="12" height="15" viewBox="0.181 0.583 11.514 13.816"><path paint-order="stroke fill markers" fill-rule="evenodd" d="M.18 14.399C1.616 9.422 5.13 5.553 7.09.583c1.61 1.154 2.972 2.283 4.605 3.454C7.83 7.68 4.61 11.639.18 14.399z"/></svg></svg><svg width="10" height="15" xmlns="http://www.w3.org/2000/svg" xmlns:xlink="http://www.w3.org/1999/xlink" xmlns:svgjs="http://svgjs.com/svgjs" fill="#11203f" x="60" y="343"><svg xmlns="http://www.w3.org/2000/svg" xmlns:xlink="http://www.w3.org/1999/xlink" width="10" height="15" viewBox="0.556 0.748 9.211 13.816"><path paint-order="stroke fill markers" fill-rule="evenodd" d="M.556 11.11C3.27 7.793 5.178 4.59 6.313.748c1.146 4.625 2.24 8.914 3.454 13.816-3.23-1.17-5.551-3.448-9.21-3.454z"/></svg></svg><svg width="7" height="12" xmlns="http://www.w3.org/2000/svg" xmlns:xlink="http://www.w3.org/1999/xlink" xmlns:svgjs="http://svgjs.com/svgjs" viewBox="0.108 0 6.785 12" fill="#11203f" x="143" y="588"><svg xmlns="http://www.w3.org/2000/svg" xmlns:xlink="http://www.w3.org/1999/xlink" width="7" height="12" viewBox="0.455 0.415 6.518 11.529"><path paint-order="stroke fill markers" fill-rule="evenodd" d="M.455 11.928C2.887 8.485 3.315 4.342 3.909.415c2.33 1.028 3.556 5.069 2.878 8.06-.51 2.254-3.033 3.629-6.332 3.453z"/></svg></svg><svg width="10" height="9" xmlns="http://www.w3.org/2000/svg" xmlns:xlink="http://www.w3.org/1999/xlink" xmlns:svgjs="http://svgjs.com/svgjs" viewBox="0.179 0 9.643 9" fill="#11203f" x="189" y="443"><svg xmlns="http://www.w3.org/2000/svg" xmlns:xlink="http://www.w3.org/1999/xlink" width="10" height="9" viewBox="0.51 0.342 8.635 8.06"><path paint-order="stroke fill markers" fill-rule="evenodd" d="M8.57.342c.208 2.721.35 5.13.575 8.06L.51 6.097C1.566 4.548 6.344 1.061 8.57.342z"/></svg></svg><svg width="7" height="13" xmlns="http://www.w3.org/2000/svg" xmlns:xlink="http://www.w3.org/1999/xlink" xmlns:svgjs="http://svgjs.com/svgjs" viewBox="0.347 0 6.307 13" fill="#11203f" x="297" y="677"><svg xmlns="http://www.w3.org/2000/svg" xmlns:xlink="http://www.w3.org/1999/xlink" width="7" height="13" viewBox="0.63 0.646 5.865 12.09"><path paint-order="stroke fill markers" fill-rule="evenodd" d="M6.495.646c-.972 3.916-1.845 7.93-2.878 12.09C1.953 11.304 1.114 10.05.739 8.13c-.303-1.546.01-3.042 1.15-4.03C3.282 2.894 5.066 1.806 6.496.646z"/></svg></svg><svg width="7" height="12" xmlns="http://www.w3.org/2000/svg" xmlns:xlink="http://www.w3.org/1999/xlink" xmlns:svgjs="http://svgjs.com/svgjs" viewBox="0.367 0 6.265 12" fill="#11203f" x="224" y="545"><svg xmlns="http://www.w3.org/2000/svg" xmlns:xlink="http://www.w3.org/1999/xlink" width="7" height="12" viewBox="0.948 0.238 6.011 11.514"><path paint-order="stroke fill markers" fill-rule="evenodd" d="M4.08 11.752c-1.488-1.322-2.373-2.466-2.878-4.03C.65 6.009.98 4.307 2.353 3.117 3.747 1.907 5.19 1.248 6.96.237 5.99 4.165 5.113 7.57 4.081 11.753z"/></svg></svg><svg width="7" height="14" xmlns="http://www.w3.org/2000/svg" xmlns:xlink="http://www.w3.org/1999/xlink" xmlns:svgjs="http://svgjs.com/svgjs" viewBox="0.095 0 6.81 14" fill="#11203f" x="151" y="390"><svg xmlns="http://www.w3.org/2000/svg" xmlns:xlink="http://www.w3.org/1999/xlink" width="7" height="14" viewBox="0.687 0.379 6.161 12.665"><path paint-order="stroke fill markers" fill-rule="evenodd" d="M3.393 13.044c-.744-.894-.784-1.791-1.151-2.303C-.127 7.44.175 5.219 3.393 2.68 4.434 1.861 5.451 1.448 6.847.38 5.77 4.716 4.471 8.702 3.393 13.044z"/></svg></svg><svg width="7" height="14" xmlns="http://www.w3.org/2000/svg" xmlns:xlink="http://www.w3.org/1999/xlink" xmlns:svgjs="http://svgjs.com/svgjs" viewBox="0.08 0 6.84 14" fill="#11203f" x="60" y="367"><svg xmlns="http://www.w3.org/2000/svg" xmlns:xlink="http://www.w3.org/1999/xlink" width="7" height="14" viewBox="0.983 0.927 5.906 12.089"><path paint-order="stroke fill markers" fill-rule="evenodd" d="M6.889 1.503C5.926 5.38 5.035 8.889 4.01 13.016c-1.662-1.385-2.418-2.875-2.878-4.605-.4-1.505.01-2.44 1.151-3.454C3.706 3.692 5.413 2.133 6.89.927v.576z"/></svg></svg><svg width="15" height="8" xmlns="http://www.w3.org/2000/svg" xmlns:xlink="http://www.w3.org/1999/xlink" xmlns:svgjs="http://svgjs.com/svgjs" viewBox="0 0.25 15 7.5" fill="#11203f" x="58" y="323"><svg xmlns="http://www.w3.org/2000/svg" xmlns:xlink="http://www.w3.org/1999/xlink" width="15" height="8" viewBox="0.253 0.599 13.816 6.908"><path paint-order="stroke fill markers" fill-rule="evenodd" d="M.253.599c4.242 2.597 8.66 3.143 13.817 2.878-1.406 1.365-2.66 1.604-4.03 2.303-1.386.707-3.148 1.089-4.606 1.727C3.631 5.017 2 3.008.254.599z"/></svg></svg><svg width="9" height="9" xmlns="http://www.w3.org/2000/svg" xmlns:xlink="http://www.w3.org/1999/xlink" xmlns:svgjs="http://svgjs.com/svgjs" viewBox="0 0.422 9 8.155" fill="#11203f" x="84" y="366"><svg xmlns="http://www.w3.org/2000/svg" xmlns:xlink="http://www.w3.org/1999/xlink" width="9" height="9" viewBox="0.159 0.435 8.635 7.825"><path paint-order="stroke fill markers" fill-rule="evenodd" d="M8.795 8.26L.159 4.23C.942 3.16 1.708 2.167 2.462 1.35c1.34-1.45 2.572-1.122 3.454.576.973 1.87 1.844 3.953 2.879 6.332z"/></svg></svg><svg width="7" height="9" xmlns="http://www.w3.org/2000/svg" xmlns:xlink="http://www.w3.org/1999/xlink" xmlns:svgjs="http://svgjs.com/svgjs" viewBox="0.113 0 6.774 9" fill="#11203f" x="196" y="525"><svg xmlns="http://www.w3.org/2000/svg" xmlns:xlink="http://www.w3.org/1999/xlink" width="7" height="9" viewBox="0.994 0.5 5.757 7.649"><path paint-order="stroke fill markers" fill-rule="evenodd" d="M6.75.665C4.744 3.122 2.928 5.783.995 8.149V.665C2.782.428 4.64.464 6.75.665z"/></svg></svg><svg width="8" height="5" xmlns="http://www.w3.org/2000/svg" xmlns:xlink="http://www.w3.org/1999/xlink" xmlns:svgjs="http://svgjs.com/svgjs" viewBox="0 0.239 8 4.521" fill="#11203f" x="408" y="456"><svg xmlns="http://www.w3.org/2000/svg" xmlns:xlink="http://www.w3.org/1999/xlink" width="8" height="5" viewBox="0.27 0.583 6.908 3.904"><path paint-order="stroke fill markers" fill-rule="evenodd" d="M.27 3.461L7.18.583C6.497 4.23 3.584 5.623.27 3.46z"/></svg></svg><svg width="8" height="5" xmlns="http://www.w3.org/2000/svg" xmlns:xlink="http://www.w3.org/1999/xlink" xmlns:svgjs="http://svgjs.com/svgjs" viewBox="0 0.445 8 4.11" fill="#11203f" x="119" y="573"><svg xmlns="http://www.w3.org/2000/svg" xmlns:xlink="http://www.w3.org/1999/xlink" width="8" height="5" viewBox="0.276 0.447 7.484 3.845"><path paint-order="stroke fill markers" fill-rule="evenodd" d="M7.76.447C5.82 4.617 3.683 5.087.276 3.325 2.504 1.68 4.984 1.53 7.76.447z"/></svg></svg><svg width="2" height="14" xmlns="http://www.w3.org/2000/svg" xmlns:xlink="http://www.w3.org/1999/xlink" xmlns:svgjs="http://svgjs.com/svgjs" viewBox="0.126 0 1.747 14" fill="#11203f" x="84" y="602"><svg xmlns="http://www.w3.org/2000/svg" xmlns:xlink="http://www.w3.org/1999/xlink" width="2" height="14" viewBox="0.159 0.231 1.653 13.241"><path paint-order="stroke fill markers" fill-rule="evenodd" d="M.735.231c1.437 4.393 1.226 8.632.576 13.241C.833 8.98.636 4.724.159.232h.576z"/></svg></svg><svg width="7" height="4" xmlns="http://www.w3.org/2000/svg" xmlns:xlink="http://www.w3.org/1999/xlink" xmlns:svgjs="http://svgjs.com/svgjs" viewBox="0 0.371 7 3.258" fill="#11203f" x="32" y="364"><svg xmlns="http://www.w3.org/2000/svg" xmlns:xlink="http://www.w3.org/1999/xlink" width="7" height="4" viewBox="0.347 0.473 5.757 2.68"><path paint-order="stroke fill markers" fill-rule="evenodd" d="M.347 2.776C2.351 1.436 3.815.78 6.104.473 4.318 3.268 3.07 3.561.347 2.776z"/></svg></svg><svg width="7" height="5" xmlns="http://www.w3.org/2000/svg" xmlns:xlink="http://www.w3.org/1999/xlink" xmlns:svgjs="http://svgjs.com/svgjs" viewBox="0.428 0 6.145 5" fill="#11203f" x="5" y="406"><svg xmlns="http://www.w3.org/2000/svg" xmlns:xlink="http://www.w3.org/1999/xlink" width="7" height="5" viewBox="0.866 0.498 5.181 4.216"><path paint-order="stroke fill markers" fill-rule="evenodd" d="M.866.498c1.601 1.259 3.537 2.738 5.181 4.03-2.42.713-4.291-.625-5.181-4.03z"/></svg></svg><svg width="6" height="5" xmlns="http://www.w3.org/2000/svg" xmlns:xlink="http://www.w3.org/1999/xlink" xmlns:svgjs="http://svgjs.com/svgjs" viewBox="0 0.167 6 4.667" fill="#11203f" x="69" y="453"><svg xmlns="http://www.w3.org/2000/svg" xmlns:xlink="http://www.w3.org/1999/xlink" width="6" height="5" viewBox="0.767 0.704 5.181 4.03"><path paint-order="stroke fill markers" fill-rule="evenodd" d="M1.918.704c1.544 1.365 2.623 2.787 4.03 4.03-1.726-.991-3.307-1.802-5.18-2.879l1.15-1.15z"/></svg></svg><svg width="3" height="8" xmlns="http://www.w3.org/2000/svg" xmlns:xlink="http://www.w3.org/1999/xlink" xmlns:svgjs="http://svgjs.com/svgjs" viewBox="0.5 0 2 8" fill="#11203f" x="308" y="532"><svg xmlns="http://www.w3.org/2000/svg" xmlns:xlink="http://www.w3.org/1999/xlink" width="3" height="8" viewBox="0.677 0.573 1.727 6.909"><path paint-order="stroke fill markers" fill-rule="evenodd" d="M.677.573c1.47 1.836 1.563 4.622 1.727 6.909C1.67 5.42 1.41 3.21.677 1.149V.573z"/></svg></svg><svg width="2" height="8" xmlns="http://www.w3.org/2000/svg" xmlns:xlink="http://www.w3.org/1999/xlink" xmlns:svgjs="http://svgjs.com/svgjs" viewBox="0 0.034 2 7.932" fill="#11203f" x="64" y="332"><svg xmlns="http://www.w3.org/2000/svg" xmlns:xlink="http://www.w3.org/1999/xlink" width="2" height="8" viewBox="0.01 0.81 1.742 6.908"><path paint-order="stroke fill markers" fill-rule="evenodd" d="M1.737 7.718C1.177 5.462.57 3.067.01.81c1.536 2.027 1.816 4.53 1.727 6.908z"/></svg></svg><svg width="3" height="6" xmlns="http://www.w3.org/2000/svg" xmlns:xlink="http://www.w3.org/1999/xlink" xmlns:svgjs="http://svgjs.com/svgjs" fill="#11203f" x="193" y="535"><svg xmlns="http://www.w3.org/2000/svg" xmlns:xlink="http://www.w3.org/1999/xlink" width="3" height="6" viewBox="0.539 0.452 2.303 4.605"><path paint-order="stroke fill markers" fill-rule="evenodd" d="M2.842.452C2.58 2.357 2.302 3.984.54 5.057 1.395 3.485 1.986 2.023 2.842.452z"/></svg></svg><svg width="2" height="5" xmlns="http://www.w3.org/2000/svg" xmlns:xlink="http://www.w3.org/1999/xlink" xmlns:svgjs="http://svgjs.com/svgjs" viewBox="0.384 0 1.233 5" fill="#11203f" x="97" y="545"><svg xmlns="http://www.w3.org/2000/svg" xmlns:xlink="http://www.w3.org/1999/xlink" width="2" height="5" viewBox="0.976 0.238 0.994 4.03"><path paint-order="stroke fill markers" fill-rule="evenodd" d="M1.551.238c.74 1.265.466 1.458-.575 4.03L1.55.238z"/></svg></svg><svg width="4" height="2" xmlns="http://www.w3.org/2000/svg" xmlns:xlink="http://www.w3.org/1999/xlink" xmlns:svgjs="http://svgjs.com/svgjs" viewBox="0.333 0 3.334 2" fill="#11203f" x="126" y="593"><svg xmlns="http://www.w3.org/2000/svg" xmlns:xlink="http://www.w3.org/1999/xlink" width="4" height="2" viewBox="0.76 0.02 2.879 1.727"><path paint-order="stroke fill markers" fill-rule="evenodd" d="M3.063 1.747C2.149 1.17 1.674.6.76.02c.918.557 1.96 1.17 2.879 1.727h-.576z"/></svg></svg><svg width="3" height="2" xmlns="http://www.w3.org/2000/svg" xmlns:xlink="http://www.w3.org/1999/xlink" xmlns:svgjs="http://svgjs.com/svgjs" fill="#11203f" x="126" y="425"><svg xmlns="http://www.w3.org/2000/svg" width="3" height="2" viewBox="0.76 0.496 1.727 1.151"><path paint-order="stroke fill markers" fill-rule="evenodd" d="M.76.496l1.727 1.151h-.576l-1.15-.576V.496z"/></svg></svg></svg></svg></svg>