<svg width="498" height="480" xmlns="http://www.w3.org/2000/svg" xmlns:xlink="http://www.w3.org/1999/xlink" xmlns:svgjs="http://svgjs.com/svgjs" viewBox="29 266 498 480"><svg width="67" height="22" xmlns="http://www.w3.org/2000/svg" xmlns:xlink="http://www.w3.org/1999/xlink" xmlns:svgjs="http://svgjs.com/svgjs" viewBox="0 0.533 67 20.934" fill="#c7deff" x="166" y="667"><svg xmlns="http://www.w3.org/2000/svg" xmlns:xlink="http://www.w3.org/1999/xlink" width="67" height="22" viewBox="0.574 0.839 65.499 20.465"><path paint-order="stroke fill markers" fill-rule="evenodd" d="M66.072 11.071c0 5.652-14.664 10.232-32.75 10.232-18.084 0-32.748-4.58-32.748-10.232C.574 5.42 15.238.84 33.323.84s32.75 4.58 32.75 10.232z"/></svg></svg><svg width="96" height="119" xmlns="http://www.w3.org/2000/svg" xmlns:xlink="http://www.w3.org/1999/xlink" xmlns:svgjs="http://svgjs.com/svgjs" viewBox="0.294 0 95.413 119" fill="#93b3e0" x="150" y="559"><svg xmlns="http://www.w3.org/2000/svg" xmlns:xlink="http://www.w3.org/1999/xlink" width="96" height="119" viewBox="0.788 0.599 94.734 118.154"><path paint-order="stroke fill markers" fill-rule="evenodd" d="M.788 2.991L37.5 114.381s9.11 9.837 26.228 0L95.522.599.788 2.991z"/></svg></svg><svg width="148" height="172" xmlns="http://www.w3.org/2000/svg" xmlns:xlink="http://www.w3.org/1999/xlink" xmlns:svgjs="http://svgjs.com/svgjs" viewBox="0 0.042 148 171.916" fill="#0761ce" x="119" y="435"><svg xmlns="http://www.w3.org/2000/svg" xmlns:xlink="http://www.w3.org/1999/xlink" width="148" height="172" viewBox="0.419 0.437 147.017 170.774"><path paint-order="stroke fill markers" fill-rule="evenodd" d="M45.872 12.119s-14.917-26.284-45.453 0l17.043 139.916s3.193 19.176 24.86 19.176h92.33l12.784-18.467L45.872 12.12z"/></svg></svg><svg width="148" height="172" xmlns="http://www.w3.org/2000/svg" xmlns:xlink="http://www.w3.org/1999/xlink" xmlns:svgjs="http://svgjs.com/svgjs" viewBox="0 0.042 148 171.916" fill="#2d96f6" x="130" y="435"><svg xmlns="http://www.w3.org/2000/svg" xmlns:xlink="http://www.w3.org/1999/xlink" width="148" height="172" viewBox="0.076 0.437 147.017 170.774"><path paint-order="stroke fill markers" fill-rule="evenodd" d="M45.53 12.119s-14.917-26.284-45.454 0L17.12 152.035s3.193 19.176 24.86 19.176h92.33l12.784-18.467L45.53 12.12z"/></svg></svg><svg width="113" height="184" xmlns="http://www.w3.org/2000/svg" xmlns:xlink="http://www.w3.org/1999/xlink" xmlns:svgjs="http://svgjs.com/svgjs" viewBox="0.334 0 112.332 184" fill="#0447a8" x="203" y="527"><svg xmlns="http://www.w3.org/2000/svg" xmlns:xlink="http://www.w3.org/1999/xlink" width="113" height="184" viewBox="0.588 0.953 111.734 183.021"><path paint-order="stroke fill markers" fill-rule="evenodd" d="M.588.953l99.426 40.183s16.34 5.265 11.366 33.816l-5.683 109.023H93.979L76.935 79.21.588.953z"/></svg></svg><svg width="134" height="191" xmlns="http://www.w3.org/2000/svg" xmlns:xlink="http://www.w3.org/1999/xlink" xmlns:svgjs="http://svgjs.com/svgjs" viewBox="0.153 0 133.694 191" fill="#0047c4" x="161" y="529"><svg xmlns="http://www.w3.org/2000/svg" xmlns:xlink="http://www.w3.org/1999/xlink" width="134" height="191" viewBox="0.499 0.513 132.98 189.98"><path paint-order="stroke fill markers" fill-rule="evenodd" d="M4.933.513s-20.594 51.839 26.992 64.266c0 0 44.035 5.997 57.528 1.775 0 0 1.418 32.669-28.41 120.74l17.044 3.199 51.845-116.838s12.427-22.018-9.233-33.736L44.727.784 4.933.513z"/></svg></svg><svg width="22" height="28" xmlns="http://www.w3.org/2000/svg" xmlns:xlink="http://www.w3.org/1999/xlink" xmlns:svgjs="http://svgjs.com/svgjs" viewBox="0 0.005 22 27.99" fill="#fcb17a" x="189" y="403"><svg xmlns="http://www.w3.org/2000/svg" xmlns:xlink="http://www.w3.org/1999/xlink" width="22" height="28" viewBox="0.639 0.872 21.235 27.017"><path paint-order="stroke fill markers" fill-rule="evenodd" d="M21.874 13.132s-4.678 10.473-2.336 14.578l-18.899.179L3.925.872l17.95 12.26z"/></svg></svg><svg width="49" height="175" xmlns="http://www.w3.org/2000/svg" xmlns:xlink="http://www.w3.org/1999/xlink" xmlns:svgjs="http://svgjs.com/svgjs" viewBox="0.634 0 47.731 175" fill="#c7deff" x="368" y="526"><svg xmlns="http://www.w3.org/2000/svg" xmlns:xlink="http://www.w3.org/1999/xlink" width="49" height="175" viewBox="0.863 0.332 47.37 173.677"><path paint-order="stroke fill markers" fill-rule="evenodd" d="M48.234.332L16.656 174.01H.863L16.656.332h31.578z"/></svg></svg><svg width="77" height="63" xmlns="http://www.w3.org/2000/svg" xmlns:xlink="http://www.w3.org/1999/xlink" xmlns:svgjs="http://svgjs.com/svgjs" viewBox="0.034 0 76.931 63" fill="#ffbd86" x="204" y="455"><svg xmlns="http://www.w3.org/2000/svg" xmlns:xlink="http://www.w3.org/1999/xlink" width="77" height="63" viewBox="0.951 0.656 75.09 61.492"><path paint-order="stroke fill markers" fill-rule="evenodd" d="M21.705 19.887s1.886 8.833.82 20.557c0 0 46.766 14.603 53.516 15.312v6.392L.95 48.84l8.266-28.12 8-20.064 4.488 19.231z"/></svg></svg><svg width="66" height="53" xmlns="http://www.w3.org/2000/svg" xmlns:xlink="http://www.w3.org/1999/xlink" xmlns:svgjs="http://svgjs.com/svgjs" viewBox="0.006 0 65.988 53" fill="#1173f4" x="214" y="267"><svg xmlns="http://www.w3.org/2000/svg" xmlns:xlink="http://www.w3.org/1999/xlink" width="66" height="53" viewBox="0.683 0.931 64.358 51.691"><path paint-order="stroke fill markers" fill-rule="evenodd" d="M60.986.931H4.74A4.06 4.06 0 0 0 .683 4.987v31.418A4.06 4.06 0 0 0 4.74 40.46h40.793l12.161 12.161v-12.16h3.292a4.06 4.06 0 0 0 4.056-4.057V4.987A4.06 4.06 0 0 0 60.986.931z"/></svg></svg><svg width="127" height="70" xmlns="http://www.w3.org/2000/svg" xmlns:xlink="http://www.w3.org/1999/xlink" xmlns:svgjs="http://svgjs.com/svgjs" viewBox="0 0.69 127 68.62" fill="#c7ccea" x="400" y="336"><svg xmlns="http://www.w3.org/2000/svg" xmlns:xlink="http://www.w3.org/1999/xlink" width="127" height="70" viewBox="0.442 0.863 126.312 68.248"><path paint-order="stroke fill markers" fill-rule="evenodd" d="M126.754 65.018c0 2.262-1.775 4.093-3.97 4.093H4.412c-2.188 0-3.97-1.83-3.97-4.093V4.956C.442 2.7 2.218.863 4.412.863h118.374c2.194 0 3.97 1.831 3.97 4.093v60.062z"/></svg></svg><svg width="127" height="14" xmlns="http://www.w3.org/2000/svg" xmlns:xlink="http://www.w3.org/1999/xlink" xmlns:svgjs="http://svgjs.com/svgjs" viewBox="0 0.697 127 12.606" fill="#81b8fb" x="400" y="336"><svg xmlns="http://www.w3.org/2000/svg" xmlns:xlink="http://www.w3.org/1999/xlink" width="127" height="14" viewBox="0.442 0.87 126.312 12.537"><path paint-order="stroke fill markers" fill-rule="evenodd" d="M.442 13.407v-.29-8.155C.442 2.706 2.217.87 4.412.87h118.373c2.194 0 3.97 1.83 3.97 4.092v8.445H.441"/></svg></svg><svg width="24" height="24" xmlns="http://www.w3.org/2000/svg" xmlns:xlink="http://www.w3.org/1999/xlink" xmlns:svgjs="http://svgjs.com/svgjs" fill="#fff" x="416" y="358"><svg xmlns="http://www.w3.org/2000/svg" xmlns:xlink="http://www.w3.org/1999/xlink" width="24" height="24" viewBox="0.986 0.338 22.831 22.831"><path paint-order="stroke fill markers" fill-rule="evenodd" d="M.986.338h22.831V23.17H.986V.338z"/></svg></svg><svg width="97" height="5" xmlns="http://www.w3.org/2000/svg" xmlns:xlink="http://www.w3.org/1999/xlink" xmlns:svgjs="http://svgjs.com/svgjs" viewBox="0 0.679 97 3.642" fill="#fff" x="416" y="386"><svg xmlns="http://www.w3.org/2000/svg" xmlns:xlink="http://www.w3.org/1999/xlink" width="97" height="5" viewBox="0.986 0.637 95.376 3.581"><path paint-order="stroke fill markers" fill-rule="evenodd" d="M.986.637H96.36V4.22H.986V.637z"/></svg></svg><svg width="68" height="5" xmlns="http://www.w3.org/2000/svg" xmlns:xlink="http://www.w3.org/1999/xlink" xmlns:svgjs="http://svgjs.com/svgjs" viewBox="0 0.785 68 3.43" fill="#fff" x="445" y="376"><svg xmlns="http://www.w3.org/2000/svg" xmlns:xlink="http://www.w3.org/1999/xlink" width="68" height="5" viewBox="0.766 0.689 66.596 3.359"><path paint-order="stroke fill markers" fill-rule="evenodd" d="M.766.689H67.36v3.36H.766V.688z"/></svg></svg><svg width="68" height="4" xmlns="http://www.w3.org/2000/svg" xmlns:xlink="http://www.w3.org/1999/xlink" xmlns:svgjs="http://svgjs.com/svgjs" viewBox="0 0.351 68 3.298" fill="#fff" x="445" y="368"><svg xmlns="http://www.w3.org/2000/svg" xmlns:xlink="http://www.w3.org/1999/xlink" width="68" height="4" viewBox="0.766 0.503 66.596 3.23"><path paint-order="stroke fill markers" fill-rule="evenodd" d="M.766.503H67.36v3.23H.766V.503z"/></svg></svg><svg width="42" height="4" xmlns="http://www.w3.org/2000/svg" xmlns:xlink="http://www.w3.org/1999/xlink" xmlns:svgjs="http://svgjs.com/svgjs" viewBox="0 0.32 42 3.359" fill="#fff" x="445" y="360"><svg xmlns="http://www.w3.org/2000/svg" xmlns:xlink="http://www.w3.org/1999/xlink" width="42" height="4" viewBox="0.766 0.558 40.534 3.242"><path paint-order="stroke fill markers" fill-rule="evenodd" d="M.766.558H41.3V3.8H.766V.558z"/></svg></svg><svg width="5" height="5" xmlns="http://www.w3.org/2000/svg" xmlns:xlink="http://www.w3.org/1999/xlink" xmlns:svgjs="http://svgjs.com/svgjs" viewBox="0 0.008 5 4.984" fill="#ecf6f5" x="406" y="341"><svg xmlns="http://www.w3.org/2000/svg" xmlns:xlink="http://www.w3.org/1999/xlink" width="5" height="5" viewBox="0.704 0.215 3.859 3.846"><path paint-order="stroke fill markers" fill-rule="evenodd" d="M2.634 4.061c-1.067 0-1.93-.86-1.93-1.923 0-1.063.863-1.923 1.93-1.923s1.929.86 1.929 1.923a1.924 1.924 0 0 1-1.93 1.923z"/></svg></svg><svg width="5" height="5" xmlns="http://www.w3.org/2000/svg" xmlns:xlink="http://www.w3.org/1999/xlink" xmlns:svgjs="http://svgjs.com/svgjs" viewBox="0 0.004 5 4.991" fill="#ecf6f5" x="412" y="341"><svg xmlns="http://www.w3.org/2000/svg" xmlns:xlink="http://www.w3.org/1999/xlink" width="5" height="5" viewBox="0.659 0.215 3.853 3.846"><path paint-order="stroke fill markers" fill-rule="evenodd" d="M4.511 2.138a1.927 1.927 0 0 1-3.852 0c0-1.06.863-1.923 1.923-1.923 1.066 0 1.93.857 1.93 1.923z"/></svg></svg><svg width="5" height="5" xmlns="http://www.w3.org/2000/svg" xmlns:xlink="http://www.w3.org/1999/xlink" xmlns:svgjs="http://svgjs.com/svgjs" fill="#ecf6f5" x="418" y="341"><svg xmlns="http://www.w3.org/2000/svg" xmlns:xlink="http://www.w3.org/1999/xlink" width="5" height="5" viewBox="0.626 0.215 3.846 3.846"><path paint-order="stroke fill markers" fill-rule="evenodd" d="M4.472 2.138a1.922 1.922 0 0 1-1.923 1.923A1.922 1.922 0 0 1 .626 2.138c0-1.06.862-1.923 1.923-1.923 1.06 0 1.923.857 1.923 1.923z"/></svg></svg><svg width="59" height="113" xmlns="http://www.w3.org/2000/svg" xmlns:xlink="http://www.w3.org/1999/xlink" xmlns:svgjs="http://svgjs.com/svgjs" viewBox="0.07 0 58.859 113" fill="#06b3f8" x="164" y="425"><svg xmlns="http://www.w3.org/2000/svg" xmlns:xlink="http://www.w3.org/1999/xlink" width="59" height="113" viewBox="0.398 0.299 58.3 111.927"><path paint-order="stroke fill markers" fill-rule="evenodd" d="M32.118.81S-4.102-7.358.866 41.646c0 0 3.322 51.494-.468 62.503 0 0 18.424 12.667 46.476 6.275l7.588-1.46s4.518-62.676 4.222-79.282c0 0 0-19.83-26.566-28.872z"/></svg></svg><svg width="35" height="40" xmlns="http://www.w3.org/2000/svg" xmlns:xlink="http://www.w3.org/1999/xlink" xmlns:svgjs="http://svgjs.com/svgjs" viewBox="0.153 0 34.693 40" fill="#3d22bf" x="172" y="435"><svg xmlns="http://www.w3.org/2000/svg" xmlns:xlink="http://www.w3.org/1999/xlink" width="35" height="40" viewBox="0.862 0.416 33.556 38.689"><path paint-order="stroke fill markers" fill-rule="evenodd" d="M3.875 39.104l30.543-4.616S27.317-.592 9.558.438c0 0-14.91.672-5.683 38.666z"/></svg></svg><svg width="99" height="53" xmlns="http://www.w3.org/2000/svg" xmlns:xlink="http://www.w3.org/1999/xlink" xmlns:svgjs="http://svgjs.com/svgjs" viewBox="0 0.44 99 52.121" fill="#ffbd86" x="179" y="466"><svg xmlns="http://www.w3.org/2000/svg" xmlns:xlink="http://www.w3.org/1999/xlink" width="99" height="53" viewBox="0.401 0.985 97.781 51.479"><path paint-order="stroke fill markers" fill-rule="evenodd" d="M.4 7.568l16.366 39.24s3.908 6.035 10.652 5.326l63.569.055s12.426 2.429 4.617-7.162c0 0-7.459-4.266-16.335-.715l-51.845-7.459L24.23.985.4 7.568z"/></svg></svg><svg width="15" height="30" xmlns="http://www.w3.org/2000/svg" xmlns:xlink="http://www.w3.org/1999/xlink" xmlns:svgjs="http://svgjs.com/svgjs" viewBox="0.33 0 14.341 30" fill="#37b959" x="427" y="481"><svg xmlns="http://www.w3.org/2000/svg" xmlns:xlink="http://www.w3.org/1999/xlink" width="15" height="30" viewBox="0.715 0.859 13.525 28.293"><path paint-order="stroke fill markers" fill-rule="evenodd" d="M2.782 29.152s-6.034-12.07 2.515-20.496c0 0 6.035-3.02 8.673-7.797 0 0 1.634 6.54-3.144 14.707 0 0-4.524 7.545-2.767 12.698l-5.277.888"/></svg></svg><svg width="20" height="20" xmlns="http://www.w3.org/2000/svg" xmlns:xlink="http://www.w3.org/1999/xlink" xmlns:svgjs="http://svgjs.com/svgjs" viewBox="0.525 0 18.95 20" fill="#37b959" x="430" y="488"><svg xmlns="http://www.w3.org/2000/svg" xmlns:xlink="http://www.w3.org/1999/xlink" width="20" height="20" viewBox="0.843 0.128 18.584 19.614"><path paint-order="stroke fill markers" fill-rule="evenodd" d="M1.07 19.741S-1.82 7.432 13.017 4.097c0 0 3.397-1.079 6.411-3.97 0 0 0 16.095-8.05 19.614H1.07z"/></svg></svg><svg width="25" height="16" xmlns="http://www.w3.org/2000/svg" xmlns:xlink="http://www.w3.org/1999/xlink" xmlns:svgjs="http://svgjs.com/svgjs" viewBox="0.436 0 24.128 16" fill="#37b959" x="399" y="493"><svg xmlns="http://www.w3.org/2000/svg" xmlns:xlink="http://www.w3.org/1999/xlink" width="25" height="16" viewBox="0.653 0.198 23.53 15.604"><path paint-order="stroke fill markers" fill-rule="evenodd" d="M20.766 15.802s-8.05-12.07-13.832-4.9c0 0-3.014 2.878-6.281 1.312 0 0 6.034-.308 7.415-7.354 0 0 2.768-6.915 7.798-3.901 0 0 8.796 3.778 8.296 14.836h-3.396v.007z"/></svg></svg><svg width="15" height="31" xmlns="http://www.w3.org/2000/svg" xmlns:xlink="http://www.w3.org/1999/xlink" xmlns:svgjs="http://svgjs.com/svgjs" viewBox="0.049 0 14.902 31" fill="#37b959" x="420" y="479"><svg xmlns="http://www.w3.org/2000/svg" xmlns:xlink="http://www.w3.org/1999/xlink" width="15" height="31" viewBox="0.212 0.597 14.306 29.76"><path paint-order="stroke fill markers" fill-rule="evenodd" d="M6.029.597s-.112.135-.296.394C3.976 3.395-4.697 16.339 4.068 27.539l4.987 2.818c-.006 0 14.116-15.367-3.026-29.76z"/></svg></svg><svg width="20" height="21" xmlns="http://www.w3.org/2000/svg" xmlns:xlink="http://www.w3.org/1999/xlink" xmlns:svgjs="http://svgjs.com/svgjs" viewBox="0.048 0 19.903 21" fill="#37b959" x="413" y="490"><svg xmlns="http://www.w3.org/2000/svg" xmlns:xlink="http://www.w3.org/1999/xlink" width="20" height="21" viewBox="0.657 0.932 18.59 19.614"><path paint-order="stroke fill markers" fill-rule="evenodd" d="M19.02 20.546S21.91 8.243 7.074 4.902c0 0-3.396-1.079-6.417-3.97 0 0 1.264 14.288 9.308 17.808l9.055 1.806z"/></svg></svg><svg width="22" height="14" xmlns="http://www.w3.org/2000/svg" xmlns:xlink="http://www.w3.org/1999/xlink" xmlns:svgjs="http://svgjs.com/svgjs" viewBox="0.111 0 21.779 14" fill="#c7ccea" x="419" y="511"><svg xmlns="http://www.w3.org/2000/svg" xmlns:xlink="http://www.w3.org/1999/xlink" width="22" height="14" viewBox="0.507 0.261 21.124 13.579"><path paint-order="stroke fill markers" fill-rule="evenodd" d="M.507.261l1.51 13.58h18.104L21.63.26H.507z"/></svg></svg><svg width="28" height="5" xmlns="http://www.w3.org/2000/svg" xmlns:xlink="http://www.w3.org/1999/xlink" xmlns:svgjs="http://svgjs.com/svgjs" viewBox="0 0.625 28 3.751" fill="#849ebc" x="416" y="507"><svg xmlns="http://www.w3.org/2000/svg" xmlns:xlink="http://www.w3.org/1999/xlink" width="28" height="5" viewBox="0.739 0.741 26.277 3.52"><path paint-order="stroke fill markers" fill-rule="evenodd" d="M.74.741h26.276l-2.385 3.52H3.507L.739.741z"/></svg></svg><svg width="15" height="13" xmlns="http://www.w3.org/2000/svg" xmlns:xlink="http://www.w3.org/1999/xlink" xmlns:svgjs="http://svgjs.com/svgjs" viewBox="0 0.255 15 12.489" fill="#ffbd86" x="222" y="716"><svg xmlns="http://www.w3.org/2000/svg" xmlns:xlink="http://www.w3.org/1999/xlink" width="15" height="13" viewBox="0.684 0.787 13.918 11.588"><path paint-order="stroke fill markers" fill-rule="evenodd" d="M2.638.787L.684 8.82l12.501 3.557 1.418-8.877L2.638.787z"/></svg></svg><svg width="14" height="12" xmlns="http://www.w3.org/2000/svg" xmlns:xlink="http://www.w3.org/1999/xlink" xmlns:svgjs="http://svgjs.com/svgjs" viewBox="0.386 0 13.229 12" fill="#ffbd86" x="296" y="708"><svg xmlns="http://www.w3.org/2000/svg" xmlns:xlink="http://www.w3.org/1999/xlink" width="14" height="12" viewBox="0.973 0.546 12.075 10.954"><path paint-order="stroke fill markers" fill-rule="evenodd" d="M.973 2.975v8.524h12.075L12.82.546.973 2.975z"/></svg></svg><svg width="304" height="13" xmlns="http://www.w3.org/2000/svg" xmlns:xlink="http://www.w3.org/1999/xlink" xmlns:svgjs="http://svgjs.com/svgjs" viewBox="0 0.355 304 12.29" fill="#c7deff" x="179" y="520"><svg xmlns="http://www.w3.org/2000/svg" xmlns:xlink="http://www.w3.org/1999/xlink" width="304" height="13" viewBox="0.401 0.211 302.948 12.248"><path paint-order="stroke fill markers" fill-rule="evenodd" d="M303.35 6.332c0 3.384-67.817 6.127-151.475 6.127S.4 9.716.4 6.332 68.217.212 151.875.212c83.658 0 151.474 2.742 151.474 6.12z"/></svg></svg><svg width="55" height="24" xmlns="http://www.w3.org/2000/svg" xmlns:xlink="http://www.w3.org/1999/xlink" xmlns:svgjs="http://svgjs.com/svgjs" viewBox="0 0.295 55 23.409" fill="#ffbd86" x="215" y="722"><svg xmlns="http://www.w3.org/2000/svg" xmlns:xlink="http://www.w3.org/1999/xlink" width="55" height="24" viewBox="0.379 0.581 54.222 23.078"><path paint-order="stroke fill markers" fill-rule="evenodd" d="M3.376.581s-5.443 13.136-1.658 19.762l51.956 3.316s5.332-5.8-9.579-11.539c0 0-15.453-3.852-16.606-6.928V2.35L21.603.581s-8.285 5.332-18.227 0z"/></svg></svg><svg width="43" height="22" xmlns="http://www.w3.org/2000/svg" xmlns:xlink="http://www.w3.org/1999/xlink" xmlns:svgjs="http://svgjs.com/svgjs" viewBox="0 0.504 43 20.993" fill="#ffbd86" x="293" y="715"><svg xmlns="http://www.w3.org/2000/svg" xmlns:xlink="http://www.w3.org/1999/xlink" width="43" height="22" viewBox="0.786 0.591 41.917 20.464"><path paint-order="stroke fill markers" fill-rule="evenodd" d="M3.104.598s-4.21 11.643-1.282 17.518l40.164 2.94s4.124-5.141-7.409-10.232c0 0-11.946-3.415-12.84-6.14v-2.52L19.235.59c.012.007-8.445 4.74-16.131.007z"/></svg></svg><svg width="55" height="8" xmlns="http://www.w3.org/2000/svg" xmlns:xlink="http://www.w3.org/1999/xlink" xmlns:svgjs="http://svgjs.com/svgjs" viewBox="0 0.561 55 6.878" fill="#b7d4f4" x="229" y="515"><svg xmlns="http://www.w3.org/2000/svg" xmlns:xlink="http://www.w3.org/1999/xlink" width="55" height="8" viewBox="0.73 0.483 53.978 6.75"><path paint-order="stroke fill markers" fill-rule="evenodd" d="M.73 2.592v4.641h53.978V.483L.73 2.592z"/></svg></svg><svg width="108" height="69" xmlns="http://www.w3.org/2000/svg" xmlns:xlink="http://www.w3.org/1999/xlink" xmlns:svgjs="http://svgjs.com/svgjs" viewBox="0 0.002 108 68.995" fill="#d4e8ff" x="273" y="449"><svg xmlns="http://www.w3.org/2000/svg" xmlns:xlink="http://www.w3.org/1999/xlink" width="108" height="69" viewBox="0.18 0.073 107.254 68.519"><path paint-order="stroke fill markers" fill-rule="evenodd" d="M25.04.073h82.393l-27.7 68.519L.18 66.483 25.04.073z"/></svg></svg><svg width="80" height="10" xmlns="http://www.w3.org/2000/svg" xmlns:xlink="http://www.w3.org/1999/xlink" xmlns:svgjs="http://svgjs.com/svgjs" viewBox="0 0.714 80 8.573" fill="#9ec4e5" x="273" y="515"><svg xmlns="http://www.w3.org/2000/svg" xmlns:xlink="http://www.w3.org/1999/xlink" width="80" height="10" viewBox="0.18 0.483 79.553 8.525"><path paint-order="stroke fill markers" fill-rule="evenodd" d="M78.666 9.008l1.066-6.416L.18.483v6.75l78.486 1.775z"/></svg></svg><svg width="15" height="18" xmlns="http://www.w3.org/2000/svg" xmlns:xlink="http://www.w3.org/1999/xlink" xmlns:svgjs="http://svgjs.com/svgjs" viewBox="0 0.298 15 17.404" fill="#f5f5f5" x="321" y="481"><svg xmlns="http://www.w3.org/2000/svg" xmlns:xlink="http://www.w3.org/1999/xlink" width="15" height="18" viewBox="0.427 0.778 14.312 16.607"><path paint-order="stroke fill markers" fill-rule="evenodd" d="M14.547 10.469c-.9 4.518-4.746 7.563-8.598 6.798-3.847-.77-6.232-5.054-5.332-9.572.9-4.519 4.746-7.564 8.592-6.8 3.853.765 6.244 5.055 5.338 9.574z"/></svg></svg><svg width="48" height="3" xmlns="http://www.w3.org/2000/svg" xmlns:xlink="http://www.w3.org/1999/xlink" xmlns:svgjs="http://svgjs.com/svgjs" viewBox="0 0.29 48 2.42" fill="#fff" x="225" y="285"><svg xmlns="http://www.w3.org/2000/svg" xmlns:xlink="http://www.w3.org/1999/xlink" width="48" height="3" viewBox="0.951 0.616 46.341 2.336"><path paint-order="stroke fill markers" fill-rule="evenodd" d="M.951.616h46.341v2.336H.952V.616z"/></svg></svg><svg width="48" height="3" xmlns="http://www.w3.org/2000/svg" xmlns:xlink="http://www.w3.org/1999/xlink" xmlns:svgjs="http://svgjs.com/svgjs" viewBox="0 0.335 48 2.33" fill="#fff" x="225" y="279"><svg xmlns="http://www.w3.org/2000/svg" xmlns:xlink="http://www.w3.org/1999/xlink" width="48" height="3" viewBox="0.951 0.008 46.341 2.25"><path paint-order="stroke fill markers" fill-rule="evenodd" d="M.951.008h46.341v2.25H.952V.008z"/></svg></svg><svg width="30" height="4" xmlns="http://www.w3.org/2000/svg" xmlns:xlink="http://www.w3.org/1999/xlink" xmlns:svgjs="http://svgjs.com/svgjs" viewBox="0 0.8 30 2.4" fill="#fff" x="225" y="291"><svg xmlns="http://www.w3.org/2000/svg" xmlns:xlink="http://www.w3.org/1999/xlink" width="30" height="4" viewBox="0.951 0.971 28.2 2.256"><path paint-order="stroke fill markers" fill-rule="evenodd" d="M.951.97h28.2v2.257H.951V.97z"/></svg></svg><svg width="58" height="32" xmlns="http://www.w3.org/2000/svg" xmlns:xlink="http://www.w3.org/1999/xlink" xmlns:svgjs="http://svgjs.com/svgjs" viewBox="0 0.332 58 31.336" fill="#c7ccea" x="29" y="371"><svg xmlns="http://www.w3.org/2000/svg" xmlns:xlink="http://www.w3.org/1999/xlink" width="58" height="32" viewBox="0.758 0.215 57.103 30.851"><path paint-order="stroke fill markers" fill-rule="evenodd" d="M57.86 29.217c0 1.023-.8 1.85-1.793 1.85H2.551c-.992 0-1.793-.827-1.793-1.85V2.064c0-1.023.8-1.849 1.793-1.849h53.516c.992 0 1.794.826 1.794 1.85v27.152z"/></svg></svg><svg width="58" height="6" xmlns="http://www.w3.org/2000/svg" xmlns:xlink="http://www.w3.org/1999/xlink" xmlns:svgjs="http://svgjs.com/svgjs" viewBox="0 0.12 58 5.76" fill="#81b8fb" x="29" y="371"><svg xmlns="http://www.w3.org/2000/svg" xmlns:xlink="http://www.w3.org/1999/xlink" width="58" height="6" viewBox="0.751 0.215 57.103 5.671"><path paint-order="stroke fill markers" fill-rule="evenodd" d="M.751 5.88v-.13-3.686c0-1.023.802-1.849 1.794-1.849h53.516c.992 0 1.794.826 1.794 1.85v3.82L.75 5.88"/></svg></svg><svg width="11" height="12" xmlns="http://www.w3.org/2000/svg" xmlns:xlink="http://www.w3.org/1999/xlink" xmlns:svgjs="http://svgjs.com/svgjs" viewBox="0 0.503 11 10.993" fill="#fff" x="37" y="380"><svg xmlns="http://www.w3.org/2000/svg" xmlns:xlink="http://www.w3.org/1999/xlink" width="11" height="12" viewBox="0.228 0.923 10.325 10.319"><path paint-order="stroke fill markers" fill-rule="evenodd" d="M.228.923h10.325v10.319H.228V.923z"/></svg></svg><svg width="44" height="3" xmlns="http://www.w3.org/2000/svg" xmlns:xlink="http://www.w3.org/1999/xlink" xmlns:svgjs="http://svgjs.com/svgjs" viewBox="0 0.673 44 1.654" fill="#fff" x="37" y="393"><svg xmlns="http://www.w3.org/2000/svg" xmlns:xlink="http://www.w3.org/1999/xlink" width="44" height="3" viewBox="0.228 0.714 43.123 1.621"><path paint-order="stroke fill markers" fill-rule="evenodd" d="M.228.714h43.124v1.621H.228V.714z"/></svg></svg><svg width="31" height="2" xmlns="http://www.w3.org/2000/svg" xmlns:xlink="http://www.w3.org/1999/xlink" xmlns:svgjs="http://svgjs.com/svgjs" viewBox="0 0.216 31 1.568" fill="#fff" x="50" y="389"><svg xmlns="http://www.w3.org/2000/svg" xmlns:xlink="http://www.w3.org/1999/xlink" width="31" height="2" viewBox="0.24 0.214 30.105 1.522"><path paint-order="stroke fill markers" fill-rule="evenodd" d="M.24.214h30.106v1.522H.24V.214z"/></svg></svg><svg width="31" height="2" xmlns="http://www.w3.org/2000/svg" xmlns:xlink="http://www.w3.org/1999/xlink" xmlns:svgjs="http://svgjs.com/svgjs" viewBox="0 0.248 31 1.504" fill="#fff" x="50" y="385"><svg xmlns="http://www.w3.org/2000/svg" xmlns:xlink="http://www.w3.org/1999/xlink" width="31" height="2" viewBox="0.24 0.516 30.105 1.461"><path paint-order="stroke fill markers" fill-rule="evenodd" d="M.24.516h30.106v1.46H.24V.517z"/></svg></svg><svg width="19" height="3" xmlns="http://www.w3.org/2000/svg" xmlns:xlink="http://www.w3.org/1999/xlink" xmlns:svgjs="http://svgjs.com/svgjs" viewBox="0 0.74 19 1.521" fill="#fff" x="50" y="381"><svg xmlns="http://www.w3.org/2000/svg" xmlns:xlink="http://www.w3.org/1999/xlink" width="19" height="3" viewBox="0.24 0.922 18.326 1.467"><path paint-order="stroke fill markers" fill-rule="evenodd" d="M.24.922h18.326V2.39H.24V.922z"/></svg></svg><svg width="3" height="2" xmlns="http://www.w3.org/2000/svg" xmlns:xlink="http://www.w3.org/1999/xlink" xmlns:svgjs="http://svgjs.com/svgjs" viewBox="0.5 0 2 2" fill="#ecf6f5" x="32" y="373"><svg xmlns="http://www.w3.org/2000/svg" xmlns:xlink="http://www.w3.org/1999/xlink" width="3" height="2" viewBox="0.587 0.181 1.738 1.738"><path paint-order="stroke fill markers" fill-rule="evenodd" d="M2.325 1.05a.868.868 0 1 1-1.738 0c0-.48.388-.868.869-.868a.864.864 0 0 1 .869.869z"/></svg></svg><svg width="3" height="2" xmlns="http://www.w3.org/2000/svg" xmlns:xlink="http://www.w3.org/1999/xlink" xmlns:svgjs="http://svgjs.com/svgjs" viewBox="0.5 0 2 2" fill="#ecf6f5" x="35" y="373"><svg xmlns="http://www.w3.org/2000/svg" xmlns:xlink="http://www.w3.org/1999/xlink" width="3" height="2" viewBox="0.28 0.181 1.738 1.738"><path paint-order="stroke fill markers" fill-rule="evenodd" d="M2.019 1.05c0 .482-.395.87-.87.87a.868.868 0 1 1 0-1.738.864.864 0 0 1 .87.869z"/></svg></svg><svg width="3" height="2" xmlns="http://www.w3.org/2000/svg" xmlns:xlink="http://www.w3.org/1999/xlink" xmlns:svgjs="http://svgjs.com/svgjs" viewBox="0.5 0 2 2" fill="#ecf6f5" x="37" y="373"><svg xmlns="http://www.w3.org/2000/svg" xmlns:xlink="http://www.w3.org/1999/xlink" width="3" height="2" viewBox="0.974 0.181 1.738 1.738"><path paint-order="stroke fill markers" fill-rule="evenodd" d="M2.712 1.05a.868.868 0 1 1-1.738 0c0-.48.389-.868.87-.868a.864.864 0 0 1 .868.869z"/></svg></svg><svg width="86" height="43" xmlns="http://www.w3.org/2000/svg" xmlns:xlink="http://www.w3.org/1999/xlink" xmlns:svgjs="http://svgjs.com/svgjs" fill="#eaf2f9" x="58" y="266"><svg xmlns="http://www.w3.org/2000/svg" xmlns:xlink="http://www.w3.org/1999/xlink" width="86" height="43" viewBox="0.303 0.027 84.804 42.402"><path paint-order="stroke fill markers" fill-rule="evenodd" d="M.303.027h84.804v42.402H.303V.027z"/></svg></svg><svg width="18" height="18" xmlns="http://www.w3.org/2000/svg" xmlns:xlink="http://www.w3.org/1999/xlink" xmlns:svgjs="http://svgjs.com/svgjs" fill="#fff" x="66" y="274"><svg xmlns="http://www.w3.org/2000/svg" xmlns:xlink="http://www.w3.org/1999/xlink" width="18" height="18" viewBox="0.785 0.508 16.963 16.963"><path paint-order="stroke fill markers" fill-rule="evenodd" d="M.785.508h16.963v16.964H.785V.508z"/></svg></svg><svg width="36" height="2" xmlns="http://www.w3.org/2000/svg" xmlns:xlink="http://www.w3.org/1999/xlink" xmlns:svgjs="http://svgjs.com/svgjs" viewBox="0 0.091 36 1.818" fill="#fff" x="92" y="281"><svg xmlns="http://www.w3.org/2000/svg" xmlns:xlink="http://www.w3.org/1999/xlink" width="36" height="2" viewBox="0.23 0.184 35.77 1.806"><path paint-order="stroke fill markers" fill-rule="evenodd" d="M.23.184H36V1.99H.23V.184z"/></svg></svg><svg width="36" height="3" xmlns="http://www.w3.org/2000/svg" xmlns:xlink="http://www.w3.org/1999/xlink" xmlns:svgjs="http://svgjs.com/svgjs" viewBox="0 0.628 36 1.743" fill="#fff" x="92" y="276"><svg xmlns="http://www.w3.org/2000/svg" xmlns:xlink="http://www.w3.org/1999/xlink" width="36" height="3" viewBox="0.23 0.789 35.77 1.732"><path paint-order="stroke fill markers" fill-rule="evenodd" d="M.23.789H36V2.52H.23V.79z"/></svg></svg><svg width="36" height="2" xmlns="http://www.w3.org/2000/svg" xmlns:xlink="http://www.w3.org/1999/xlink" xmlns:svgjs="http://svgjs.com/svgjs" viewBox="0 0.091 36 1.818" fill="#fff" x="92" y="298"><svg xmlns="http://www.w3.org/2000/svg" xmlns:xlink="http://www.w3.org/1999/xlink" width="36" height="2" viewBox="0.23 0.147 35.77 1.806"><path paint-order="stroke fill markers" fill-rule="evenodd" d="M.23.147H36v1.806H.23V.147z"/></svg></svg><svg width="36" height="3" xmlns="http://www.w3.org/2000/svg" xmlns:xlink="http://www.w3.org/1999/xlink" xmlns:svgjs="http://svgjs.com/svgjs" viewBox="0 0.625 36 1.749" fill="#c3e0fc" x="92" y="293"><svg xmlns="http://www.w3.org/2000/svg" xmlns:xlink="http://www.w3.org/1999/xlink" width="36" height="3" viewBox="0.23 0.746 35.77 1.738"><path paint-order="stroke fill markers" fill-rule="evenodd" d="M.23.746H36v1.738H.23V.746z"/></svg></svg><svg width="23" height="3" xmlns="http://www.w3.org/2000/svg" xmlns:xlink="http://www.w3.org/1999/xlink" xmlns:svgjs="http://svgjs.com/svgjs" viewBox="0 0.582 23 1.836" fill="#c3e0fc" x="92" y="289"><svg xmlns="http://www.w3.org/2000/svg" xmlns:xlink="http://www.w3.org/1999/xlink" width="23" height="3" viewBox="0.23 0.48 21.771 1.738"><path paint-order="stroke fill markers" fill-rule="evenodd" d="M.23.48H22V2.22H.23V.48z"/></svg></svg><svg width="40" height="38" xmlns="http://www.w3.org/2000/svg" xmlns:xlink="http://www.w3.org/1999/xlink" xmlns:svgjs="http://svgjs.com/svgjs" viewBox="0 0.02 40 37.96" fill="#ffbd86" x="183" y="382"><svg xmlns="http://www.w3.org/2000/svg" xmlns:xlink="http://www.w3.org/1999/xlink" width="40" height="38" viewBox="0.056 0.62 39.079 37.086"><path paint-order="stroke fill markers" fill-rule="evenodd" d="M31.683 1.648s5.197 7.495 7.453 31.633c0 0-2.51 9.955-22.308 0 0 0-19.053-9.708-16.544-20.236 0 0 19.367-16.661 31.4-11.397z"/></svg></svg><svg width="94" height="101" xmlns="http://www.w3.org/2000/svg" xmlns:xlink="http://www.w3.org/1999/xlink" xmlns:svgjs="http://svgjs.com/svgjs" viewBox="0.366 0 93.268 101" fill="#252f4a" x="123" y="376"><svg xmlns="http://www.w3.org/2000/svg" width="94" height="101" viewBox="0.575 0.855 92.455 100.12"><path paint-order="stroke fill markers" fill-rule="evenodd" d="M8.143 55.141s.5-9.283 7.267-7.402c0 0-7.242-3.366-9.887 7.742-.148.61-.277 1.27-.394 1.966-2.22 13.456-18.264-36.27 27.072-35.141 0 0 8.784.03 13.296-8.494 0 0 6.681-14.701 25.235-12.784 0 0 36.435-2.09 16.156 12.784 0 0-2.127 9.006-3.785 12.611-.117.247-.228.469-.333.666-1.682 3.014 1.763-4.592-2.397-6.318 0 0-6.744.055-1.116 5.905 0 0 9.597 6.337-.678 17.019 0 0 6.04-7.674 1.017-11.403 0 0 3.248 5.048-3.52 12.815 0 0-6.269 6.268 7.268 18.048 0 0 10.78 11.027 0 24.816 0 0 1.25-4.512.752-7.02 0 0-2.004 23.582-29.082 19.564 0 0 2.305.746 5.036-2.515 0 0-16.07 6.768-36.121-5.265 0 0 5.018 3.76 9.776 1.005 0 0-16.797 2.004-32.589-25.321 0 0 2.003 5.017 8.525 5.017L8.143 55.141"/></svg></svg></svg>