<svg width="443" height="330" xmlns="http://www.w3.org/2000/svg" xmlns:xlink="http://www.w3.org/1999/xlink" xmlns:svgjs="http://svgjs.com/svgjs" viewBox="135 331 443 330"><svg width="75" height="61" xmlns="http://www.w3.org/2000/svg" xmlns:xlink="http://www.w3.org/1999/xlink" xmlns:svgjs="http://svgjs.com/svgjs" viewBox="0.012 0 74.977 61" fill="#a0616a" x="460" y="434"><svg xmlns="http://www.w3.org/2000/svg" xmlns:xlink="http://www.w3.org/1999/xlink" width="75" height="61" viewBox="0.394 0.051 73.848 60.082"><path paint-order="stroke fill markers" fill-rule="evenodd" d="M74.243 8.233L60.57 35.299 19.692 53.883C15.327 61.26 1.454 61.825.446 57.054-.686 51.702 17.29 43.087 17.29 43.087L51.483 19.96 54.475.051l19.768 8.182z"/></svg></svg><svg width="17" height="23" xmlns="http://www.w3.org/2000/svg" xmlns:xlink="http://www.w3.org/1999/xlink" xmlns:svgjs="http://svgjs.com/svgjs" viewBox="0 0.343 17 22.313" fill="#a0616a" x="519" y="623"><svg xmlns="http://www.w3.org/2000/svg" xmlns:xlink="http://www.w3.org/1999/xlink" width="17" height="23" viewBox="0.015 0.867 16.136 21.18"><path paint-order="stroke fill markers" fill-rule="evenodd" d="M13.63.867l2.521 20.17-14.624 1.01L.015.867H13.63z"/></svg></svg><svg width="48" height="30" xmlns="http://www.w3.org/2000/svg" xmlns:xlink="http://www.w3.org/1999/xlink" xmlns:svgjs="http://svgjs.com/svgjs" viewBox="0 0.264 48 29.473" fill="#2f2e41" x="492" y="631"><svg xmlns="http://www.w3.org/2000/svg" xmlns:xlink="http://www.w3.org/1999/xlink" width="48" height="30" viewBox="0.513 0.408 47.258 29.017"><path paint-order="stroke fill markers" fill-rule="evenodd" d="M38.613 10.013A39.57 39.57 0 0 0 42.22 5.6c2.096-2.9 3.956 11.977 3.956 11.977s2.017 6.051 1.513 9.077c-.505 3.025-12.103 3.025-14.12 2.52-2.017-.503-12.102 0-12.102 0H6.34c-13.111-6.05 0-10.085 0-10.085 4.034-.504 17.649-13.11 17.649-13.11L27.014.432c2.018-.505 4.035 7.06 4.035 7.06l7.564 2.52z"/></svg></svg><svg width="17" height="22" xmlns="http://www.w3.org/2000/svg" xmlns:xlink="http://www.w3.org/1999/xlink" xmlns:svgjs="http://svgjs.com/svgjs" viewBox="0.119 0 16.762 22" fill="#a0616a" x="556" y="624"><svg xmlns="http://www.w3.org/2000/svg" xmlns:xlink="http://www.w3.org/1999/xlink" width="17" height="22" viewBox="0.834 0.119 16.137 21.18"><path paint-order="stroke fill markers" fill-rule="evenodd" d="M14.45.12l2.521 20.17L2.347 21.3.834.119H14.45z"/></svg></svg><svg width="48" height="30" xmlns="http://www.w3.org/2000/svg" xmlns:xlink="http://www.w3.org/1999/xlink" xmlns:svgjs="http://svgjs.com/svgjs" viewBox="0 0.39 48 29.219" fill="#2f2e41" x="530" y="631"><svg xmlns="http://www.w3.org/2000/svg" xmlns:xlink="http://www.w3.org/1999/xlink" width="48" height="30" viewBox="0.333 0.66 47.257 28.767"><path paint-order="stroke fill markers" fill-rule="evenodd" d="M38.432 10.265a39.605 39.605 0 0 0 3.609-4.413c2.096-2.9 3.955 11.977 3.955 11.977s2.017 5.547 1.513 8.572c-.504 3.026-12.102 3.026-14.12 2.522-2.016-.505-12.102.504-12.102.504H6.16c-13.111-6.051 0-10.085 0-10.085C10.194 18.838 23.809 6.23 23.809 6.23L26.835.684c2.017-.504 4.034 7.06 4.034 7.06l7.563 2.52z"/></svg></svg><svg width="78" height="137" xmlns="http://www.w3.org/2000/svg" xmlns:xlink="http://www.w3.org/1999/xlink" xmlns:svgjs="http://svgjs.com/svgjs" viewBox="0.29 0 77.421 137" fill="#2f2e41" x="496" y="492"><svg xmlns="http://www.w3.org/2000/svg" xmlns:xlink="http://www.w3.org/1999/xlink" width="78" height="137" viewBox="0.827 0.899 76.648 135.633"><path paint-order="stroke fill markers" fill-rule="evenodd" d="M57.81 2.02c2.016 2.52 1.008 11.093 1.008 11.093s3.53 27.735 2.017 30.256c-1.513 2.521 1.008 4.538 2.521 8.069 1.513 3.53 3.026 12.102 3.026 12.102 8.572 7.06 8.068 39.332 8.068 39.332l3.026 28.743c-1.009 3.026-15.129 3.53-17.145 3.026-2.018-.504-8.069-45.888-8.069-45.888L38.647 63.035s1.009 68.58 1.009 71.606c0 3.026-13.615 1.513-16.641 1.513-3.026 0-3.026-50.427-3.026-50.427l-3.026-13.11L.827 12.609v-7.06l2.521-3.53s52.444-2.521 54.461 0z"/></svg></svg><svg width="33" height="32" xmlns="http://www.w3.org/2000/svg" xmlns:xlink="http://www.w3.org/1999/xlink" xmlns:svgjs="http://svgjs.com/svgjs" viewBox="0.5 0 32 32" fill="#a0616a" x="515" y="348"><svg xmlns="http://www.w3.org/2000/svg" xmlns:xlink="http://www.w3.org/1999/xlink" width="33" height="32" viewBox="0.989 0.287 31.265 31.264"><path paint-order="stroke fill markers" fill-rule="evenodd" d="M16.621 31.551C7.977 31.551.989 24.564.989 15.92S7.977.287 16.62.287c8.645 0 15.632 6.987 15.632 15.632S25.266 31.55 16.621 31.55z"/></svg></svg><svg width="27" height="28" xmlns="http://www.w3.org/2000/svg" xmlns:xlink="http://www.w3.org/1999/xlink" xmlns:svgjs="http://svgjs.com/svgjs" viewBox="0.518 0 25.964 28" fill="#a0616a" x="518" y="371"><svg xmlns="http://www.w3.org/2000/svg" xmlns:xlink="http://www.w3.org/1999/xlink" width="27" height="28" viewBox="0.762 0.23 25.718 27.735"><path paint-order="stroke fill markers" fill-rule="evenodd" d="M5.805.23C8.974 7.286 7.097 17.142.762 27.965L26.48 15.863l-4.034-3.53 1.008-10.085L5.805.23z"/></svg></svg><svg width="67" height="122" xmlns="http://www.w3.org/2000/svg" xmlns:xlink="http://www.w3.org/1999/xlink" xmlns:svgjs="http://svgjs.com/svgjs" viewBox="0.031 0 66.937 122" fill="#f50057" x="497" y="383"><svg xmlns="http://www.w3.org/2000/svg" xmlns:xlink="http://www.w3.org/1999/xlink" width="67" height="122" viewBox="0.079 0.333 66.563 121.318"><path paint-order="stroke fill markers" fill-rule="evenodd" d="M26.805 4.367c-3.368 2.003-5.382 5.681-6.539 9.425a89.312 89.312 0 0 0-3.838 21.338L15.207 56.81.079 114.297c13.11 11.094 20.675 8.573 38.324-.504 17.65-9.077 19.666 3.026 19.666 3.026s1.513-.505 0-2.018c-1.512-1.512 0 0 1.513-1.512 1.513-1.513 0 0-.504-1.513s0-.504.504-1.009c.505-.504-2.017-5.042-2.017-5.042l4.034-37.82 5.043-53.452C60.59 6.889 43.446.333 43.446.333L27.814 11.427c-5.043 2.017-1.009-6.051-1.009-6.051V4.367z"/></svg></svg><svg width="36" height="79" xmlns="http://www.w3.org/2000/svg" xmlns:xlink="http://www.w3.org/1999/xlink" xmlns:svgjs="http://svgjs.com/svgjs" viewBox="0 0.261 36 78.478" fill="#a0616a" x="538" y="429"><svg xmlns="http://www.w3.org/2000/svg" xmlns:xlink="http://www.w3.org/1999/xlink" width="36" height="79" viewBox="0.356 0.474 35.623 77.657"><path paint-order="stroke fill markers" fill-rule="evenodd" d="M33.962.474L35.98 30.73 10.262 67.54c0 8.573-4.539 10.59-4.539 10.59a66.664 66.664 0 0 1-4.538-8.572c-2.521-5.547 1.513-10.086 1.513-10.086l17.65-37.315-7.564-18.658L33.962.474z"/></svg></svg><svg width="30" height="42" xmlns="http://www.w3.org/2000/svg" xmlns:xlink="http://www.w3.org/1999/xlink" xmlns:svgjs="http://svgjs.com/svgjs" viewBox="0.17 0 29.661 42" fill="#f50057" x="544" y="396"><svg xmlns="http://www.w3.org/2000/svg" xmlns:xlink="http://www.w3.org/1999/xlink" width="30" height="42" viewBox="0.964 0.665 28.511 40.373"><path paint-order="stroke fill markers" fill-rule="evenodd" d="M19.39 1.705c8.572 3.025 10.085 35.802 10.085 35.802-10.085-5.546-22.188 3.53-22.188 3.53s-2.52-8.572-5.547-19.666A19.273 19.273 0 0 1 5.774 3.217S10.817-1.32 19.39 1.705z"/></svg></svg><svg width="34" height="29" xmlns="http://www.w3.org/2000/svg" xmlns:xlink="http://www.w3.org/1999/xlink" xmlns:svgjs="http://svgjs.com/svgjs" viewBox="0 0.028 34 28.944" fill="#2f2e41" x="515" y="342"><svg xmlns="http://www.w3.org/2000/svg" xmlns:xlink="http://www.w3.org/1999/xlink" width="34" height="29" viewBox="0.705 0.191 32.681 27.821"><path paint-order="stroke fill markers" fill-rule="evenodd" d="M30.993 26.71c-1.99-1.593-4.705 1.301-4.705 1.301l-1.592-14.328s-9.95 1.194-16.319-.398c-6.368-1.592-7.363 5.77-7.363 5.77a51.124 51.124 0 0 1-.2-8.954C1.214 6.519 6.388 2.937 15.542.548c9.155-2.388 13.93 7.961 13.93 7.961 6.37 3.184 3.512 19.793 1.522 18.2z"/></svg></svg><svg width="78" height="164" xmlns="http://www.w3.org/2000/svg" xmlns:xlink="http://www.w3.org/1999/xlink" xmlns:svgjs="http://svgjs.com/svgjs" viewBox="0.701 0 76.598 164" fill="#e6e6e6" x="135" y="495"><svg xmlns="http://www.w3.org/2000/svg" xmlns:xlink="http://www.w3.org/1999/xlink" width="78" height="164" viewBox="0.957 0.057 76.477 163.74"><path paint-order="stroke fill markers" fill-rule="evenodd" d="M.957 84.12c1.718 6.822 16.374 22.165 31.496 36.573C9.133 63.094 22.422.057 22.422.057c-4.33 24.757 55.011 149.345 55.011 149.345l-13.516 7.97-4.565 6.425C13.58 142.775.957 84.12.957 84.12z"/></svg></svg><svg width="192" height="39" xmlns="http://www.w3.org/2000/svg" xmlns:xlink="http://www.w3.org/1999/xlink" xmlns:svgjs="http://svgjs.com/svgjs" viewBox="0 0.546 192 37.908" fill="#e6e6e6" x="291" y="451"><svg xmlns="http://www.w3.org/2000/svg" xmlns:xlink="http://www.w3.org/1999/xlink" width="192" height="39" viewBox="0.073 0.396 191.167 37.743"><path paint-order="stroke fill markers" fill-rule="evenodd" d="M.073.396H191.24v37.743H.073V.396z"/></svg></svg><svg width="192" height="39" xmlns="http://www.w3.org/2000/svg" xmlns:xlink="http://www.w3.org/1999/xlink" xmlns:svgjs="http://svgjs.com/svgjs" viewBox="0 0.546 192 37.907" fill="#e6e6e6" x="291" y="391"><svg xmlns="http://www.w3.org/2000/svg" xmlns:xlink="http://www.w3.org/1999/xlink" width="192" height="39" viewBox="0.073 0.758 191.167 37.743"><path paint-order="stroke fill markers" fill-rule="evenodd" d="M.073.758H191.24V38.5H.073V.758z"/></svg></svg><svg width="192" height="39" xmlns="http://www.w3.org/2000/svg" xmlns:xlink="http://www.w3.org/1999/xlink" xmlns:svgjs="http://svgjs.com/svgjs" viewBox="0 0.546 192 37.908" fill="#e6e6e6" x="291" y="331"><svg xmlns="http://www.w3.org/2000/svg" xmlns:xlink="http://www.w3.org/1999/xlink" width="192" height="39" viewBox="0.073 0.922 191.167 37.743"><path paint-order="stroke fill markers" fill-rule="evenodd" d="M.073.922H191.24v37.744H.073V.922z"/></svg></svg><svg width="184" height="31" xmlns="http://www.w3.org/2000/svg" xmlns:xlink="http://www.w3.org/1999/xlink" xmlns:svgjs="http://svgjs.com/svgjs" viewBox="0 0.624 184 29.751" fill="#fff" x="295" y="335"><svg xmlns="http://www.w3.org/2000/svg" xmlns:xlink="http://www.w3.org/1999/xlink" width="184" height="31" viewBox="0.149 0.998 183.017 29.592"><path paint-order="stroke fill markers" fill-rule="evenodd" d="M.149 30.59h183.016V.999H.15v29.593z"/></svg></svg><svg width="184" height="31" xmlns="http://www.w3.org/2000/svg" xmlns:xlink="http://www.w3.org/1999/xlink" xmlns:svgjs="http://svgjs.com/svgjs" viewBox="0 0.624 184 29.751" fill="#fff" x="295" y="395"><svg xmlns="http://www.w3.org/2000/svg" xmlns:xlink="http://www.w3.org/1999/xlink" width="184" height="31" viewBox="0.149 0.965 183.017 29.592"><path paint-order="stroke fill markers" fill-rule="evenodd" d="M.149 30.557h183.016V.965H.15v29.592z"/></svg></svg><svg width="184" height="31" xmlns="http://www.w3.org/2000/svg" xmlns:xlink="http://www.w3.org/1999/xlink" xmlns:svgjs="http://svgjs.com/svgjs" viewBox="0 0.624 184 29.752" fill="#fff" x="295" y="455"><svg xmlns="http://www.w3.org/2000/svg" xmlns:xlink="http://www.w3.org/1999/xlink" width="184" height="31" viewBox="0.149 0.471 183.016 29.593"><path paint-order="stroke fill markers" fill-rule="evenodd" d="M.149 30.064h183.015V.471H.15v29.593z"/></svg></svg><svg width="24" height="23" xmlns="http://www.w3.org/2000/svg" xmlns:xlink="http://www.w3.org/1999/xlink" xmlns:svgjs="http://svgjs.com/svgjs" viewBox="0.5 0 23 23" fill="#f50057" x="299" y="339"><svg xmlns="http://www.w3.org/2000/svg" xmlns:xlink="http://www.w3.org/1999/xlink" width="24" height="23" viewBox="0.896 0.275 22.548 22.548"><path paint-order="stroke fill markers" fill-rule="evenodd" d="M12.17 22.823A11.264 11.264 0 0 1 .896 11.55C.896 5.315 5.936.275 12.17.275c6.234 0 11.274 5.04 11.274 11.274 0 6.235-5.04 11.274-11.274 11.274z"/></svg></svg><svg width="112" height="3" xmlns="http://www.w3.org/2000/svg" xmlns:xlink="http://www.w3.org/1999/xlink" xmlns:svgjs="http://svgjs.com/svgjs" viewBox="0 0.267 112 2.467" fill="#f50057" x="338" y="346"><svg xmlns="http://www.w3.org/2000/svg" xmlns:xlink="http://www.w3.org/1999/xlink" width="112" height="3" viewBox="0.13 0.138 111.269 2.451"><path paint-order="stroke fill markers" fill-rule="evenodd" d="M.13.138h111.269v2.45H.129V.138z"/></svg></svg><svg width="112" height="3" xmlns="http://www.w3.org/2000/svg" xmlns:xlink="http://www.w3.org/1999/xlink" xmlns:svgjs="http://svgjs.com/svgjs" viewBox="0 0.267 112 2.467" fill="#f50057" x="338" y="352"><svg xmlns="http://www.w3.org/2000/svg" xmlns:xlink="http://www.w3.org/1999/xlink" width="112" height="3" viewBox="0.13 0.51 111.269 2.451"><path paint-order="stroke fill markers" fill-rule="evenodd" d="M.13.51h111.269v2.45H.129V.51z"/></svg></svg><svg width="24" height="24" xmlns="http://www.w3.org/2000/svg" xmlns:xlink="http://www.w3.org/1999/xlink" xmlns:svgjs="http://svgjs.com/svgjs" fill="#ccc" x="299" y="399"><svg xmlns="http://www.w3.org/2000/svg" xmlns:xlink="http://www.w3.org/1999/xlink" width="24" height="24" viewBox="0.896 0.6 22.548 22.548"><path paint-order="stroke fill markers" fill-rule="evenodd" d="M12.17 23.148A11.264 11.264 0 0 1 .896 11.874C.896 5.64 5.936.6 12.17.6c6.234 0 11.274 5.04 11.274 11.274 0 6.234-5.04 11.274-11.274 11.274z"/></svg></svg><svg width="112" height="3" xmlns="http://www.w3.org/2000/svg" xmlns:xlink="http://www.w3.org/1999/xlink" xmlns:svgjs="http://svgjs.com/svgjs" viewBox="0 0.267 112 2.467" fill="#ccc" x="338" y="406"><svg xmlns="http://www.w3.org/2000/svg" xmlns:xlink="http://www.w3.org/1999/xlink" width="112" height="3" viewBox="0.13 0.463 111.269 2.451"><path paint-order="stroke fill markers" fill-rule="evenodd" d="M.13.463h111.269v2.45H.129V.464z"/></svg></svg><svg width="112" height="4" xmlns="http://www.w3.org/2000/svg" xmlns:xlink="http://www.w3.org/1999/xlink" xmlns:svgjs="http://svgjs.com/svgjs" viewBox="0 0.767 112 2.467" fill="#ccc" x="338" y="412"><svg xmlns="http://www.w3.org/2000/svg" xmlns:xlink="http://www.w3.org/1999/xlink" width="112" height="4" viewBox="0.13 0.835 111.269 2.451"><path paint-order="stroke fill markers" fill-rule="evenodd" d="M.13.835h111.269v2.45H.129V.836z"/></svg></svg><svg width="24" height="23" xmlns="http://www.w3.org/2000/svg" xmlns:xlink="http://www.w3.org/1999/xlink" xmlns:svgjs="http://svgjs.com/svgjs" viewBox="0.5 0 23 23" fill="#ccc" x="299" y="459"><svg xmlns="http://www.w3.org/2000/svg" xmlns:xlink="http://www.w3.org/1999/xlink" width="24" height="23" viewBox="0.896 0.239 22.548 22.548"><path paint-order="stroke fill markers" fill-rule="evenodd" d="M12.17 22.787A11.264 11.264 0 0 1 .896 11.513C.896 5.278 5.936.239 12.17.239c6.234 0 11.274 5.039 11.274 11.274 0 6.234-5.04 11.274-11.274 11.274z"/></svg></svg><svg width="112" height="3" xmlns="http://www.w3.org/2000/svg" xmlns:xlink="http://www.w3.org/1999/xlink" xmlns:svgjs="http://svgjs.com/svgjs" viewBox="0 0.267 112 2.467" fill="#ccc" x="338" y="466"><svg xmlns="http://www.w3.org/2000/svg" xmlns:xlink="http://www.w3.org/1999/xlink" width="112" height="3" viewBox="0.13 0.101 111.269 2.451"><path paint-order="stroke fill markers" fill-rule="evenodd" d="M.13.101h111.269v2.451H.129V.102z"/></svg></svg><svg width="112" height="3" xmlns="http://www.w3.org/2000/svg" xmlns:xlink="http://www.w3.org/1999/xlink" xmlns:svgjs="http://svgjs.com/svgjs" viewBox="0 0.267 112 2.467" fill="#ccc" x="338" y="472"><svg xmlns="http://www.w3.org/2000/svg" xmlns:xlink="http://www.w3.org/1999/xlink" width="112" height="3" viewBox="0.13 0.473 111.269 2.451"><path paint-order="stroke fill markers" fill-rule="evenodd" d="M.13.474h111.269v2.45H.129V.474z"/></svg></svg><svg width="71" height="20" xmlns="http://www.w3.org/2000/svg" xmlns:xlink="http://www.w3.org/1999/xlink" xmlns:svgjs="http://svgjs.com/svgjs" viewBox="0.199 0 70.603 20" fill="#a0616a" x="197" y="436"><svg xmlns="http://www.w3.org/2000/svg" xmlns:xlink="http://www.w3.org/1999/xlink" width="71" height="20" viewBox="0.923 0.203 69.726 19.752"><path paint-order="stroke fill markers" fill-rule="evenodd" d="M1.203 4.796s-2.636 16.569 8.284 15.062c0 0 43.303-9.79 45.562-7.53 2.26 2.259 16.305 3.028 15.572-6.497-.735-9.557-14.819-4.047-14.819-4.047s-21.84 3.012-26.358.753C24.925.277 12.123 1.03 12.123 1.03L1.203 4.796z"/></svg></svg><svg width="33" height="147" xmlns="http://www.w3.org/2000/svg" xmlns:xlink="http://www.w3.org/1999/xlink" xmlns:svgjs="http://svgjs.com/svgjs" viewBox="0.523 0 31.953 147" fill="#2f2e41" x="199" y="494"><svg xmlns="http://www.w3.org/2000/svg" xmlns:xlink="http://www.w3.org/1999/xlink" width="33" height="147" viewBox="0.639 0.826 31.609 145.417"><path paint-order="stroke fill markers" fill-rule="evenodd" d="M32.248.826l-6.004 56.97s-1.883 22.593-7.531 27.488c0 0 0 7.155-1.883 9.414l-2.635 29.747s3.765 10.92 3.388 12.803c-.376 1.883 1.507 7.907 1.13 8.66-.376.754-18.074 0-18.074 0l3.765-60.624L16.077.938 32.248.826z"/></svg></svg><svg width="52" height="26" xmlns="http://www.w3.org/2000/svg" xmlns:xlink="http://www.w3.org/1999/xlink" xmlns:svgjs="http://svgjs.com/svgjs" viewBox="0 0.263 52 25.474" fill="#2f2e41" x="193" y="635"><svg xmlns="http://www.w3.org/2000/svg" xmlns:xlink="http://www.w3.org/1999/xlink" width="52" height="26" viewBox="0.291 0.202 51.492 25.225"><path paint-order="stroke fill markers" fill-rule="evenodd" d="M5.259 1.828s-7.897 19.915-3.777 22.318c4.12 2.403 47.381.686 47.381.686s7.21-4.463-1.03-7.553c0 0-6.866-.343-11.33-3.09S26.89 6.293 26.89 6.293 26.546-1.261 23.8.456a7.056 7.056 0 0 0-3.09 4.806L5.259 1.828z"/></svg></svg><svg width="58" height="29" xmlns="http://www.w3.org/2000/svg" xmlns:xlink="http://www.w3.org/1999/xlink" xmlns:svgjs="http://svgjs.com/svgjs" viewBox="0 0.293 58 28.414" fill="#2f2e41" x="180" y="632"><svg xmlns="http://www.w3.org/2000/svg" xmlns:xlink="http://www.w3.org/1999/xlink" width="58" height="29" viewBox="0.635 0.344 56.471 27.665"><path paint-order="stroke fill markers" fill-rule="evenodd" d="M6.083 2.129s-8.661 21.84-4.142 24.475c4.518 2.636 51.963.754 51.963.754s7.908-4.896-1.13-8.285c0 0-7.53-.376-12.426-3.389-4.895-3.012-10.543-8.66-10.543-8.66S29.43-1.261 26.416.622a7.738 7.738 0 0 0-3.389 5.272L6.083 2.129z"/></svg></svg><svg width="42" height="155" xmlns="http://www.w3.org/2000/svg" xmlns:xlink="http://www.w3.org/1999/xlink" xmlns:svgjs="http://svgjs.com/svgjs" viewBox="0.328 0 41.344 155" fill="#2f2e41" x="180" y="484"><svg xmlns="http://www.w3.org/2000/svg" xmlns:xlink="http://www.w3.org/1999/xlink" width="42" height="155" viewBox="0.066 0.262 41.036 153.843"><path paint-order="stroke fill markers" fill-rule="evenodd" d="M41.102 10.053S36.96 48.837 35.077 57.12a107.085 107.085 0 0 0-2.26 16.568s-.376 12.05-3.765 15.439a10.178 10.178 0 0 0-3.012 7.53s-3.39 38.032-1.507 42.55c1.883 4.52 4.44 10.39 2.556 13.402-1.882 3.012-23.266.908-23.266-1.352 0-2.26 0-4.142-1.13-5.272-1.129-1.13 0-8.284 0-8.284S-1.824 104.19 2.318 94.4c4.142-9.79 6.025-36.525 6.025-36.525s-3.013-30.5-6.778-35.395C-2.201 17.584 2.317.262 2.317.262l38.785 9.79z"/></svg></svg><svg width="20" height="26" xmlns="http://www.w3.org/2000/svg" xmlns:xlink="http://www.w3.org/1999/xlink" xmlns:svgjs="http://svgjs.com/svgjs" viewBox="0.109 0 19.782 26" fill="#a0616a" x="210" y="362"><svg xmlns="http://www.w3.org/2000/svg" xmlns:xlink="http://www.w3.org/1999/xlink" width="20" height="26" viewBox="0.5 0.779 18.82 24.736"><path paint-order="stroke fill markers" fill-rule="evenodd" d="M.5 11.61c.438.997 1.486 1.553 2.44 2.078 5.528 3.046 10.156 7.462 14.715 11.827a17.276 17.276 0 0 1 .685-11.683c.545-1.26 1.258-2.615.87-3.932a4.896 4.896 0 0 0-1.91-2.285 59.19 59.19 0 0 0-5.823-3.973C10.067 2.8 7.168.553 5.55.798c-.085 2.186-.13 4.14-1.087 6.183-.226.485-3.796 5.011-3.963 4.63z"/></svg></svg><svg width="32" height="32" xmlns="http://www.w3.org/2000/svg" xmlns:xlink="http://www.w3.org/1999/xlink" xmlns:svgjs="http://svgjs.com/svgjs" fill="#a0616a" x="214" y="347"><svg xmlns="http://www.w3.org/2000/svg" xmlns:xlink="http://www.w3.org/1999/xlink" width="32" height="32" viewBox="0.324 0.576 30.877 30.877"><path paint-order="stroke fill markers" fill-rule="evenodd" d="M15.762 31.453C7.225 31.453.324 24.552.324 16.014.324 7.477 7.224.576 15.762.576s15.439 6.9 15.439 15.438S24.3 31.453 15.762 31.453z"/></svg></svg><svg width="64" height="132" xmlns="http://www.w3.org/2000/svg" xmlns:xlink="http://www.w3.org/1999/xlink" xmlns:svgjs="http://svgjs.com/svgjs" viewBox="0.28 0 63.44 132" fill="#e6e6e6" x="175" y="372"><svg xmlns="http://www.w3.org/2000/svg" xmlns:xlink="http://www.w3.org/1999/xlink" width="64" height="132" viewBox="0.59 0.046 62.98 131.044"><path paint-order="stroke fill markers" fill-rule="evenodd" d="M55.516 27.54S58.15 14.36 50.62 9.84C43.09 5.323 34.43.051 34.43.051s-2.636-.376-3.766 5.272c0 0-21.463 4.142-23.722 24.476-2.26 20.333 1.506 50.08 1.506 50.08s-3.389 25.982-7.53 39.915c0 0-3.39 3.012 11.672-1.507 15.062-4.518 41.42 12.803 41.42 12.803s2.636-2.636 2.636-4.519c0-1.882 5.648-59.118 6.778-64.39 1.13-5.271-4.519-33.888-7.907-34.642z"/></svg></svg><svg width="41" height="34" xmlns="http://www.w3.org/2000/svg" xmlns:xlink="http://www.w3.org/1999/xlink" xmlns:svgjs="http://svgjs.com/svgjs" viewBox="0 0.707 41 32.586" fill="#3f3d56" x="209" y="338"><svg xmlns="http://www.w3.org/2000/svg" xmlns:xlink="http://www.w3.org/1999/xlink" width="41" height="34" viewBox="0.358 0.841 40.471 32.165"><path paint-order="stroke fill markers" fill-rule="evenodd" d="M17.124 26.605a6.438 6.438 0 0 1 3.028-.807 5.764 5.764 0 0 0 2.995-.892c1.458-1.12 1.565-3.284 2.632-4.781 1.545-2.168 4.626-2.429 7.286-2.32 1.626.066 3.378.163 4.748-.717 1.406-.903 2.044-2.605 2.518-4.207.56-1.896.923-4.213-.466-5.619-.965-.976-2.488-1.17-3.56-2.026-.58-.464-8.248-2.327-15.447-4.002a15.046 15.046 0 0 0-17.55 9.524c-1.662 4.57-3.086 8.865-2.94 9.793C1.074 24.991 5 28.52 5.27 33.007a7.645 7.645 0 0 1 4.667-5.55 1.46 1.46 0 0 1 .951-.115c.39.124.618.514.865.842.645.857 2.67 2.158 3.82 1.55 1.027-.544.26-2.253 1.552-3.13z"/></svg></svg><svg width="49" height="45" xmlns="http://www.w3.org/2000/svg" xmlns:xlink="http://www.w3.org/1999/xlink" xmlns:svgjs="http://svgjs.com/svgjs" viewBox="0.742 0 47.516 45" fill="#3f3d56" x="232" y="415"><svg xmlns="http://www.w3.org/2000/svg" xmlns:xlink="http://www.w3.org/1999/xlink" width="49" height="45" viewBox="0.669 0.051 47.408 44.897"><path paint-order="stroke fill markers" fill-rule="evenodd" d="M1.183 30.773a1.717 1.717 0 0 0-.035 2.416l10.856 11.236a1.714 1.714 0 0 0 2.442.024l33.126-32.983a1.713 1.713 0 0 0-.274-2.65L34.272.33a1.704 1.704 0 0 0-2.132.21L1.183 30.773z"/></svg></svg><svg width="49" height="36" xmlns="http://www.w3.org/2000/svg" xmlns:xlink="http://www.w3.org/1999/xlink" xmlns:svgjs="http://svgjs.com/svgjs" viewBox="0.506 0 47.988 36" fill="#f50057" x="232" y="424"><svg xmlns="http://www.w3.org/2000/svg" xmlns:xlink="http://www.w3.org/1999/xlink" width="49" height="36" viewBox="0.58 0.317 47.497 35.631"><path paint-order="stroke fill markers" fill-rule="evenodd" d="M47.8.317a1.74 1.74 0 0 1-.227.28L14.524 34.202a1.714 1.714 0 0 1-2.441-.024L.993 22.476a1.715 1.715 0 0 1-.203-.256 1.538 1.538 0 0 0 .359 1.97l10.856 11.235a1.713 1.713 0 0 0 2.441.024L47.573 2.466c.574-.573.669-1.47.227-2.15z"/></svg></svg><svg width="43" height="41" xmlns="http://www.w3.org/2000/svg" xmlns:xlink="http://www.w3.org/1999/xlink" xmlns:svgjs="http://svgjs.com/svgjs" viewBox="0 0.211 43 40.578" fill="#fff" x="234" y="416"><svg xmlns="http://www.w3.org/2000/svg" xmlns:xlink="http://www.w3.org/1999/xlink" width="43" height="41" viewBox="0.393 0.754 42.556 40.159"><path paint-order="stroke fill markers" fill-rule="evenodd" d="M42.733 8.723l-1.348-.86a1.284 1.284 0 0 1-1.849 1.687l-8.723-5.998a1.283 1.283 0 0 1 .339-2.282l-.695-.443a.468.468 0 0 0-.583.066L.527 29.733a.467.467 0 0 0 .012.668l10.658 10.385a.467.467 0 0 0 .65-.01L42.812 9.449a.467.467 0 0 0-.078-.725z"/></svg></svg><svg width="32" height="29" xmlns="http://www.w3.org/2000/svg" xmlns:xlink="http://www.w3.org/1999/xlink" xmlns:svgjs="http://svgjs.com/svgjs" viewBox="0.377 0 31.245 29" fill="#e6e6e6" x="242" y="419"><svg xmlns="http://www.w3.org/2000/svg" xmlns:xlink="http://www.w3.org/1999/xlink" width="32" height="29" viewBox="0.862 0.623 30.416 28.23"><path paint-order="stroke fill markers" fill-rule="evenodd" d="M.862 20.364l9.003 8.489L31.278 7.697 20.41.623.862 20.364z"/></svg></svg><svg width="3" height="4" xmlns="http://www.w3.org/2000/svg" xmlns:xlink="http://www.w3.org/1999/xlink" xmlns:svgjs="http://svgjs.com/svgjs" viewBox="0 0.503 3 2.993" fill="#3f3d56" x="272" y="429"><svg xmlns="http://www.w3.org/2000/svg" xmlns:xlink="http://www.w3.org/1999/xlink" width="3" height="4" viewBox="0.355 0.516 2.495 2.49"><path paint-order="stroke fill markers" fill-rule="evenodd" d="M.446 2.917a.319.319 0 0 0 .44 0L2.76 1.045a.312.312 0 0 0 0-.44.319.319 0 0 0-.44 0L.445 2.476a.312.312 0 0 0 0 .44z"/></svg></svg><svg width="3" height="4" xmlns="http://www.w3.org/2000/svg" xmlns:xlink="http://www.w3.org/1999/xlink" xmlns:svgjs="http://svgjs.com/svgjs" viewBox="0 0.5 3 3" fill="#3f3d56" x="269" y="432"><svg xmlns="http://www.w3.org/2000/svg" xmlns:xlink="http://www.w3.org/1999/xlink" width="3" height="4" viewBox="0.2 0.668 2.496 2.495"><path paint-order="stroke fill markers" fill-rule="evenodd" d="M.29 3.072a.313.313 0 0 0 .442 0L2.604 1.2a.312.312 0 0 0-.44-.44L.29 2.63a.312.312 0 0 0 0 .441z"/></svg></svg><svg width="6" height="5" xmlns="http://www.w3.org/2000/svg" xmlns:xlink="http://www.w3.org/1999/xlink" xmlns:svgjs="http://svgjs.com/svgjs" viewBox="0.5 0 5 5" fill="#f50057" x="240" y="444"><svg xmlns="http://www.w3.org/2000/svg" xmlns:xlink="http://www.w3.org/1999/xlink" width="6" height="5" viewBox="0.967 0.547 4.206 4.206"><path paint-order="stroke fill markers" fill-rule="evenodd" d="M3.07 4.753A2.101 2.101 0 0 1 .967 2.65c0-1.163.94-2.103 2.103-2.103 1.163 0 2.104.94 2.104 2.103 0 1.163-.94 2.103-2.104 2.103z"/></svg></svg><svg width="71" height="21" xmlns="http://www.w3.org/2000/svg" xmlns:xlink="http://www.w3.org/1999/xlink" xmlns:svgjs="http://svgjs.com/svgjs" viewBox="0 0.444 71 20.113" fill="#a0616a" x="186" y="430"><svg xmlns="http://www.w3.org/2000/svg" xmlns:xlink="http://www.w3.org/1999/xlink" width="71" height="21" viewBox="0.933 0.342 69.726 19.752"><path paint-order="stroke fill markers" fill-rule="evenodd" d="M1.212 4.935s-2.636 16.568 8.284 15.062c0 0 43.303-9.79 45.562-7.531 2.26 2.26 16.306 3.028 15.573-6.497-.735-9.557-14.82-4.046-14.82-4.046s-21.84 3.012-26.358.753C24.935.416 12.132 1.169 12.132 1.169L1.212 4.935z"/></svg></svg><svg width="30" height="59" xmlns="http://www.w3.org/2000/svg" xmlns:xlink="http://www.w3.org/1999/xlink" xmlns:svgjs="http://svgjs.com/svgjs" viewBox="0.322 0 29.355 59" fill="#e6e6e6" x="185" y="382"><svg xmlns="http://www.w3.org/2000/svg" width="30" height="59" viewBox="0.706 0.595 28.664 57.611"><path paint-order="stroke fill markers" fill-rule="evenodd" d="M17.651.595S.706 2.478.706 26.953v31.253l20.71-8.66s8.661-20.334 7.908-25.982c-.753-5.648-.377-22.216-11.673-22.97z"/></svg></svg></svg>